%TF.GenerationSoftware,KiCad,Pcbnew,8.0.7*%
%TF.CreationDate,2025-02-20T01:00:11-06:00*%
%TF.ProjectId,PLCC-84-Test-Socket-Adapter,504c4343-2d38-4342-9d54-6573742d536f,v1.0*%
%TF.SameCoordinates,Original*%
%TF.FileFunction,Soldermask,Top*%
%TF.FilePolarity,Negative*%
%FSLAX46Y46*%
G04 Gerber Fmt 4.6, Leading zero omitted, Abs format (unit mm)*
G04 Created by KiCad (PCBNEW 8.0.7) date 2025-02-20 01:00:11*
%MOMM*%
%LPD*%
G01*
G04 APERTURE LIST*
%ADD10R,1.600000X1.600000*%
%ADD11C,1.600000*%
%ADD12O,1.700000X1.700000*%
%ADD13R,1.700000X1.700000*%
G04 APERTURE END LIST*
D10*
%TO.C,U1*%
X160020000Y-76495000D03*
D11*
X158750000Y-79035000D03*
X157480000Y-76495000D03*
X156210000Y-79035000D03*
X154940000Y-76495000D03*
X153670000Y-79035000D03*
X152400000Y-76495000D03*
X151130000Y-79035000D03*
X149860000Y-76495000D03*
X148590000Y-79035000D03*
X147320000Y-76495000D03*
X142535000Y-81280000D03*
X145075000Y-82550000D03*
X142535000Y-83820000D03*
X145075000Y-85090000D03*
X142535000Y-86360000D03*
X145075000Y-87630000D03*
X142535000Y-88900000D03*
X145075000Y-90170000D03*
X142535000Y-91440000D03*
X145075000Y-92710000D03*
X142535000Y-93980000D03*
X145075000Y-95250000D03*
X142535000Y-96520000D03*
X145075000Y-97790000D03*
X142535000Y-99060000D03*
X145075000Y-100330000D03*
X142535000Y-101600000D03*
X145075000Y-102870000D03*
X142535000Y-104140000D03*
X145075000Y-105410000D03*
X142535000Y-106680000D03*
X147320000Y-111465000D03*
X148590000Y-108925000D03*
X149860000Y-111465000D03*
X151130000Y-108925000D03*
X152400000Y-111465000D03*
X153670000Y-108925000D03*
X154940000Y-111465000D03*
X156210000Y-108925000D03*
X157480000Y-111465000D03*
X158750000Y-108925000D03*
X160020000Y-111465000D03*
X161290000Y-108925000D03*
X162560000Y-111465000D03*
X163830000Y-108925000D03*
X165100000Y-111465000D03*
X166370000Y-108925000D03*
X167640000Y-111465000D03*
X168910000Y-108925000D03*
X170180000Y-111465000D03*
X171450000Y-108925000D03*
X172720000Y-111465000D03*
X177505000Y-106680000D03*
X174965000Y-105410000D03*
X177505000Y-104140000D03*
X174965000Y-102870000D03*
X177505000Y-101600000D03*
X174965000Y-100330000D03*
X177505000Y-99060000D03*
X174965000Y-97790000D03*
X177505000Y-96520000D03*
X174965000Y-95250000D03*
X177505000Y-93980000D03*
X174965000Y-92710000D03*
X177505000Y-91440000D03*
X174965000Y-90170000D03*
X177505000Y-88900000D03*
X174965000Y-87630000D03*
X177505000Y-86360000D03*
X174965000Y-85090000D03*
X177505000Y-83820000D03*
X174965000Y-82550000D03*
X177505000Y-81280000D03*
X172720000Y-76495000D03*
X171450000Y-79035000D03*
X170180000Y-76495000D03*
X168910000Y-79035000D03*
X167640000Y-76495000D03*
X166370000Y-79035000D03*
X165100000Y-76495000D03*
X163830000Y-79035000D03*
X162560000Y-76495000D03*
X161290000Y-79035000D03*
%TD*%
D12*
%TO.C,J1*%
X137795000Y-68580000D03*
D13*
X135255000Y-68580000D03*
D12*
X137795000Y-71120000D03*
X135255000Y-71120000D03*
X137795000Y-73660000D03*
X135255000Y-73660000D03*
X137795000Y-76200000D03*
X135255000Y-76200000D03*
X137795000Y-78740000D03*
X135255000Y-78740000D03*
X137795000Y-81280000D03*
X135255000Y-81280000D03*
X137795000Y-83820000D03*
X135255000Y-83820000D03*
X137795000Y-86360000D03*
X135255000Y-86360000D03*
X137795000Y-88900000D03*
X135255000Y-88900000D03*
X137795000Y-91440000D03*
X135255000Y-91440000D03*
X137795000Y-93980000D03*
X135255000Y-93980000D03*
X137795000Y-96520000D03*
X135255000Y-96520000D03*
X137795000Y-99060000D03*
X135255000Y-99060000D03*
X137795000Y-101600000D03*
X135255000Y-101600000D03*
X137795000Y-104140000D03*
X135255000Y-104140000D03*
X137795000Y-106680000D03*
X135255000Y-106680000D03*
X137795000Y-109220000D03*
X135255000Y-109220000D03*
X137795000Y-111760000D03*
X135255000Y-111760000D03*
X137795000Y-114300000D03*
X135255000Y-114300000D03*
X137795000Y-116840000D03*
X135255000Y-116840000D03*
X137795000Y-119380000D03*
X135255000Y-119380000D03*
%TD*%
%TO.C,J2*%
X184785000Y-68580000D03*
X182245000Y-68580000D03*
X184785000Y-71120000D03*
X182245000Y-71120000D03*
X184785000Y-73660000D03*
X182245000Y-73660000D03*
X184785000Y-76200000D03*
X182245000Y-76200000D03*
X184785000Y-78740000D03*
X182245000Y-78740000D03*
X184785000Y-81280000D03*
X182245000Y-81280000D03*
X184785000Y-83820000D03*
X182245000Y-83820000D03*
X184785000Y-86360000D03*
X182245000Y-86360000D03*
X184785000Y-88900000D03*
X182245000Y-88900000D03*
X184785000Y-91440000D03*
X182245000Y-91440000D03*
X184785000Y-93980000D03*
X182245000Y-93980000D03*
X184785000Y-96520000D03*
X182245000Y-96520000D03*
X184785000Y-99060000D03*
X182245000Y-99060000D03*
X184785000Y-101600000D03*
X182245000Y-101600000D03*
X184785000Y-104140000D03*
X182245000Y-104140000D03*
X184785000Y-106680000D03*
X182245000Y-106680000D03*
X184785000Y-109220000D03*
X182245000Y-109220000D03*
X184785000Y-111760000D03*
X182245000Y-111760000D03*
X184785000Y-114300000D03*
X182245000Y-114300000D03*
X184785000Y-116840000D03*
X182245000Y-116840000D03*
X184785000Y-119380000D03*
X182245000Y-119380000D03*
%TD*%
M02*
