%TF.GenerationSoftware,KiCad,Pcbnew,8.0.7*%
%TF.CreationDate,2025-02-20T01:00:11-06:00*%
%TF.ProjectId,PLCC-84-Test-Socket-Adapter,504c4343-2d38-4342-9d54-6573742d536f,v1.0*%
%TF.SameCoordinates,Original*%
%TF.FileFunction,Copper,L2,Bot*%
%TF.FilePolarity,Positive*%
%FSLAX46Y46*%
G04 Gerber Fmt 4.6, Leading zero omitted, Abs format (unit mm)*
G04 Created by KiCad (PCBNEW 8.0.7) date 2025-02-20 01:00:11*
%MOMM*%
%LPD*%
G01*
G04 APERTURE LIST*
%TA.AperFunction,ComponentPad*%
%ADD10R,1.600000X1.600000*%
%TD*%
%TA.AperFunction,ComponentPad*%
%ADD11C,1.600000*%
%TD*%
%TA.AperFunction,ComponentPad*%
%ADD12O,1.700000X1.700000*%
%TD*%
%TA.AperFunction,ComponentPad*%
%ADD13R,1.700000X1.700000*%
%TD*%
%TA.AperFunction,Conductor*%
%ADD14C,0.200000*%
%TD*%
G04 APERTURE END LIST*
D10*
%TO.P,U1,1,INPUT/GCLR*%
%TO.N,/Pin1*%
X160020000Y-76495000D03*
D11*
%TO.P,U1,2,INPUT/OE2/GCLK2*%
%TO.N,/Pin2*%
X158750000Y-79035000D03*
%TO.P,U1,3,VCCINT*%
%TO.N,/Pin3*%
X157480000Y-76495000D03*
%TO.P,U1,4,I/O*%
%TO.N,/Pin4*%
X156210000Y-79035000D03*
%TO.P,U1,5,I/O*%
%TO.N,/Pin5*%
X154940000Y-76495000D03*
%TO.P,U1,6,I/O*%
%TO.N,/Pin6*%
X153670000Y-79035000D03*
%TO.P,U1,7,GND*%
%TO.N,/Pin7*%
X152400000Y-76495000D03*
%TO.P,U1,8,I/O*%
%TO.N,/Pin8*%
X151130000Y-79035000D03*
%TO.P,U1,9,I/O*%
%TO.N,/Pin9*%
X149860000Y-76495000D03*
%TO.P,U1,10,I/O*%
%TO.N,/Pin10*%
X148590000Y-79035000D03*
%TO.P,U1,11,I/O*%
%TO.N,/Pin11*%
X147320000Y-76495000D03*
%TO.P,U1,12,I/O/PD1*%
%TO.N,/Pin12*%
X142535000Y-81280000D03*
%TO.P,U1,13,VCCIO*%
%TO.N,/Pin13*%
X145075000Y-82550000D03*
%TO.P,U1,14,I/O/TDI*%
%TO.N,/Pin14*%
X142535000Y-83820000D03*
%TO.P,U1,15,I/O*%
%TO.N,/Pin15*%
X145075000Y-85090000D03*
%TO.P,U1,16,I/O*%
%TO.N,/Pin16*%
X142535000Y-86360000D03*
%TO.P,U1,17,I/O*%
%TO.N,/Pin17*%
X145075000Y-87630000D03*
%TO.P,U1,18,I/O*%
%TO.N,/Pin18*%
X142535000Y-88900000D03*
%TO.P,U1,19,GND*%
%TO.N,/Pin19*%
X145075000Y-90170000D03*
%TO.P,U1,20,I/O*%
%TO.N,/Pin20*%
X142535000Y-91440000D03*
%TO.P,U1,21,I/O*%
%TO.N,/Pin21*%
X145075000Y-92710000D03*
%TO.P,U1,22,I/O*%
%TO.N,/Pin22*%
X142535000Y-93980000D03*
%TO.P,U1,23,I/O/TMS*%
%TO.N,/Pin23*%
X145075000Y-95250000D03*
%TO.P,U1,24,I/O*%
%TO.N,/Pin24*%
X142535000Y-96520000D03*
%TO.P,U1,25,I/O*%
%TO.N,/Pin25*%
X145075000Y-97790000D03*
%TO.P,U1,26,VCCIO*%
%TO.N,/Pin26*%
X142535000Y-99060000D03*
%TO.P,U1,27,I/O*%
%TO.N,/Pin27*%
X145075000Y-100330000D03*
%TO.P,U1,28,I/O*%
%TO.N,/Pin28*%
X142535000Y-101600000D03*
%TO.P,U1,29,I/O*%
%TO.N,/Pin29*%
X145075000Y-102870000D03*
%TO.P,U1,30,I/O*%
%TO.N,/Pin30*%
X142535000Y-104140000D03*
%TO.P,U1,31,I/O*%
%TO.N,/Pin31*%
X145075000Y-105410000D03*
%TO.P,U1,32,GND*%
%TO.N,/Pin32*%
X142535000Y-106680000D03*
%TO.P,U1,33,I/O*%
%TO.N,/Pin33*%
X147320000Y-111465000D03*
%TO.P,U1,34,I/O*%
%TO.N,/Pin34*%
X148590000Y-108925000D03*
%TO.P,U1,35,I/O*%
%TO.N,/Pin35*%
X149860000Y-111465000D03*
%TO.P,U1,36,I/O*%
%TO.N,/Pin36*%
X151130000Y-108925000D03*
%TO.P,U1,37,I/O*%
%TO.N,/Pin37*%
X152400000Y-111465000D03*
%TO.P,U1,38,VCCIO*%
%TO.N,/Pin38*%
X153670000Y-108925000D03*
%TO.P,U1,39,I/O*%
%TO.N,/Pin39*%
X154940000Y-111465000D03*
%TO.P,U1,40,I/O*%
%TO.N,/Pin40*%
X156210000Y-108925000D03*
%TO.P,U1,41,I/O*%
%TO.N,/Pin41*%
X157480000Y-111465000D03*
%TO.P,U1,42,GND*%
%TO.N,/Pin42*%
X158750000Y-108925000D03*
%TO.P,U1,43,VCCINT*%
%TO.N,/Pin43*%
X160020000Y-111465000D03*
%TO.P,U1,44,I/O*%
%TO.N,/Pin44*%
X161290000Y-108925000D03*
%TO.P,U1,45,I/O/PD2*%
%TO.N,/Pin45*%
X162560000Y-111465000D03*
%TO.P,U1,46,I/O*%
%TO.N,/Pin46*%
X163830000Y-108925000D03*
%TO.P,U1,47,GND*%
%TO.N,/Pin47*%
X165100000Y-111465000D03*
%TO.P,U1,48,I/O*%
%TO.N,/Pin48*%
X166370000Y-108925000D03*
%TO.P,U1,49,I/O*%
%TO.N,/Pin49*%
X167640000Y-111465000D03*
%TO.P,U1,50,I/O*%
%TO.N,/Pin50*%
X168910000Y-108925000D03*
%TO.P,U1,51,I/O*%
%TO.N,/Pin51*%
X170180000Y-111465000D03*
%TO.P,U1,52,I/O*%
%TO.N,/Pin52*%
X171450000Y-108925000D03*
%TO.P,U1,53,VCCIO*%
%TO.N,/Pin53*%
X172720000Y-111465000D03*
%TO.P,U1,54,I/O*%
%TO.N,/Pin54*%
X177505000Y-106680000D03*
%TO.P,U1,55,I/O*%
%TO.N,/Pin55*%
X174965000Y-105410000D03*
%TO.P,U1,56,I/O*%
%TO.N,/Pin56*%
X177505000Y-104140000D03*
%TO.P,U1,57,I/O*%
%TO.N,/Pin57*%
X174965000Y-102870000D03*
%TO.P,U1,58,I/O*%
%TO.N,/Pin58*%
X177505000Y-101600000D03*
%TO.P,U1,59,GND*%
%TO.N,/Pin59*%
X174965000Y-100330000D03*
%TO.P,U1,60,I/O*%
%TO.N,/Pin60*%
X177505000Y-99060000D03*
%TO.P,U1,61,I/O*%
%TO.N,/Pin61*%
X174965000Y-97790000D03*
%TO.P,U1,62,I/O/TCK*%
%TO.N,/Pin62*%
X177505000Y-96520000D03*
%TO.P,U1,63,I/O*%
%TO.N,/Pin63*%
X174965000Y-95250000D03*
%TO.P,U1,64,I/O*%
%TO.N,/Pin64*%
X177505000Y-93980000D03*
%TO.P,U1,65,I/O*%
%TO.N,/Pin65*%
X174965000Y-92710000D03*
%TO.P,U1,66,VCCIO*%
%TO.N,/Pin66*%
X177505000Y-91440000D03*
%TO.P,U1,67,I/O*%
%TO.N,/Pin67*%
X174965000Y-90170000D03*
%TO.P,U1,68,I/O*%
%TO.N,/Pin68*%
X177505000Y-88900000D03*
%TO.P,U1,69,I/O*%
%TO.N,/Pin69*%
X174965000Y-87630000D03*
%TO.P,U1,70,I/O*%
%TO.N,/Pin70*%
X177505000Y-86360000D03*
%TO.P,U1,71,I/O/TDO*%
%TO.N,/Pin71*%
X174965000Y-85090000D03*
%TO.P,U1,72,GND*%
%TO.N,/Pin72*%
X177505000Y-83820000D03*
%TO.P,U1,73,I/O*%
%TO.N,/Pin73*%
X174965000Y-82550000D03*
%TO.P,U1,74,I/O*%
%TO.N,/Pin74*%
X177505000Y-81280000D03*
%TO.P,U1,75,I/O*%
%TO.N,/Pin75*%
X172720000Y-76495000D03*
%TO.P,U1,76,I/O*%
%TO.N,/Pin76*%
X171450000Y-79035000D03*
%TO.P,U1,77,I/O*%
%TO.N,/Pin77*%
X170180000Y-76495000D03*
%TO.P,U1,78,VCCIO*%
%TO.N,/Pin78*%
X168910000Y-79035000D03*
%TO.P,U1,79,I/O*%
%TO.N,/Pin79*%
X167640000Y-76495000D03*
%TO.P,U1,80,I/O*%
%TO.N,/Pin80*%
X166370000Y-79035000D03*
%TO.P,U1,81,I/O/GCLK3*%
%TO.N,/Pin81*%
X165100000Y-76495000D03*
%TO.P,U1,82,GND*%
%TO.N,/Pin82*%
X163830000Y-79035000D03*
%TO.P,U1,83,INPUT/GCLK1*%
%TO.N,/Pin83*%
X162560000Y-76495000D03*
%TO.P,U1,84,INPUT/OE1*%
%TO.N,/Pin84*%
X161290000Y-79035000D03*
%TD*%
D12*
%TO.P,J1,1,Pin_1*%
%TO.N,/Pin2*%
X137795000Y-68580000D03*
D13*
%TO.P,J1,2,Pin_2*%
%TO.N,/Pin1*%
X135255000Y-68580000D03*
D12*
%TO.P,J1,3,Pin_3*%
%TO.N,/Pin4*%
X137795000Y-71120000D03*
%TO.P,J1,4,Pin_4*%
%TO.N,/Pin3*%
X135255000Y-71120000D03*
%TO.P,J1,5,Pin_5*%
%TO.N,/Pin6*%
X137795000Y-73660000D03*
%TO.P,J1,6,Pin_6*%
%TO.N,/Pin5*%
X135255000Y-73660000D03*
%TO.P,J1,7,Pin_7*%
%TO.N,/Pin8*%
X137795000Y-76200000D03*
%TO.P,J1,8,Pin_8*%
%TO.N,/Pin7*%
X135255000Y-76200000D03*
%TO.P,J1,9,Pin_9*%
%TO.N,/Pin10*%
X137795000Y-78740000D03*
%TO.P,J1,10,Pin_10*%
%TO.N,/Pin9*%
X135255000Y-78740000D03*
%TO.P,J1,11,Pin_11*%
%TO.N,/Pin12*%
X137795000Y-81280000D03*
%TO.P,J1,12,Pin_12*%
%TO.N,/Pin11*%
X135255000Y-81280000D03*
%TO.P,J1,13,Pin_13*%
%TO.N,/Pin14*%
X137795000Y-83820000D03*
%TO.P,J1,14,Pin_14*%
%TO.N,/Pin13*%
X135255000Y-83820000D03*
%TO.P,J1,15,Pin_15*%
%TO.N,/Pin16*%
X137795000Y-86360000D03*
%TO.P,J1,16,Pin_16*%
%TO.N,/Pin15*%
X135255000Y-86360000D03*
%TO.P,J1,17,Pin_17*%
%TO.N,/Pin18*%
X137795000Y-88900000D03*
%TO.P,J1,18,Pin_18*%
%TO.N,/Pin17*%
X135255000Y-88900000D03*
%TO.P,J1,19,Pin_19*%
%TO.N,/Pin20*%
X137795000Y-91440000D03*
%TO.P,J1,20,Pin_20*%
%TO.N,/Pin19*%
X135255000Y-91440000D03*
%TO.P,J1,21,Pin_21*%
%TO.N,/Pin22*%
X137795000Y-93980000D03*
%TO.P,J1,22,Pin_22*%
%TO.N,/Pin21*%
X135255000Y-93980000D03*
%TO.P,J1,23,Pin_23*%
%TO.N,/Pin24*%
X137795000Y-96520000D03*
%TO.P,J1,24,Pin_24*%
%TO.N,/Pin23*%
X135255000Y-96520000D03*
%TO.P,J1,25,Pin_25*%
%TO.N,/Pin26*%
X137795000Y-99060000D03*
%TO.P,J1,26,Pin_26*%
%TO.N,/Pin25*%
X135255000Y-99060000D03*
%TO.P,J1,27,Pin_27*%
%TO.N,/Pin28*%
X137795000Y-101600000D03*
%TO.P,J1,28,Pin_28*%
%TO.N,/Pin27*%
X135255000Y-101600000D03*
%TO.P,J1,29,Pin_29*%
%TO.N,/Pin30*%
X137795000Y-104140000D03*
%TO.P,J1,30,Pin_30*%
%TO.N,/Pin29*%
X135255000Y-104140000D03*
%TO.P,J1,31,Pin_31*%
%TO.N,/Pin32*%
X137795000Y-106680000D03*
%TO.P,J1,32,Pin_32*%
%TO.N,/Pin31*%
X135255000Y-106680000D03*
%TO.P,J1,33,Pin_33*%
%TO.N,/Pin34*%
X137795000Y-109220000D03*
%TO.P,J1,34,Pin_34*%
%TO.N,/Pin33*%
X135255000Y-109220000D03*
%TO.P,J1,35,Pin_35*%
%TO.N,/Pin36*%
X137795000Y-111760000D03*
%TO.P,J1,36,Pin_36*%
%TO.N,/Pin35*%
X135255000Y-111760000D03*
%TO.P,J1,37,Pin_37*%
%TO.N,/Pin38*%
X137795000Y-114300000D03*
%TO.P,J1,38,Pin_38*%
%TO.N,/Pin37*%
X135255000Y-114300000D03*
%TO.P,J1,39,Pin_39*%
%TO.N,/Pin40*%
X137795000Y-116840000D03*
%TO.P,J1,40,Pin_40*%
%TO.N,/Pin39*%
X135255000Y-116840000D03*
%TO.P,J1,41,Pin_41*%
%TO.N,/Pin42*%
X137795000Y-119380000D03*
%TO.P,J1,42,Pin_42*%
%TO.N,/Pin41*%
X135255000Y-119380000D03*
%TD*%
%TO.P,J2,1,Pin_1*%
%TO.N,/Pin84*%
X184785000Y-68580000D03*
%TO.P,J2,2,Pin_2*%
%TO.N,/Pin83*%
X182245000Y-68580000D03*
%TO.P,J2,3,Pin_3*%
%TO.N,/Pin82*%
X184785000Y-71120000D03*
%TO.P,J2,4,Pin_4*%
%TO.N,/Pin81*%
X182245000Y-71120000D03*
%TO.P,J2,5,Pin_5*%
%TO.N,/Pin80*%
X184785000Y-73660000D03*
%TO.P,J2,6,Pin_6*%
%TO.N,/Pin79*%
X182245000Y-73660000D03*
%TO.P,J2,7,Pin_7*%
%TO.N,/Pin78*%
X184785000Y-76200000D03*
%TO.P,J2,8,Pin_8*%
%TO.N,/Pin77*%
X182245000Y-76200000D03*
%TO.P,J2,9,Pin_9*%
%TO.N,/Pin76*%
X184785000Y-78740000D03*
%TO.P,J2,10,Pin_10*%
%TO.N,/Pin75*%
X182245000Y-78740000D03*
%TO.P,J2,11,Pin_11*%
%TO.N,/Pin74*%
X184785000Y-81280000D03*
%TO.P,J2,12,Pin_12*%
%TO.N,/Pin73*%
X182245000Y-81280000D03*
%TO.P,J2,13,Pin_13*%
%TO.N,/Pin72*%
X184785000Y-83820000D03*
%TO.P,J2,14,Pin_14*%
%TO.N,/Pin71*%
X182245000Y-83820000D03*
%TO.P,J2,15,Pin_15*%
%TO.N,/Pin70*%
X184785000Y-86360000D03*
%TO.P,J2,16,Pin_16*%
%TO.N,/Pin69*%
X182245000Y-86360000D03*
%TO.P,J2,17,Pin_17*%
%TO.N,/Pin68*%
X184785000Y-88900000D03*
%TO.P,J2,18,Pin_18*%
%TO.N,/Pin67*%
X182245000Y-88900000D03*
%TO.P,J2,19,Pin_19*%
%TO.N,/Pin66*%
X184785000Y-91440000D03*
%TO.P,J2,20,Pin_20*%
%TO.N,/Pin65*%
X182245000Y-91440000D03*
%TO.P,J2,21,Pin_21*%
%TO.N,/Pin64*%
X184785000Y-93980000D03*
%TO.P,J2,22,Pin_22*%
%TO.N,/Pin63*%
X182245000Y-93980000D03*
%TO.P,J2,23,Pin_23*%
%TO.N,/Pin62*%
X184785000Y-96520000D03*
%TO.P,J2,24,Pin_24*%
%TO.N,/Pin61*%
X182245000Y-96520000D03*
%TO.P,J2,25,Pin_25*%
%TO.N,/Pin60*%
X184785000Y-99060000D03*
%TO.P,J2,26,Pin_26*%
%TO.N,/Pin59*%
X182245000Y-99060000D03*
%TO.P,J2,27,Pin_27*%
%TO.N,/Pin58*%
X184785000Y-101600000D03*
%TO.P,J2,28,Pin_28*%
%TO.N,/Pin57*%
X182245000Y-101600000D03*
%TO.P,J2,29,Pin_29*%
%TO.N,/Pin56*%
X184785000Y-104140000D03*
%TO.P,J2,30,Pin_30*%
%TO.N,/Pin55*%
X182245000Y-104140000D03*
%TO.P,J2,31,Pin_31*%
%TO.N,/Pin54*%
X184785000Y-106680000D03*
%TO.P,J2,32,Pin_32*%
%TO.N,/Pin53*%
X182245000Y-106680000D03*
%TO.P,J2,33,Pin_33*%
%TO.N,/Pin52*%
X184785000Y-109220000D03*
%TO.P,J2,34,Pin_34*%
%TO.N,/Pin51*%
X182245000Y-109220000D03*
%TO.P,J2,35,Pin_35*%
%TO.N,/Pin50*%
X184785000Y-111760000D03*
%TO.P,J2,36,Pin_36*%
%TO.N,/Pin49*%
X182245000Y-111760000D03*
%TO.P,J2,37,Pin_37*%
%TO.N,/Pin48*%
X184785000Y-114300000D03*
%TO.P,J2,38,Pin_38*%
%TO.N,/Pin47*%
X182245000Y-114300000D03*
%TO.P,J2,39,Pin_39*%
%TO.N,/Pin46*%
X184785000Y-116840000D03*
%TO.P,J2,40,Pin_40*%
%TO.N,/Pin45*%
X182245000Y-116840000D03*
%TO.P,J2,41,Pin_41*%
%TO.N,/Pin44*%
X184785000Y-119380000D03*
%TO.P,J2,42,Pin_42*%
%TO.N,/Pin43*%
X182245000Y-119380000D03*
%TD*%
D14*
%TO.N,/Pin20*%
X137795000Y-91440000D02*
X142535000Y-91440000D01*
%TO.N,/Pin23*%
X143256000Y-97790000D02*
X145075000Y-95971000D01*
X135255000Y-96520000D02*
X136525000Y-97790000D01*
X145075000Y-95971000D02*
X145075000Y-95250000D01*
X136525000Y-97790000D02*
X143256000Y-97790000D01*
%TO.N,/Pin11*%
X149860000Y-79756000D02*
X149860000Y-78486000D01*
X145034000Y-80645000D02*
X148971000Y-80645000D01*
X135255000Y-81280000D02*
X136525000Y-82550000D01*
X149860000Y-78486000D02*
X147869000Y-76495000D01*
X148971000Y-80645000D02*
X149860000Y-79756000D01*
X143129000Y-82550000D02*
X145034000Y-80645000D01*
X136525000Y-82550000D02*
X143129000Y-82550000D01*
X147869000Y-76495000D02*
X147320000Y-76495000D01*
%TO.N,/Pin15*%
X136525000Y-87630000D02*
X143256000Y-87630000D01*
X143256000Y-87630000D02*
X145075000Y-85811000D01*
X135255000Y-86360000D02*
X136525000Y-87630000D01*
X145075000Y-85811000D02*
X145075000Y-85090000D01*
%TO.N,/Pin26*%
X137795000Y-99060000D02*
X142535000Y-99060000D01*
%TO.N,/Pin31*%
X136525000Y-107950000D02*
X144145000Y-107950000D01*
X144145000Y-107950000D02*
X145075000Y-107020000D01*
X145075000Y-107020000D02*
X145075000Y-105410000D01*
X135255000Y-106680000D02*
X136525000Y-107950000D01*
%TO.N,/Pin35*%
X147914000Y-113411000D02*
X149860000Y-111465000D01*
X136525000Y-113030000D02*
X139192000Y-113030000D01*
X135255000Y-111760000D02*
X136525000Y-113030000D01*
X139192000Y-113030000D02*
X139573000Y-113411000D01*
X139573000Y-113411000D02*
X147914000Y-113411000D01*
%TO.N,/Pin16*%
X137795000Y-86360000D02*
X142535000Y-86360000D01*
%TO.N,/Pin21*%
X135255000Y-93980000D02*
X136525000Y-95250000D01*
X136525000Y-95250000D02*
X143129000Y-95250000D01*
X143129000Y-95250000D02*
X145075000Y-93304000D01*
X145075000Y-93304000D02*
X145075000Y-92710000D01*
%TO.N,/Pin4*%
X138684000Y-71120000D02*
X137795000Y-71120000D01*
X154305000Y-69723000D02*
X140081000Y-69723000D01*
X156210000Y-71628000D02*
X154305000Y-69723000D01*
X156210000Y-79035000D02*
X156210000Y-71628000D01*
X140081000Y-69723000D02*
X138684000Y-71120000D01*
%TO.N,/Pin3*%
X138825000Y-69850000D02*
X136525000Y-69850000D01*
X139841000Y-68834000D02*
X138825000Y-69850000D01*
X157480000Y-70485000D02*
X155829000Y-68834000D01*
X136525000Y-69850000D02*
X135255000Y-71120000D01*
X155829000Y-68834000D02*
X139841000Y-68834000D01*
X157480000Y-76495000D02*
X157480000Y-70485000D01*
%TO.N,/Pin25*%
X136525000Y-100330000D02*
X143129000Y-100330000D01*
X143129000Y-100330000D02*
X145075000Y-98384000D01*
X135255000Y-99060000D02*
X136525000Y-100330000D01*
X145075000Y-98384000D02*
X145075000Y-97790000D01*
%TO.N,/Pin9*%
X149860000Y-76495000D02*
X148760000Y-75395000D01*
X136525000Y-77470000D02*
X135255000Y-78740000D01*
X140505000Y-75395000D02*
X138430000Y-77470000D01*
X138430000Y-77470000D02*
X136525000Y-77470000D01*
X148760000Y-75395000D02*
X140505000Y-75395000D01*
%TO.N,/Pin28*%
X137795000Y-101600000D02*
X142535000Y-101600000D01*
%TO.N,/Pin33*%
X136525000Y-110490000D02*
X135255000Y-109220000D01*
X146345000Y-110490000D02*
X136525000Y-110490000D01*
X147320000Y-111465000D02*
X146345000Y-110490000D01*
%TO.N,/Pin18*%
X137795000Y-88900000D02*
X142535000Y-88900000D01*
%TO.N,/Pin6*%
X151765000Y-71755000D02*
X140017500Y-71755000D01*
X140017500Y-71755000D02*
X138112500Y-73660000D01*
X138112500Y-73660000D02*
X137795000Y-73660000D01*
X153670000Y-79035000D02*
X153670000Y-73660000D01*
X153670000Y-73660000D02*
X151765000Y-71755000D01*
%TO.N,/Pin19*%
X143129000Y-92710000D02*
X145075000Y-90764000D01*
X136525000Y-92710000D02*
X143129000Y-92710000D01*
X135255000Y-91440000D02*
X136525000Y-92710000D01*
X145075000Y-90764000D02*
X145075000Y-90170000D01*
%TO.N,/Pin32*%
X142535000Y-106680000D02*
X137795000Y-106680000D01*
%TO.N,/Pin13*%
X135255000Y-83820000D02*
X136525000Y-85090000D01*
X143129000Y-85090000D02*
X145075000Y-83144000D01*
X136525000Y-85090000D02*
X143129000Y-85090000D01*
X145075000Y-83144000D02*
X145075000Y-82550000D01*
%TO.N,/Pin36*%
X147828000Y-112776000D02*
X140300343Y-112776000D01*
X151130000Y-108925000D02*
X150536000Y-108925000D01*
X150536000Y-108925000D02*
X148590000Y-110871000D01*
X148590000Y-112014000D02*
X147828000Y-112776000D01*
X148590000Y-110871000D02*
X148590000Y-112014000D01*
X140300343Y-112776000D02*
X139284343Y-111760000D01*
X139284343Y-111760000D02*
X137795000Y-111760000D01*
%TO.N,/Pin30*%
X137795000Y-104140000D02*
X142535000Y-104140000D01*
%TO.N,/Pin39*%
X136525000Y-118110000D02*
X152400000Y-118110000D01*
X152400000Y-118110000D02*
X154940000Y-115570000D01*
X135255000Y-116840000D02*
X136525000Y-118110000D01*
X154940000Y-115570000D02*
X154940000Y-111465000D01*
%TO.N,/Pin12*%
X137795000Y-81280000D02*
X142535000Y-81280000D01*
%TO.N,/Pin29*%
X145075000Y-103591000D02*
X145075000Y-102870000D01*
X135255000Y-104140000D02*
X136525000Y-105410000D01*
X143256000Y-105410000D02*
X145075000Y-103591000D01*
X136525000Y-105410000D02*
X143256000Y-105410000D01*
%TO.N,/Pin22*%
X137795000Y-93980000D02*
X142535000Y-93980000D01*
%TO.N,/Pin40*%
X153670000Y-110871000D02*
X153670000Y-114935000D01*
X153670000Y-114935000D02*
X151765000Y-116840000D01*
X155616000Y-108925000D02*
X153670000Y-110871000D01*
X151765000Y-116840000D02*
X137795000Y-116840000D01*
X156210000Y-108925000D02*
X155616000Y-108925000D01*
%TO.N,/Pin27*%
X143256000Y-102870000D02*
X145075000Y-101051000D01*
X136525000Y-102870000D02*
X143256000Y-102870000D01*
X145075000Y-101051000D02*
X145075000Y-100330000D01*
X135255000Y-101600000D02*
X136525000Y-102870000D01*
%TO.N,/Pin42*%
X158750000Y-108925000D02*
X158156000Y-108925000D01*
X153035000Y-119380000D02*
X137795000Y-119380000D01*
X156210000Y-116205000D02*
X153035000Y-119380000D01*
X158156000Y-108925000D02*
X156210000Y-110871000D01*
X156210000Y-110871000D02*
X156210000Y-116205000D01*
%TO.N,/Pin5*%
X152654000Y-70739000D02*
X140081000Y-70739000D01*
X138430000Y-72390000D02*
X136525000Y-72390000D01*
X140081000Y-70739000D02*
X138430000Y-72390000D01*
X154940000Y-73025000D02*
X152654000Y-70739000D01*
X136525000Y-72390000D02*
X135255000Y-73660000D01*
X154940000Y-76495000D02*
X154940000Y-73025000D01*
%TO.N,/Pin24*%
X137795000Y-96520000D02*
X142535000Y-96520000D01*
%TO.N,/Pin8*%
X140462000Y-74168000D02*
X138430000Y-76200000D01*
X150368000Y-74168000D02*
X140462000Y-74168000D01*
X151130000Y-79035000D02*
X151130000Y-74930000D01*
X138430000Y-76200000D02*
X137795000Y-76200000D01*
X151130000Y-74930000D02*
X150368000Y-74168000D01*
%TO.N,/Pin34*%
X148590000Y-108925000D02*
X148295000Y-109220000D01*
X148295000Y-109220000D02*
X137795000Y-109220000D01*
%TO.N,/Pin14*%
X137795000Y-83820000D02*
X142535000Y-83820000D01*
%TO.N,/Pin41*%
X153635000Y-120685000D02*
X157480000Y-116840000D01*
X135255000Y-119380000D02*
X136560000Y-120685000D01*
X136560000Y-120685000D02*
X153635000Y-120685000D01*
X157480000Y-116840000D02*
X157480000Y-111465000D01*
%TO.N,/Pin1*%
X136560000Y-67275000D02*
X135255000Y-68580000D01*
X160020000Y-69088000D02*
X158207000Y-67275000D01*
X158207000Y-67275000D02*
X136560000Y-67275000D01*
X160020000Y-76495000D02*
X160020000Y-69088000D01*
%TO.N,/Pin17*%
X136525000Y-90170000D02*
X143129000Y-90170000D01*
X145075000Y-88224000D02*
X145075000Y-87630000D01*
X135255000Y-88900000D02*
X136525000Y-90170000D01*
X143129000Y-90170000D02*
X145075000Y-88224000D01*
%TO.N,/Pin37*%
X152400000Y-114300000D02*
X152400000Y-111465000D01*
X151130000Y-115570000D02*
X152400000Y-114300000D01*
X135255000Y-114300000D02*
X136525000Y-115570000D01*
X136525000Y-115570000D02*
X151130000Y-115570000D01*
%TO.N,/Pin2*%
X158750000Y-69850000D02*
X157099000Y-68199000D01*
X158750000Y-79035000D02*
X158750000Y-69850000D01*
X138176000Y-68199000D02*
X137795000Y-68580000D01*
X157099000Y-68199000D02*
X138176000Y-68199000D01*
%TO.N,/Pin7*%
X138430000Y-74930000D02*
X136525000Y-74930000D01*
X152400000Y-74295000D02*
X151130000Y-73025000D01*
X140335000Y-73025000D02*
X138430000Y-74930000D01*
X136525000Y-74930000D02*
X135255000Y-76200000D01*
X152400000Y-76495000D02*
X152400000Y-74295000D01*
X151130000Y-73025000D02*
X140335000Y-73025000D01*
%TO.N,/Pin38*%
X150495000Y-114300000D02*
X137795000Y-114300000D01*
X153076000Y-108925000D02*
X151130000Y-110871000D01*
X151130000Y-110871000D02*
X151130000Y-113665000D01*
X151130000Y-113665000D02*
X150495000Y-114300000D01*
X153670000Y-108925000D02*
X153076000Y-108925000D01*
%TO.N,/Pin10*%
X148295000Y-78740000D02*
X137795000Y-78740000D01*
X148590000Y-79035000D02*
X148295000Y-78740000D01*
%TO.N,/Pin45*%
X181991000Y-117094000D02*
X182245000Y-116840000D01*
X165354000Y-117094000D02*
X181991000Y-117094000D01*
X162560000Y-114300000D02*
X165354000Y-117094000D01*
X162560000Y-111465000D02*
X162560000Y-114300000D01*
%TO.N,/Pin50*%
X179832000Y-113030000D02*
X183007000Y-113030000D01*
X183007000Y-113030000D02*
X184277000Y-111760000D01*
X168783000Y-114808000D02*
X178054000Y-114808000D01*
X178054000Y-114808000D02*
X179832000Y-113030000D01*
X184277000Y-111760000D02*
X184785000Y-111760000D01*
X168910000Y-108925000D02*
X168189000Y-108925000D01*
X166370000Y-110744000D02*
X166370000Y-112395000D01*
X168189000Y-108925000D02*
X166370000Y-110744000D01*
X166370000Y-112395000D02*
X168783000Y-114808000D01*
%TO.N,/Pin61*%
X174965000Y-97790000D02*
X180975000Y-97790000D01*
X180975000Y-97790000D02*
X182245000Y-96520000D01*
%TO.N,/Pin48*%
X184658000Y-114300000D02*
X184785000Y-114300000D01*
X166370000Y-108925000D02*
X165776000Y-108925000D01*
X180340000Y-115570000D02*
X183388000Y-115570000D01*
X183388000Y-115570000D02*
X184658000Y-114300000D01*
X166370000Y-116205000D02*
X179705000Y-116205000D01*
X179705000Y-116205000D02*
X180340000Y-115570000D01*
X163830000Y-113665000D02*
X166370000Y-116205000D01*
X165776000Y-108925000D02*
X163830000Y-110871000D01*
X163830000Y-110871000D02*
X163830000Y-113665000D01*
%TO.N,/Pin64*%
X183515000Y-92710000D02*
X184785000Y-93980000D01*
X177505000Y-93980000D02*
X180340000Y-93980000D01*
X181610000Y-92710000D02*
X183515000Y-92710000D01*
X180340000Y-93980000D02*
X181610000Y-92710000D01*
%TO.N,/Pin46*%
X163830000Y-108925000D02*
X163236000Y-108925000D01*
X183515000Y-118110000D02*
X184785000Y-116840000D01*
X163830000Y-118110000D02*
X183515000Y-118110000D01*
X161290000Y-115570000D02*
X163830000Y-118110000D01*
X161290000Y-110871000D02*
X161290000Y-115570000D01*
X163236000Y-108925000D02*
X161290000Y-110871000D01*
%TO.N,/Pin52*%
X170856000Y-108925000D02*
X168910000Y-110871000D01*
X179451000Y-110490000D02*
X183515000Y-110490000D01*
X168910000Y-112169314D02*
X170278686Y-113538000D01*
X176403000Y-113538000D02*
X179451000Y-110490000D01*
X171450000Y-108925000D02*
X170856000Y-108925000D01*
X183515000Y-110490000D02*
X184785000Y-109220000D01*
X170278686Y-113538000D02*
X176403000Y-113538000D01*
X168910000Y-110871000D02*
X168910000Y-112169314D01*
%TO.N,/Pin59*%
X174965000Y-100330000D02*
X180975000Y-100330000D01*
X180975000Y-100330000D02*
X182245000Y-99060000D01*
%TO.N,/Pin74*%
X183515000Y-80010000D02*
X184785000Y-81280000D01*
X178775000Y-80010000D02*
X183515000Y-80010000D01*
X177505000Y-81280000D02*
X178775000Y-80010000D01*
%TO.N,/Pin69*%
X174965000Y-87630000D02*
X180975000Y-87630000D01*
X180975000Y-87630000D02*
X182245000Y-86360000D01*
%TO.N,/Pin51*%
X170465635Y-111465000D02*
X171903635Y-112903000D01*
X175387000Y-112903000D02*
X179070000Y-109220000D01*
X171903635Y-112903000D02*
X175387000Y-112903000D01*
X170180000Y-111465000D02*
X170465635Y-111465000D01*
X179070000Y-109220000D02*
X182245000Y-109220000D01*
%TO.N,/Pin62*%
X183515000Y-95250000D02*
X184785000Y-96520000D01*
X177505000Y-96520000D02*
X180340000Y-96520000D01*
X180340000Y-96520000D02*
X181610000Y-95250000D01*
X181610000Y-95250000D02*
X183515000Y-95250000D01*
%TO.N,/Pin60*%
X183515000Y-97790000D02*
X184785000Y-99060000D01*
X180270686Y-99060000D02*
X181540686Y-97790000D01*
X181540686Y-97790000D02*
X183515000Y-97790000D01*
X177505000Y-99060000D02*
X180270686Y-99060000D01*
%TO.N,/Pin44*%
X183480000Y-120685000D02*
X184785000Y-119380000D01*
X158750000Y-110871000D02*
X158750000Y-116840000D01*
X160696000Y-108925000D02*
X158750000Y-110871000D01*
X161290000Y-108925000D02*
X160696000Y-108925000D01*
X161290000Y-108925000D02*
X160950000Y-108925000D01*
X162595000Y-120685000D02*
X183480000Y-120685000D01*
X158750000Y-116840000D02*
X162595000Y-120685000D01*
%TO.N,/Pin70*%
X177505000Y-86360000D02*
X180467000Y-86360000D01*
X183515000Y-85090000D02*
X184785000Y-86360000D01*
X181737000Y-85090000D02*
X183515000Y-85090000D01*
X180467000Y-86360000D02*
X181737000Y-85090000D01*
%TO.N,/Pin53*%
X181991000Y-106680000D02*
X182245000Y-106680000D01*
X177165000Y-108712000D02*
X179959000Y-108712000D01*
X172720000Y-111465000D02*
X174412000Y-111465000D01*
X174412000Y-111465000D02*
X177165000Y-108712000D01*
X179959000Y-108712000D02*
X181991000Y-106680000D01*
%TO.N,/Pin71*%
X180975000Y-85090000D02*
X182245000Y-83820000D01*
X174965000Y-85090000D02*
X180975000Y-85090000D01*
%TO.N,/Pin66*%
X177505000Y-91440000D02*
X180352327Y-91440000D01*
X183515000Y-90170000D02*
X184785000Y-91440000D01*
X180352327Y-91440000D02*
X181622327Y-90170000D01*
X181622327Y-90170000D02*
X183515000Y-90170000D01*
%TO.N,/Pin65*%
X182181500Y-91440000D02*
X182245000Y-91440000D01*
X174965000Y-92710000D02*
X180911500Y-92710000D01*
X180911500Y-92710000D02*
X182181500Y-91440000D01*
%TO.N,/Pin72*%
X177505000Y-83820000D02*
X180467000Y-83820000D01*
X181737000Y-82550000D02*
X183515000Y-82550000D01*
X183515000Y-82550000D02*
X184785000Y-83820000D01*
X180467000Y-83820000D02*
X181737000Y-82550000D01*
%TO.N,/Pin47*%
X165100000Y-111465000D02*
X165100000Y-113030000D01*
X178943000Y-115570000D02*
X180213000Y-114300000D01*
X180213000Y-114300000D02*
X182245000Y-114300000D01*
X165100000Y-113030000D02*
X167640000Y-115570000D01*
X167640000Y-115570000D02*
X178943000Y-115570000D01*
%TO.N,/Pin79*%
X167640000Y-76495000D02*
X167640000Y-74295000D01*
X168275000Y-73660000D02*
X182245000Y-73660000D01*
X167640000Y-74295000D02*
X168275000Y-73660000D01*
%TO.N,/Pin82*%
X165735000Y-69850000D02*
X183515000Y-69850000D01*
X163830000Y-79035000D02*
X163830000Y-71755000D01*
X163830000Y-71755000D02*
X165735000Y-69850000D01*
X183515000Y-69850000D02*
X184785000Y-71120000D01*
%TO.N,/Pin58*%
X181768654Y-100450000D02*
X183635000Y-100450000D01*
X180618654Y-101600000D02*
X181768654Y-100450000D01*
X177505000Y-101600000D02*
X180618654Y-101600000D01*
X183635000Y-100450000D02*
X184785000Y-101600000D01*
%TO.N,/Pin43*%
X160020000Y-111465000D02*
X160020000Y-116205000D01*
X160020000Y-116205000D02*
X163195000Y-119380000D01*
X163195000Y-119380000D02*
X182245000Y-119380000D01*
%TO.N,/Pin67*%
X174965000Y-90170000D02*
X180975000Y-90170000D01*
X180975000Y-90170000D02*
X182245000Y-88900000D01*
%TO.N,/Pin57*%
X174965000Y-102870000D02*
X180403500Y-102870000D01*
X181673500Y-101600000D02*
X182245000Y-101600000D01*
X180403500Y-102870000D02*
X181673500Y-101600000D01*
%TO.N,/Pin83*%
X162560000Y-71120000D02*
X165100000Y-68580000D01*
X162560000Y-76495000D02*
X162560000Y-71120000D01*
X165100000Y-68580000D02*
X182245000Y-68580000D01*
%TO.N,/Pin81*%
X166370000Y-71120000D02*
X182245000Y-71120000D01*
X165100000Y-72390000D02*
X166370000Y-71120000D01*
X165100000Y-76495000D02*
X165100000Y-72390000D01*
%TO.N,/Pin73*%
X182054500Y-81280000D02*
X182245000Y-81280000D01*
X180784500Y-82550000D02*
X182054500Y-81280000D01*
X174965000Y-82550000D02*
X180784500Y-82550000D01*
%TO.N,/Pin68*%
X181737000Y-87630000D02*
X183515000Y-87630000D01*
X183515000Y-87630000D02*
X184785000Y-88900000D01*
X180467000Y-88900000D02*
X181737000Y-87630000D01*
X177505000Y-88900000D02*
X180467000Y-88900000D01*
%TO.N,/Pin84*%
X164500000Y-67275000D02*
X183480000Y-67275000D01*
X161290000Y-79035000D02*
X161290000Y-70485000D01*
X161290000Y-70485000D02*
X164500000Y-67275000D01*
X183480000Y-67275000D02*
X184785000Y-68580000D01*
%TO.N,/Pin55*%
X180467000Y-105410000D02*
X181737000Y-104140000D01*
X181737000Y-104140000D02*
X182245000Y-104140000D01*
X174965000Y-105410000D02*
X180467000Y-105410000D01*
%TO.N,/Pin80*%
X183515000Y-72390000D02*
X184785000Y-73660000D01*
X166370000Y-73025000D02*
X167005000Y-72390000D01*
X167005000Y-72390000D02*
X183515000Y-72390000D01*
X166370000Y-79035000D02*
X166370000Y-73025000D01*
%TO.N,/Pin76*%
X174146370Y-77470000D02*
X183515000Y-77470000D01*
X171450000Y-79035000D02*
X172581370Y-79035000D01*
X172581370Y-79035000D02*
X174146370Y-77470000D01*
X183515000Y-77470000D02*
X184785000Y-78740000D01*
%TO.N,/Pin54*%
X180340000Y-106680000D02*
X181610000Y-105410000D01*
X177505000Y-106680000D02*
X180340000Y-106680000D01*
X181610000Y-105410000D02*
X183515000Y-105410000D01*
X183515000Y-105410000D02*
X184785000Y-106680000D01*
%TO.N,/Pin63*%
X182181500Y-93980000D02*
X182245000Y-93980000D01*
X180911500Y-95250000D02*
X182181500Y-93980000D01*
X174965000Y-95250000D02*
X180911500Y-95250000D01*
%TO.N,/Pin78*%
X168910000Y-75565000D02*
X169926000Y-74549000D01*
X180606327Y-74549000D02*
X180987327Y-74930000D01*
X180987327Y-74930000D02*
X183515000Y-74930000D01*
X169926000Y-74549000D02*
X180606327Y-74549000D01*
X183515000Y-74930000D02*
X184785000Y-76200000D01*
X168910000Y-79035000D02*
X168910000Y-75565000D01*
%TO.N,/Pin56*%
X183515000Y-102870000D02*
X184785000Y-104140000D01*
X180340000Y-104140000D02*
X181610000Y-102870000D01*
X181610000Y-102870000D02*
X183515000Y-102870000D01*
X177505000Y-104140000D02*
X180340000Y-104140000D01*
%TO.N,/Pin49*%
X167640000Y-111465000D02*
X167640000Y-112395000D01*
X177292000Y-114173000D02*
X179705000Y-111760000D01*
X179705000Y-111760000D02*
X182245000Y-111760000D01*
X167640000Y-112395000D02*
X169418000Y-114173000D01*
X169418000Y-114173000D02*
X177292000Y-114173000D01*
%TO.N,/Pin77*%
X170180000Y-76495000D02*
X170180000Y-76294998D01*
X171079998Y-75395000D02*
X181440000Y-75395000D01*
X181440000Y-75395000D02*
X182245000Y-76200000D01*
X170180000Y-76294998D02*
X171079998Y-75395000D01*
%TO.N,/Pin75*%
X170942000Y-80518000D02*
X173482000Y-80518000D01*
X172720000Y-76495000D02*
X172171000Y-76495000D01*
X170180000Y-78486000D02*
X170180000Y-79756000D01*
X175260000Y-78740000D02*
X182245000Y-78740000D01*
X170180000Y-79756000D02*
X170942000Y-80518000D01*
X172171000Y-76495000D02*
X170180000Y-78486000D01*
X173482000Y-80518000D02*
X175260000Y-78740000D01*
%TD*%
M02*
