%TF.GenerationSoftware,KiCad,Pcbnew,8.0.7*%
%TF.CreationDate,2025-02-20T01:00:11-06:00*%
%TF.ProjectId,PLCC-84-Test-Socket-Adapter,504c4343-2d38-4342-9d54-6573742d536f,v1.0*%
%TF.SameCoordinates,Original*%
%TF.FileFunction,Legend,Top*%
%TF.FilePolarity,Positive*%
%FSLAX46Y46*%
G04 Gerber Fmt 4.6, Leading zero omitted, Abs format (unit mm)*
G04 Created by KiCad (PCBNEW 8.0.7) date 2025-02-20 01:00:11*
%MOMM*%
%LPD*%
G01*
G04 APERTURE LIST*
%ADD10C,0.150000*%
%ADD11C,0.200000*%
%ADD12C,0.100000*%
G04 APERTURE END LIST*
D10*
X132172030Y-98660057D02*
X132219649Y-98612438D01*
X132219649Y-98612438D02*
X132314887Y-98564819D01*
X132314887Y-98564819D02*
X132552982Y-98564819D01*
X132552982Y-98564819D02*
X132648220Y-98612438D01*
X132648220Y-98612438D02*
X132695839Y-98660057D01*
X132695839Y-98660057D02*
X132743458Y-98755295D01*
X132743458Y-98755295D02*
X132743458Y-98850533D01*
X132743458Y-98850533D02*
X132695839Y-98993390D01*
X132695839Y-98993390D02*
X132124411Y-99564819D01*
X132124411Y-99564819D02*
X132743458Y-99564819D01*
X133648220Y-98564819D02*
X133172030Y-98564819D01*
X133172030Y-98564819D02*
X133124411Y-99041009D01*
X133124411Y-99041009D02*
X133172030Y-98993390D01*
X133172030Y-98993390D02*
X133267268Y-98945771D01*
X133267268Y-98945771D02*
X133505363Y-98945771D01*
X133505363Y-98945771D02*
X133600601Y-98993390D01*
X133600601Y-98993390D02*
X133648220Y-99041009D01*
X133648220Y-99041009D02*
X133695839Y-99136247D01*
X133695839Y-99136247D02*
X133695839Y-99374342D01*
X133695839Y-99374342D02*
X133648220Y-99469580D01*
X133648220Y-99469580D02*
X133600601Y-99517200D01*
X133600601Y-99517200D02*
X133505363Y-99564819D01*
X133505363Y-99564819D02*
X133267268Y-99564819D01*
X133267268Y-99564819D02*
X133172030Y-99517200D01*
X133172030Y-99517200D02*
X133124411Y-99469580D01*
X179638220Y-119218152D02*
X179638220Y-119884819D01*
X179400125Y-118837200D02*
X179162030Y-119551485D01*
X179162030Y-119551485D02*
X179781077Y-119551485D01*
X180066792Y-118884819D02*
X180685839Y-118884819D01*
X180685839Y-118884819D02*
X180352506Y-119265771D01*
X180352506Y-119265771D02*
X180495363Y-119265771D01*
X180495363Y-119265771D02*
X180590601Y-119313390D01*
X180590601Y-119313390D02*
X180638220Y-119361009D01*
X180638220Y-119361009D02*
X180685839Y-119456247D01*
X180685839Y-119456247D02*
X180685839Y-119694342D01*
X180685839Y-119694342D02*
X180638220Y-119789580D01*
X180638220Y-119789580D02*
X180590601Y-119837200D01*
X180590601Y-119837200D02*
X180495363Y-119884819D01*
X180495363Y-119884819D02*
X180209649Y-119884819D01*
X180209649Y-119884819D02*
X180114411Y-119837200D01*
X180114411Y-119837200D02*
X180066792Y-119789580D01*
X186820350Y-116678152D02*
X186820350Y-117344819D01*
X186582255Y-116297200D02*
X186344160Y-117011485D01*
X186344160Y-117011485D02*
X186963207Y-117011485D01*
X187772731Y-116344819D02*
X187582255Y-116344819D01*
X187582255Y-116344819D02*
X187487017Y-116392438D01*
X187487017Y-116392438D02*
X187439398Y-116440057D01*
X187439398Y-116440057D02*
X187344160Y-116582914D01*
X187344160Y-116582914D02*
X187296541Y-116773390D01*
X187296541Y-116773390D02*
X187296541Y-117154342D01*
X187296541Y-117154342D02*
X187344160Y-117249580D01*
X187344160Y-117249580D02*
X187391779Y-117297200D01*
X187391779Y-117297200D02*
X187487017Y-117344819D01*
X187487017Y-117344819D02*
X187677493Y-117344819D01*
X187677493Y-117344819D02*
X187772731Y-117297200D01*
X187772731Y-117297200D02*
X187820350Y-117249580D01*
X187820350Y-117249580D02*
X187867969Y-117154342D01*
X187867969Y-117154342D02*
X187867969Y-116916247D01*
X187867969Y-116916247D02*
X187820350Y-116821009D01*
X187820350Y-116821009D02*
X187772731Y-116773390D01*
X187772731Y-116773390D02*
X187677493Y-116725771D01*
X187677493Y-116725771D02*
X187487017Y-116725771D01*
X187487017Y-116725771D02*
X187391779Y-116773390D01*
X187391779Y-116773390D02*
X187344160Y-116821009D01*
X187344160Y-116821009D02*
X187296541Y-116916247D01*
X186534636Y-73593390D02*
X186439398Y-73545771D01*
X186439398Y-73545771D02*
X186391779Y-73498152D01*
X186391779Y-73498152D02*
X186344160Y-73402914D01*
X186344160Y-73402914D02*
X186344160Y-73355295D01*
X186344160Y-73355295D02*
X186391779Y-73260057D01*
X186391779Y-73260057D02*
X186439398Y-73212438D01*
X186439398Y-73212438D02*
X186534636Y-73164819D01*
X186534636Y-73164819D02*
X186725112Y-73164819D01*
X186725112Y-73164819D02*
X186820350Y-73212438D01*
X186820350Y-73212438D02*
X186867969Y-73260057D01*
X186867969Y-73260057D02*
X186915588Y-73355295D01*
X186915588Y-73355295D02*
X186915588Y-73402914D01*
X186915588Y-73402914D02*
X186867969Y-73498152D01*
X186867969Y-73498152D02*
X186820350Y-73545771D01*
X186820350Y-73545771D02*
X186725112Y-73593390D01*
X186725112Y-73593390D02*
X186534636Y-73593390D01*
X186534636Y-73593390D02*
X186439398Y-73641009D01*
X186439398Y-73641009D02*
X186391779Y-73688628D01*
X186391779Y-73688628D02*
X186344160Y-73783866D01*
X186344160Y-73783866D02*
X186344160Y-73974342D01*
X186344160Y-73974342D02*
X186391779Y-74069580D01*
X186391779Y-74069580D02*
X186439398Y-74117200D01*
X186439398Y-74117200D02*
X186534636Y-74164819D01*
X186534636Y-74164819D02*
X186725112Y-74164819D01*
X186725112Y-74164819D02*
X186820350Y-74117200D01*
X186820350Y-74117200D02*
X186867969Y-74069580D01*
X186867969Y-74069580D02*
X186915588Y-73974342D01*
X186915588Y-73974342D02*
X186915588Y-73783866D01*
X186915588Y-73783866D02*
X186867969Y-73688628D01*
X186867969Y-73688628D02*
X186820350Y-73641009D01*
X186820350Y-73641009D02*
X186725112Y-73593390D01*
X187534636Y-73164819D02*
X187629874Y-73164819D01*
X187629874Y-73164819D02*
X187725112Y-73212438D01*
X187725112Y-73212438D02*
X187772731Y-73260057D01*
X187772731Y-73260057D02*
X187820350Y-73355295D01*
X187820350Y-73355295D02*
X187867969Y-73545771D01*
X187867969Y-73545771D02*
X187867969Y-73783866D01*
X187867969Y-73783866D02*
X187820350Y-73974342D01*
X187820350Y-73974342D02*
X187772731Y-74069580D01*
X187772731Y-74069580D02*
X187725112Y-74117200D01*
X187725112Y-74117200D02*
X187629874Y-74164819D01*
X187629874Y-74164819D02*
X187534636Y-74164819D01*
X187534636Y-74164819D02*
X187439398Y-74117200D01*
X187439398Y-74117200D02*
X187391779Y-74069580D01*
X187391779Y-74069580D02*
X187344160Y-73974342D01*
X187344160Y-73974342D02*
X187296541Y-73783866D01*
X187296541Y-73783866D02*
X187296541Y-73545771D01*
X187296541Y-73545771D02*
X187344160Y-73355295D01*
X187344160Y-73355295D02*
X187391779Y-73260057D01*
X187391779Y-73260057D02*
X187439398Y-73212438D01*
X187439398Y-73212438D02*
X187534636Y-73164819D01*
X132172030Y-96120057D02*
X132219649Y-96072438D01*
X132219649Y-96072438D02*
X132314887Y-96024819D01*
X132314887Y-96024819D02*
X132552982Y-96024819D01*
X132552982Y-96024819D02*
X132648220Y-96072438D01*
X132648220Y-96072438D02*
X132695839Y-96120057D01*
X132695839Y-96120057D02*
X132743458Y-96215295D01*
X132743458Y-96215295D02*
X132743458Y-96310533D01*
X132743458Y-96310533D02*
X132695839Y-96453390D01*
X132695839Y-96453390D02*
X132124411Y-97024819D01*
X132124411Y-97024819D02*
X132743458Y-97024819D01*
X133076792Y-96024819D02*
X133695839Y-96024819D01*
X133695839Y-96024819D02*
X133362506Y-96405771D01*
X133362506Y-96405771D02*
X133505363Y-96405771D01*
X133505363Y-96405771D02*
X133600601Y-96453390D01*
X133600601Y-96453390D02*
X133648220Y-96501009D01*
X133648220Y-96501009D02*
X133695839Y-96596247D01*
X133695839Y-96596247D02*
X133695839Y-96834342D01*
X133695839Y-96834342D02*
X133648220Y-96929580D01*
X133648220Y-96929580D02*
X133600601Y-96977200D01*
X133600601Y-96977200D02*
X133505363Y-97024819D01*
X133505363Y-97024819D02*
X133219649Y-97024819D01*
X133219649Y-97024819D02*
X133124411Y-96977200D01*
X133124411Y-96977200D02*
X133076792Y-96929580D01*
X186296541Y-80784819D02*
X186963207Y-80784819D01*
X186963207Y-80784819D02*
X186534636Y-81784819D01*
X187772731Y-81118152D02*
X187772731Y-81784819D01*
X187534636Y-80737200D02*
X187296541Y-81451485D01*
X187296541Y-81451485D02*
X187915588Y-81451485D01*
X186820350Y-88404819D02*
X186629874Y-88404819D01*
X186629874Y-88404819D02*
X186534636Y-88452438D01*
X186534636Y-88452438D02*
X186487017Y-88500057D01*
X186487017Y-88500057D02*
X186391779Y-88642914D01*
X186391779Y-88642914D02*
X186344160Y-88833390D01*
X186344160Y-88833390D02*
X186344160Y-89214342D01*
X186344160Y-89214342D02*
X186391779Y-89309580D01*
X186391779Y-89309580D02*
X186439398Y-89357200D01*
X186439398Y-89357200D02*
X186534636Y-89404819D01*
X186534636Y-89404819D02*
X186725112Y-89404819D01*
X186725112Y-89404819D02*
X186820350Y-89357200D01*
X186820350Y-89357200D02*
X186867969Y-89309580D01*
X186867969Y-89309580D02*
X186915588Y-89214342D01*
X186915588Y-89214342D02*
X186915588Y-88976247D01*
X186915588Y-88976247D02*
X186867969Y-88881009D01*
X186867969Y-88881009D02*
X186820350Y-88833390D01*
X186820350Y-88833390D02*
X186725112Y-88785771D01*
X186725112Y-88785771D02*
X186534636Y-88785771D01*
X186534636Y-88785771D02*
X186439398Y-88833390D01*
X186439398Y-88833390D02*
X186391779Y-88881009D01*
X186391779Y-88881009D02*
X186344160Y-88976247D01*
X187487017Y-88833390D02*
X187391779Y-88785771D01*
X187391779Y-88785771D02*
X187344160Y-88738152D01*
X187344160Y-88738152D02*
X187296541Y-88642914D01*
X187296541Y-88642914D02*
X187296541Y-88595295D01*
X187296541Y-88595295D02*
X187344160Y-88500057D01*
X187344160Y-88500057D02*
X187391779Y-88452438D01*
X187391779Y-88452438D02*
X187487017Y-88404819D01*
X187487017Y-88404819D02*
X187677493Y-88404819D01*
X187677493Y-88404819D02*
X187772731Y-88452438D01*
X187772731Y-88452438D02*
X187820350Y-88500057D01*
X187820350Y-88500057D02*
X187867969Y-88595295D01*
X187867969Y-88595295D02*
X187867969Y-88642914D01*
X187867969Y-88642914D02*
X187820350Y-88738152D01*
X187820350Y-88738152D02*
X187772731Y-88785771D01*
X187772731Y-88785771D02*
X187677493Y-88833390D01*
X187677493Y-88833390D02*
X187487017Y-88833390D01*
X187487017Y-88833390D02*
X187391779Y-88881009D01*
X187391779Y-88881009D02*
X187344160Y-88928628D01*
X187344160Y-88928628D02*
X187296541Y-89023866D01*
X187296541Y-89023866D02*
X187296541Y-89214342D01*
X187296541Y-89214342D02*
X187344160Y-89309580D01*
X187344160Y-89309580D02*
X187391779Y-89357200D01*
X187391779Y-89357200D02*
X187487017Y-89404819D01*
X187487017Y-89404819D02*
X187677493Y-89404819D01*
X187677493Y-89404819D02*
X187772731Y-89357200D01*
X187772731Y-89357200D02*
X187820350Y-89309580D01*
X187820350Y-89309580D02*
X187867969Y-89214342D01*
X187867969Y-89214342D02*
X187867969Y-89023866D01*
X187867969Y-89023866D02*
X187820350Y-88928628D01*
X187820350Y-88928628D02*
X187772731Y-88881009D01*
X187772731Y-88881009D02*
X187677493Y-88833390D01*
X186820350Y-98564819D02*
X186629874Y-98564819D01*
X186629874Y-98564819D02*
X186534636Y-98612438D01*
X186534636Y-98612438D02*
X186487017Y-98660057D01*
X186487017Y-98660057D02*
X186391779Y-98802914D01*
X186391779Y-98802914D02*
X186344160Y-98993390D01*
X186344160Y-98993390D02*
X186344160Y-99374342D01*
X186344160Y-99374342D02*
X186391779Y-99469580D01*
X186391779Y-99469580D02*
X186439398Y-99517200D01*
X186439398Y-99517200D02*
X186534636Y-99564819D01*
X186534636Y-99564819D02*
X186725112Y-99564819D01*
X186725112Y-99564819D02*
X186820350Y-99517200D01*
X186820350Y-99517200D02*
X186867969Y-99469580D01*
X186867969Y-99469580D02*
X186915588Y-99374342D01*
X186915588Y-99374342D02*
X186915588Y-99136247D01*
X186915588Y-99136247D02*
X186867969Y-99041009D01*
X186867969Y-99041009D02*
X186820350Y-98993390D01*
X186820350Y-98993390D02*
X186725112Y-98945771D01*
X186725112Y-98945771D02*
X186534636Y-98945771D01*
X186534636Y-98945771D02*
X186439398Y-98993390D01*
X186439398Y-98993390D02*
X186391779Y-99041009D01*
X186391779Y-99041009D02*
X186344160Y-99136247D01*
X187534636Y-98564819D02*
X187629874Y-98564819D01*
X187629874Y-98564819D02*
X187725112Y-98612438D01*
X187725112Y-98612438D02*
X187772731Y-98660057D01*
X187772731Y-98660057D02*
X187820350Y-98755295D01*
X187820350Y-98755295D02*
X187867969Y-98945771D01*
X187867969Y-98945771D02*
X187867969Y-99183866D01*
X187867969Y-99183866D02*
X187820350Y-99374342D01*
X187820350Y-99374342D02*
X187772731Y-99469580D01*
X187772731Y-99469580D02*
X187725112Y-99517200D01*
X187725112Y-99517200D02*
X187629874Y-99564819D01*
X187629874Y-99564819D02*
X187534636Y-99564819D01*
X187534636Y-99564819D02*
X187439398Y-99517200D01*
X187439398Y-99517200D02*
X187391779Y-99469580D01*
X187391779Y-99469580D02*
X187344160Y-99374342D01*
X187344160Y-99374342D02*
X187296541Y-99183866D01*
X187296541Y-99183866D02*
X187296541Y-98945771D01*
X187296541Y-98945771D02*
X187344160Y-98755295D01*
X187344160Y-98755295D02*
X187391779Y-98660057D01*
X187391779Y-98660057D02*
X187439398Y-98612438D01*
X187439398Y-98612438D02*
X187534636Y-98564819D01*
X186296541Y-85864819D02*
X186963207Y-85864819D01*
X186963207Y-85864819D02*
X186534636Y-86864819D01*
X187534636Y-85864819D02*
X187629874Y-85864819D01*
X187629874Y-85864819D02*
X187725112Y-85912438D01*
X187725112Y-85912438D02*
X187772731Y-85960057D01*
X187772731Y-85960057D02*
X187820350Y-86055295D01*
X187820350Y-86055295D02*
X187867969Y-86245771D01*
X187867969Y-86245771D02*
X187867969Y-86483866D01*
X187867969Y-86483866D02*
X187820350Y-86674342D01*
X187820350Y-86674342D02*
X187772731Y-86769580D01*
X187772731Y-86769580D02*
X187725112Y-86817200D01*
X187725112Y-86817200D02*
X187629874Y-86864819D01*
X187629874Y-86864819D02*
X187534636Y-86864819D01*
X187534636Y-86864819D02*
X187439398Y-86817200D01*
X187439398Y-86817200D02*
X187391779Y-86769580D01*
X187391779Y-86769580D02*
X187344160Y-86674342D01*
X187344160Y-86674342D02*
X187296541Y-86483866D01*
X187296541Y-86483866D02*
X187296541Y-86245771D01*
X187296541Y-86245771D02*
X187344160Y-86055295D01*
X187344160Y-86055295D02*
X187391779Y-85960057D01*
X187391779Y-85960057D02*
X187439398Y-85912438D01*
X187439398Y-85912438D02*
X187534636Y-85864819D01*
X133219649Y-79244819D02*
X133410125Y-79244819D01*
X133410125Y-79244819D02*
X133505363Y-79197200D01*
X133505363Y-79197200D02*
X133552982Y-79149580D01*
X133552982Y-79149580D02*
X133648220Y-79006723D01*
X133648220Y-79006723D02*
X133695839Y-78816247D01*
X133695839Y-78816247D02*
X133695839Y-78435295D01*
X133695839Y-78435295D02*
X133648220Y-78340057D01*
X133648220Y-78340057D02*
X133600601Y-78292438D01*
X133600601Y-78292438D02*
X133505363Y-78244819D01*
X133505363Y-78244819D02*
X133314887Y-78244819D01*
X133314887Y-78244819D02*
X133219649Y-78292438D01*
X133219649Y-78292438D02*
X133172030Y-78340057D01*
X133172030Y-78340057D02*
X133124411Y-78435295D01*
X133124411Y-78435295D02*
X133124411Y-78673390D01*
X133124411Y-78673390D02*
X133172030Y-78768628D01*
X133172030Y-78768628D02*
X133219649Y-78816247D01*
X133219649Y-78816247D02*
X133314887Y-78863866D01*
X133314887Y-78863866D02*
X133505363Y-78863866D01*
X133505363Y-78863866D02*
X133600601Y-78816247D01*
X133600601Y-78816247D02*
X133648220Y-78768628D01*
X133648220Y-78768628D02*
X133695839Y-78673390D01*
X132743458Y-86864819D02*
X132172030Y-86864819D01*
X132457744Y-86864819D02*
X132457744Y-85864819D01*
X132457744Y-85864819D02*
X132362506Y-86007676D01*
X132362506Y-86007676D02*
X132267268Y-86102914D01*
X132267268Y-86102914D02*
X132172030Y-86150533D01*
X133648220Y-85864819D02*
X133172030Y-85864819D01*
X133172030Y-85864819D02*
X133124411Y-86341009D01*
X133124411Y-86341009D02*
X133172030Y-86293390D01*
X133172030Y-86293390D02*
X133267268Y-86245771D01*
X133267268Y-86245771D02*
X133505363Y-86245771D01*
X133505363Y-86245771D02*
X133600601Y-86293390D01*
X133600601Y-86293390D02*
X133648220Y-86341009D01*
X133648220Y-86341009D02*
X133695839Y-86436247D01*
X133695839Y-86436247D02*
X133695839Y-86674342D01*
X133695839Y-86674342D02*
X133648220Y-86769580D01*
X133648220Y-86769580D02*
X133600601Y-86817200D01*
X133600601Y-86817200D02*
X133505363Y-86864819D01*
X133505363Y-86864819D02*
X133267268Y-86864819D01*
X133267268Y-86864819D02*
X133172030Y-86817200D01*
X133172030Y-86817200D02*
X133124411Y-86769580D01*
X132743458Y-81784819D02*
X132172030Y-81784819D01*
X132457744Y-81784819D02*
X132457744Y-80784819D01*
X132457744Y-80784819D02*
X132362506Y-80927676D01*
X132362506Y-80927676D02*
X132267268Y-81022914D01*
X132267268Y-81022914D02*
X132172030Y-81070533D01*
X133695839Y-81784819D02*
X133124411Y-81784819D01*
X133410125Y-81784819D02*
X133410125Y-80784819D01*
X133410125Y-80784819D02*
X133314887Y-80927676D01*
X133314887Y-80927676D02*
X133219649Y-81022914D01*
X133219649Y-81022914D02*
X133124411Y-81070533D01*
X132124411Y-106184819D02*
X132743458Y-106184819D01*
X132743458Y-106184819D02*
X132410125Y-106565771D01*
X132410125Y-106565771D02*
X132552982Y-106565771D01*
X132552982Y-106565771D02*
X132648220Y-106613390D01*
X132648220Y-106613390D02*
X132695839Y-106661009D01*
X132695839Y-106661009D02*
X132743458Y-106756247D01*
X132743458Y-106756247D02*
X132743458Y-106994342D01*
X132743458Y-106994342D02*
X132695839Y-107089580D01*
X132695839Y-107089580D02*
X132648220Y-107137200D01*
X132648220Y-107137200D02*
X132552982Y-107184819D01*
X132552982Y-107184819D02*
X132267268Y-107184819D01*
X132267268Y-107184819D02*
X132172030Y-107137200D01*
X132172030Y-107137200D02*
X132124411Y-107089580D01*
X133695839Y-107184819D02*
X133124411Y-107184819D01*
X133410125Y-107184819D02*
X133410125Y-106184819D01*
X133410125Y-106184819D02*
X133314887Y-106327676D01*
X133314887Y-106327676D02*
X133219649Y-106422914D01*
X133219649Y-106422914D02*
X133124411Y-106470533D01*
X149972381Y-98453628D02*
X149972381Y-98929819D01*
X149639048Y-97929819D02*
X149972381Y-98453628D01*
X149972381Y-98453628D02*
X150305714Y-97929819D01*
X150591429Y-98644104D02*
X151067619Y-98644104D01*
X150496191Y-98929819D02*
X150829524Y-97929819D01*
X150829524Y-97929819D02*
X151162857Y-98929819D01*
X151496191Y-98929819D02*
X151496191Y-97929819D01*
X151496191Y-97929819D02*
X151829524Y-98644104D01*
X151829524Y-98644104D02*
X152162857Y-97929819D01*
X152162857Y-97929819D02*
X152162857Y-98929819D01*
X152591429Y-98644104D02*
X153067619Y-98644104D01*
X152496191Y-98929819D02*
X152829524Y-97929819D01*
X152829524Y-97929819D02*
X153162857Y-98929819D01*
X153496191Y-98929819D02*
X153496191Y-97929819D01*
X154543809Y-98834580D02*
X154496190Y-98882200D01*
X154496190Y-98882200D02*
X154353333Y-98929819D01*
X154353333Y-98929819D02*
X154258095Y-98929819D01*
X154258095Y-98929819D02*
X154115238Y-98882200D01*
X154115238Y-98882200D02*
X154020000Y-98786961D01*
X154020000Y-98786961D02*
X153972381Y-98691723D01*
X153972381Y-98691723D02*
X153924762Y-98501247D01*
X153924762Y-98501247D02*
X153924762Y-98358390D01*
X153924762Y-98358390D02*
X153972381Y-98167914D01*
X153972381Y-98167914D02*
X154020000Y-98072676D01*
X154020000Y-98072676D02*
X154115238Y-97977438D01*
X154115238Y-97977438D02*
X154258095Y-97929819D01*
X154258095Y-97929819D02*
X154353333Y-97929819D01*
X154353333Y-97929819D02*
X154496190Y-97977438D01*
X154496190Y-97977438D02*
X154543809Y-98025057D01*
X154972381Y-98929819D02*
X154972381Y-97929819D01*
X154972381Y-98406009D02*
X155543809Y-98406009D01*
X155543809Y-98929819D02*
X155543809Y-97929819D01*
X156020000Y-98929819D02*
X156020000Y-97929819D01*
X157258095Y-98929819D02*
X157258095Y-97929819D01*
X158305713Y-98834580D02*
X158258094Y-98882200D01*
X158258094Y-98882200D02*
X158115237Y-98929819D01*
X158115237Y-98929819D02*
X158019999Y-98929819D01*
X158019999Y-98929819D02*
X157877142Y-98882200D01*
X157877142Y-98882200D02*
X157781904Y-98786961D01*
X157781904Y-98786961D02*
X157734285Y-98691723D01*
X157734285Y-98691723D02*
X157686666Y-98501247D01*
X157686666Y-98501247D02*
X157686666Y-98358390D01*
X157686666Y-98358390D02*
X157734285Y-98167914D01*
X157734285Y-98167914D02*
X157781904Y-98072676D01*
X157781904Y-98072676D02*
X157877142Y-97977438D01*
X157877142Y-97977438D02*
X158019999Y-97929819D01*
X158019999Y-97929819D02*
X158115237Y-97929819D01*
X158115237Y-97929819D02*
X158258094Y-97977438D01*
X158258094Y-97977438D02*
X158305713Y-98025057D01*
X159258094Y-98929819D02*
X158686666Y-98929819D01*
X158972380Y-98929819D02*
X158972380Y-97929819D01*
X158972380Y-97929819D02*
X158877142Y-98072676D01*
X158877142Y-98072676D02*
X158781904Y-98167914D01*
X158781904Y-98167914D02*
X158686666Y-98215533D01*
X159639047Y-98025057D02*
X159686666Y-97977438D01*
X159686666Y-97977438D02*
X159781904Y-97929819D01*
X159781904Y-97929819D02*
X160019999Y-97929819D01*
X160019999Y-97929819D02*
X160115237Y-97977438D01*
X160115237Y-97977438D02*
X160162856Y-98025057D01*
X160162856Y-98025057D02*
X160210475Y-98120295D01*
X160210475Y-98120295D02*
X160210475Y-98215533D01*
X160210475Y-98215533D02*
X160162856Y-98358390D01*
X160162856Y-98358390D02*
X159591428Y-98929819D01*
X159591428Y-98929819D02*
X160210475Y-98929819D01*
X160829523Y-97929819D02*
X160924761Y-97929819D01*
X160924761Y-97929819D02*
X161019999Y-97977438D01*
X161019999Y-97977438D02*
X161067618Y-98025057D01*
X161067618Y-98025057D02*
X161115237Y-98120295D01*
X161115237Y-98120295D02*
X161162856Y-98310771D01*
X161162856Y-98310771D02*
X161162856Y-98548866D01*
X161162856Y-98548866D02*
X161115237Y-98739342D01*
X161115237Y-98739342D02*
X161067618Y-98834580D01*
X161067618Y-98834580D02*
X161019999Y-98882200D01*
X161019999Y-98882200D02*
X160924761Y-98929819D01*
X160924761Y-98929819D02*
X160829523Y-98929819D01*
X160829523Y-98929819D02*
X160734285Y-98882200D01*
X160734285Y-98882200D02*
X160686666Y-98834580D01*
X160686666Y-98834580D02*
X160639047Y-98739342D01*
X160639047Y-98739342D02*
X160591428Y-98548866D01*
X160591428Y-98548866D02*
X160591428Y-98310771D01*
X160591428Y-98310771D02*
X160639047Y-98120295D01*
X160639047Y-98120295D02*
X160686666Y-98025057D01*
X160686666Y-98025057D02*
X160734285Y-97977438D01*
X160734285Y-97977438D02*
X160829523Y-97929819D01*
X161591428Y-98548866D02*
X162353333Y-98548866D01*
X163019999Y-97929819D02*
X163115237Y-97929819D01*
X163115237Y-97929819D02*
X163210475Y-97977438D01*
X163210475Y-97977438D02*
X163258094Y-98025057D01*
X163258094Y-98025057D02*
X163305713Y-98120295D01*
X163305713Y-98120295D02*
X163353332Y-98310771D01*
X163353332Y-98310771D02*
X163353332Y-98548866D01*
X163353332Y-98548866D02*
X163305713Y-98739342D01*
X163305713Y-98739342D02*
X163258094Y-98834580D01*
X163258094Y-98834580D02*
X163210475Y-98882200D01*
X163210475Y-98882200D02*
X163115237Y-98929819D01*
X163115237Y-98929819D02*
X163019999Y-98929819D01*
X163019999Y-98929819D02*
X162924761Y-98882200D01*
X162924761Y-98882200D02*
X162877142Y-98834580D01*
X162877142Y-98834580D02*
X162829523Y-98739342D01*
X162829523Y-98739342D02*
X162781904Y-98548866D01*
X162781904Y-98548866D02*
X162781904Y-98310771D01*
X162781904Y-98310771D02*
X162829523Y-98120295D01*
X162829523Y-98120295D02*
X162877142Y-98025057D01*
X162877142Y-98025057D02*
X162924761Y-97977438D01*
X162924761Y-97977438D02*
X163019999Y-97929819D01*
X163924761Y-98358390D02*
X163829523Y-98310771D01*
X163829523Y-98310771D02*
X163781904Y-98263152D01*
X163781904Y-98263152D02*
X163734285Y-98167914D01*
X163734285Y-98167914D02*
X163734285Y-98120295D01*
X163734285Y-98120295D02*
X163781904Y-98025057D01*
X163781904Y-98025057D02*
X163829523Y-97977438D01*
X163829523Y-97977438D02*
X163924761Y-97929819D01*
X163924761Y-97929819D02*
X164115237Y-97929819D01*
X164115237Y-97929819D02*
X164210475Y-97977438D01*
X164210475Y-97977438D02*
X164258094Y-98025057D01*
X164258094Y-98025057D02*
X164305713Y-98120295D01*
X164305713Y-98120295D02*
X164305713Y-98167914D01*
X164305713Y-98167914D02*
X164258094Y-98263152D01*
X164258094Y-98263152D02*
X164210475Y-98310771D01*
X164210475Y-98310771D02*
X164115237Y-98358390D01*
X164115237Y-98358390D02*
X163924761Y-98358390D01*
X163924761Y-98358390D02*
X163829523Y-98406009D01*
X163829523Y-98406009D02*
X163781904Y-98453628D01*
X163781904Y-98453628D02*
X163734285Y-98548866D01*
X163734285Y-98548866D02*
X163734285Y-98739342D01*
X163734285Y-98739342D02*
X163781904Y-98834580D01*
X163781904Y-98834580D02*
X163829523Y-98882200D01*
X163829523Y-98882200D02*
X163924761Y-98929819D01*
X163924761Y-98929819D02*
X164115237Y-98929819D01*
X164115237Y-98929819D02*
X164210475Y-98882200D01*
X164210475Y-98882200D02*
X164258094Y-98834580D01*
X164258094Y-98834580D02*
X164305713Y-98739342D01*
X164305713Y-98739342D02*
X164305713Y-98548866D01*
X164305713Y-98548866D02*
X164258094Y-98453628D01*
X164258094Y-98453628D02*
X164210475Y-98406009D01*
X164210475Y-98406009D02*
X164115237Y-98358390D01*
X165162856Y-98263152D02*
X165162856Y-98929819D01*
X164924761Y-97882200D02*
X164686666Y-98596485D01*
X164686666Y-98596485D02*
X165305713Y-98596485D01*
X166115237Y-98263152D02*
X166115237Y-98929819D01*
X165877142Y-97882200D02*
X165639047Y-98596485D01*
X165639047Y-98596485D02*
X166258094Y-98596485D01*
X166639047Y-98548866D02*
X167400952Y-98548866D01*
X167781904Y-97929819D02*
X168400951Y-97929819D01*
X168400951Y-97929819D02*
X168067618Y-98310771D01*
X168067618Y-98310771D02*
X168210475Y-98310771D01*
X168210475Y-98310771D02*
X168305713Y-98358390D01*
X168305713Y-98358390D02*
X168353332Y-98406009D01*
X168353332Y-98406009D02*
X168400951Y-98501247D01*
X168400951Y-98501247D02*
X168400951Y-98739342D01*
X168400951Y-98739342D02*
X168353332Y-98834580D01*
X168353332Y-98834580D02*
X168305713Y-98882200D01*
X168305713Y-98882200D02*
X168210475Y-98929819D01*
X168210475Y-98929819D02*
X167924761Y-98929819D01*
X167924761Y-98929819D02*
X167829523Y-98882200D01*
X167829523Y-98882200D02*
X167781904Y-98834580D01*
X169019999Y-97929819D02*
X169115237Y-97929819D01*
X169115237Y-97929819D02*
X169210475Y-97977438D01*
X169210475Y-97977438D02*
X169258094Y-98025057D01*
X169258094Y-98025057D02*
X169305713Y-98120295D01*
X169305713Y-98120295D02*
X169353332Y-98310771D01*
X169353332Y-98310771D02*
X169353332Y-98548866D01*
X169353332Y-98548866D02*
X169305713Y-98739342D01*
X169305713Y-98739342D02*
X169258094Y-98834580D01*
X169258094Y-98834580D02*
X169210475Y-98882200D01*
X169210475Y-98882200D02*
X169115237Y-98929819D01*
X169115237Y-98929819D02*
X169019999Y-98929819D01*
X169019999Y-98929819D02*
X168924761Y-98882200D01*
X168924761Y-98882200D02*
X168877142Y-98834580D01*
X168877142Y-98834580D02*
X168829523Y-98739342D01*
X168829523Y-98739342D02*
X168781904Y-98548866D01*
X168781904Y-98548866D02*
X168781904Y-98310771D01*
X168781904Y-98310771D02*
X168829523Y-98120295D01*
X168829523Y-98120295D02*
X168877142Y-98025057D01*
X168877142Y-98025057D02*
X168924761Y-97977438D01*
X168924761Y-97977438D02*
X169019999Y-97929819D01*
X169686666Y-97929819D02*
X170305713Y-97929819D01*
X170305713Y-97929819D02*
X169972380Y-98310771D01*
X169972380Y-98310771D02*
X170115237Y-98310771D01*
X170115237Y-98310771D02*
X170210475Y-98358390D01*
X170210475Y-98358390D02*
X170258094Y-98406009D01*
X170258094Y-98406009D02*
X170305713Y-98501247D01*
X170305713Y-98501247D02*
X170305713Y-98739342D01*
X170305713Y-98739342D02*
X170258094Y-98834580D01*
X170258094Y-98834580D02*
X170210475Y-98882200D01*
X170210475Y-98882200D02*
X170115237Y-98929819D01*
X170115237Y-98929819D02*
X169829523Y-98929819D01*
X169829523Y-98929819D02*
X169734285Y-98882200D01*
X169734285Y-98882200D02*
X169686666Y-98834580D01*
X186296541Y-75704819D02*
X186963207Y-75704819D01*
X186963207Y-75704819D02*
X186534636Y-76704819D01*
X187487017Y-76133390D02*
X187391779Y-76085771D01*
X187391779Y-76085771D02*
X187344160Y-76038152D01*
X187344160Y-76038152D02*
X187296541Y-75942914D01*
X187296541Y-75942914D02*
X187296541Y-75895295D01*
X187296541Y-75895295D02*
X187344160Y-75800057D01*
X187344160Y-75800057D02*
X187391779Y-75752438D01*
X187391779Y-75752438D02*
X187487017Y-75704819D01*
X187487017Y-75704819D02*
X187677493Y-75704819D01*
X187677493Y-75704819D02*
X187772731Y-75752438D01*
X187772731Y-75752438D02*
X187820350Y-75800057D01*
X187820350Y-75800057D02*
X187867969Y-75895295D01*
X187867969Y-75895295D02*
X187867969Y-75942914D01*
X187867969Y-75942914D02*
X187820350Y-76038152D01*
X187820350Y-76038152D02*
X187772731Y-76085771D01*
X187772731Y-76085771D02*
X187677493Y-76133390D01*
X187677493Y-76133390D02*
X187487017Y-76133390D01*
X187487017Y-76133390D02*
X187391779Y-76181009D01*
X187391779Y-76181009D02*
X187344160Y-76228628D01*
X187344160Y-76228628D02*
X187296541Y-76323866D01*
X187296541Y-76323866D02*
X187296541Y-76514342D01*
X187296541Y-76514342D02*
X187344160Y-76609580D01*
X187344160Y-76609580D02*
X187391779Y-76657200D01*
X187391779Y-76657200D02*
X187487017Y-76704819D01*
X187487017Y-76704819D02*
X187677493Y-76704819D01*
X187677493Y-76704819D02*
X187772731Y-76657200D01*
X187772731Y-76657200D02*
X187820350Y-76609580D01*
X187820350Y-76609580D02*
X187867969Y-76514342D01*
X187867969Y-76514342D02*
X187867969Y-76323866D01*
X187867969Y-76323866D02*
X187820350Y-76228628D01*
X187820350Y-76228628D02*
X187772731Y-76181009D01*
X187772731Y-76181009D02*
X187677493Y-76133390D01*
X186296541Y-83324819D02*
X186963207Y-83324819D01*
X186963207Y-83324819D02*
X186534636Y-84324819D01*
X187296541Y-83420057D02*
X187344160Y-83372438D01*
X187344160Y-83372438D02*
X187439398Y-83324819D01*
X187439398Y-83324819D02*
X187677493Y-83324819D01*
X187677493Y-83324819D02*
X187772731Y-83372438D01*
X187772731Y-83372438D02*
X187820350Y-83420057D01*
X187820350Y-83420057D02*
X187867969Y-83515295D01*
X187867969Y-83515295D02*
X187867969Y-83610533D01*
X187867969Y-83610533D02*
X187820350Y-83753390D01*
X187820350Y-83753390D02*
X187248922Y-84324819D01*
X187248922Y-84324819D02*
X187867969Y-84324819D01*
X179638220Y-116678152D02*
X179638220Y-117344819D01*
X179400125Y-116297200D02*
X179162030Y-117011485D01*
X179162030Y-117011485D02*
X179781077Y-117011485D01*
X180638220Y-116344819D02*
X180162030Y-116344819D01*
X180162030Y-116344819D02*
X180114411Y-116821009D01*
X180114411Y-116821009D02*
X180162030Y-116773390D01*
X180162030Y-116773390D02*
X180257268Y-116725771D01*
X180257268Y-116725771D02*
X180495363Y-116725771D01*
X180495363Y-116725771D02*
X180590601Y-116773390D01*
X180590601Y-116773390D02*
X180638220Y-116821009D01*
X180638220Y-116821009D02*
X180685839Y-116916247D01*
X180685839Y-116916247D02*
X180685839Y-117154342D01*
X180685839Y-117154342D02*
X180638220Y-117249580D01*
X180638220Y-117249580D02*
X180590601Y-117297200D01*
X180590601Y-117297200D02*
X180495363Y-117344819D01*
X180495363Y-117344819D02*
X180257268Y-117344819D01*
X180257268Y-117344819D02*
X180162030Y-117297200D01*
X180162030Y-117297200D02*
X180114411Y-117249580D01*
X133648220Y-73164819D02*
X133172030Y-73164819D01*
X133172030Y-73164819D02*
X133124411Y-73641009D01*
X133124411Y-73641009D02*
X133172030Y-73593390D01*
X133172030Y-73593390D02*
X133267268Y-73545771D01*
X133267268Y-73545771D02*
X133505363Y-73545771D01*
X133505363Y-73545771D02*
X133600601Y-73593390D01*
X133600601Y-73593390D02*
X133648220Y-73641009D01*
X133648220Y-73641009D02*
X133695839Y-73736247D01*
X133695839Y-73736247D02*
X133695839Y-73974342D01*
X133695839Y-73974342D02*
X133648220Y-74069580D01*
X133648220Y-74069580D02*
X133600601Y-74117200D01*
X133600601Y-74117200D02*
X133505363Y-74164819D01*
X133505363Y-74164819D02*
X133267268Y-74164819D01*
X133267268Y-74164819D02*
X133172030Y-74117200D01*
X133172030Y-74117200D02*
X133124411Y-74069580D01*
X132172030Y-93580057D02*
X132219649Y-93532438D01*
X132219649Y-93532438D02*
X132314887Y-93484819D01*
X132314887Y-93484819D02*
X132552982Y-93484819D01*
X132552982Y-93484819D02*
X132648220Y-93532438D01*
X132648220Y-93532438D02*
X132695839Y-93580057D01*
X132695839Y-93580057D02*
X132743458Y-93675295D01*
X132743458Y-93675295D02*
X132743458Y-93770533D01*
X132743458Y-93770533D02*
X132695839Y-93913390D01*
X132695839Y-93913390D02*
X132124411Y-94484819D01*
X132124411Y-94484819D02*
X132743458Y-94484819D01*
X133695839Y-94484819D02*
X133124411Y-94484819D01*
X133410125Y-94484819D02*
X133410125Y-93484819D01*
X133410125Y-93484819D02*
X133314887Y-93627676D01*
X133314887Y-93627676D02*
X133219649Y-93722914D01*
X133219649Y-93722914D02*
X133124411Y-93770533D01*
X132124411Y-116344819D02*
X132743458Y-116344819D01*
X132743458Y-116344819D02*
X132410125Y-116725771D01*
X132410125Y-116725771D02*
X132552982Y-116725771D01*
X132552982Y-116725771D02*
X132648220Y-116773390D01*
X132648220Y-116773390D02*
X132695839Y-116821009D01*
X132695839Y-116821009D02*
X132743458Y-116916247D01*
X132743458Y-116916247D02*
X132743458Y-117154342D01*
X132743458Y-117154342D02*
X132695839Y-117249580D01*
X132695839Y-117249580D02*
X132648220Y-117297200D01*
X132648220Y-117297200D02*
X132552982Y-117344819D01*
X132552982Y-117344819D02*
X132267268Y-117344819D01*
X132267268Y-117344819D02*
X132172030Y-117297200D01*
X132172030Y-117297200D02*
X132124411Y-117249580D01*
X133219649Y-117344819D02*
X133410125Y-117344819D01*
X133410125Y-117344819D02*
X133505363Y-117297200D01*
X133505363Y-117297200D02*
X133552982Y-117249580D01*
X133552982Y-117249580D02*
X133648220Y-117106723D01*
X133648220Y-117106723D02*
X133695839Y-116916247D01*
X133695839Y-116916247D02*
X133695839Y-116535295D01*
X133695839Y-116535295D02*
X133648220Y-116440057D01*
X133648220Y-116440057D02*
X133600601Y-116392438D01*
X133600601Y-116392438D02*
X133505363Y-116344819D01*
X133505363Y-116344819D02*
X133314887Y-116344819D01*
X133314887Y-116344819D02*
X133219649Y-116392438D01*
X133219649Y-116392438D02*
X133172030Y-116440057D01*
X133172030Y-116440057D02*
X133124411Y-116535295D01*
X133124411Y-116535295D02*
X133124411Y-116773390D01*
X133124411Y-116773390D02*
X133172030Y-116868628D01*
X133172030Y-116868628D02*
X133219649Y-116916247D01*
X133219649Y-116916247D02*
X133314887Y-116963866D01*
X133314887Y-116963866D02*
X133505363Y-116963866D01*
X133505363Y-116963866D02*
X133600601Y-116916247D01*
X133600601Y-116916247D02*
X133648220Y-116868628D01*
X133648220Y-116868628D02*
X133695839Y-116773390D01*
X186867969Y-108724819D02*
X186391779Y-108724819D01*
X186391779Y-108724819D02*
X186344160Y-109201009D01*
X186344160Y-109201009D02*
X186391779Y-109153390D01*
X186391779Y-109153390D02*
X186487017Y-109105771D01*
X186487017Y-109105771D02*
X186725112Y-109105771D01*
X186725112Y-109105771D02*
X186820350Y-109153390D01*
X186820350Y-109153390D02*
X186867969Y-109201009D01*
X186867969Y-109201009D02*
X186915588Y-109296247D01*
X186915588Y-109296247D02*
X186915588Y-109534342D01*
X186915588Y-109534342D02*
X186867969Y-109629580D01*
X186867969Y-109629580D02*
X186820350Y-109677200D01*
X186820350Y-109677200D02*
X186725112Y-109724819D01*
X186725112Y-109724819D02*
X186487017Y-109724819D01*
X186487017Y-109724819D02*
X186391779Y-109677200D01*
X186391779Y-109677200D02*
X186344160Y-109629580D01*
X187296541Y-108820057D02*
X187344160Y-108772438D01*
X187344160Y-108772438D02*
X187439398Y-108724819D01*
X187439398Y-108724819D02*
X187677493Y-108724819D01*
X187677493Y-108724819D02*
X187772731Y-108772438D01*
X187772731Y-108772438D02*
X187820350Y-108820057D01*
X187820350Y-108820057D02*
X187867969Y-108915295D01*
X187867969Y-108915295D02*
X187867969Y-109010533D01*
X187867969Y-109010533D02*
X187820350Y-109153390D01*
X187820350Y-109153390D02*
X187248922Y-109724819D01*
X187248922Y-109724819D02*
X187867969Y-109724819D01*
X186867969Y-111264819D02*
X186391779Y-111264819D01*
X186391779Y-111264819D02*
X186344160Y-111741009D01*
X186344160Y-111741009D02*
X186391779Y-111693390D01*
X186391779Y-111693390D02*
X186487017Y-111645771D01*
X186487017Y-111645771D02*
X186725112Y-111645771D01*
X186725112Y-111645771D02*
X186820350Y-111693390D01*
X186820350Y-111693390D02*
X186867969Y-111741009D01*
X186867969Y-111741009D02*
X186915588Y-111836247D01*
X186915588Y-111836247D02*
X186915588Y-112074342D01*
X186915588Y-112074342D02*
X186867969Y-112169580D01*
X186867969Y-112169580D02*
X186820350Y-112217200D01*
X186820350Y-112217200D02*
X186725112Y-112264819D01*
X186725112Y-112264819D02*
X186487017Y-112264819D01*
X186487017Y-112264819D02*
X186391779Y-112217200D01*
X186391779Y-112217200D02*
X186344160Y-112169580D01*
X187534636Y-111264819D02*
X187629874Y-111264819D01*
X187629874Y-111264819D02*
X187725112Y-111312438D01*
X187725112Y-111312438D02*
X187772731Y-111360057D01*
X187772731Y-111360057D02*
X187820350Y-111455295D01*
X187820350Y-111455295D02*
X187867969Y-111645771D01*
X187867969Y-111645771D02*
X187867969Y-111883866D01*
X187867969Y-111883866D02*
X187820350Y-112074342D01*
X187820350Y-112074342D02*
X187772731Y-112169580D01*
X187772731Y-112169580D02*
X187725112Y-112217200D01*
X187725112Y-112217200D02*
X187629874Y-112264819D01*
X187629874Y-112264819D02*
X187534636Y-112264819D01*
X187534636Y-112264819D02*
X187439398Y-112217200D01*
X187439398Y-112217200D02*
X187391779Y-112169580D01*
X187391779Y-112169580D02*
X187344160Y-112074342D01*
X187344160Y-112074342D02*
X187296541Y-111883866D01*
X187296541Y-111883866D02*
X187296541Y-111645771D01*
X187296541Y-111645771D02*
X187344160Y-111455295D01*
X187344160Y-111455295D02*
X187391779Y-111360057D01*
X187391779Y-111360057D02*
X187439398Y-111312438D01*
X187439398Y-111312438D02*
X187534636Y-111264819D01*
X132648220Y-119218152D02*
X132648220Y-119884819D01*
X132410125Y-118837200D02*
X132172030Y-119551485D01*
X132172030Y-119551485D02*
X132791077Y-119551485D01*
X133695839Y-119884819D02*
X133124411Y-119884819D01*
X133410125Y-119884819D02*
X133410125Y-118884819D01*
X133410125Y-118884819D02*
X133314887Y-119027676D01*
X133314887Y-119027676D02*
X133219649Y-119122914D01*
X133219649Y-119122914D02*
X133124411Y-119170533D01*
X139830350Y-70958152D02*
X139830350Y-71624819D01*
X139592255Y-70577200D02*
X139354160Y-71291485D01*
X139354160Y-71291485D02*
X139973207Y-71291485D01*
X139830350Y-116678152D02*
X139830350Y-117344819D01*
X139592255Y-116297200D02*
X139354160Y-117011485D01*
X139354160Y-117011485D02*
X139973207Y-117011485D01*
X140544636Y-116344819D02*
X140639874Y-116344819D01*
X140639874Y-116344819D02*
X140735112Y-116392438D01*
X140735112Y-116392438D02*
X140782731Y-116440057D01*
X140782731Y-116440057D02*
X140830350Y-116535295D01*
X140830350Y-116535295D02*
X140877969Y-116725771D01*
X140877969Y-116725771D02*
X140877969Y-116963866D01*
X140877969Y-116963866D02*
X140830350Y-117154342D01*
X140830350Y-117154342D02*
X140782731Y-117249580D01*
X140782731Y-117249580D02*
X140735112Y-117297200D01*
X140735112Y-117297200D02*
X140639874Y-117344819D01*
X140639874Y-117344819D02*
X140544636Y-117344819D01*
X140544636Y-117344819D02*
X140449398Y-117297200D01*
X140449398Y-117297200D02*
X140401779Y-117249580D01*
X140401779Y-117249580D02*
X140354160Y-117154342D01*
X140354160Y-117154342D02*
X140306541Y-116963866D01*
X140306541Y-116963866D02*
X140306541Y-116725771D01*
X140306541Y-116725771D02*
X140354160Y-116535295D01*
X140354160Y-116535295D02*
X140401779Y-116440057D01*
X140401779Y-116440057D02*
X140449398Y-116392438D01*
X140449398Y-116392438D02*
X140544636Y-116344819D01*
X179352506Y-71053390D02*
X179257268Y-71005771D01*
X179257268Y-71005771D02*
X179209649Y-70958152D01*
X179209649Y-70958152D02*
X179162030Y-70862914D01*
X179162030Y-70862914D02*
X179162030Y-70815295D01*
X179162030Y-70815295D02*
X179209649Y-70720057D01*
X179209649Y-70720057D02*
X179257268Y-70672438D01*
X179257268Y-70672438D02*
X179352506Y-70624819D01*
X179352506Y-70624819D02*
X179542982Y-70624819D01*
X179542982Y-70624819D02*
X179638220Y-70672438D01*
X179638220Y-70672438D02*
X179685839Y-70720057D01*
X179685839Y-70720057D02*
X179733458Y-70815295D01*
X179733458Y-70815295D02*
X179733458Y-70862914D01*
X179733458Y-70862914D02*
X179685839Y-70958152D01*
X179685839Y-70958152D02*
X179638220Y-71005771D01*
X179638220Y-71005771D02*
X179542982Y-71053390D01*
X179542982Y-71053390D02*
X179352506Y-71053390D01*
X179352506Y-71053390D02*
X179257268Y-71101009D01*
X179257268Y-71101009D02*
X179209649Y-71148628D01*
X179209649Y-71148628D02*
X179162030Y-71243866D01*
X179162030Y-71243866D02*
X179162030Y-71434342D01*
X179162030Y-71434342D02*
X179209649Y-71529580D01*
X179209649Y-71529580D02*
X179257268Y-71577200D01*
X179257268Y-71577200D02*
X179352506Y-71624819D01*
X179352506Y-71624819D02*
X179542982Y-71624819D01*
X179542982Y-71624819D02*
X179638220Y-71577200D01*
X179638220Y-71577200D02*
X179685839Y-71529580D01*
X179685839Y-71529580D02*
X179733458Y-71434342D01*
X179733458Y-71434342D02*
X179733458Y-71243866D01*
X179733458Y-71243866D02*
X179685839Y-71148628D01*
X179685839Y-71148628D02*
X179638220Y-71101009D01*
X179638220Y-71101009D02*
X179542982Y-71053390D01*
X180685839Y-71624819D02*
X180114411Y-71624819D01*
X180400125Y-71624819D02*
X180400125Y-70624819D01*
X180400125Y-70624819D02*
X180304887Y-70767676D01*
X180304887Y-70767676D02*
X180209649Y-70862914D01*
X180209649Y-70862914D02*
X180114411Y-70910533D01*
X133076792Y-70624819D02*
X133695839Y-70624819D01*
X133695839Y-70624819D02*
X133362506Y-71005771D01*
X133362506Y-71005771D02*
X133505363Y-71005771D01*
X133505363Y-71005771D02*
X133600601Y-71053390D01*
X133600601Y-71053390D02*
X133648220Y-71101009D01*
X133648220Y-71101009D02*
X133695839Y-71196247D01*
X133695839Y-71196247D02*
X133695839Y-71434342D01*
X133695839Y-71434342D02*
X133648220Y-71529580D01*
X133648220Y-71529580D02*
X133600601Y-71577200D01*
X133600601Y-71577200D02*
X133505363Y-71624819D01*
X133505363Y-71624819D02*
X133219649Y-71624819D01*
X133219649Y-71624819D02*
X133124411Y-71577200D01*
X133124411Y-71577200D02*
X133076792Y-71529580D01*
X179352506Y-68513390D02*
X179257268Y-68465771D01*
X179257268Y-68465771D02*
X179209649Y-68418152D01*
X179209649Y-68418152D02*
X179162030Y-68322914D01*
X179162030Y-68322914D02*
X179162030Y-68275295D01*
X179162030Y-68275295D02*
X179209649Y-68180057D01*
X179209649Y-68180057D02*
X179257268Y-68132438D01*
X179257268Y-68132438D02*
X179352506Y-68084819D01*
X179352506Y-68084819D02*
X179542982Y-68084819D01*
X179542982Y-68084819D02*
X179638220Y-68132438D01*
X179638220Y-68132438D02*
X179685839Y-68180057D01*
X179685839Y-68180057D02*
X179733458Y-68275295D01*
X179733458Y-68275295D02*
X179733458Y-68322914D01*
X179733458Y-68322914D02*
X179685839Y-68418152D01*
X179685839Y-68418152D02*
X179638220Y-68465771D01*
X179638220Y-68465771D02*
X179542982Y-68513390D01*
X179542982Y-68513390D02*
X179352506Y-68513390D01*
X179352506Y-68513390D02*
X179257268Y-68561009D01*
X179257268Y-68561009D02*
X179209649Y-68608628D01*
X179209649Y-68608628D02*
X179162030Y-68703866D01*
X179162030Y-68703866D02*
X179162030Y-68894342D01*
X179162030Y-68894342D02*
X179209649Y-68989580D01*
X179209649Y-68989580D02*
X179257268Y-69037200D01*
X179257268Y-69037200D02*
X179352506Y-69084819D01*
X179352506Y-69084819D02*
X179542982Y-69084819D01*
X179542982Y-69084819D02*
X179638220Y-69037200D01*
X179638220Y-69037200D02*
X179685839Y-68989580D01*
X179685839Y-68989580D02*
X179733458Y-68894342D01*
X179733458Y-68894342D02*
X179733458Y-68703866D01*
X179733458Y-68703866D02*
X179685839Y-68608628D01*
X179685839Y-68608628D02*
X179638220Y-68561009D01*
X179638220Y-68561009D02*
X179542982Y-68513390D01*
X180066792Y-68084819D02*
X180685839Y-68084819D01*
X180685839Y-68084819D02*
X180352506Y-68465771D01*
X180352506Y-68465771D02*
X180495363Y-68465771D01*
X180495363Y-68465771D02*
X180590601Y-68513390D01*
X180590601Y-68513390D02*
X180638220Y-68561009D01*
X180638220Y-68561009D02*
X180685839Y-68656247D01*
X180685839Y-68656247D02*
X180685839Y-68894342D01*
X180685839Y-68894342D02*
X180638220Y-68989580D01*
X180638220Y-68989580D02*
X180590601Y-69037200D01*
X180590601Y-69037200D02*
X180495363Y-69084819D01*
X180495363Y-69084819D02*
X180209649Y-69084819D01*
X180209649Y-69084819D02*
X180114411Y-69037200D01*
X180114411Y-69037200D02*
X180066792Y-68989580D01*
X186820350Y-96024819D02*
X186629874Y-96024819D01*
X186629874Y-96024819D02*
X186534636Y-96072438D01*
X186534636Y-96072438D02*
X186487017Y-96120057D01*
X186487017Y-96120057D02*
X186391779Y-96262914D01*
X186391779Y-96262914D02*
X186344160Y-96453390D01*
X186344160Y-96453390D02*
X186344160Y-96834342D01*
X186344160Y-96834342D02*
X186391779Y-96929580D01*
X186391779Y-96929580D02*
X186439398Y-96977200D01*
X186439398Y-96977200D02*
X186534636Y-97024819D01*
X186534636Y-97024819D02*
X186725112Y-97024819D01*
X186725112Y-97024819D02*
X186820350Y-96977200D01*
X186820350Y-96977200D02*
X186867969Y-96929580D01*
X186867969Y-96929580D02*
X186915588Y-96834342D01*
X186915588Y-96834342D02*
X186915588Y-96596247D01*
X186915588Y-96596247D02*
X186867969Y-96501009D01*
X186867969Y-96501009D02*
X186820350Y-96453390D01*
X186820350Y-96453390D02*
X186725112Y-96405771D01*
X186725112Y-96405771D02*
X186534636Y-96405771D01*
X186534636Y-96405771D02*
X186439398Y-96453390D01*
X186439398Y-96453390D02*
X186391779Y-96501009D01*
X186391779Y-96501009D02*
X186344160Y-96596247D01*
X187296541Y-96120057D02*
X187344160Y-96072438D01*
X187344160Y-96072438D02*
X187439398Y-96024819D01*
X187439398Y-96024819D02*
X187677493Y-96024819D01*
X187677493Y-96024819D02*
X187772731Y-96072438D01*
X187772731Y-96072438D02*
X187820350Y-96120057D01*
X187820350Y-96120057D02*
X187867969Y-96215295D01*
X187867969Y-96215295D02*
X187867969Y-96310533D01*
X187867969Y-96310533D02*
X187820350Y-96453390D01*
X187820350Y-96453390D02*
X187248922Y-97024819D01*
X187248922Y-97024819D02*
X187867969Y-97024819D01*
X132124411Y-108724819D02*
X132743458Y-108724819D01*
X132743458Y-108724819D02*
X132410125Y-109105771D01*
X132410125Y-109105771D02*
X132552982Y-109105771D01*
X132552982Y-109105771D02*
X132648220Y-109153390D01*
X132648220Y-109153390D02*
X132695839Y-109201009D01*
X132695839Y-109201009D02*
X132743458Y-109296247D01*
X132743458Y-109296247D02*
X132743458Y-109534342D01*
X132743458Y-109534342D02*
X132695839Y-109629580D01*
X132695839Y-109629580D02*
X132648220Y-109677200D01*
X132648220Y-109677200D02*
X132552982Y-109724819D01*
X132552982Y-109724819D02*
X132267268Y-109724819D01*
X132267268Y-109724819D02*
X132172030Y-109677200D01*
X132172030Y-109677200D02*
X132124411Y-109629580D01*
X133076792Y-108724819D02*
X133695839Y-108724819D01*
X133695839Y-108724819D02*
X133362506Y-109105771D01*
X133362506Y-109105771D02*
X133505363Y-109105771D01*
X133505363Y-109105771D02*
X133600601Y-109153390D01*
X133600601Y-109153390D02*
X133648220Y-109201009D01*
X133648220Y-109201009D02*
X133695839Y-109296247D01*
X133695839Y-109296247D02*
X133695839Y-109534342D01*
X133695839Y-109534342D02*
X133648220Y-109629580D01*
X133648220Y-109629580D02*
X133600601Y-109677200D01*
X133600601Y-109677200D02*
X133505363Y-109724819D01*
X133505363Y-109724819D02*
X133219649Y-109724819D01*
X133219649Y-109724819D02*
X133124411Y-109677200D01*
X133124411Y-109677200D02*
X133076792Y-109629580D01*
X186867969Y-101104819D02*
X186391779Y-101104819D01*
X186391779Y-101104819D02*
X186344160Y-101581009D01*
X186344160Y-101581009D02*
X186391779Y-101533390D01*
X186391779Y-101533390D02*
X186487017Y-101485771D01*
X186487017Y-101485771D02*
X186725112Y-101485771D01*
X186725112Y-101485771D02*
X186820350Y-101533390D01*
X186820350Y-101533390D02*
X186867969Y-101581009D01*
X186867969Y-101581009D02*
X186915588Y-101676247D01*
X186915588Y-101676247D02*
X186915588Y-101914342D01*
X186915588Y-101914342D02*
X186867969Y-102009580D01*
X186867969Y-102009580D02*
X186820350Y-102057200D01*
X186820350Y-102057200D02*
X186725112Y-102104819D01*
X186725112Y-102104819D02*
X186487017Y-102104819D01*
X186487017Y-102104819D02*
X186391779Y-102057200D01*
X186391779Y-102057200D02*
X186344160Y-102009580D01*
X187487017Y-101533390D02*
X187391779Y-101485771D01*
X187391779Y-101485771D02*
X187344160Y-101438152D01*
X187344160Y-101438152D02*
X187296541Y-101342914D01*
X187296541Y-101342914D02*
X187296541Y-101295295D01*
X187296541Y-101295295D02*
X187344160Y-101200057D01*
X187344160Y-101200057D02*
X187391779Y-101152438D01*
X187391779Y-101152438D02*
X187487017Y-101104819D01*
X187487017Y-101104819D02*
X187677493Y-101104819D01*
X187677493Y-101104819D02*
X187772731Y-101152438D01*
X187772731Y-101152438D02*
X187820350Y-101200057D01*
X187820350Y-101200057D02*
X187867969Y-101295295D01*
X187867969Y-101295295D02*
X187867969Y-101342914D01*
X187867969Y-101342914D02*
X187820350Y-101438152D01*
X187820350Y-101438152D02*
X187772731Y-101485771D01*
X187772731Y-101485771D02*
X187677493Y-101533390D01*
X187677493Y-101533390D02*
X187487017Y-101533390D01*
X187487017Y-101533390D02*
X187391779Y-101581009D01*
X187391779Y-101581009D02*
X187344160Y-101628628D01*
X187344160Y-101628628D02*
X187296541Y-101723866D01*
X187296541Y-101723866D02*
X187296541Y-101914342D01*
X187296541Y-101914342D02*
X187344160Y-102009580D01*
X187344160Y-102009580D02*
X187391779Y-102057200D01*
X187391779Y-102057200D02*
X187487017Y-102104819D01*
X187487017Y-102104819D02*
X187677493Y-102104819D01*
X187677493Y-102104819D02*
X187772731Y-102057200D01*
X187772731Y-102057200D02*
X187820350Y-102009580D01*
X187820350Y-102009580D02*
X187867969Y-101914342D01*
X187867969Y-101914342D02*
X187867969Y-101723866D01*
X187867969Y-101723866D02*
X187820350Y-101628628D01*
X187820350Y-101628628D02*
X187772731Y-101581009D01*
X187772731Y-101581009D02*
X187677493Y-101533390D01*
X186820350Y-114138152D02*
X186820350Y-114804819D01*
X186582255Y-113757200D02*
X186344160Y-114471485D01*
X186344160Y-114471485D02*
X186963207Y-114471485D01*
X187487017Y-114233390D02*
X187391779Y-114185771D01*
X187391779Y-114185771D02*
X187344160Y-114138152D01*
X187344160Y-114138152D02*
X187296541Y-114042914D01*
X187296541Y-114042914D02*
X187296541Y-113995295D01*
X187296541Y-113995295D02*
X187344160Y-113900057D01*
X187344160Y-113900057D02*
X187391779Y-113852438D01*
X187391779Y-113852438D02*
X187487017Y-113804819D01*
X187487017Y-113804819D02*
X187677493Y-113804819D01*
X187677493Y-113804819D02*
X187772731Y-113852438D01*
X187772731Y-113852438D02*
X187820350Y-113900057D01*
X187820350Y-113900057D02*
X187867969Y-113995295D01*
X187867969Y-113995295D02*
X187867969Y-114042914D01*
X187867969Y-114042914D02*
X187820350Y-114138152D01*
X187820350Y-114138152D02*
X187772731Y-114185771D01*
X187772731Y-114185771D02*
X187677493Y-114233390D01*
X187677493Y-114233390D02*
X187487017Y-114233390D01*
X187487017Y-114233390D02*
X187391779Y-114281009D01*
X187391779Y-114281009D02*
X187344160Y-114328628D01*
X187344160Y-114328628D02*
X187296541Y-114423866D01*
X187296541Y-114423866D02*
X187296541Y-114614342D01*
X187296541Y-114614342D02*
X187344160Y-114709580D01*
X187344160Y-114709580D02*
X187391779Y-114757200D01*
X187391779Y-114757200D02*
X187487017Y-114804819D01*
X187487017Y-114804819D02*
X187677493Y-114804819D01*
X187677493Y-114804819D02*
X187772731Y-114757200D01*
X187772731Y-114757200D02*
X187820350Y-114709580D01*
X187820350Y-114709580D02*
X187867969Y-114614342D01*
X187867969Y-114614342D02*
X187867969Y-114423866D01*
X187867969Y-114423866D02*
X187820350Y-114328628D01*
X187820350Y-114328628D02*
X187772731Y-114281009D01*
X187772731Y-114281009D02*
X187677493Y-114233390D01*
X139830350Y-119218152D02*
X139830350Y-119884819D01*
X139592255Y-118837200D02*
X139354160Y-119551485D01*
X139354160Y-119551485D02*
X139973207Y-119551485D01*
X140306541Y-118980057D02*
X140354160Y-118932438D01*
X140354160Y-118932438D02*
X140449398Y-118884819D01*
X140449398Y-118884819D02*
X140687493Y-118884819D01*
X140687493Y-118884819D02*
X140782731Y-118932438D01*
X140782731Y-118932438D02*
X140830350Y-118980057D01*
X140830350Y-118980057D02*
X140877969Y-119075295D01*
X140877969Y-119075295D02*
X140877969Y-119170533D01*
X140877969Y-119170533D02*
X140830350Y-119313390D01*
X140830350Y-119313390D02*
X140258922Y-119884819D01*
X140258922Y-119884819D02*
X140877969Y-119884819D01*
X186534636Y-68513390D02*
X186439398Y-68465771D01*
X186439398Y-68465771D02*
X186391779Y-68418152D01*
X186391779Y-68418152D02*
X186344160Y-68322914D01*
X186344160Y-68322914D02*
X186344160Y-68275295D01*
X186344160Y-68275295D02*
X186391779Y-68180057D01*
X186391779Y-68180057D02*
X186439398Y-68132438D01*
X186439398Y-68132438D02*
X186534636Y-68084819D01*
X186534636Y-68084819D02*
X186725112Y-68084819D01*
X186725112Y-68084819D02*
X186820350Y-68132438D01*
X186820350Y-68132438D02*
X186867969Y-68180057D01*
X186867969Y-68180057D02*
X186915588Y-68275295D01*
X186915588Y-68275295D02*
X186915588Y-68322914D01*
X186915588Y-68322914D02*
X186867969Y-68418152D01*
X186867969Y-68418152D02*
X186820350Y-68465771D01*
X186820350Y-68465771D02*
X186725112Y-68513390D01*
X186725112Y-68513390D02*
X186534636Y-68513390D01*
X186534636Y-68513390D02*
X186439398Y-68561009D01*
X186439398Y-68561009D02*
X186391779Y-68608628D01*
X186391779Y-68608628D02*
X186344160Y-68703866D01*
X186344160Y-68703866D02*
X186344160Y-68894342D01*
X186344160Y-68894342D02*
X186391779Y-68989580D01*
X186391779Y-68989580D02*
X186439398Y-69037200D01*
X186439398Y-69037200D02*
X186534636Y-69084819D01*
X186534636Y-69084819D02*
X186725112Y-69084819D01*
X186725112Y-69084819D02*
X186820350Y-69037200D01*
X186820350Y-69037200D02*
X186867969Y-68989580D01*
X186867969Y-68989580D02*
X186915588Y-68894342D01*
X186915588Y-68894342D02*
X186915588Y-68703866D01*
X186915588Y-68703866D02*
X186867969Y-68608628D01*
X186867969Y-68608628D02*
X186820350Y-68561009D01*
X186820350Y-68561009D02*
X186725112Y-68513390D01*
X187772731Y-68418152D02*
X187772731Y-69084819D01*
X187534636Y-68037200D02*
X187296541Y-68751485D01*
X187296541Y-68751485D02*
X187915588Y-68751485D01*
X132124411Y-111264819D02*
X132743458Y-111264819D01*
X132743458Y-111264819D02*
X132410125Y-111645771D01*
X132410125Y-111645771D02*
X132552982Y-111645771D01*
X132552982Y-111645771D02*
X132648220Y-111693390D01*
X132648220Y-111693390D02*
X132695839Y-111741009D01*
X132695839Y-111741009D02*
X132743458Y-111836247D01*
X132743458Y-111836247D02*
X132743458Y-112074342D01*
X132743458Y-112074342D02*
X132695839Y-112169580D01*
X132695839Y-112169580D02*
X132648220Y-112217200D01*
X132648220Y-112217200D02*
X132552982Y-112264819D01*
X132552982Y-112264819D02*
X132267268Y-112264819D01*
X132267268Y-112264819D02*
X132172030Y-112217200D01*
X132172030Y-112217200D02*
X132124411Y-112169580D01*
X133648220Y-111264819D02*
X133172030Y-111264819D01*
X133172030Y-111264819D02*
X133124411Y-111741009D01*
X133124411Y-111741009D02*
X133172030Y-111693390D01*
X133172030Y-111693390D02*
X133267268Y-111645771D01*
X133267268Y-111645771D02*
X133505363Y-111645771D01*
X133505363Y-111645771D02*
X133600601Y-111693390D01*
X133600601Y-111693390D02*
X133648220Y-111741009D01*
X133648220Y-111741009D02*
X133695839Y-111836247D01*
X133695839Y-111836247D02*
X133695839Y-112074342D01*
X133695839Y-112074342D02*
X133648220Y-112169580D01*
X133648220Y-112169580D02*
X133600601Y-112217200D01*
X133600601Y-112217200D02*
X133505363Y-112264819D01*
X133505363Y-112264819D02*
X133267268Y-112264819D01*
X133267268Y-112264819D02*
X133172030Y-112217200D01*
X133172030Y-112217200D02*
X133124411Y-112169580D01*
X132743458Y-84324819D02*
X132172030Y-84324819D01*
X132457744Y-84324819D02*
X132457744Y-83324819D01*
X132457744Y-83324819D02*
X132362506Y-83467676D01*
X132362506Y-83467676D02*
X132267268Y-83562914D01*
X132267268Y-83562914D02*
X132172030Y-83610533D01*
X133076792Y-83324819D02*
X133695839Y-83324819D01*
X133695839Y-83324819D02*
X133362506Y-83705771D01*
X133362506Y-83705771D02*
X133505363Y-83705771D01*
X133505363Y-83705771D02*
X133600601Y-83753390D01*
X133600601Y-83753390D02*
X133648220Y-83801009D01*
X133648220Y-83801009D02*
X133695839Y-83896247D01*
X133695839Y-83896247D02*
X133695839Y-84134342D01*
X133695839Y-84134342D02*
X133648220Y-84229580D01*
X133648220Y-84229580D02*
X133600601Y-84277200D01*
X133600601Y-84277200D02*
X133505363Y-84324819D01*
X133505363Y-84324819D02*
X133219649Y-84324819D01*
X133219649Y-84324819D02*
X133124411Y-84277200D01*
X133124411Y-84277200D02*
X133076792Y-84229580D01*
X186867969Y-103644819D02*
X186391779Y-103644819D01*
X186391779Y-103644819D02*
X186344160Y-104121009D01*
X186344160Y-104121009D02*
X186391779Y-104073390D01*
X186391779Y-104073390D02*
X186487017Y-104025771D01*
X186487017Y-104025771D02*
X186725112Y-104025771D01*
X186725112Y-104025771D02*
X186820350Y-104073390D01*
X186820350Y-104073390D02*
X186867969Y-104121009D01*
X186867969Y-104121009D02*
X186915588Y-104216247D01*
X186915588Y-104216247D02*
X186915588Y-104454342D01*
X186915588Y-104454342D02*
X186867969Y-104549580D01*
X186867969Y-104549580D02*
X186820350Y-104597200D01*
X186820350Y-104597200D02*
X186725112Y-104644819D01*
X186725112Y-104644819D02*
X186487017Y-104644819D01*
X186487017Y-104644819D02*
X186391779Y-104597200D01*
X186391779Y-104597200D02*
X186344160Y-104549580D01*
X187772731Y-103644819D02*
X187582255Y-103644819D01*
X187582255Y-103644819D02*
X187487017Y-103692438D01*
X187487017Y-103692438D02*
X187439398Y-103740057D01*
X187439398Y-103740057D02*
X187344160Y-103882914D01*
X187344160Y-103882914D02*
X187296541Y-104073390D01*
X187296541Y-104073390D02*
X187296541Y-104454342D01*
X187296541Y-104454342D02*
X187344160Y-104549580D01*
X187344160Y-104549580D02*
X187391779Y-104597200D01*
X187391779Y-104597200D02*
X187487017Y-104644819D01*
X187487017Y-104644819D02*
X187677493Y-104644819D01*
X187677493Y-104644819D02*
X187772731Y-104597200D01*
X187772731Y-104597200D02*
X187820350Y-104549580D01*
X187820350Y-104549580D02*
X187867969Y-104454342D01*
X187867969Y-104454342D02*
X187867969Y-104216247D01*
X187867969Y-104216247D02*
X187820350Y-104121009D01*
X187820350Y-104121009D02*
X187772731Y-104073390D01*
X187772731Y-104073390D02*
X187677493Y-104025771D01*
X187677493Y-104025771D02*
X187487017Y-104025771D01*
X187487017Y-104025771D02*
X187391779Y-104073390D01*
X187391779Y-104073390D02*
X187344160Y-104121009D01*
X187344160Y-104121009D02*
X187296541Y-104216247D01*
X133695839Y-69084819D02*
X133124411Y-69084819D01*
X133410125Y-69084819D02*
X133410125Y-68084819D01*
X133410125Y-68084819D02*
X133314887Y-68227676D01*
X133314887Y-68227676D02*
X133219649Y-68322914D01*
X133219649Y-68322914D02*
X133124411Y-68370533D01*
X133076792Y-75704819D02*
X133743458Y-75704819D01*
X133743458Y-75704819D02*
X133314887Y-76704819D01*
X186820350Y-90944819D02*
X186629874Y-90944819D01*
X186629874Y-90944819D02*
X186534636Y-90992438D01*
X186534636Y-90992438D02*
X186487017Y-91040057D01*
X186487017Y-91040057D02*
X186391779Y-91182914D01*
X186391779Y-91182914D02*
X186344160Y-91373390D01*
X186344160Y-91373390D02*
X186344160Y-91754342D01*
X186344160Y-91754342D02*
X186391779Y-91849580D01*
X186391779Y-91849580D02*
X186439398Y-91897200D01*
X186439398Y-91897200D02*
X186534636Y-91944819D01*
X186534636Y-91944819D02*
X186725112Y-91944819D01*
X186725112Y-91944819D02*
X186820350Y-91897200D01*
X186820350Y-91897200D02*
X186867969Y-91849580D01*
X186867969Y-91849580D02*
X186915588Y-91754342D01*
X186915588Y-91754342D02*
X186915588Y-91516247D01*
X186915588Y-91516247D02*
X186867969Y-91421009D01*
X186867969Y-91421009D02*
X186820350Y-91373390D01*
X186820350Y-91373390D02*
X186725112Y-91325771D01*
X186725112Y-91325771D02*
X186534636Y-91325771D01*
X186534636Y-91325771D02*
X186439398Y-91373390D01*
X186439398Y-91373390D02*
X186391779Y-91421009D01*
X186391779Y-91421009D02*
X186344160Y-91516247D01*
X187772731Y-90944819D02*
X187582255Y-90944819D01*
X187582255Y-90944819D02*
X187487017Y-90992438D01*
X187487017Y-90992438D02*
X187439398Y-91040057D01*
X187439398Y-91040057D02*
X187344160Y-91182914D01*
X187344160Y-91182914D02*
X187296541Y-91373390D01*
X187296541Y-91373390D02*
X187296541Y-91754342D01*
X187296541Y-91754342D02*
X187344160Y-91849580D01*
X187344160Y-91849580D02*
X187391779Y-91897200D01*
X187391779Y-91897200D02*
X187487017Y-91944819D01*
X187487017Y-91944819D02*
X187677493Y-91944819D01*
X187677493Y-91944819D02*
X187772731Y-91897200D01*
X187772731Y-91897200D02*
X187820350Y-91849580D01*
X187820350Y-91849580D02*
X187867969Y-91754342D01*
X187867969Y-91754342D02*
X187867969Y-91516247D01*
X187867969Y-91516247D02*
X187820350Y-91421009D01*
X187820350Y-91421009D02*
X187772731Y-91373390D01*
X187772731Y-91373390D02*
X187677493Y-91325771D01*
X187677493Y-91325771D02*
X187487017Y-91325771D01*
X187487017Y-91325771D02*
X187391779Y-91373390D01*
X187391779Y-91373390D02*
X187344160Y-91421009D01*
X187344160Y-91421009D02*
X187296541Y-91516247D01*
X132743458Y-91944819D02*
X132172030Y-91944819D01*
X132457744Y-91944819D02*
X132457744Y-90944819D01*
X132457744Y-90944819D02*
X132362506Y-91087676D01*
X132362506Y-91087676D02*
X132267268Y-91182914D01*
X132267268Y-91182914D02*
X132172030Y-91230533D01*
X133219649Y-91944819D02*
X133410125Y-91944819D01*
X133410125Y-91944819D02*
X133505363Y-91897200D01*
X133505363Y-91897200D02*
X133552982Y-91849580D01*
X133552982Y-91849580D02*
X133648220Y-91706723D01*
X133648220Y-91706723D02*
X133695839Y-91516247D01*
X133695839Y-91516247D02*
X133695839Y-91135295D01*
X133695839Y-91135295D02*
X133648220Y-91040057D01*
X133648220Y-91040057D02*
X133600601Y-90992438D01*
X133600601Y-90992438D02*
X133505363Y-90944819D01*
X133505363Y-90944819D02*
X133314887Y-90944819D01*
X133314887Y-90944819D02*
X133219649Y-90992438D01*
X133219649Y-90992438D02*
X133172030Y-91040057D01*
X133172030Y-91040057D02*
X133124411Y-91135295D01*
X133124411Y-91135295D02*
X133124411Y-91373390D01*
X133124411Y-91373390D02*
X133172030Y-91468628D01*
X133172030Y-91468628D02*
X133219649Y-91516247D01*
X133219649Y-91516247D02*
X133314887Y-91563866D01*
X133314887Y-91563866D02*
X133505363Y-91563866D01*
X133505363Y-91563866D02*
X133600601Y-91516247D01*
X133600601Y-91516247D02*
X133648220Y-91468628D01*
X133648220Y-91468628D02*
X133695839Y-91373390D01*
X186296541Y-78244819D02*
X186963207Y-78244819D01*
X186963207Y-78244819D02*
X186534636Y-79244819D01*
X187772731Y-78244819D02*
X187582255Y-78244819D01*
X187582255Y-78244819D02*
X187487017Y-78292438D01*
X187487017Y-78292438D02*
X187439398Y-78340057D01*
X187439398Y-78340057D02*
X187344160Y-78482914D01*
X187344160Y-78482914D02*
X187296541Y-78673390D01*
X187296541Y-78673390D02*
X187296541Y-79054342D01*
X187296541Y-79054342D02*
X187344160Y-79149580D01*
X187344160Y-79149580D02*
X187391779Y-79197200D01*
X187391779Y-79197200D02*
X187487017Y-79244819D01*
X187487017Y-79244819D02*
X187677493Y-79244819D01*
X187677493Y-79244819D02*
X187772731Y-79197200D01*
X187772731Y-79197200D02*
X187820350Y-79149580D01*
X187820350Y-79149580D02*
X187867969Y-79054342D01*
X187867969Y-79054342D02*
X187867969Y-78816247D01*
X187867969Y-78816247D02*
X187820350Y-78721009D01*
X187820350Y-78721009D02*
X187772731Y-78673390D01*
X187772731Y-78673390D02*
X187677493Y-78625771D01*
X187677493Y-78625771D02*
X187487017Y-78625771D01*
X187487017Y-78625771D02*
X187391779Y-78673390D01*
X187391779Y-78673390D02*
X187344160Y-78721009D01*
X187344160Y-78721009D02*
X187296541Y-78816247D01*
X158210476Y-73529819D02*
X158210476Y-72529819D01*
X158210476Y-72529819D02*
X158591428Y-72529819D01*
X158591428Y-72529819D02*
X158686666Y-72577438D01*
X158686666Y-72577438D02*
X158734285Y-72625057D01*
X158734285Y-72625057D02*
X158781904Y-72720295D01*
X158781904Y-72720295D02*
X158781904Y-72863152D01*
X158781904Y-72863152D02*
X158734285Y-72958390D01*
X158734285Y-72958390D02*
X158686666Y-73006009D01*
X158686666Y-73006009D02*
X158591428Y-73053628D01*
X158591428Y-73053628D02*
X158210476Y-73053628D01*
X159210476Y-73529819D02*
X159210476Y-72863152D01*
X159210476Y-72529819D02*
X159162857Y-72577438D01*
X159162857Y-72577438D02*
X159210476Y-72625057D01*
X159210476Y-72625057D02*
X159258095Y-72577438D01*
X159258095Y-72577438D02*
X159210476Y-72529819D01*
X159210476Y-72529819D02*
X159210476Y-72625057D01*
X159686666Y-72863152D02*
X159686666Y-73529819D01*
X159686666Y-72958390D02*
X159734285Y-72910771D01*
X159734285Y-72910771D02*
X159829523Y-72863152D01*
X159829523Y-72863152D02*
X159972380Y-72863152D01*
X159972380Y-72863152D02*
X160067618Y-72910771D01*
X160067618Y-72910771D02*
X160115237Y-73006009D01*
X160115237Y-73006009D02*
X160115237Y-73529819D01*
X161877142Y-73529819D02*
X161305714Y-73529819D01*
X161591428Y-73529819D02*
X161591428Y-72529819D01*
X161591428Y-72529819D02*
X161496190Y-72672676D01*
X161496190Y-72672676D02*
X161400952Y-72767914D01*
X161400952Y-72767914D02*
X161305714Y-72815533D01*
D11*
X145812858Y-69680504D02*
X145812858Y-68380504D01*
X145812858Y-68380504D02*
X146308096Y-68380504D01*
X146308096Y-68380504D02*
X146431906Y-68442409D01*
X146431906Y-68442409D02*
X146493811Y-68504314D01*
X146493811Y-68504314D02*
X146555715Y-68628123D01*
X146555715Y-68628123D02*
X146555715Y-68813838D01*
X146555715Y-68813838D02*
X146493811Y-68937647D01*
X146493811Y-68937647D02*
X146431906Y-68999552D01*
X146431906Y-68999552D02*
X146308096Y-69061457D01*
X146308096Y-69061457D02*
X145812858Y-69061457D01*
X147731906Y-69680504D02*
X147112858Y-69680504D01*
X147112858Y-69680504D02*
X147112858Y-68380504D01*
X148908096Y-69556695D02*
X148846192Y-69618600D01*
X148846192Y-69618600D02*
X148660477Y-69680504D01*
X148660477Y-69680504D02*
X148536668Y-69680504D01*
X148536668Y-69680504D02*
X148350954Y-69618600D01*
X148350954Y-69618600D02*
X148227144Y-69494790D01*
X148227144Y-69494790D02*
X148165239Y-69370980D01*
X148165239Y-69370980D02*
X148103335Y-69123361D01*
X148103335Y-69123361D02*
X148103335Y-68937647D01*
X148103335Y-68937647D02*
X148165239Y-68690028D01*
X148165239Y-68690028D02*
X148227144Y-68566219D01*
X148227144Y-68566219D02*
X148350954Y-68442409D01*
X148350954Y-68442409D02*
X148536668Y-68380504D01*
X148536668Y-68380504D02*
X148660477Y-68380504D01*
X148660477Y-68380504D02*
X148846192Y-68442409D01*
X148846192Y-68442409D02*
X148908096Y-68504314D01*
X150208096Y-69556695D02*
X150146192Y-69618600D01*
X150146192Y-69618600D02*
X149960477Y-69680504D01*
X149960477Y-69680504D02*
X149836668Y-69680504D01*
X149836668Y-69680504D02*
X149650954Y-69618600D01*
X149650954Y-69618600D02*
X149527144Y-69494790D01*
X149527144Y-69494790D02*
X149465239Y-69370980D01*
X149465239Y-69370980D02*
X149403335Y-69123361D01*
X149403335Y-69123361D02*
X149403335Y-68937647D01*
X149403335Y-68937647D02*
X149465239Y-68690028D01*
X149465239Y-68690028D02*
X149527144Y-68566219D01*
X149527144Y-68566219D02*
X149650954Y-68442409D01*
X149650954Y-68442409D02*
X149836668Y-68380504D01*
X149836668Y-68380504D02*
X149960477Y-68380504D01*
X149960477Y-68380504D02*
X150146192Y-68442409D01*
X150146192Y-68442409D02*
X150208096Y-68504314D01*
X151941430Y-68937647D02*
X151817620Y-68875742D01*
X151817620Y-68875742D02*
X151755715Y-68813838D01*
X151755715Y-68813838D02*
X151693811Y-68690028D01*
X151693811Y-68690028D02*
X151693811Y-68628123D01*
X151693811Y-68628123D02*
X151755715Y-68504314D01*
X151755715Y-68504314D02*
X151817620Y-68442409D01*
X151817620Y-68442409D02*
X151941430Y-68380504D01*
X151941430Y-68380504D02*
X152189049Y-68380504D01*
X152189049Y-68380504D02*
X152312858Y-68442409D01*
X152312858Y-68442409D02*
X152374763Y-68504314D01*
X152374763Y-68504314D02*
X152436668Y-68628123D01*
X152436668Y-68628123D02*
X152436668Y-68690028D01*
X152436668Y-68690028D02*
X152374763Y-68813838D01*
X152374763Y-68813838D02*
X152312858Y-68875742D01*
X152312858Y-68875742D02*
X152189049Y-68937647D01*
X152189049Y-68937647D02*
X151941430Y-68937647D01*
X151941430Y-68937647D02*
X151817620Y-68999552D01*
X151817620Y-68999552D02*
X151755715Y-69061457D01*
X151755715Y-69061457D02*
X151693811Y-69185266D01*
X151693811Y-69185266D02*
X151693811Y-69432885D01*
X151693811Y-69432885D02*
X151755715Y-69556695D01*
X151755715Y-69556695D02*
X151817620Y-69618600D01*
X151817620Y-69618600D02*
X151941430Y-69680504D01*
X151941430Y-69680504D02*
X152189049Y-69680504D01*
X152189049Y-69680504D02*
X152312858Y-69618600D01*
X152312858Y-69618600D02*
X152374763Y-69556695D01*
X152374763Y-69556695D02*
X152436668Y-69432885D01*
X152436668Y-69432885D02*
X152436668Y-69185266D01*
X152436668Y-69185266D02*
X152374763Y-69061457D01*
X152374763Y-69061457D02*
X152312858Y-68999552D01*
X152312858Y-68999552D02*
X152189049Y-68937647D01*
X153550953Y-68813838D02*
X153550953Y-69680504D01*
X153241429Y-68318600D02*
X152931906Y-69247171D01*
X152931906Y-69247171D02*
X153736667Y-69247171D01*
X155036667Y-68380504D02*
X155779524Y-68380504D01*
X155408096Y-69680504D02*
X155408096Y-68380504D01*
X156708095Y-69618600D02*
X156584286Y-69680504D01*
X156584286Y-69680504D02*
X156336667Y-69680504D01*
X156336667Y-69680504D02*
X156212857Y-69618600D01*
X156212857Y-69618600D02*
X156150953Y-69494790D01*
X156150953Y-69494790D02*
X156150953Y-68999552D01*
X156150953Y-68999552D02*
X156212857Y-68875742D01*
X156212857Y-68875742D02*
X156336667Y-68813838D01*
X156336667Y-68813838D02*
X156584286Y-68813838D01*
X156584286Y-68813838D02*
X156708095Y-68875742D01*
X156708095Y-68875742D02*
X156770000Y-68999552D01*
X156770000Y-68999552D02*
X156770000Y-69123361D01*
X156770000Y-69123361D02*
X156150953Y-69247171D01*
X157265239Y-69618600D02*
X157389048Y-69680504D01*
X157389048Y-69680504D02*
X157636667Y-69680504D01*
X157636667Y-69680504D02*
X157760477Y-69618600D01*
X157760477Y-69618600D02*
X157822381Y-69494790D01*
X157822381Y-69494790D02*
X157822381Y-69432885D01*
X157822381Y-69432885D02*
X157760477Y-69309076D01*
X157760477Y-69309076D02*
X157636667Y-69247171D01*
X157636667Y-69247171D02*
X157450953Y-69247171D01*
X157450953Y-69247171D02*
X157327143Y-69185266D01*
X157327143Y-69185266D02*
X157265239Y-69061457D01*
X157265239Y-69061457D02*
X157265239Y-68999552D01*
X157265239Y-68999552D02*
X157327143Y-68875742D01*
X157327143Y-68875742D02*
X157450953Y-68813838D01*
X157450953Y-68813838D02*
X157636667Y-68813838D01*
X157636667Y-68813838D02*
X157760477Y-68875742D01*
X158193810Y-68813838D02*
X158689048Y-68813838D01*
X158379524Y-68380504D02*
X158379524Y-69494790D01*
X158379524Y-69494790D02*
X158441429Y-69618600D01*
X158441429Y-69618600D02*
X158565239Y-69680504D01*
X158565239Y-69680504D02*
X158689048Y-69680504D01*
X160050953Y-69618600D02*
X160236667Y-69680504D01*
X160236667Y-69680504D02*
X160546191Y-69680504D01*
X160546191Y-69680504D02*
X160670000Y-69618600D01*
X160670000Y-69618600D02*
X160731905Y-69556695D01*
X160731905Y-69556695D02*
X160793810Y-69432885D01*
X160793810Y-69432885D02*
X160793810Y-69309076D01*
X160793810Y-69309076D02*
X160731905Y-69185266D01*
X160731905Y-69185266D02*
X160670000Y-69123361D01*
X160670000Y-69123361D02*
X160546191Y-69061457D01*
X160546191Y-69061457D02*
X160298572Y-68999552D01*
X160298572Y-68999552D02*
X160174762Y-68937647D01*
X160174762Y-68937647D02*
X160112857Y-68875742D01*
X160112857Y-68875742D02*
X160050953Y-68751933D01*
X160050953Y-68751933D02*
X160050953Y-68628123D01*
X160050953Y-68628123D02*
X160112857Y-68504314D01*
X160112857Y-68504314D02*
X160174762Y-68442409D01*
X160174762Y-68442409D02*
X160298572Y-68380504D01*
X160298572Y-68380504D02*
X160608095Y-68380504D01*
X160608095Y-68380504D02*
X160793810Y-68442409D01*
X161536667Y-69680504D02*
X161412857Y-69618600D01*
X161412857Y-69618600D02*
X161350952Y-69556695D01*
X161350952Y-69556695D02*
X161289048Y-69432885D01*
X161289048Y-69432885D02*
X161289048Y-69061457D01*
X161289048Y-69061457D02*
X161350952Y-68937647D01*
X161350952Y-68937647D02*
X161412857Y-68875742D01*
X161412857Y-68875742D02*
X161536667Y-68813838D01*
X161536667Y-68813838D02*
X161722381Y-68813838D01*
X161722381Y-68813838D02*
X161846190Y-68875742D01*
X161846190Y-68875742D02*
X161908095Y-68937647D01*
X161908095Y-68937647D02*
X161970000Y-69061457D01*
X161970000Y-69061457D02*
X161970000Y-69432885D01*
X161970000Y-69432885D02*
X161908095Y-69556695D01*
X161908095Y-69556695D02*
X161846190Y-69618600D01*
X161846190Y-69618600D02*
X161722381Y-69680504D01*
X161722381Y-69680504D02*
X161536667Y-69680504D01*
X163084285Y-69618600D02*
X162960476Y-69680504D01*
X162960476Y-69680504D02*
X162712857Y-69680504D01*
X162712857Y-69680504D02*
X162589047Y-69618600D01*
X162589047Y-69618600D02*
X162527142Y-69556695D01*
X162527142Y-69556695D02*
X162465238Y-69432885D01*
X162465238Y-69432885D02*
X162465238Y-69061457D01*
X162465238Y-69061457D02*
X162527142Y-68937647D01*
X162527142Y-68937647D02*
X162589047Y-68875742D01*
X162589047Y-68875742D02*
X162712857Y-68813838D01*
X162712857Y-68813838D02*
X162960476Y-68813838D01*
X162960476Y-68813838D02*
X163084285Y-68875742D01*
X163641428Y-69680504D02*
X163641428Y-68380504D01*
X163765238Y-69185266D02*
X164136666Y-69680504D01*
X164136666Y-68813838D02*
X163641428Y-69309076D01*
X165189047Y-69618600D02*
X165065238Y-69680504D01*
X165065238Y-69680504D02*
X164817619Y-69680504D01*
X164817619Y-69680504D02*
X164693809Y-69618600D01*
X164693809Y-69618600D02*
X164631905Y-69494790D01*
X164631905Y-69494790D02*
X164631905Y-68999552D01*
X164631905Y-68999552D02*
X164693809Y-68875742D01*
X164693809Y-68875742D02*
X164817619Y-68813838D01*
X164817619Y-68813838D02*
X165065238Y-68813838D01*
X165065238Y-68813838D02*
X165189047Y-68875742D01*
X165189047Y-68875742D02*
X165250952Y-68999552D01*
X165250952Y-68999552D02*
X165250952Y-69123361D01*
X165250952Y-69123361D02*
X164631905Y-69247171D01*
X165622381Y-68813838D02*
X166117619Y-68813838D01*
X165808095Y-68380504D02*
X165808095Y-69494790D01*
X165808095Y-69494790D02*
X165870000Y-69618600D01*
X165870000Y-69618600D02*
X165993810Y-69680504D01*
X165993810Y-69680504D02*
X166117619Y-69680504D01*
X167479524Y-69309076D02*
X168098571Y-69309076D01*
X167355714Y-69680504D02*
X167789047Y-68380504D01*
X167789047Y-68380504D02*
X168222381Y-69680504D01*
X169212857Y-69680504D02*
X169212857Y-68380504D01*
X169212857Y-69618600D02*
X169089048Y-69680504D01*
X169089048Y-69680504D02*
X168841429Y-69680504D01*
X168841429Y-69680504D02*
X168717619Y-69618600D01*
X168717619Y-69618600D02*
X168655714Y-69556695D01*
X168655714Y-69556695D02*
X168593810Y-69432885D01*
X168593810Y-69432885D02*
X168593810Y-69061457D01*
X168593810Y-69061457D02*
X168655714Y-68937647D01*
X168655714Y-68937647D02*
X168717619Y-68875742D01*
X168717619Y-68875742D02*
X168841429Y-68813838D01*
X168841429Y-68813838D02*
X169089048Y-68813838D01*
X169089048Y-68813838D02*
X169212857Y-68875742D01*
X170389047Y-69680504D02*
X170389047Y-68999552D01*
X170389047Y-68999552D02*
X170327142Y-68875742D01*
X170327142Y-68875742D02*
X170203333Y-68813838D01*
X170203333Y-68813838D02*
X169955714Y-68813838D01*
X169955714Y-68813838D02*
X169831904Y-68875742D01*
X170389047Y-69618600D02*
X170265238Y-69680504D01*
X170265238Y-69680504D02*
X169955714Y-69680504D01*
X169955714Y-69680504D02*
X169831904Y-69618600D01*
X169831904Y-69618600D02*
X169770000Y-69494790D01*
X169770000Y-69494790D02*
X169770000Y-69370980D01*
X169770000Y-69370980D02*
X169831904Y-69247171D01*
X169831904Y-69247171D02*
X169955714Y-69185266D01*
X169955714Y-69185266D02*
X170265238Y-69185266D01*
X170265238Y-69185266D02*
X170389047Y-69123361D01*
X171008094Y-68813838D02*
X171008094Y-70113838D01*
X171008094Y-68875742D02*
X171131904Y-68813838D01*
X171131904Y-68813838D02*
X171379523Y-68813838D01*
X171379523Y-68813838D02*
X171503332Y-68875742D01*
X171503332Y-68875742D02*
X171565237Y-68937647D01*
X171565237Y-68937647D02*
X171627142Y-69061457D01*
X171627142Y-69061457D02*
X171627142Y-69432885D01*
X171627142Y-69432885D02*
X171565237Y-69556695D01*
X171565237Y-69556695D02*
X171503332Y-69618600D01*
X171503332Y-69618600D02*
X171379523Y-69680504D01*
X171379523Y-69680504D02*
X171131904Y-69680504D01*
X171131904Y-69680504D02*
X171008094Y-69618600D01*
X171998570Y-68813838D02*
X172493808Y-68813838D01*
X172184284Y-68380504D02*
X172184284Y-69494790D01*
X172184284Y-69494790D02*
X172246189Y-69618600D01*
X172246189Y-69618600D02*
X172369999Y-69680504D01*
X172369999Y-69680504D02*
X172493808Y-69680504D01*
X173422379Y-69618600D02*
X173298570Y-69680504D01*
X173298570Y-69680504D02*
X173050951Y-69680504D01*
X173050951Y-69680504D02*
X172927141Y-69618600D01*
X172927141Y-69618600D02*
X172865237Y-69494790D01*
X172865237Y-69494790D02*
X172865237Y-68999552D01*
X172865237Y-68999552D02*
X172927141Y-68875742D01*
X172927141Y-68875742D02*
X173050951Y-68813838D01*
X173050951Y-68813838D02*
X173298570Y-68813838D01*
X173298570Y-68813838D02*
X173422379Y-68875742D01*
X173422379Y-68875742D02*
X173484284Y-68999552D01*
X173484284Y-68999552D02*
X173484284Y-69123361D01*
X173484284Y-69123361D02*
X172865237Y-69247171D01*
X174041427Y-69680504D02*
X174041427Y-68813838D01*
X174041427Y-69061457D02*
X174103332Y-68937647D01*
X174103332Y-68937647D02*
X174165237Y-68875742D01*
X174165237Y-68875742D02*
X174289046Y-68813838D01*
X174289046Y-68813838D02*
X174412856Y-68813838D01*
D10*
X132124411Y-113804819D02*
X132743458Y-113804819D01*
X132743458Y-113804819D02*
X132410125Y-114185771D01*
X132410125Y-114185771D02*
X132552982Y-114185771D01*
X132552982Y-114185771D02*
X132648220Y-114233390D01*
X132648220Y-114233390D02*
X132695839Y-114281009D01*
X132695839Y-114281009D02*
X132743458Y-114376247D01*
X132743458Y-114376247D02*
X132743458Y-114614342D01*
X132743458Y-114614342D02*
X132695839Y-114709580D01*
X132695839Y-114709580D02*
X132648220Y-114757200D01*
X132648220Y-114757200D02*
X132552982Y-114804819D01*
X132552982Y-114804819D02*
X132267268Y-114804819D01*
X132267268Y-114804819D02*
X132172030Y-114757200D01*
X132172030Y-114757200D02*
X132124411Y-114709580D01*
X133076792Y-113804819D02*
X133743458Y-113804819D01*
X133743458Y-113804819D02*
X133314887Y-114804819D01*
X132172030Y-101200057D02*
X132219649Y-101152438D01*
X132219649Y-101152438D02*
X132314887Y-101104819D01*
X132314887Y-101104819D02*
X132552982Y-101104819D01*
X132552982Y-101104819D02*
X132648220Y-101152438D01*
X132648220Y-101152438D02*
X132695839Y-101200057D01*
X132695839Y-101200057D02*
X132743458Y-101295295D01*
X132743458Y-101295295D02*
X132743458Y-101390533D01*
X132743458Y-101390533D02*
X132695839Y-101533390D01*
X132695839Y-101533390D02*
X132124411Y-102104819D01*
X132124411Y-102104819D02*
X132743458Y-102104819D01*
X133076792Y-101104819D02*
X133743458Y-101104819D01*
X133743458Y-101104819D02*
X133314887Y-102104819D01*
X186820350Y-93484819D02*
X186629874Y-93484819D01*
X186629874Y-93484819D02*
X186534636Y-93532438D01*
X186534636Y-93532438D02*
X186487017Y-93580057D01*
X186487017Y-93580057D02*
X186391779Y-93722914D01*
X186391779Y-93722914D02*
X186344160Y-93913390D01*
X186344160Y-93913390D02*
X186344160Y-94294342D01*
X186344160Y-94294342D02*
X186391779Y-94389580D01*
X186391779Y-94389580D02*
X186439398Y-94437200D01*
X186439398Y-94437200D02*
X186534636Y-94484819D01*
X186534636Y-94484819D02*
X186725112Y-94484819D01*
X186725112Y-94484819D02*
X186820350Y-94437200D01*
X186820350Y-94437200D02*
X186867969Y-94389580D01*
X186867969Y-94389580D02*
X186915588Y-94294342D01*
X186915588Y-94294342D02*
X186915588Y-94056247D01*
X186915588Y-94056247D02*
X186867969Y-93961009D01*
X186867969Y-93961009D02*
X186820350Y-93913390D01*
X186820350Y-93913390D02*
X186725112Y-93865771D01*
X186725112Y-93865771D02*
X186534636Y-93865771D01*
X186534636Y-93865771D02*
X186439398Y-93913390D01*
X186439398Y-93913390D02*
X186391779Y-93961009D01*
X186391779Y-93961009D02*
X186344160Y-94056247D01*
X187772731Y-93818152D02*
X187772731Y-94484819D01*
X187534636Y-93437200D02*
X187296541Y-94151485D01*
X187296541Y-94151485D02*
X187915588Y-94151485D01*
X139354160Y-68180057D02*
X139401779Y-68132438D01*
X139401779Y-68132438D02*
X139497017Y-68084819D01*
X139497017Y-68084819D02*
X139735112Y-68084819D01*
X139735112Y-68084819D02*
X139830350Y-68132438D01*
X139830350Y-68132438D02*
X139877969Y-68180057D01*
X139877969Y-68180057D02*
X139925588Y-68275295D01*
X139925588Y-68275295D02*
X139925588Y-68370533D01*
X139925588Y-68370533D02*
X139877969Y-68513390D01*
X139877969Y-68513390D02*
X139306541Y-69084819D01*
X139306541Y-69084819D02*
X139925588Y-69084819D01*
X186820350Y-119218152D02*
X186820350Y-119884819D01*
X186582255Y-118837200D02*
X186344160Y-119551485D01*
X186344160Y-119551485D02*
X186963207Y-119551485D01*
X187772731Y-119218152D02*
X187772731Y-119884819D01*
X187534636Y-118837200D02*
X187296541Y-119551485D01*
X187296541Y-119551485D02*
X187915588Y-119551485D01*
X186534636Y-71053390D02*
X186439398Y-71005771D01*
X186439398Y-71005771D02*
X186391779Y-70958152D01*
X186391779Y-70958152D02*
X186344160Y-70862914D01*
X186344160Y-70862914D02*
X186344160Y-70815295D01*
X186344160Y-70815295D02*
X186391779Y-70720057D01*
X186391779Y-70720057D02*
X186439398Y-70672438D01*
X186439398Y-70672438D02*
X186534636Y-70624819D01*
X186534636Y-70624819D02*
X186725112Y-70624819D01*
X186725112Y-70624819D02*
X186820350Y-70672438D01*
X186820350Y-70672438D02*
X186867969Y-70720057D01*
X186867969Y-70720057D02*
X186915588Y-70815295D01*
X186915588Y-70815295D02*
X186915588Y-70862914D01*
X186915588Y-70862914D02*
X186867969Y-70958152D01*
X186867969Y-70958152D02*
X186820350Y-71005771D01*
X186820350Y-71005771D02*
X186725112Y-71053390D01*
X186725112Y-71053390D02*
X186534636Y-71053390D01*
X186534636Y-71053390D02*
X186439398Y-71101009D01*
X186439398Y-71101009D02*
X186391779Y-71148628D01*
X186391779Y-71148628D02*
X186344160Y-71243866D01*
X186344160Y-71243866D02*
X186344160Y-71434342D01*
X186344160Y-71434342D02*
X186391779Y-71529580D01*
X186391779Y-71529580D02*
X186439398Y-71577200D01*
X186439398Y-71577200D02*
X186534636Y-71624819D01*
X186534636Y-71624819D02*
X186725112Y-71624819D01*
X186725112Y-71624819D02*
X186820350Y-71577200D01*
X186820350Y-71577200D02*
X186867969Y-71529580D01*
X186867969Y-71529580D02*
X186915588Y-71434342D01*
X186915588Y-71434342D02*
X186915588Y-71243866D01*
X186915588Y-71243866D02*
X186867969Y-71148628D01*
X186867969Y-71148628D02*
X186820350Y-71101009D01*
X186820350Y-71101009D02*
X186725112Y-71053390D01*
X187296541Y-70720057D02*
X187344160Y-70672438D01*
X187344160Y-70672438D02*
X187439398Y-70624819D01*
X187439398Y-70624819D02*
X187677493Y-70624819D01*
X187677493Y-70624819D02*
X187772731Y-70672438D01*
X187772731Y-70672438D02*
X187820350Y-70720057D01*
X187820350Y-70720057D02*
X187867969Y-70815295D01*
X187867969Y-70815295D02*
X187867969Y-70910533D01*
X187867969Y-70910533D02*
X187820350Y-71053390D01*
X187820350Y-71053390D02*
X187248922Y-71624819D01*
X187248922Y-71624819D02*
X187867969Y-71624819D01*
X132172030Y-103740057D02*
X132219649Y-103692438D01*
X132219649Y-103692438D02*
X132314887Y-103644819D01*
X132314887Y-103644819D02*
X132552982Y-103644819D01*
X132552982Y-103644819D02*
X132648220Y-103692438D01*
X132648220Y-103692438D02*
X132695839Y-103740057D01*
X132695839Y-103740057D02*
X132743458Y-103835295D01*
X132743458Y-103835295D02*
X132743458Y-103930533D01*
X132743458Y-103930533D02*
X132695839Y-104073390D01*
X132695839Y-104073390D02*
X132124411Y-104644819D01*
X132124411Y-104644819D02*
X132743458Y-104644819D01*
X133219649Y-104644819D02*
X133410125Y-104644819D01*
X133410125Y-104644819D02*
X133505363Y-104597200D01*
X133505363Y-104597200D02*
X133552982Y-104549580D01*
X133552982Y-104549580D02*
X133648220Y-104406723D01*
X133648220Y-104406723D02*
X133695839Y-104216247D01*
X133695839Y-104216247D02*
X133695839Y-103835295D01*
X133695839Y-103835295D02*
X133648220Y-103740057D01*
X133648220Y-103740057D02*
X133600601Y-103692438D01*
X133600601Y-103692438D02*
X133505363Y-103644819D01*
X133505363Y-103644819D02*
X133314887Y-103644819D01*
X133314887Y-103644819D02*
X133219649Y-103692438D01*
X133219649Y-103692438D02*
X133172030Y-103740057D01*
X133172030Y-103740057D02*
X133124411Y-103835295D01*
X133124411Y-103835295D02*
X133124411Y-104073390D01*
X133124411Y-104073390D02*
X133172030Y-104168628D01*
X133172030Y-104168628D02*
X133219649Y-104216247D01*
X133219649Y-104216247D02*
X133314887Y-104263866D01*
X133314887Y-104263866D02*
X133505363Y-104263866D01*
X133505363Y-104263866D02*
X133600601Y-104216247D01*
X133600601Y-104216247D02*
X133648220Y-104168628D01*
X133648220Y-104168628D02*
X133695839Y-104073390D01*
X186867969Y-106184819D02*
X186391779Y-106184819D01*
X186391779Y-106184819D02*
X186344160Y-106661009D01*
X186344160Y-106661009D02*
X186391779Y-106613390D01*
X186391779Y-106613390D02*
X186487017Y-106565771D01*
X186487017Y-106565771D02*
X186725112Y-106565771D01*
X186725112Y-106565771D02*
X186820350Y-106613390D01*
X186820350Y-106613390D02*
X186867969Y-106661009D01*
X186867969Y-106661009D02*
X186915588Y-106756247D01*
X186915588Y-106756247D02*
X186915588Y-106994342D01*
X186915588Y-106994342D02*
X186867969Y-107089580D01*
X186867969Y-107089580D02*
X186820350Y-107137200D01*
X186820350Y-107137200D02*
X186725112Y-107184819D01*
X186725112Y-107184819D02*
X186487017Y-107184819D01*
X186487017Y-107184819D02*
X186391779Y-107137200D01*
X186391779Y-107137200D02*
X186344160Y-107089580D01*
X187772731Y-106518152D02*
X187772731Y-107184819D01*
X187534636Y-106137200D02*
X187296541Y-106851485D01*
X187296541Y-106851485D02*
X187915588Y-106851485D01*
X132743458Y-89404819D02*
X132172030Y-89404819D01*
X132457744Y-89404819D02*
X132457744Y-88404819D01*
X132457744Y-88404819D02*
X132362506Y-88547676D01*
X132362506Y-88547676D02*
X132267268Y-88642914D01*
X132267268Y-88642914D02*
X132172030Y-88690533D01*
X133076792Y-88404819D02*
X133743458Y-88404819D01*
X133743458Y-88404819D02*
X133314887Y-89404819D01*
X158591429Y-119853152D02*
X158829524Y-120519819D01*
X158829524Y-120519819D02*
X159067619Y-119853152D01*
X159972381Y-120519819D02*
X159400953Y-120519819D01*
X159686667Y-120519819D02*
X159686667Y-119519819D01*
X159686667Y-119519819D02*
X159591429Y-119662676D01*
X159591429Y-119662676D02*
X159496191Y-119757914D01*
X159496191Y-119757914D02*
X159400953Y-119805533D01*
X160400953Y-120424580D02*
X160448572Y-120472200D01*
X160448572Y-120472200D02*
X160400953Y-120519819D01*
X160400953Y-120519819D02*
X160353334Y-120472200D01*
X160353334Y-120472200D02*
X160400953Y-120424580D01*
X160400953Y-120424580D02*
X160400953Y-120519819D01*
X161067619Y-119519819D02*
X161162857Y-119519819D01*
X161162857Y-119519819D02*
X161258095Y-119567438D01*
X161258095Y-119567438D02*
X161305714Y-119615057D01*
X161305714Y-119615057D02*
X161353333Y-119710295D01*
X161353333Y-119710295D02*
X161400952Y-119900771D01*
X161400952Y-119900771D02*
X161400952Y-120138866D01*
X161400952Y-120138866D02*
X161353333Y-120329342D01*
X161353333Y-120329342D02*
X161305714Y-120424580D01*
X161305714Y-120424580D02*
X161258095Y-120472200D01*
X161258095Y-120472200D02*
X161162857Y-120519819D01*
X161162857Y-120519819D02*
X161067619Y-120519819D01*
X161067619Y-120519819D02*
X160972381Y-120472200D01*
X160972381Y-120472200D02*
X160924762Y-120424580D01*
X160924762Y-120424580D02*
X160877143Y-120329342D01*
X160877143Y-120329342D02*
X160829524Y-120138866D01*
X160829524Y-120138866D02*
X160829524Y-119900771D01*
X160829524Y-119900771D02*
X160877143Y-119710295D01*
X160877143Y-119710295D02*
X160924762Y-119615057D01*
X160924762Y-119615057D02*
X160972381Y-119567438D01*
X160972381Y-119567438D02*
X161067619Y-119519819D01*
D12*
X159258095Y-92937419D02*
X159258095Y-93746942D01*
X159258095Y-93746942D02*
X159305714Y-93842180D01*
X159305714Y-93842180D02*
X159353333Y-93889800D01*
X159353333Y-93889800D02*
X159448571Y-93937419D01*
X159448571Y-93937419D02*
X159639047Y-93937419D01*
X159639047Y-93937419D02*
X159734285Y-93889800D01*
X159734285Y-93889800D02*
X159781904Y-93842180D01*
X159781904Y-93842180D02*
X159829523Y-93746942D01*
X159829523Y-93746942D02*
X159829523Y-92937419D01*
X160829523Y-93937419D02*
X160258095Y-93937419D01*
X160543809Y-93937419D02*
X160543809Y-92937419D01*
X160543809Y-92937419D02*
X160448571Y-93080276D01*
X160448571Y-93080276D02*
X160353333Y-93175514D01*
X160353333Y-93175514D02*
X160258095Y-93223133D01*
%TO.C,U1*%
X140020000Y-113980000D02*
X140020000Y-75980000D01*
X142020000Y-73980000D02*
X140020000Y-75980000D01*
X142020000Y-73980000D02*
X180020000Y-73980000D01*
X180020000Y-73980000D02*
X180020000Y-113980000D01*
X180020000Y-113980000D02*
X140020000Y-113980000D01*
%TD*%
M02*
