%TF.GenerationSoftware,KiCad,Pcbnew,8.0.7*%
%TF.CreationDate,2025-02-20T01:51:32-06:00*%
%TF.ProjectId,PLCC-44-Socket-Adapter,504c4343-2d34-4342-9d53-6f636b65742d,v1.0*%
%TF.SameCoordinates,Original*%
%TF.FileFunction,Copper,L2,Bot*%
%TF.FilePolarity,Positive*%
%FSLAX46Y46*%
G04 Gerber Fmt 4.6, Leading zero omitted, Abs format (unit mm)*
G04 Created by KiCad (PCBNEW 8.0.7) date 2025-02-20 01:51:32*
%MOMM*%
%LPD*%
G01*
G04 APERTURE LIST*
%TA.AperFunction,ComponentPad*%
%ADD10C,1.700000*%
%TD*%
%TA.AperFunction,ComponentPad*%
%ADD11O,1.700000X1.700000*%
%TD*%
%TA.AperFunction,ComponentPad*%
%ADD12R,1.700000X1.700000*%
%TD*%
%TA.AperFunction,ComponentPad*%
%ADD13R,1.422400X1.422400*%
%TD*%
%TA.AperFunction,ComponentPad*%
%ADD14C,1.422400*%
%TD*%
%TA.AperFunction,Conductor*%
%ADD15C,0.200000*%
%TD*%
G04 APERTURE END LIST*
D10*
%TO.P,J2,1,Pin_1*%
%TO.N,/Pin44*%
X115570000Y-66060000D03*
D11*
%TO.P,J2,2,Pin_2*%
%TO.N,/Pin43*%
X115570000Y-68600000D03*
%TO.P,J2,3,Pin_3*%
%TO.N,/Pin42*%
X115570000Y-71140000D03*
%TO.P,J2,4,Pin_4*%
%TO.N,/Pin41*%
X115570000Y-73680000D03*
%TO.P,J2,5,Pin_5*%
%TO.N,/Pin40*%
X115570000Y-76220000D03*
%TO.P,J2,6,Pin_6*%
%TO.N,/Pin39*%
X115570000Y-78760000D03*
%TO.P,J2,7,Pin_7*%
%TO.N,/Pin38*%
X115570000Y-81300000D03*
%TO.P,J2,8,Pin_8*%
%TO.N,/Pin37*%
X115570000Y-83840000D03*
%TO.P,J2,9,Pin_9*%
%TO.N,/Pin36*%
X115570000Y-86380000D03*
%TO.P,J2,10,Pin_10*%
%TO.N,/Pin35*%
X115570000Y-88920000D03*
%TO.P,J2,11,Pin_11*%
%TO.N,/Pin34*%
X115570000Y-91460000D03*
%TO.P,J2,12,Pin_12*%
%TO.N,/Pin33*%
X115570000Y-94000000D03*
%TO.P,J2,13,Pin_13*%
%TO.N,/Pin32*%
X115570000Y-96540000D03*
%TO.P,J2,14,Pin_14*%
%TO.N,/Pin31*%
X115570000Y-99080000D03*
%TO.P,J2,15,Pin_15*%
%TO.N,/Pin30*%
X115570000Y-101620000D03*
%TO.P,J2,16,Pin_16*%
%TO.N,/Pin29*%
X115570000Y-104160000D03*
%TO.P,J2,17,Pin_17*%
%TO.N,/Pin28*%
X115570000Y-106700000D03*
%TO.P,J2,18,Pin_18*%
%TO.N,/Pin27*%
X115570000Y-109240000D03*
%TO.P,J2,19,Pin_19*%
%TO.N,/Pin26*%
X115570000Y-111780000D03*
%TO.P,J2,20,Pin_20*%
%TO.N,/Pin25*%
X115570000Y-114320000D03*
%TO.P,J2,21,Pin_21*%
%TO.N,/Pin24*%
X115570000Y-116860000D03*
%TO.P,J2,22,Pin_22*%
%TO.N,/Pin23*%
X115570000Y-119400000D03*
%TD*%
D12*
%TO.P,J1,1,Pin_1*%
%TO.N,/Pin1*%
X100330000Y-66060000D03*
D11*
%TO.P,J1,2,Pin_2*%
%TO.N,/Pin2*%
X100330000Y-68600000D03*
%TO.P,J1,3,Pin_3*%
%TO.N,/Pin3*%
X100330000Y-71140000D03*
%TO.P,J1,4,Pin_4*%
%TO.N,/Pin4*%
X100330000Y-73680000D03*
%TO.P,J1,5,Pin_5*%
%TO.N,/Pin5*%
X100330000Y-76220000D03*
%TO.P,J1,6,Pin_6*%
%TO.N,/Pin6*%
X100330000Y-78760000D03*
%TO.P,J1,7,Pin_7*%
%TO.N,/Pin7*%
X100330000Y-81300000D03*
%TO.P,J1,8,Pin_8*%
%TO.N,/Pin8*%
X100330000Y-83840000D03*
%TO.P,J1,9,Pin_9*%
%TO.N,/Pin9*%
X100330000Y-86380000D03*
%TO.P,J1,10,Pin_10*%
%TO.N,/Pin10*%
X100330000Y-88920000D03*
%TO.P,J1,11,Pin_11*%
%TO.N,/Pin11*%
X100330000Y-91460000D03*
%TO.P,J1,12,Pin_12*%
%TO.N,/Pin12*%
X100330000Y-94000000D03*
%TO.P,J1,13,Pin_13*%
%TO.N,/Pin13*%
X100330000Y-96540000D03*
%TO.P,J1,14,Pin_14*%
%TO.N,/Pin14*%
X100330000Y-99080000D03*
%TO.P,J1,15,Pin_15*%
%TO.N,/Pin15*%
X100330000Y-101620000D03*
%TO.P,J1,16,Pin_16*%
%TO.N,/Pin16*%
X100330000Y-104160000D03*
%TO.P,J1,17,Pin_17*%
%TO.N,/Pin17*%
X100330000Y-106700000D03*
%TO.P,J1,18,Pin_18*%
%TO.N,/Pin18*%
X100330000Y-109240000D03*
%TO.P,J1,19,Pin_19*%
%TO.N,/Pin19*%
X100330000Y-111780000D03*
%TO.P,J1,20,Pin_20*%
%TO.N,/Pin20*%
X100330000Y-114320000D03*
%TO.P,J1,21,Pin_21*%
%TO.N,/Pin21*%
X100330000Y-116860000D03*
%TO.P,J1,22,Pin_22*%
%TO.N,/Pin22*%
X100330000Y-119400000D03*
%TD*%
D13*
%TO.P,U1,1,GCLR/I*%
%TO.N,/Pin1*%
X109220000Y-87630000D03*
D14*
%TO.P,U1,2,GCLK2/OE2/I*%
%TO.N,/Pin2*%
X106680000Y-85090000D03*
%TO.P,U1,3,VCC*%
%TO.N,/Pin3*%
X106680000Y-87630000D03*
%TO.P,U1,4,I/O*%
%TO.N,/Pin4*%
X104140000Y-85090000D03*
%TO.P,U1,5,I/O*%
%TO.N,/Pin5*%
X104140000Y-87630000D03*
%TO.P,U1,6,I/O*%
%TO.N,/Pin6*%
X101600000Y-85090000D03*
%TO.P,U1,7,TDI/I/O*%
%TO.N,/Pin7*%
X99060000Y-87630000D03*
%TO.P,U1,8,I/O*%
%TO.N,/Pin8*%
X101600000Y-87630000D03*
%TO.P,U1,9,I/O*%
%TO.N,/Pin9*%
X99060000Y-90170000D03*
%TO.P,U1,10,GND*%
%TO.N,/Pin10*%
X101600000Y-90170000D03*
%TO.P,U1,11,PD1/I/O*%
%TO.N,/Pin11*%
X99060000Y-92710000D03*
%TO.P,U1,12,I/O*%
%TO.N,/Pin12*%
X101600000Y-92710000D03*
%TO.P,U1,13,I/O/TMS*%
%TO.N,/Pin13*%
X99060000Y-95250000D03*
%TO.P,U1,14,I/O*%
%TO.N,/Pin14*%
X101600000Y-95250000D03*
%TO.P,U1,15,VCC*%
%TO.N,/Pin15*%
X99060000Y-97790000D03*
%TO.P,U1,16,I/O*%
%TO.N,/Pin16*%
X101600000Y-97790000D03*
%TO.P,U1,17,I/O*%
%TO.N,/Pin17*%
X99060000Y-100330000D03*
%TO.P,U1,18,I/O*%
%TO.N,/Pin18*%
X101600000Y-102870000D03*
%TO.P,U1,19,I/O*%
%TO.N,/Pin19*%
X101600000Y-100330000D03*
%TO.P,U1,20,I/O*%
%TO.N,/Pin20*%
X104140000Y-102870000D03*
%TO.P,U1,21,I/O*%
%TO.N,/Pin21*%
X104140000Y-100330000D03*
%TO.P,U1,22,GND*%
%TO.N,/Pin22*%
X106680000Y-102870000D03*
%TO.P,U1,23,VCC*%
%TO.N,/Pin23*%
X106680000Y-100330000D03*
%TO.P,U1,24,I/O*%
%TO.N,/Pin24*%
X109220000Y-102870000D03*
%TO.P,U1,25,PD2/I/O*%
%TO.N,/Pin25*%
X109220000Y-100330000D03*
%TO.P,U1,26,I/O*%
%TO.N,/Pin26*%
X111760000Y-102870000D03*
%TO.P,U1,27,I/O*%
%TO.N,/Pin27*%
X111760000Y-100330000D03*
%TO.P,U1,28,I/O*%
%TO.N,/Pin28*%
X114300000Y-102870000D03*
%TO.P,U1,29,I/O*%
%TO.N,/Pin29*%
X116840000Y-100330000D03*
%TO.P,U1,30,GND*%
%TO.N,/Pin30*%
X114300000Y-100330000D03*
%TO.P,U1,31,I/O*%
%TO.N,/Pin31*%
X116840000Y-97790000D03*
%TO.P,U1,32,I/O/TCK*%
%TO.N,/Pin32*%
X114300000Y-97790000D03*
%TO.P,U1,33,I/O*%
%TO.N,/Pin33*%
X116840000Y-95250000D03*
%TO.P,U1,34,I/O*%
%TO.N,/Pin34*%
X114300000Y-95250000D03*
%TO.P,U1,35,VCC*%
%TO.N,/Pin35*%
X116840000Y-92710000D03*
%TO.P,U1,36,I/O*%
%TO.N,/Pin36*%
X114300000Y-92710000D03*
%TO.P,U1,37,I/O*%
%TO.N,/Pin37*%
X116840000Y-90170000D03*
%TO.P,U1,38,I/O/TDO*%
%TO.N,/Pin38*%
X114300000Y-90170000D03*
%TO.P,U1,39,I/O*%
%TO.N,/Pin39*%
X116840000Y-87630000D03*
%TO.P,U1,40,I/O*%
%TO.N,/Pin40*%
X114300000Y-85090000D03*
%TO.P,U1,41,GCLK3/I/O*%
%TO.N,/Pin41*%
X114300000Y-87630000D03*
%TO.P,U1,42,GND*%
%TO.N,/Pin42*%
X111760000Y-85090000D03*
%TO.P,U1,43,GCLK1/I*%
%TO.N,/Pin43*%
X111760000Y-87630000D03*
%TO.P,U1,44,OE1/I*%
%TO.N,/Pin44*%
X109220000Y-85090000D03*
%TD*%
D15*
%TO.N,/Pin5*%
X102997000Y-76962000D02*
X102997000Y-86487000D01*
X102255000Y-76220000D02*
X102997000Y-76962000D01*
X100330000Y-76220000D02*
X102255000Y-76220000D01*
X102997000Y-86487000D02*
X104140000Y-87630000D01*
%TO.N,/Pin43*%
X110363000Y-85598000D02*
X110363000Y-69469000D01*
X110363000Y-69469000D02*
X111232000Y-68600000D01*
X111232000Y-68600000D02*
X115570000Y-68600000D01*
X111760000Y-86995000D02*
X110363000Y-85598000D01*
X111760000Y-87630000D02*
X111760000Y-86995000D01*
%TO.N,/Pin36*%
X112903000Y-91313000D02*
X112903000Y-87596947D01*
X114300000Y-92710000D02*
X112903000Y-91313000D01*
X112903000Y-87596947D02*
X114119947Y-86380000D01*
X114119947Y-86380000D02*
X115570000Y-86380000D01*
%TO.N,/Pin40*%
X114173000Y-77617000D02*
X115570000Y-76220000D01*
X116205000Y-80010000D02*
X114808000Y-80010000D01*
X117221000Y-81026000D02*
X116205000Y-80010000D01*
X114808000Y-80010000D02*
X114173000Y-79375000D01*
X117221000Y-84074000D02*
X117221000Y-81026000D01*
X116205000Y-85090000D02*
X117221000Y-84074000D01*
X114173000Y-79375000D02*
X114173000Y-77617000D01*
X114300000Y-85090000D02*
X116205000Y-85090000D01*
%TO.N,/Pin39*%
X117856000Y-81046000D02*
X115570000Y-78760000D01*
X117856000Y-86614000D02*
X117856000Y-81046000D01*
X116840000Y-87630000D02*
X117856000Y-86614000D01*
%TO.N,/Pin21*%
X104140000Y-100330000D02*
X105410000Y-101600000D01*
X103866000Y-116860000D02*
X100330000Y-116860000D01*
X105410000Y-101600000D02*
X105410000Y-115316000D01*
X105410000Y-115316000D02*
X103866000Y-116860000D01*
%TO.N,/Pin10*%
X100350000Y-88920000D02*
X101600000Y-90170000D01*
X100330000Y-88920000D02*
X100350000Y-88920000D01*
%TO.N,/Pin3*%
X104755000Y-71140000D02*
X104775000Y-71120000D01*
X105410000Y-86360000D02*
X106680000Y-87630000D01*
X104775000Y-71120000D02*
X105410000Y-71755000D01*
X100330000Y-71140000D02*
X104755000Y-71140000D01*
X105410000Y-71755000D02*
X105410000Y-86360000D01*
%TO.N,/Pin1*%
X107950000Y-86360000D02*
X107950000Y-66675000D01*
X107335000Y-66060000D02*
X100330000Y-66060000D01*
X109220000Y-87630000D02*
X107950000Y-86360000D01*
X107950000Y-66675000D02*
X107335000Y-66060000D01*
%TO.N,/Pin22*%
X106680000Y-118120000D02*
X105400000Y-119400000D01*
X106680000Y-102870000D02*
X106680000Y-118120000D01*
X105400000Y-119400000D02*
X100330000Y-119400000D01*
%TO.N,/Pin7*%
X98298000Y-86868000D02*
X99060000Y-87630000D01*
X100330000Y-81300000D02*
X99040000Y-81300000D01*
X99040000Y-81300000D02*
X98298000Y-82042000D01*
X98298000Y-82042000D02*
X98298000Y-86868000D01*
%TO.N,/Pin6*%
X101600000Y-80030000D02*
X101600000Y-85090000D01*
X100330000Y-78760000D02*
X101600000Y-80030000D01*
%TO.N,/Pin14*%
X101600000Y-95250000D02*
X102870000Y-96520000D01*
X102870000Y-96520000D02*
X102870000Y-97950053D01*
X102870000Y-97950053D02*
X101740053Y-99080000D01*
X101740053Y-99080000D02*
X100330000Y-99080000D01*
%TO.N,/Pin12*%
X101600000Y-92710000D02*
X101600000Y-92730000D01*
X101600000Y-92730000D02*
X100330000Y-94000000D01*
%TO.N,/Pin20*%
X104140000Y-113030000D02*
X102850000Y-114320000D01*
X102850000Y-114320000D02*
X100330000Y-114320000D01*
X104140000Y-102870000D02*
X104140000Y-113030000D01*
%TO.N,/Pin13*%
X99060000Y-95270000D02*
X100330000Y-96540000D01*
X99060000Y-95250000D02*
X99060000Y-95270000D01*
%TO.N,/Pin11*%
X100330000Y-91460000D02*
X100310000Y-91460000D01*
X100310000Y-91460000D02*
X99060000Y-92710000D01*
%TO.N,/Pin18*%
X101600000Y-107970000D02*
X100330000Y-109240000D01*
X101600000Y-102870000D02*
X101600000Y-107970000D01*
%TO.N,/Pin19*%
X102611200Y-109498800D02*
X100330000Y-111780000D01*
X102611200Y-101341200D02*
X102611200Y-109498800D01*
X101600000Y-100330000D02*
X102611200Y-101341200D01*
%TO.N,/Pin15*%
X99060000Y-97790000D02*
X97790000Y-99060000D01*
X97790000Y-101092000D02*
X98318000Y-101620000D01*
X98318000Y-101620000D02*
X100330000Y-101620000D01*
X97790000Y-99060000D02*
X97790000Y-101092000D01*
%TO.N,/Pin4*%
X103485000Y-73680000D02*
X103505000Y-73660000D01*
X104140000Y-74295000D02*
X104140000Y-85090000D01*
X103505000Y-73660000D02*
X104140000Y-74295000D01*
X100330000Y-73680000D02*
X103485000Y-73680000D01*
%TO.N,/Pin2*%
X106680000Y-69215000D02*
X106680000Y-85090000D01*
X106065000Y-68600000D02*
X106680000Y-69215000D01*
X100330000Y-68600000D02*
X106065000Y-68600000D01*
%TO.N,/Pin23*%
X109240000Y-119400000D02*
X115570000Y-119400000D01*
X107950000Y-118110000D02*
X109240000Y-119400000D01*
X106680000Y-100330000D02*
X107950000Y-101600000D01*
X107950000Y-101600000D02*
X107950000Y-118110000D01*
%TO.N,/Pin35*%
X117495000Y-88920000D02*
X115570000Y-88920000D01*
X116840000Y-92710000D02*
X118110000Y-91440000D01*
X118110000Y-89535000D02*
X117495000Y-88920000D01*
X118110000Y-91440000D02*
X118110000Y-89535000D01*
%TO.N,/Pin44*%
X109220000Y-66802000D02*
X109962000Y-66060000D01*
X109220000Y-85090000D02*
X109220000Y-66802000D01*
X109962000Y-66060000D02*
X115570000Y-66060000D01*
%TO.N,/Pin33*%
X116840000Y-95250000D02*
X116820000Y-95250000D01*
X116820000Y-95250000D02*
X115570000Y-94000000D01*
%TO.N,/Pin29*%
X116840000Y-102890000D02*
X116840000Y-100330000D01*
X115570000Y-104160000D02*
X116840000Y-102890000D01*
%TO.N,/Pin25*%
X110490000Y-101600000D02*
X110490000Y-113030000D01*
X109220000Y-100330000D02*
X110490000Y-101600000D01*
X110490000Y-113030000D02*
X111780000Y-114320000D01*
X111780000Y-114320000D02*
X115570000Y-114320000D01*
%TO.N,/Pin24*%
X109220000Y-102870000D02*
X109220000Y-115316000D01*
X109220000Y-115316000D02*
X110764000Y-116860000D01*
X110764000Y-116860000D02*
X115570000Y-116860000D01*
%TO.N,/Pin27*%
X111760000Y-100330000D02*
X113030000Y-101600000D01*
X113030000Y-106700000D02*
X115570000Y-109240000D01*
X113030000Y-101600000D02*
X113030000Y-106700000D01*
%TO.N,/Pin28*%
X114300000Y-102870000D02*
X114300000Y-105430000D01*
X114300000Y-105430000D02*
X115570000Y-106700000D01*
%TO.N,/Pin32*%
X114300000Y-97790000D02*
X114320000Y-97790000D01*
X114320000Y-97790000D02*
X115570000Y-96540000D01*
%TO.N,/Pin26*%
X111760000Y-107970000D02*
X115570000Y-111780000D01*
X111760000Y-102870000D02*
X111760000Y-107970000D01*
%TO.N,/Pin30*%
X115570000Y-101620000D02*
X115570000Y-101600000D01*
X115570000Y-101600000D02*
X114300000Y-100330000D01*
%TO.N,/Pin31*%
X115570000Y-99080000D02*
X115570000Y-99060000D01*
X115570000Y-99060000D02*
X116840000Y-97790000D01*
%TO.N,/Pin42*%
X112502000Y-71140000D02*
X115570000Y-71140000D01*
X111760000Y-85090000D02*
X111760000Y-71882000D01*
X111760000Y-71882000D02*
X112502000Y-71140000D01*
%TD*%
M02*
