M48
; DRILL file {KiCad 8.0.7} date 2025-02-20T01:51:34-0600
; FORMAT={-:-/ absolute / inch / decimal}
; #@! TF.CreationDate,2025-02-20T01:51:34-06:00
; #@! TF.GenerationSoftware,Kicad,Pcbnew,8.0.7
; #@! TF.FileFunction,MixedPlating,1,2
FMAT,2
INCH
; #@! TA.AperFunction,Plated,PTH,ComponentDrill
T1C0.0315
; #@! TA.AperFunction,Plated,PTH,ComponentDrill
T2C0.0394
%
G90
G05
T1
X3.9Y-3.45
X3.9Y-3.55
X3.9Y-3.65
X3.9Y-3.75
X3.9Y-3.85
X3.9Y-3.95
X4.0Y-3.35
X4.0Y-3.45
X4.0Y-3.55
X4.0Y-3.65
X4.0Y-3.75
X4.0Y-3.85
X4.0Y-3.95
X4.0Y-4.05
X4.1Y-3.35
X4.1Y-3.45
X4.1Y-3.95
X4.1Y-4.05
X4.2Y-3.35
X4.2Y-3.45
X4.2Y-3.95
X4.2Y-4.05
X4.3Y-3.35
X4.3Y-3.45
X4.3Y-3.95
X4.3Y-4.05
X4.4Y-3.35
X4.4Y-3.45
X4.4Y-3.95
X4.4Y-4.05
X4.5Y-3.35
X4.5Y-3.45
X4.5Y-3.55
X4.5Y-3.65
X4.5Y-3.75
X4.5Y-3.85
X4.5Y-3.95
X4.5Y-4.05
X4.6Y-3.45
X4.6Y-3.55
X4.6Y-3.65
X4.6Y-3.75
X4.6Y-3.85
X4.6Y-3.95
T2
X3.95Y-2.6008
X3.95Y-2.7008
X3.95Y-2.8008
X3.95Y-2.9008
X3.95Y-3.0008
X3.95Y-3.1008
X3.95Y-3.2008
X3.95Y-3.3008
X3.95Y-3.4008
X3.95Y-3.5008
X3.95Y-3.6008
X3.95Y-3.7008
X3.95Y-3.8008
X3.95Y-3.9008
X3.95Y-4.0008
X3.95Y-4.1008
X3.95Y-4.2008
X3.95Y-4.3008
X3.95Y-4.4008
X3.95Y-4.5008
X3.95Y-4.6008
X3.95Y-4.7008
X4.55Y-2.6008
X4.55Y-2.7008
X4.55Y-2.8008
X4.55Y-2.9008
X4.55Y-3.0008
X4.55Y-3.1008
X4.55Y-3.2008
X4.55Y-3.3008
X4.55Y-3.4008
X4.55Y-3.5008
X4.55Y-3.6008
X4.55Y-3.7008
X4.55Y-3.8008
X4.55Y-3.9008
X4.55Y-4.0008
X4.55Y-4.1008
X4.55Y-4.2008
X4.55Y-4.3008
X4.55Y-4.4008
X4.55Y-4.5008
X4.55Y-4.6008
X4.55Y-4.7008
M30
