%TF.GenerationSoftware,KiCad,Pcbnew,8.0.7*%
%TF.CreationDate,2025-02-20T00:55:41-06:00*%
%TF.ProjectId,PLCC-84-Socket-Adapter,504c4343-2d38-4342-9d53-6f636b65742d,v1.0*%
%TF.SameCoordinates,Original*%
%TF.FileFunction,Legend,Bot*%
%TF.FilePolarity,Positive*%
%FSLAX46Y46*%
G04 Gerber Fmt 4.6, Leading zero omitted, Abs format (unit mm)*
G04 Created by KiCad (PCBNEW 8.0.7) date 2025-02-20 00:55:41*
%MOMM*%
%LPD*%
G01*
G04 APERTURE LIST*
%ADD10C,0.150000*%
%ADD11C,0.120000*%
G04 APERTURE END LIST*
D10*
X180162030Y-108724819D02*
X180638220Y-108724819D01*
X180638220Y-108724819D02*
X180685839Y-109201009D01*
X180685839Y-109201009D02*
X180638220Y-109153390D01*
X180638220Y-109153390D02*
X180542982Y-109105771D01*
X180542982Y-109105771D02*
X180304887Y-109105771D01*
X180304887Y-109105771D02*
X180209649Y-109153390D01*
X180209649Y-109153390D02*
X180162030Y-109201009D01*
X180162030Y-109201009D02*
X180114411Y-109296247D01*
X180114411Y-109296247D02*
X180114411Y-109534342D01*
X180114411Y-109534342D02*
X180162030Y-109629580D01*
X180162030Y-109629580D02*
X180209649Y-109677200D01*
X180209649Y-109677200D02*
X180304887Y-109724819D01*
X180304887Y-109724819D02*
X180542982Y-109724819D01*
X180542982Y-109724819D02*
X180638220Y-109677200D01*
X180638220Y-109677200D02*
X180685839Y-109629580D01*
X179162030Y-109724819D02*
X179733458Y-109724819D01*
X179447744Y-109724819D02*
X179447744Y-108724819D01*
X179447744Y-108724819D02*
X179542982Y-108867676D01*
X179542982Y-108867676D02*
X179638220Y-108962914D01*
X179638220Y-108962914D02*
X179733458Y-109010533D01*
X133124411Y-86864819D02*
X133695839Y-86864819D01*
X133410125Y-86864819D02*
X133410125Y-85864819D01*
X133410125Y-85864819D02*
X133505363Y-86007676D01*
X133505363Y-86007676D02*
X133600601Y-86102914D01*
X133600601Y-86102914D02*
X133695839Y-86150533D01*
X132219649Y-85864819D02*
X132695839Y-85864819D01*
X132695839Y-85864819D02*
X132743458Y-86341009D01*
X132743458Y-86341009D02*
X132695839Y-86293390D01*
X132695839Y-86293390D02*
X132600601Y-86245771D01*
X132600601Y-86245771D02*
X132362506Y-86245771D01*
X132362506Y-86245771D02*
X132267268Y-86293390D01*
X132267268Y-86293390D02*
X132219649Y-86341009D01*
X132219649Y-86341009D02*
X132172030Y-86436247D01*
X132172030Y-86436247D02*
X132172030Y-86674342D01*
X132172030Y-86674342D02*
X132219649Y-86769580D01*
X132219649Y-86769580D02*
X132267268Y-86817200D01*
X132267268Y-86817200D02*
X132362506Y-86864819D01*
X132362506Y-86864819D02*
X132600601Y-86864819D01*
X132600601Y-86864819D02*
X132695839Y-86817200D01*
X132695839Y-86817200D02*
X132743458Y-86769580D01*
X180162030Y-106184819D02*
X180638220Y-106184819D01*
X180638220Y-106184819D02*
X180685839Y-106661009D01*
X180685839Y-106661009D02*
X180638220Y-106613390D01*
X180638220Y-106613390D02*
X180542982Y-106565771D01*
X180542982Y-106565771D02*
X180304887Y-106565771D01*
X180304887Y-106565771D02*
X180209649Y-106613390D01*
X180209649Y-106613390D02*
X180162030Y-106661009D01*
X180162030Y-106661009D02*
X180114411Y-106756247D01*
X180114411Y-106756247D02*
X180114411Y-106994342D01*
X180114411Y-106994342D02*
X180162030Y-107089580D01*
X180162030Y-107089580D02*
X180209649Y-107137200D01*
X180209649Y-107137200D02*
X180304887Y-107184819D01*
X180304887Y-107184819D02*
X180542982Y-107184819D01*
X180542982Y-107184819D02*
X180638220Y-107137200D01*
X180638220Y-107137200D02*
X180685839Y-107089580D01*
X179781077Y-106184819D02*
X179162030Y-106184819D01*
X179162030Y-106184819D02*
X179495363Y-106565771D01*
X179495363Y-106565771D02*
X179352506Y-106565771D01*
X179352506Y-106565771D02*
X179257268Y-106613390D01*
X179257268Y-106613390D02*
X179209649Y-106661009D01*
X179209649Y-106661009D02*
X179162030Y-106756247D01*
X179162030Y-106756247D02*
X179162030Y-106994342D01*
X179162030Y-106994342D02*
X179209649Y-107089580D01*
X179209649Y-107089580D02*
X179257268Y-107137200D01*
X179257268Y-107137200D02*
X179352506Y-107184819D01*
X179352506Y-107184819D02*
X179638220Y-107184819D01*
X179638220Y-107184819D02*
X179733458Y-107137200D01*
X179733458Y-107137200D02*
X179781077Y-107089580D01*
X180733458Y-75704819D02*
X180066792Y-75704819D01*
X180066792Y-75704819D02*
X180495363Y-76704819D01*
X179781077Y-75704819D02*
X179114411Y-75704819D01*
X179114411Y-75704819D02*
X179542982Y-76704819D01*
X168281905Y-104517819D02*
X168281905Y-103517819D01*
X168281905Y-103517819D02*
X167900953Y-103517819D01*
X167900953Y-103517819D02*
X167805715Y-103565438D01*
X167805715Y-103565438D02*
X167758096Y-103613057D01*
X167758096Y-103613057D02*
X167710477Y-103708295D01*
X167710477Y-103708295D02*
X167710477Y-103851152D01*
X167710477Y-103851152D02*
X167758096Y-103946390D01*
X167758096Y-103946390D02*
X167805715Y-103994009D01*
X167805715Y-103994009D02*
X167900953Y-104041628D01*
X167900953Y-104041628D02*
X168281905Y-104041628D01*
X166710477Y-104422580D02*
X166758096Y-104470200D01*
X166758096Y-104470200D02*
X166900953Y-104517819D01*
X166900953Y-104517819D02*
X166996191Y-104517819D01*
X166996191Y-104517819D02*
X167139048Y-104470200D01*
X167139048Y-104470200D02*
X167234286Y-104374961D01*
X167234286Y-104374961D02*
X167281905Y-104279723D01*
X167281905Y-104279723D02*
X167329524Y-104089247D01*
X167329524Y-104089247D02*
X167329524Y-103946390D01*
X167329524Y-103946390D02*
X167281905Y-103755914D01*
X167281905Y-103755914D02*
X167234286Y-103660676D01*
X167234286Y-103660676D02*
X167139048Y-103565438D01*
X167139048Y-103565438D02*
X166996191Y-103517819D01*
X166996191Y-103517819D02*
X166900953Y-103517819D01*
X166900953Y-103517819D02*
X166758096Y-103565438D01*
X166758096Y-103565438D02*
X166710477Y-103613057D01*
X165948572Y-103994009D02*
X165805715Y-104041628D01*
X165805715Y-104041628D02*
X165758096Y-104089247D01*
X165758096Y-104089247D02*
X165710477Y-104184485D01*
X165710477Y-104184485D02*
X165710477Y-104327342D01*
X165710477Y-104327342D02*
X165758096Y-104422580D01*
X165758096Y-104422580D02*
X165805715Y-104470200D01*
X165805715Y-104470200D02*
X165900953Y-104517819D01*
X165900953Y-104517819D02*
X166281905Y-104517819D01*
X166281905Y-104517819D02*
X166281905Y-103517819D01*
X166281905Y-103517819D02*
X165948572Y-103517819D01*
X165948572Y-103517819D02*
X165853334Y-103565438D01*
X165853334Y-103565438D02*
X165805715Y-103613057D01*
X165805715Y-103613057D02*
X165758096Y-103708295D01*
X165758096Y-103708295D02*
X165758096Y-103803533D01*
X165758096Y-103803533D02*
X165805715Y-103898771D01*
X165805715Y-103898771D02*
X165853334Y-103946390D01*
X165853334Y-103946390D02*
X165948572Y-103994009D01*
X165948572Y-103994009D02*
X166281905Y-103994009D01*
X164520000Y-104517819D02*
X164520000Y-103517819D01*
X164520000Y-103898771D02*
X164424762Y-103851152D01*
X164424762Y-103851152D02*
X164234286Y-103851152D01*
X164234286Y-103851152D02*
X164139048Y-103898771D01*
X164139048Y-103898771D02*
X164091429Y-103946390D01*
X164091429Y-103946390D02*
X164043810Y-104041628D01*
X164043810Y-104041628D02*
X164043810Y-104327342D01*
X164043810Y-104327342D02*
X164091429Y-104422580D01*
X164091429Y-104422580D02*
X164139048Y-104470200D01*
X164139048Y-104470200D02*
X164234286Y-104517819D01*
X164234286Y-104517819D02*
X164424762Y-104517819D01*
X164424762Y-104517819D02*
X164520000Y-104470200D01*
X163710476Y-103851152D02*
X163472381Y-104517819D01*
X163234286Y-103851152D02*
X163472381Y-104517819D01*
X163472381Y-104517819D02*
X163567619Y-104755914D01*
X163567619Y-104755914D02*
X163615238Y-104803533D01*
X163615238Y-104803533D02*
X163710476Y-104851152D01*
X161520000Y-104422580D02*
X161567619Y-104470200D01*
X161567619Y-104470200D02*
X161710476Y-104517819D01*
X161710476Y-104517819D02*
X161805714Y-104517819D01*
X161805714Y-104517819D02*
X161948571Y-104470200D01*
X161948571Y-104470200D02*
X162043809Y-104374961D01*
X162043809Y-104374961D02*
X162091428Y-104279723D01*
X162091428Y-104279723D02*
X162139047Y-104089247D01*
X162139047Y-104089247D02*
X162139047Y-103946390D01*
X162139047Y-103946390D02*
X162091428Y-103755914D01*
X162091428Y-103755914D02*
X162043809Y-103660676D01*
X162043809Y-103660676D02*
X161948571Y-103565438D01*
X161948571Y-103565438D02*
X161805714Y-103517819D01*
X161805714Y-103517819D02*
X161710476Y-103517819D01*
X161710476Y-103517819D02*
X161567619Y-103565438D01*
X161567619Y-103565438D02*
X161520000Y-103613057D01*
X161091428Y-104517819D02*
X161091428Y-103517819D01*
X160662857Y-104517819D02*
X160662857Y-103994009D01*
X160662857Y-103994009D02*
X160710476Y-103898771D01*
X160710476Y-103898771D02*
X160805714Y-103851152D01*
X160805714Y-103851152D02*
X160948571Y-103851152D01*
X160948571Y-103851152D02*
X161043809Y-103898771D01*
X161043809Y-103898771D02*
X161091428Y-103946390D01*
X160186666Y-104517819D02*
X160186666Y-103851152D01*
X160186666Y-104041628D02*
X160139047Y-103946390D01*
X160139047Y-103946390D02*
X160091428Y-103898771D01*
X160091428Y-103898771D02*
X159996190Y-103851152D01*
X159996190Y-103851152D02*
X159900952Y-103851152D01*
X159567618Y-104517819D02*
X159567618Y-103851152D01*
X159567618Y-103517819D02*
X159615237Y-103565438D01*
X159615237Y-103565438D02*
X159567618Y-103613057D01*
X159567618Y-103613057D02*
X159519999Y-103565438D01*
X159519999Y-103565438D02*
X159567618Y-103517819D01*
X159567618Y-103517819D02*
X159567618Y-103613057D01*
X159139047Y-104470200D02*
X159043809Y-104517819D01*
X159043809Y-104517819D02*
X158853333Y-104517819D01*
X158853333Y-104517819D02*
X158758095Y-104470200D01*
X158758095Y-104470200D02*
X158710476Y-104374961D01*
X158710476Y-104374961D02*
X158710476Y-104327342D01*
X158710476Y-104327342D02*
X158758095Y-104232104D01*
X158758095Y-104232104D02*
X158853333Y-104184485D01*
X158853333Y-104184485D02*
X158996190Y-104184485D01*
X158996190Y-104184485D02*
X159091428Y-104136866D01*
X159091428Y-104136866D02*
X159139047Y-104041628D01*
X159139047Y-104041628D02*
X159139047Y-103994009D01*
X159139047Y-103994009D02*
X159091428Y-103898771D01*
X159091428Y-103898771D02*
X158996190Y-103851152D01*
X158996190Y-103851152D02*
X158853333Y-103851152D01*
X158853333Y-103851152D02*
X158758095Y-103898771D01*
X157662856Y-103517819D02*
X157091428Y-103517819D01*
X157377142Y-104517819D02*
X157377142Y-103517819D01*
X156377142Y-104470200D02*
X156472380Y-104517819D01*
X156472380Y-104517819D02*
X156662856Y-104517819D01*
X156662856Y-104517819D02*
X156758094Y-104470200D01*
X156758094Y-104470200D02*
X156805713Y-104374961D01*
X156805713Y-104374961D02*
X156805713Y-103994009D01*
X156805713Y-103994009D02*
X156758094Y-103898771D01*
X156758094Y-103898771D02*
X156662856Y-103851152D01*
X156662856Y-103851152D02*
X156472380Y-103851152D01*
X156472380Y-103851152D02*
X156377142Y-103898771D01*
X156377142Y-103898771D02*
X156329523Y-103994009D01*
X156329523Y-103994009D02*
X156329523Y-104089247D01*
X156329523Y-104089247D02*
X156805713Y-104184485D01*
X155900951Y-104517819D02*
X155900951Y-103851152D01*
X155900951Y-104041628D02*
X155853332Y-103946390D01*
X155853332Y-103946390D02*
X155805713Y-103898771D01*
X155805713Y-103898771D02*
X155710475Y-103851152D01*
X155710475Y-103851152D02*
X155615237Y-103851152D01*
X155329522Y-104470200D02*
X155234284Y-104517819D01*
X155234284Y-104517819D02*
X155043808Y-104517819D01*
X155043808Y-104517819D02*
X154948570Y-104470200D01*
X154948570Y-104470200D02*
X154900951Y-104374961D01*
X154900951Y-104374961D02*
X154900951Y-104327342D01*
X154900951Y-104327342D02*
X154948570Y-104232104D01*
X154948570Y-104232104D02*
X155043808Y-104184485D01*
X155043808Y-104184485D02*
X155186665Y-104184485D01*
X155186665Y-104184485D02*
X155281903Y-104136866D01*
X155281903Y-104136866D02*
X155329522Y-104041628D01*
X155329522Y-104041628D02*
X155329522Y-103994009D01*
X155329522Y-103994009D02*
X155281903Y-103898771D01*
X155281903Y-103898771D02*
X155186665Y-103851152D01*
X155186665Y-103851152D02*
X155043808Y-103851152D01*
X155043808Y-103851152D02*
X154948570Y-103898771D01*
X154615236Y-103851152D02*
X154234284Y-103851152D01*
X154472379Y-103517819D02*
X154472379Y-104374961D01*
X154472379Y-104374961D02*
X154424760Y-104470200D01*
X154424760Y-104470200D02*
X154329522Y-104517819D01*
X154329522Y-104517819D02*
X154234284Y-104517819D01*
X153519998Y-104470200D02*
X153615236Y-104517819D01*
X153615236Y-104517819D02*
X153805712Y-104517819D01*
X153805712Y-104517819D02*
X153900950Y-104470200D01*
X153900950Y-104470200D02*
X153948569Y-104374961D01*
X153948569Y-104374961D02*
X153948569Y-103994009D01*
X153948569Y-103994009D02*
X153900950Y-103898771D01*
X153900950Y-103898771D02*
X153805712Y-103851152D01*
X153805712Y-103851152D02*
X153615236Y-103851152D01*
X153615236Y-103851152D02*
X153519998Y-103898771D01*
X153519998Y-103898771D02*
X153472379Y-103994009D01*
X153472379Y-103994009D02*
X153472379Y-104089247D01*
X153472379Y-104089247D02*
X153948569Y-104184485D01*
X152662855Y-104470200D02*
X152758093Y-104517819D01*
X152758093Y-104517819D02*
X152948569Y-104517819D01*
X152948569Y-104517819D02*
X153043807Y-104470200D01*
X153043807Y-104470200D02*
X153091426Y-104374961D01*
X153091426Y-104374961D02*
X153091426Y-103994009D01*
X153091426Y-103994009D02*
X153043807Y-103898771D01*
X153043807Y-103898771D02*
X152948569Y-103851152D01*
X152948569Y-103851152D02*
X152758093Y-103851152D01*
X152758093Y-103851152D02*
X152662855Y-103898771D01*
X152662855Y-103898771D02*
X152615236Y-103994009D01*
X152615236Y-103994009D02*
X152615236Y-104089247D01*
X152615236Y-104089247D02*
X153091426Y-104184485D01*
X151758093Y-103851152D02*
X151758093Y-104660676D01*
X151758093Y-104660676D02*
X151805712Y-104755914D01*
X151805712Y-104755914D02*
X151853331Y-104803533D01*
X151853331Y-104803533D02*
X151948569Y-104851152D01*
X151948569Y-104851152D02*
X152091426Y-104851152D01*
X152091426Y-104851152D02*
X152186664Y-104803533D01*
X151758093Y-104470200D02*
X151853331Y-104517819D01*
X151853331Y-104517819D02*
X152043807Y-104517819D01*
X152043807Y-104517819D02*
X152139045Y-104470200D01*
X152139045Y-104470200D02*
X152186664Y-104422580D01*
X152186664Y-104422580D02*
X152234283Y-104327342D01*
X152234283Y-104327342D02*
X152234283Y-104041628D01*
X152234283Y-104041628D02*
X152186664Y-103946390D01*
X152186664Y-103946390D02*
X152139045Y-103898771D01*
X152139045Y-103898771D02*
X152043807Y-103851152D01*
X152043807Y-103851152D02*
X151853331Y-103851152D01*
X151853331Y-103851152D02*
X151758093Y-103898771D01*
X140401779Y-119218152D02*
X140401779Y-119884819D01*
X140639874Y-118837200D02*
X140877969Y-119551485D01*
X140877969Y-119551485D02*
X140258922Y-119551485D01*
X139925588Y-118980057D02*
X139877969Y-118932438D01*
X139877969Y-118932438D02*
X139782731Y-118884819D01*
X139782731Y-118884819D02*
X139544636Y-118884819D01*
X139544636Y-118884819D02*
X139449398Y-118932438D01*
X139449398Y-118932438D02*
X139401779Y-118980057D01*
X139401779Y-118980057D02*
X139354160Y-119075295D01*
X139354160Y-119075295D02*
X139354160Y-119170533D01*
X139354160Y-119170533D02*
X139401779Y-119313390D01*
X139401779Y-119313390D02*
X139973207Y-119884819D01*
X139973207Y-119884819D02*
X139354160Y-119884819D01*
X140306541Y-86864819D02*
X140877969Y-86864819D01*
X140592255Y-86864819D02*
X140592255Y-85864819D01*
X140592255Y-85864819D02*
X140687493Y-86007676D01*
X140687493Y-86007676D02*
X140782731Y-86102914D01*
X140782731Y-86102914D02*
X140877969Y-86150533D01*
X139449398Y-85864819D02*
X139639874Y-85864819D01*
X139639874Y-85864819D02*
X139735112Y-85912438D01*
X139735112Y-85912438D02*
X139782731Y-85960057D01*
X139782731Y-85960057D02*
X139877969Y-86102914D01*
X139877969Y-86102914D02*
X139925588Y-86293390D01*
X139925588Y-86293390D02*
X139925588Y-86674342D01*
X139925588Y-86674342D02*
X139877969Y-86769580D01*
X139877969Y-86769580D02*
X139830350Y-86817200D01*
X139830350Y-86817200D02*
X139735112Y-86864819D01*
X139735112Y-86864819D02*
X139544636Y-86864819D01*
X139544636Y-86864819D02*
X139449398Y-86817200D01*
X139449398Y-86817200D02*
X139401779Y-86769580D01*
X139401779Y-86769580D02*
X139354160Y-86674342D01*
X139354160Y-86674342D02*
X139354160Y-86436247D01*
X139354160Y-86436247D02*
X139401779Y-86341009D01*
X139401779Y-86341009D02*
X139449398Y-86293390D01*
X139449398Y-86293390D02*
X139544636Y-86245771D01*
X139544636Y-86245771D02*
X139735112Y-86245771D01*
X139735112Y-86245771D02*
X139830350Y-86293390D01*
X139830350Y-86293390D02*
X139877969Y-86341009D01*
X139877969Y-86341009D02*
X139925588Y-86436247D01*
X133124411Y-81784819D02*
X133695839Y-81784819D01*
X133410125Y-81784819D02*
X133410125Y-80784819D01*
X133410125Y-80784819D02*
X133505363Y-80927676D01*
X133505363Y-80927676D02*
X133600601Y-81022914D01*
X133600601Y-81022914D02*
X133695839Y-81070533D01*
X132172030Y-81784819D02*
X132743458Y-81784819D01*
X132457744Y-81784819D02*
X132457744Y-80784819D01*
X132457744Y-80784819D02*
X132552982Y-80927676D01*
X132552982Y-80927676D02*
X132648220Y-81022914D01*
X132648220Y-81022914D02*
X132743458Y-81070533D01*
X180209649Y-88404819D02*
X180400125Y-88404819D01*
X180400125Y-88404819D02*
X180495363Y-88452438D01*
X180495363Y-88452438D02*
X180542982Y-88500057D01*
X180542982Y-88500057D02*
X180638220Y-88642914D01*
X180638220Y-88642914D02*
X180685839Y-88833390D01*
X180685839Y-88833390D02*
X180685839Y-89214342D01*
X180685839Y-89214342D02*
X180638220Y-89309580D01*
X180638220Y-89309580D02*
X180590601Y-89357200D01*
X180590601Y-89357200D02*
X180495363Y-89404819D01*
X180495363Y-89404819D02*
X180304887Y-89404819D01*
X180304887Y-89404819D02*
X180209649Y-89357200D01*
X180209649Y-89357200D02*
X180162030Y-89309580D01*
X180162030Y-89309580D02*
X180114411Y-89214342D01*
X180114411Y-89214342D02*
X180114411Y-88976247D01*
X180114411Y-88976247D02*
X180162030Y-88881009D01*
X180162030Y-88881009D02*
X180209649Y-88833390D01*
X180209649Y-88833390D02*
X180304887Y-88785771D01*
X180304887Y-88785771D02*
X180495363Y-88785771D01*
X180495363Y-88785771D02*
X180590601Y-88833390D01*
X180590601Y-88833390D02*
X180638220Y-88881009D01*
X180638220Y-88881009D02*
X180685839Y-88976247D01*
X179781077Y-88404819D02*
X179114411Y-88404819D01*
X179114411Y-88404819D02*
X179542982Y-89404819D01*
X180209649Y-93484819D02*
X180400125Y-93484819D01*
X180400125Y-93484819D02*
X180495363Y-93532438D01*
X180495363Y-93532438D02*
X180542982Y-93580057D01*
X180542982Y-93580057D02*
X180638220Y-93722914D01*
X180638220Y-93722914D02*
X180685839Y-93913390D01*
X180685839Y-93913390D02*
X180685839Y-94294342D01*
X180685839Y-94294342D02*
X180638220Y-94389580D01*
X180638220Y-94389580D02*
X180590601Y-94437200D01*
X180590601Y-94437200D02*
X180495363Y-94484819D01*
X180495363Y-94484819D02*
X180304887Y-94484819D01*
X180304887Y-94484819D02*
X180209649Y-94437200D01*
X180209649Y-94437200D02*
X180162030Y-94389580D01*
X180162030Y-94389580D02*
X180114411Y-94294342D01*
X180114411Y-94294342D02*
X180114411Y-94056247D01*
X180114411Y-94056247D02*
X180162030Y-93961009D01*
X180162030Y-93961009D02*
X180209649Y-93913390D01*
X180209649Y-93913390D02*
X180304887Y-93865771D01*
X180304887Y-93865771D02*
X180495363Y-93865771D01*
X180495363Y-93865771D02*
X180590601Y-93913390D01*
X180590601Y-93913390D02*
X180638220Y-93961009D01*
X180638220Y-93961009D02*
X180685839Y-94056247D01*
X179781077Y-93484819D02*
X179162030Y-93484819D01*
X179162030Y-93484819D02*
X179495363Y-93865771D01*
X179495363Y-93865771D02*
X179352506Y-93865771D01*
X179352506Y-93865771D02*
X179257268Y-93913390D01*
X179257268Y-93913390D02*
X179209649Y-93961009D01*
X179209649Y-93961009D02*
X179162030Y-94056247D01*
X179162030Y-94056247D02*
X179162030Y-94294342D01*
X179162030Y-94294342D02*
X179209649Y-94389580D01*
X179209649Y-94389580D02*
X179257268Y-94437200D01*
X179257268Y-94437200D02*
X179352506Y-94484819D01*
X179352506Y-94484819D02*
X179638220Y-94484819D01*
X179638220Y-94484819D02*
X179733458Y-94437200D01*
X179733458Y-94437200D02*
X179781077Y-94389580D01*
X187391779Y-114138152D02*
X187391779Y-114804819D01*
X187629874Y-113757200D02*
X187867969Y-114471485D01*
X187867969Y-114471485D02*
X187248922Y-114471485D01*
X186725112Y-114233390D02*
X186820350Y-114185771D01*
X186820350Y-114185771D02*
X186867969Y-114138152D01*
X186867969Y-114138152D02*
X186915588Y-114042914D01*
X186915588Y-114042914D02*
X186915588Y-113995295D01*
X186915588Y-113995295D02*
X186867969Y-113900057D01*
X186867969Y-113900057D02*
X186820350Y-113852438D01*
X186820350Y-113852438D02*
X186725112Y-113804819D01*
X186725112Y-113804819D02*
X186534636Y-113804819D01*
X186534636Y-113804819D02*
X186439398Y-113852438D01*
X186439398Y-113852438D02*
X186391779Y-113900057D01*
X186391779Y-113900057D02*
X186344160Y-113995295D01*
X186344160Y-113995295D02*
X186344160Y-114042914D01*
X186344160Y-114042914D02*
X186391779Y-114138152D01*
X186391779Y-114138152D02*
X186439398Y-114185771D01*
X186439398Y-114185771D02*
X186534636Y-114233390D01*
X186534636Y-114233390D02*
X186725112Y-114233390D01*
X186725112Y-114233390D02*
X186820350Y-114281009D01*
X186820350Y-114281009D02*
X186867969Y-114328628D01*
X186867969Y-114328628D02*
X186915588Y-114423866D01*
X186915588Y-114423866D02*
X186915588Y-114614342D01*
X186915588Y-114614342D02*
X186867969Y-114709580D01*
X186867969Y-114709580D02*
X186820350Y-114757200D01*
X186820350Y-114757200D02*
X186725112Y-114804819D01*
X186725112Y-114804819D02*
X186534636Y-114804819D01*
X186534636Y-114804819D02*
X186439398Y-114757200D01*
X186439398Y-114757200D02*
X186391779Y-114709580D01*
X186391779Y-114709580D02*
X186344160Y-114614342D01*
X186344160Y-114614342D02*
X186344160Y-114423866D01*
X186344160Y-114423866D02*
X186391779Y-114328628D01*
X186391779Y-114328628D02*
X186439398Y-114281009D01*
X186439398Y-114281009D02*
X186534636Y-114233390D01*
X133743458Y-108724819D02*
X133124411Y-108724819D01*
X133124411Y-108724819D02*
X133457744Y-109105771D01*
X133457744Y-109105771D02*
X133314887Y-109105771D01*
X133314887Y-109105771D02*
X133219649Y-109153390D01*
X133219649Y-109153390D02*
X133172030Y-109201009D01*
X133172030Y-109201009D02*
X133124411Y-109296247D01*
X133124411Y-109296247D02*
X133124411Y-109534342D01*
X133124411Y-109534342D02*
X133172030Y-109629580D01*
X133172030Y-109629580D02*
X133219649Y-109677200D01*
X133219649Y-109677200D02*
X133314887Y-109724819D01*
X133314887Y-109724819D02*
X133600601Y-109724819D01*
X133600601Y-109724819D02*
X133695839Y-109677200D01*
X133695839Y-109677200D02*
X133743458Y-109629580D01*
X132791077Y-108724819D02*
X132172030Y-108724819D01*
X132172030Y-108724819D02*
X132505363Y-109105771D01*
X132505363Y-109105771D02*
X132362506Y-109105771D01*
X132362506Y-109105771D02*
X132267268Y-109153390D01*
X132267268Y-109153390D02*
X132219649Y-109201009D01*
X132219649Y-109201009D02*
X132172030Y-109296247D01*
X132172030Y-109296247D02*
X132172030Y-109534342D01*
X132172030Y-109534342D02*
X132219649Y-109629580D01*
X132219649Y-109629580D02*
X132267268Y-109677200D01*
X132267268Y-109677200D02*
X132362506Y-109724819D01*
X132362506Y-109724819D02*
X132648220Y-109724819D01*
X132648220Y-109724819D02*
X132743458Y-109677200D01*
X132743458Y-109677200D02*
X132791077Y-109629580D01*
X140925588Y-103644819D02*
X140306541Y-103644819D01*
X140306541Y-103644819D02*
X140639874Y-104025771D01*
X140639874Y-104025771D02*
X140497017Y-104025771D01*
X140497017Y-104025771D02*
X140401779Y-104073390D01*
X140401779Y-104073390D02*
X140354160Y-104121009D01*
X140354160Y-104121009D02*
X140306541Y-104216247D01*
X140306541Y-104216247D02*
X140306541Y-104454342D01*
X140306541Y-104454342D02*
X140354160Y-104549580D01*
X140354160Y-104549580D02*
X140401779Y-104597200D01*
X140401779Y-104597200D02*
X140497017Y-104644819D01*
X140497017Y-104644819D02*
X140782731Y-104644819D01*
X140782731Y-104644819D02*
X140877969Y-104597200D01*
X140877969Y-104597200D02*
X140925588Y-104549580D01*
X139687493Y-103644819D02*
X139592255Y-103644819D01*
X139592255Y-103644819D02*
X139497017Y-103692438D01*
X139497017Y-103692438D02*
X139449398Y-103740057D01*
X139449398Y-103740057D02*
X139401779Y-103835295D01*
X139401779Y-103835295D02*
X139354160Y-104025771D01*
X139354160Y-104025771D02*
X139354160Y-104263866D01*
X139354160Y-104263866D02*
X139401779Y-104454342D01*
X139401779Y-104454342D02*
X139449398Y-104549580D01*
X139449398Y-104549580D02*
X139497017Y-104597200D01*
X139497017Y-104597200D02*
X139592255Y-104644819D01*
X139592255Y-104644819D02*
X139687493Y-104644819D01*
X139687493Y-104644819D02*
X139782731Y-104597200D01*
X139782731Y-104597200D02*
X139830350Y-104549580D01*
X139830350Y-104549580D02*
X139877969Y-104454342D01*
X139877969Y-104454342D02*
X139925588Y-104263866D01*
X139925588Y-104263866D02*
X139925588Y-104025771D01*
X139925588Y-104025771D02*
X139877969Y-103835295D01*
X139877969Y-103835295D02*
X139830350Y-103740057D01*
X139830350Y-103740057D02*
X139782731Y-103692438D01*
X139782731Y-103692438D02*
X139687493Y-103644819D01*
X139735112Y-76133390D02*
X139830350Y-76085771D01*
X139830350Y-76085771D02*
X139877969Y-76038152D01*
X139877969Y-76038152D02*
X139925588Y-75942914D01*
X139925588Y-75942914D02*
X139925588Y-75895295D01*
X139925588Y-75895295D02*
X139877969Y-75800057D01*
X139877969Y-75800057D02*
X139830350Y-75752438D01*
X139830350Y-75752438D02*
X139735112Y-75704819D01*
X139735112Y-75704819D02*
X139544636Y-75704819D01*
X139544636Y-75704819D02*
X139449398Y-75752438D01*
X139449398Y-75752438D02*
X139401779Y-75800057D01*
X139401779Y-75800057D02*
X139354160Y-75895295D01*
X139354160Y-75895295D02*
X139354160Y-75942914D01*
X139354160Y-75942914D02*
X139401779Y-76038152D01*
X139401779Y-76038152D02*
X139449398Y-76085771D01*
X139449398Y-76085771D02*
X139544636Y-76133390D01*
X139544636Y-76133390D02*
X139735112Y-76133390D01*
X139735112Y-76133390D02*
X139830350Y-76181009D01*
X139830350Y-76181009D02*
X139877969Y-76228628D01*
X139877969Y-76228628D02*
X139925588Y-76323866D01*
X139925588Y-76323866D02*
X139925588Y-76514342D01*
X139925588Y-76514342D02*
X139877969Y-76609580D01*
X139877969Y-76609580D02*
X139830350Y-76657200D01*
X139830350Y-76657200D02*
X139735112Y-76704819D01*
X139735112Y-76704819D02*
X139544636Y-76704819D01*
X139544636Y-76704819D02*
X139449398Y-76657200D01*
X139449398Y-76657200D02*
X139401779Y-76609580D01*
X139401779Y-76609580D02*
X139354160Y-76514342D01*
X139354160Y-76514342D02*
X139354160Y-76323866D01*
X139354160Y-76323866D02*
X139401779Y-76228628D01*
X139401779Y-76228628D02*
X139449398Y-76181009D01*
X139449398Y-76181009D02*
X139544636Y-76133390D01*
X187677493Y-73593390D02*
X187772731Y-73545771D01*
X187772731Y-73545771D02*
X187820350Y-73498152D01*
X187820350Y-73498152D02*
X187867969Y-73402914D01*
X187867969Y-73402914D02*
X187867969Y-73355295D01*
X187867969Y-73355295D02*
X187820350Y-73260057D01*
X187820350Y-73260057D02*
X187772731Y-73212438D01*
X187772731Y-73212438D02*
X187677493Y-73164819D01*
X187677493Y-73164819D02*
X187487017Y-73164819D01*
X187487017Y-73164819D02*
X187391779Y-73212438D01*
X187391779Y-73212438D02*
X187344160Y-73260057D01*
X187344160Y-73260057D02*
X187296541Y-73355295D01*
X187296541Y-73355295D02*
X187296541Y-73402914D01*
X187296541Y-73402914D02*
X187344160Y-73498152D01*
X187344160Y-73498152D02*
X187391779Y-73545771D01*
X187391779Y-73545771D02*
X187487017Y-73593390D01*
X187487017Y-73593390D02*
X187677493Y-73593390D01*
X187677493Y-73593390D02*
X187772731Y-73641009D01*
X187772731Y-73641009D02*
X187820350Y-73688628D01*
X187820350Y-73688628D02*
X187867969Y-73783866D01*
X187867969Y-73783866D02*
X187867969Y-73974342D01*
X187867969Y-73974342D02*
X187820350Y-74069580D01*
X187820350Y-74069580D02*
X187772731Y-74117200D01*
X187772731Y-74117200D02*
X187677493Y-74164819D01*
X187677493Y-74164819D02*
X187487017Y-74164819D01*
X187487017Y-74164819D02*
X187391779Y-74117200D01*
X187391779Y-74117200D02*
X187344160Y-74069580D01*
X187344160Y-74069580D02*
X187296541Y-73974342D01*
X187296541Y-73974342D02*
X187296541Y-73783866D01*
X187296541Y-73783866D02*
X187344160Y-73688628D01*
X187344160Y-73688628D02*
X187391779Y-73641009D01*
X187391779Y-73641009D02*
X187487017Y-73593390D01*
X186677493Y-73164819D02*
X186582255Y-73164819D01*
X186582255Y-73164819D02*
X186487017Y-73212438D01*
X186487017Y-73212438D02*
X186439398Y-73260057D01*
X186439398Y-73260057D02*
X186391779Y-73355295D01*
X186391779Y-73355295D02*
X186344160Y-73545771D01*
X186344160Y-73545771D02*
X186344160Y-73783866D01*
X186344160Y-73783866D02*
X186391779Y-73974342D01*
X186391779Y-73974342D02*
X186439398Y-74069580D01*
X186439398Y-74069580D02*
X186487017Y-74117200D01*
X186487017Y-74117200D02*
X186582255Y-74164819D01*
X186582255Y-74164819D02*
X186677493Y-74164819D01*
X186677493Y-74164819D02*
X186772731Y-74117200D01*
X186772731Y-74117200D02*
X186820350Y-74069580D01*
X186820350Y-74069580D02*
X186867969Y-73974342D01*
X186867969Y-73974342D02*
X186915588Y-73783866D01*
X186915588Y-73783866D02*
X186915588Y-73545771D01*
X186915588Y-73545771D02*
X186867969Y-73355295D01*
X186867969Y-73355295D02*
X186820350Y-73260057D01*
X186820350Y-73260057D02*
X186772731Y-73212438D01*
X186772731Y-73212438D02*
X186677493Y-73164819D01*
X139449398Y-73164819D02*
X139639874Y-73164819D01*
X139639874Y-73164819D02*
X139735112Y-73212438D01*
X139735112Y-73212438D02*
X139782731Y-73260057D01*
X139782731Y-73260057D02*
X139877969Y-73402914D01*
X139877969Y-73402914D02*
X139925588Y-73593390D01*
X139925588Y-73593390D02*
X139925588Y-73974342D01*
X139925588Y-73974342D02*
X139877969Y-74069580D01*
X139877969Y-74069580D02*
X139830350Y-74117200D01*
X139830350Y-74117200D02*
X139735112Y-74164819D01*
X139735112Y-74164819D02*
X139544636Y-74164819D01*
X139544636Y-74164819D02*
X139449398Y-74117200D01*
X139449398Y-74117200D02*
X139401779Y-74069580D01*
X139401779Y-74069580D02*
X139354160Y-73974342D01*
X139354160Y-73974342D02*
X139354160Y-73736247D01*
X139354160Y-73736247D02*
X139401779Y-73641009D01*
X139401779Y-73641009D02*
X139449398Y-73593390D01*
X139449398Y-73593390D02*
X139544636Y-73545771D01*
X139544636Y-73545771D02*
X139735112Y-73545771D01*
X139735112Y-73545771D02*
X139830350Y-73593390D01*
X139830350Y-73593390D02*
X139877969Y-73641009D01*
X139877969Y-73641009D02*
X139925588Y-73736247D01*
X133743458Y-106184819D02*
X133124411Y-106184819D01*
X133124411Y-106184819D02*
X133457744Y-106565771D01*
X133457744Y-106565771D02*
X133314887Y-106565771D01*
X133314887Y-106565771D02*
X133219649Y-106613390D01*
X133219649Y-106613390D02*
X133172030Y-106661009D01*
X133172030Y-106661009D02*
X133124411Y-106756247D01*
X133124411Y-106756247D02*
X133124411Y-106994342D01*
X133124411Y-106994342D02*
X133172030Y-107089580D01*
X133172030Y-107089580D02*
X133219649Y-107137200D01*
X133219649Y-107137200D02*
X133314887Y-107184819D01*
X133314887Y-107184819D02*
X133600601Y-107184819D01*
X133600601Y-107184819D02*
X133695839Y-107137200D01*
X133695839Y-107137200D02*
X133743458Y-107089580D01*
X132172030Y-107184819D02*
X132743458Y-107184819D01*
X132457744Y-107184819D02*
X132457744Y-106184819D01*
X132457744Y-106184819D02*
X132552982Y-106327676D01*
X132552982Y-106327676D02*
X132648220Y-106422914D01*
X132648220Y-106422914D02*
X132743458Y-106470533D01*
X140306541Y-79244819D02*
X140877969Y-79244819D01*
X140592255Y-79244819D02*
X140592255Y-78244819D01*
X140592255Y-78244819D02*
X140687493Y-78387676D01*
X140687493Y-78387676D02*
X140782731Y-78482914D01*
X140782731Y-78482914D02*
X140877969Y-78530533D01*
X139687493Y-78244819D02*
X139592255Y-78244819D01*
X139592255Y-78244819D02*
X139497017Y-78292438D01*
X139497017Y-78292438D02*
X139449398Y-78340057D01*
X139449398Y-78340057D02*
X139401779Y-78435295D01*
X139401779Y-78435295D02*
X139354160Y-78625771D01*
X139354160Y-78625771D02*
X139354160Y-78863866D01*
X139354160Y-78863866D02*
X139401779Y-79054342D01*
X139401779Y-79054342D02*
X139449398Y-79149580D01*
X139449398Y-79149580D02*
X139497017Y-79197200D01*
X139497017Y-79197200D02*
X139592255Y-79244819D01*
X139592255Y-79244819D02*
X139687493Y-79244819D01*
X139687493Y-79244819D02*
X139782731Y-79197200D01*
X139782731Y-79197200D02*
X139830350Y-79149580D01*
X139830350Y-79149580D02*
X139877969Y-79054342D01*
X139877969Y-79054342D02*
X139925588Y-78863866D01*
X139925588Y-78863866D02*
X139925588Y-78625771D01*
X139925588Y-78625771D02*
X139877969Y-78435295D01*
X139877969Y-78435295D02*
X139830350Y-78340057D01*
X139830350Y-78340057D02*
X139782731Y-78292438D01*
X139782731Y-78292438D02*
X139687493Y-78244819D01*
X133124411Y-89404819D02*
X133695839Y-89404819D01*
X133410125Y-89404819D02*
X133410125Y-88404819D01*
X133410125Y-88404819D02*
X133505363Y-88547676D01*
X133505363Y-88547676D02*
X133600601Y-88642914D01*
X133600601Y-88642914D02*
X133695839Y-88690533D01*
X132791077Y-88404819D02*
X132124411Y-88404819D01*
X132124411Y-88404819D02*
X132552982Y-89404819D01*
X140877969Y-101200057D02*
X140830350Y-101152438D01*
X140830350Y-101152438D02*
X140735112Y-101104819D01*
X140735112Y-101104819D02*
X140497017Y-101104819D01*
X140497017Y-101104819D02*
X140401779Y-101152438D01*
X140401779Y-101152438D02*
X140354160Y-101200057D01*
X140354160Y-101200057D02*
X140306541Y-101295295D01*
X140306541Y-101295295D02*
X140306541Y-101390533D01*
X140306541Y-101390533D02*
X140354160Y-101533390D01*
X140354160Y-101533390D02*
X140925588Y-102104819D01*
X140925588Y-102104819D02*
X140306541Y-102104819D01*
X139735112Y-101533390D02*
X139830350Y-101485771D01*
X139830350Y-101485771D02*
X139877969Y-101438152D01*
X139877969Y-101438152D02*
X139925588Y-101342914D01*
X139925588Y-101342914D02*
X139925588Y-101295295D01*
X139925588Y-101295295D02*
X139877969Y-101200057D01*
X139877969Y-101200057D02*
X139830350Y-101152438D01*
X139830350Y-101152438D02*
X139735112Y-101104819D01*
X139735112Y-101104819D02*
X139544636Y-101104819D01*
X139544636Y-101104819D02*
X139449398Y-101152438D01*
X139449398Y-101152438D02*
X139401779Y-101200057D01*
X139401779Y-101200057D02*
X139354160Y-101295295D01*
X139354160Y-101295295D02*
X139354160Y-101342914D01*
X139354160Y-101342914D02*
X139401779Y-101438152D01*
X139401779Y-101438152D02*
X139449398Y-101485771D01*
X139449398Y-101485771D02*
X139544636Y-101533390D01*
X139544636Y-101533390D02*
X139735112Y-101533390D01*
X139735112Y-101533390D02*
X139830350Y-101581009D01*
X139830350Y-101581009D02*
X139877969Y-101628628D01*
X139877969Y-101628628D02*
X139925588Y-101723866D01*
X139925588Y-101723866D02*
X139925588Y-101914342D01*
X139925588Y-101914342D02*
X139877969Y-102009580D01*
X139877969Y-102009580D02*
X139830350Y-102057200D01*
X139830350Y-102057200D02*
X139735112Y-102104819D01*
X139735112Y-102104819D02*
X139544636Y-102104819D01*
X139544636Y-102104819D02*
X139449398Y-102057200D01*
X139449398Y-102057200D02*
X139401779Y-102009580D01*
X139401779Y-102009580D02*
X139354160Y-101914342D01*
X139354160Y-101914342D02*
X139354160Y-101723866D01*
X139354160Y-101723866D02*
X139401779Y-101628628D01*
X139401779Y-101628628D02*
X139449398Y-101581009D01*
X139449398Y-101581009D02*
X139544636Y-101533390D01*
X140877969Y-93580057D02*
X140830350Y-93532438D01*
X140830350Y-93532438D02*
X140735112Y-93484819D01*
X140735112Y-93484819D02*
X140497017Y-93484819D01*
X140497017Y-93484819D02*
X140401779Y-93532438D01*
X140401779Y-93532438D02*
X140354160Y-93580057D01*
X140354160Y-93580057D02*
X140306541Y-93675295D01*
X140306541Y-93675295D02*
X140306541Y-93770533D01*
X140306541Y-93770533D02*
X140354160Y-93913390D01*
X140354160Y-93913390D02*
X140925588Y-94484819D01*
X140925588Y-94484819D02*
X140306541Y-94484819D01*
X139925588Y-93580057D02*
X139877969Y-93532438D01*
X139877969Y-93532438D02*
X139782731Y-93484819D01*
X139782731Y-93484819D02*
X139544636Y-93484819D01*
X139544636Y-93484819D02*
X139449398Y-93532438D01*
X139449398Y-93532438D02*
X139401779Y-93580057D01*
X139401779Y-93580057D02*
X139354160Y-93675295D01*
X139354160Y-93675295D02*
X139354160Y-93770533D01*
X139354160Y-93770533D02*
X139401779Y-93913390D01*
X139401779Y-93913390D02*
X139973207Y-94484819D01*
X139973207Y-94484819D02*
X139354160Y-94484819D01*
X180209649Y-116678152D02*
X180209649Y-117344819D01*
X180447744Y-116297200D02*
X180685839Y-117011485D01*
X180685839Y-117011485D02*
X180066792Y-117011485D01*
X179209649Y-116344819D02*
X179685839Y-116344819D01*
X179685839Y-116344819D02*
X179733458Y-116821009D01*
X179733458Y-116821009D02*
X179685839Y-116773390D01*
X179685839Y-116773390D02*
X179590601Y-116725771D01*
X179590601Y-116725771D02*
X179352506Y-116725771D01*
X179352506Y-116725771D02*
X179257268Y-116773390D01*
X179257268Y-116773390D02*
X179209649Y-116821009D01*
X179209649Y-116821009D02*
X179162030Y-116916247D01*
X179162030Y-116916247D02*
X179162030Y-117154342D01*
X179162030Y-117154342D02*
X179209649Y-117249580D01*
X179209649Y-117249580D02*
X179257268Y-117297200D01*
X179257268Y-117297200D02*
X179352506Y-117344819D01*
X179352506Y-117344819D02*
X179590601Y-117344819D01*
X179590601Y-117344819D02*
X179685839Y-117297200D01*
X179685839Y-117297200D02*
X179733458Y-117249580D01*
X133743458Y-113804819D02*
X133124411Y-113804819D01*
X133124411Y-113804819D02*
X133457744Y-114185771D01*
X133457744Y-114185771D02*
X133314887Y-114185771D01*
X133314887Y-114185771D02*
X133219649Y-114233390D01*
X133219649Y-114233390D02*
X133172030Y-114281009D01*
X133172030Y-114281009D02*
X133124411Y-114376247D01*
X133124411Y-114376247D02*
X133124411Y-114614342D01*
X133124411Y-114614342D02*
X133172030Y-114709580D01*
X133172030Y-114709580D02*
X133219649Y-114757200D01*
X133219649Y-114757200D02*
X133314887Y-114804819D01*
X133314887Y-114804819D02*
X133600601Y-114804819D01*
X133600601Y-114804819D02*
X133695839Y-114757200D01*
X133695839Y-114757200D02*
X133743458Y-114709580D01*
X132791077Y-113804819D02*
X132124411Y-113804819D01*
X132124411Y-113804819D02*
X132552982Y-114804819D01*
X180209649Y-96024819D02*
X180400125Y-96024819D01*
X180400125Y-96024819D02*
X180495363Y-96072438D01*
X180495363Y-96072438D02*
X180542982Y-96120057D01*
X180542982Y-96120057D02*
X180638220Y-96262914D01*
X180638220Y-96262914D02*
X180685839Y-96453390D01*
X180685839Y-96453390D02*
X180685839Y-96834342D01*
X180685839Y-96834342D02*
X180638220Y-96929580D01*
X180638220Y-96929580D02*
X180590601Y-96977200D01*
X180590601Y-96977200D02*
X180495363Y-97024819D01*
X180495363Y-97024819D02*
X180304887Y-97024819D01*
X180304887Y-97024819D02*
X180209649Y-96977200D01*
X180209649Y-96977200D02*
X180162030Y-96929580D01*
X180162030Y-96929580D02*
X180114411Y-96834342D01*
X180114411Y-96834342D02*
X180114411Y-96596247D01*
X180114411Y-96596247D02*
X180162030Y-96501009D01*
X180162030Y-96501009D02*
X180209649Y-96453390D01*
X180209649Y-96453390D02*
X180304887Y-96405771D01*
X180304887Y-96405771D02*
X180495363Y-96405771D01*
X180495363Y-96405771D02*
X180590601Y-96453390D01*
X180590601Y-96453390D02*
X180638220Y-96501009D01*
X180638220Y-96501009D02*
X180685839Y-96596247D01*
X179162030Y-97024819D02*
X179733458Y-97024819D01*
X179447744Y-97024819D02*
X179447744Y-96024819D01*
X179447744Y-96024819D02*
X179542982Y-96167676D01*
X179542982Y-96167676D02*
X179638220Y-96262914D01*
X179638220Y-96262914D02*
X179733458Y-96310533D01*
X180733458Y-80784819D02*
X180066792Y-80784819D01*
X180066792Y-80784819D02*
X180495363Y-81784819D01*
X179781077Y-80784819D02*
X179162030Y-80784819D01*
X179162030Y-80784819D02*
X179495363Y-81165771D01*
X179495363Y-81165771D02*
X179352506Y-81165771D01*
X179352506Y-81165771D02*
X179257268Y-81213390D01*
X179257268Y-81213390D02*
X179209649Y-81261009D01*
X179209649Y-81261009D02*
X179162030Y-81356247D01*
X179162030Y-81356247D02*
X179162030Y-81594342D01*
X179162030Y-81594342D02*
X179209649Y-81689580D01*
X179209649Y-81689580D02*
X179257268Y-81737200D01*
X179257268Y-81737200D02*
X179352506Y-81784819D01*
X179352506Y-81784819D02*
X179638220Y-81784819D01*
X179638220Y-81784819D02*
X179733458Y-81737200D01*
X179733458Y-81737200D02*
X179781077Y-81689580D01*
X139925588Y-68180057D02*
X139877969Y-68132438D01*
X139877969Y-68132438D02*
X139782731Y-68084819D01*
X139782731Y-68084819D02*
X139544636Y-68084819D01*
X139544636Y-68084819D02*
X139449398Y-68132438D01*
X139449398Y-68132438D02*
X139401779Y-68180057D01*
X139401779Y-68180057D02*
X139354160Y-68275295D01*
X139354160Y-68275295D02*
X139354160Y-68370533D01*
X139354160Y-68370533D02*
X139401779Y-68513390D01*
X139401779Y-68513390D02*
X139973207Y-69084819D01*
X139973207Y-69084819D02*
X139354160Y-69084819D01*
X187344160Y-106184819D02*
X187820350Y-106184819D01*
X187820350Y-106184819D02*
X187867969Y-106661009D01*
X187867969Y-106661009D02*
X187820350Y-106613390D01*
X187820350Y-106613390D02*
X187725112Y-106565771D01*
X187725112Y-106565771D02*
X187487017Y-106565771D01*
X187487017Y-106565771D02*
X187391779Y-106613390D01*
X187391779Y-106613390D02*
X187344160Y-106661009D01*
X187344160Y-106661009D02*
X187296541Y-106756247D01*
X187296541Y-106756247D02*
X187296541Y-106994342D01*
X187296541Y-106994342D02*
X187344160Y-107089580D01*
X187344160Y-107089580D02*
X187391779Y-107137200D01*
X187391779Y-107137200D02*
X187487017Y-107184819D01*
X187487017Y-107184819D02*
X187725112Y-107184819D01*
X187725112Y-107184819D02*
X187820350Y-107137200D01*
X187820350Y-107137200D02*
X187867969Y-107089580D01*
X186439398Y-106518152D02*
X186439398Y-107184819D01*
X186677493Y-106137200D02*
X186915588Y-106851485D01*
X186915588Y-106851485D02*
X186296541Y-106851485D01*
X168662857Y-115449208D02*
X168662857Y-116258732D01*
X168662857Y-116258732D02*
X168710476Y-116353970D01*
X168710476Y-116353970D02*
X168758095Y-116401589D01*
X168758095Y-116401589D02*
X168853333Y-116449208D01*
X168853333Y-116449208D02*
X168996190Y-116449208D01*
X168996190Y-116449208D02*
X169091428Y-116401589D01*
X168662857Y-116068256D02*
X168758095Y-116115875D01*
X168758095Y-116115875D02*
X168948571Y-116115875D01*
X168948571Y-116115875D02*
X169043809Y-116068256D01*
X169043809Y-116068256D02*
X169091428Y-116020636D01*
X169091428Y-116020636D02*
X169139047Y-115925398D01*
X169139047Y-115925398D02*
X169139047Y-115639684D01*
X169139047Y-115639684D02*
X169091428Y-115544446D01*
X169091428Y-115544446D02*
X169043809Y-115496827D01*
X169043809Y-115496827D02*
X168948571Y-115449208D01*
X168948571Y-115449208D02*
X168758095Y-115449208D01*
X168758095Y-115449208D02*
X168662857Y-115496827D01*
X168186666Y-116115875D02*
X168186666Y-115449208D01*
X168186666Y-115115875D02*
X168234285Y-115163494D01*
X168234285Y-115163494D02*
X168186666Y-115211113D01*
X168186666Y-115211113D02*
X168139047Y-115163494D01*
X168139047Y-115163494D02*
X168186666Y-115115875D01*
X168186666Y-115115875D02*
X168186666Y-115211113D01*
X167853333Y-115449208D02*
X167472381Y-115449208D01*
X167710476Y-115115875D02*
X167710476Y-115973017D01*
X167710476Y-115973017D02*
X167662857Y-116068256D01*
X167662857Y-116068256D02*
X167567619Y-116115875D01*
X167567619Y-116115875D02*
X167472381Y-116115875D01*
X167139047Y-116115875D02*
X167139047Y-115115875D01*
X166710476Y-116115875D02*
X166710476Y-115592065D01*
X166710476Y-115592065D02*
X166758095Y-115496827D01*
X166758095Y-115496827D02*
X166853333Y-115449208D01*
X166853333Y-115449208D02*
X166996190Y-115449208D01*
X166996190Y-115449208D02*
X167091428Y-115496827D01*
X167091428Y-115496827D02*
X167139047Y-115544446D01*
X165805714Y-115449208D02*
X165805714Y-116115875D01*
X166234285Y-115449208D02*
X166234285Y-115973017D01*
X166234285Y-115973017D02*
X166186666Y-116068256D01*
X166186666Y-116068256D02*
X166091428Y-116115875D01*
X166091428Y-116115875D02*
X165948571Y-116115875D01*
X165948571Y-116115875D02*
X165853333Y-116068256D01*
X165853333Y-116068256D02*
X165805714Y-116020636D01*
X165329523Y-116115875D02*
X165329523Y-115115875D01*
X165329523Y-115496827D02*
X165234285Y-115449208D01*
X165234285Y-115449208D02*
X165043809Y-115449208D01*
X165043809Y-115449208D02*
X164948571Y-115496827D01*
X164948571Y-115496827D02*
X164900952Y-115544446D01*
X164900952Y-115544446D02*
X164853333Y-115639684D01*
X164853333Y-115639684D02*
X164853333Y-115925398D01*
X164853333Y-115925398D02*
X164900952Y-116020636D01*
X164900952Y-116020636D02*
X164948571Y-116068256D01*
X164948571Y-116068256D02*
X165043809Y-116115875D01*
X165043809Y-116115875D02*
X165234285Y-116115875D01*
X165234285Y-116115875D02*
X165329523Y-116068256D01*
X164424761Y-116020636D02*
X164377142Y-116068256D01*
X164377142Y-116068256D02*
X164424761Y-116115875D01*
X164424761Y-116115875D02*
X164472380Y-116068256D01*
X164472380Y-116068256D02*
X164424761Y-116020636D01*
X164424761Y-116020636D02*
X164424761Y-116115875D01*
X163520000Y-116068256D02*
X163615238Y-116115875D01*
X163615238Y-116115875D02*
X163805714Y-116115875D01*
X163805714Y-116115875D02*
X163900952Y-116068256D01*
X163900952Y-116068256D02*
X163948571Y-116020636D01*
X163948571Y-116020636D02*
X163996190Y-115925398D01*
X163996190Y-115925398D02*
X163996190Y-115639684D01*
X163996190Y-115639684D02*
X163948571Y-115544446D01*
X163948571Y-115544446D02*
X163900952Y-115496827D01*
X163900952Y-115496827D02*
X163805714Y-115449208D01*
X163805714Y-115449208D02*
X163615238Y-115449208D01*
X163615238Y-115449208D02*
X163520000Y-115496827D01*
X162948571Y-116115875D02*
X163043809Y-116068256D01*
X163043809Y-116068256D02*
X163091428Y-116020636D01*
X163091428Y-116020636D02*
X163139047Y-115925398D01*
X163139047Y-115925398D02*
X163139047Y-115639684D01*
X163139047Y-115639684D02*
X163091428Y-115544446D01*
X163091428Y-115544446D02*
X163043809Y-115496827D01*
X163043809Y-115496827D02*
X162948571Y-115449208D01*
X162948571Y-115449208D02*
X162805714Y-115449208D01*
X162805714Y-115449208D02*
X162710476Y-115496827D01*
X162710476Y-115496827D02*
X162662857Y-115544446D01*
X162662857Y-115544446D02*
X162615238Y-115639684D01*
X162615238Y-115639684D02*
X162615238Y-115925398D01*
X162615238Y-115925398D02*
X162662857Y-116020636D01*
X162662857Y-116020636D02*
X162710476Y-116068256D01*
X162710476Y-116068256D02*
X162805714Y-116115875D01*
X162805714Y-116115875D02*
X162948571Y-116115875D01*
X162186666Y-116115875D02*
X162186666Y-115449208D01*
X162186666Y-115544446D02*
X162139047Y-115496827D01*
X162139047Y-115496827D02*
X162043809Y-115449208D01*
X162043809Y-115449208D02*
X161900952Y-115449208D01*
X161900952Y-115449208D02*
X161805714Y-115496827D01*
X161805714Y-115496827D02*
X161758095Y-115592065D01*
X161758095Y-115592065D02*
X161758095Y-116115875D01*
X161758095Y-115592065D02*
X161710476Y-115496827D01*
X161710476Y-115496827D02*
X161615238Y-115449208D01*
X161615238Y-115449208D02*
X161472381Y-115449208D01*
X161472381Y-115449208D02*
X161377142Y-115496827D01*
X161377142Y-115496827D02*
X161329523Y-115592065D01*
X161329523Y-115592065D02*
X161329523Y-116115875D01*
X160139048Y-115068256D02*
X160996190Y-116353970D01*
X159377143Y-116115875D02*
X159377143Y-115115875D01*
X159377143Y-116068256D02*
X159472381Y-116115875D01*
X159472381Y-116115875D02*
X159662857Y-116115875D01*
X159662857Y-116115875D02*
X159758095Y-116068256D01*
X159758095Y-116068256D02*
X159805714Y-116020636D01*
X159805714Y-116020636D02*
X159853333Y-115925398D01*
X159853333Y-115925398D02*
X159853333Y-115639684D01*
X159853333Y-115639684D02*
X159805714Y-115544446D01*
X159805714Y-115544446D02*
X159758095Y-115496827D01*
X159758095Y-115496827D02*
X159662857Y-115449208D01*
X159662857Y-115449208D02*
X159472381Y-115449208D01*
X159472381Y-115449208D02*
X159377143Y-115496827D01*
X158900952Y-115449208D02*
X158900952Y-116306351D01*
X158900952Y-116306351D02*
X158948571Y-116401589D01*
X158948571Y-116401589D02*
X159043809Y-116449208D01*
X159043809Y-116449208D02*
X159091428Y-116449208D01*
X158900952Y-115115875D02*
X158948571Y-115163494D01*
X158948571Y-115163494D02*
X158900952Y-115211113D01*
X158900952Y-115211113D02*
X158853333Y-115163494D01*
X158853333Y-115163494D02*
X158900952Y-115115875D01*
X158900952Y-115115875D02*
X158900952Y-115211113D01*
X158567619Y-115449208D02*
X158186667Y-115449208D01*
X158424762Y-115115875D02*
X158424762Y-115973017D01*
X158424762Y-115973017D02*
X158377143Y-116068256D01*
X158377143Y-116068256D02*
X158281905Y-116115875D01*
X158281905Y-116115875D02*
X158186667Y-116115875D01*
X157472381Y-116068256D02*
X157567619Y-116115875D01*
X157567619Y-116115875D02*
X157758095Y-116115875D01*
X157758095Y-116115875D02*
X157853333Y-116068256D01*
X157853333Y-116068256D02*
X157900952Y-115973017D01*
X157900952Y-115973017D02*
X157900952Y-115592065D01*
X157900952Y-115592065D02*
X157853333Y-115496827D01*
X157853333Y-115496827D02*
X157758095Y-115449208D01*
X157758095Y-115449208D02*
X157567619Y-115449208D01*
X157567619Y-115449208D02*
X157472381Y-115496827D01*
X157472381Y-115496827D02*
X157424762Y-115592065D01*
X157424762Y-115592065D02*
X157424762Y-115687303D01*
X157424762Y-115687303D02*
X157900952Y-115782541D01*
X156996190Y-116115875D02*
X156996190Y-115449208D01*
X156996190Y-115639684D02*
X156948571Y-115544446D01*
X156948571Y-115544446D02*
X156900952Y-115496827D01*
X156900952Y-115496827D02*
X156805714Y-115449208D01*
X156805714Y-115449208D02*
X156710476Y-115449208D01*
X156424761Y-116068256D02*
X156329523Y-116115875D01*
X156329523Y-116115875D02*
X156139047Y-116115875D01*
X156139047Y-116115875D02*
X156043809Y-116068256D01*
X156043809Y-116068256D02*
X155996190Y-115973017D01*
X155996190Y-115973017D02*
X155996190Y-115925398D01*
X155996190Y-115925398D02*
X156043809Y-115830160D01*
X156043809Y-115830160D02*
X156139047Y-115782541D01*
X156139047Y-115782541D02*
X156281904Y-115782541D01*
X156281904Y-115782541D02*
X156377142Y-115734922D01*
X156377142Y-115734922D02*
X156424761Y-115639684D01*
X156424761Y-115639684D02*
X156424761Y-115592065D01*
X156424761Y-115592065D02*
X156377142Y-115496827D01*
X156377142Y-115496827D02*
X156281904Y-115449208D01*
X156281904Y-115449208D02*
X156139047Y-115449208D01*
X156139047Y-115449208D02*
X156043809Y-115496827D01*
X155710475Y-115449208D02*
X155329523Y-115449208D01*
X155567618Y-115115875D02*
X155567618Y-115973017D01*
X155567618Y-115973017D02*
X155519999Y-116068256D01*
X155519999Y-116068256D02*
X155424761Y-116115875D01*
X155424761Y-116115875D02*
X155329523Y-116115875D01*
X154615237Y-116068256D02*
X154710475Y-116115875D01*
X154710475Y-116115875D02*
X154900951Y-116115875D01*
X154900951Y-116115875D02*
X154996189Y-116068256D01*
X154996189Y-116068256D02*
X155043808Y-115973017D01*
X155043808Y-115973017D02*
X155043808Y-115592065D01*
X155043808Y-115592065D02*
X154996189Y-115496827D01*
X154996189Y-115496827D02*
X154900951Y-115449208D01*
X154900951Y-115449208D02*
X154710475Y-115449208D01*
X154710475Y-115449208D02*
X154615237Y-115496827D01*
X154615237Y-115496827D02*
X154567618Y-115592065D01*
X154567618Y-115592065D02*
X154567618Y-115687303D01*
X154567618Y-115687303D02*
X155043808Y-115782541D01*
X153758094Y-116068256D02*
X153853332Y-116115875D01*
X153853332Y-116115875D02*
X154043808Y-116115875D01*
X154043808Y-116115875D02*
X154139046Y-116068256D01*
X154139046Y-116068256D02*
X154186665Y-115973017D01*
X154186665Y-115973017D02*
X154186665Y-115592065D01*
X154186665Y-115592065D02*
X154139046Y-115496827D01*
X154139046Y-115496827D02*
X154043808Y-115449208D01*
X154043808Y-115449208D02*
X153853332Y-115449208D01*
X153853332Y-115449208D02*
X153758094Y-115496827D01*
X153758094Y-115496827D02*
X153710475Y-115592065D01*
X153710475Y-115592065D02*
X153710475Y-115687303D01*
X153710475Y-115687303D02*
X154186665Y-115782541D01*
X152853332Y-115449208D02*
X152853332Y-116258732D01*
X152853332Y-116258732D02*
X152900951Y-116353970D01*
X152900951Y-116353970D02*
X152948570Y-116401589D01*
X152948570Y-116401589D02*
X153043808Y-116449208D01*
X153043808Y-116449208D02*
X153186665Y-116449208D01*
X153186665Y-116449208D02*
X153281903Y-116401589D01*
X152853332Y-116068256D02*
X152948570Y-116115875D01*
X152948570Y-116115875D02*
X153139046Y-116115875D01*
X153139046Y-116115875D02*
X153234284Y-116068256D01*
X153234284Y-116068256D02*
X153281903Y-116020636D01*
X153281903Y-116020636D02*
X153329522Y-115925398D01*
X153329522Y-115925398D02*
X153329522Y-115639684D01*
X153329522Y-115639684D02*
X153281903Y-115544446D01*
X153281903Y-115544446D02*
X153234284Y-115496827D01*
X153234284Y-115496827D02*
X153139046Y-115449208D01*
X153139046Y-115449208D02*
X152948570Y-115449208D01*
X152948570Y-115449208D02*
X152853332Y-115496827D01*
X151948570Y-116068256D02*
X152043808Y-116115875D01*
X152043808Y-116115875D02*
X152234284Y-116115875D01*
X152234284Y-116115875D02*
X152329522Y-116068256D01*
X152329522Y-116068256D02*
X152377141Y-116020636D01*
X152377141Y-116020636D02*
X152424760Y-115925398D01*
X152424760Y-115925398D02*
X152424760Y-115639684D01*
X152424760Y-115639684D02*
X152377141Y-115544446D01*
X152377141Y-115544446D02*
X152329522Y-115496827D01*
X152329522Y-115496827D02*
X152234284Y-115449208D01*
X152234284Y-115449208D02*
X152043808Y-115449208D01*
X152043808Y-115449208D02*
X151948570Y-115496827D01*
X150805713Y-115068256D02*
X151662855Y-116353970D01*
X175305714Y-117440104D02*
X174829524Y-117440104D01*
X175400952Y-117725819D02*
X175067619Y-116725819D01*
X175067619Y-116725819D02*
X174734286Y-117725819D01*
X174543809Y-117059152D02*
X174162857Y-117059152D01*
X174400952Y-116725819D02*
X174400952Y-117582961D01*
X174400952Y-117582961D02*
X174353333Y-117678200D01*
X174353333Y-117678200D02*
X174258095Y-117725819D01*
X174258095Y-117725819D02*
X174162857Y-117725819D01*
X173829523Y-117725819D02*
X173829523Y-117059152D01*
X173829523Y-117154390D02*
X173781904Y-117106771D01*
X173781904Y-117106771D02*
X173686666Y-117059152D01*
X173686666Y-117059152D02*
X173543809Y-117059152D01*
X173543809Y-117059152D02*
X173448571Y-117106771D01*
X173448571Y-117106771D02*
X173400952Y-117202009D01*
X173400952Y-117202009D02*
X173400952Y-117725819D01*
X173400952Y-117202009D02*
X173353333Y-117106771D01*
X173353333Y-117106771D02*
X173258095Y-117059152D01*
X173258095Y-117059152D02*
X173115238Y-117059152D01*
X173115238Y-117059152D02*
X173019999Y-117106771D01*
X173019999Y-117106771D02*
X172972380Y-117202009D01*
X172972380Y-117202009D02*
X172972380Y-117725819D01*
X172115238Y-117678200D02*
X172210476Y-117725819D01*
X172210476Y-117725819D02*
X172400952Y-117725819D01*
X172400952Y-117725819D02*
X172496190Y-117678200D01*
X172496190Y-117678200D02*
X172543809Y-117582961D01*
X172543809Y-117582961D02*
X172543809Y-117202009D01*
X172543809Y-117202009D02*
X172496190Y-117106771D01*
X172496190Y-117106771D02*
X172400952Y-117059152D01*
X172400952Y-117059152D02*
X172210476Y-117059152D01*
X172210476Y-117059152D02*
X172115238Y-117106771D01*
X172115238Y-117106771D02*
X172067619Y-117202009D01*
X172067619Y-117202009D02*
X172067619Y-117297247D01*
X172067619Y-117297247D02*
X172543809Y-117392485D01*
X171496190Y-117725819D02*
X171591428Y-117678200D01*
X171591428Y-117678200D02*
X171639047Y-117582961D01*
X171639047Y-117582961D02*
X171639047Y-116725819D01*
X171115237Y-117344866D02*
X170353333Y-117344866D01*
X169924761Y-117440104D02*
X169448571Y-117440104D01*
X170019999Y-117725819D02*
X169686666Y-116725819D01*
X169686666Y-116725819D02*
X169353333Y-117725819D01*
X169162856Y-116725819D02*
X168591428Y-116725819D01*
X168877142Y-117725819D02*
X168877142Y-116725819D01*
X167924761Y-117202009D02*
X168258094Y-117202009D01*
X168258094Y-117725819D02*
X168258094Y-116725819D01*
X168258094Y-116725819D02*
X167781904Y-116725819D01*
X166877142Y-117725819D02*
X167448570Y-117725819D01*
X167162856Y-117725819D02*
X167162856Y-116725819D01*
X167162856Y-116725819D02*
X167258094Y-116868676D01*
X167258094Y-116868676D02*
X167353332Y-116963914D01*
X167353332Y-116963914D02*
X167448570Y-117011533D01*
X165972380Y-116725819D02*
X166448570Y-116725819D01*
X166448570Y-116725819D02*
X166496189Y-117202009D01*
X166496189Y-117202009D02*
X166448570Y-117154390D01*
X166448570Y-117154390D02*
X166353332Y-117106771D01*
X166353332Y-117106771D02*
X166115237Y-117106771D01*
X166115237Y-117106771D02*
X166019999Y-117154390D01*
X166019999Y-117154390D02*
X165972380Y-117202009D01*
X165972380Y-117202009D02*
X165924761Y-117297247D01*
X165924761Y-117297247D02*
X165924761Y-117535342D01*
X165924761Y-117535342D02*
X165972380Y-117630580D01*
X165972380Y-117630580D02*
X166019999Y-117678200D01*
X166019999Y-117678200D02*
X166115237Y-117725819D01*
X166115237Y-117725819D02*
X166353332Y-117725819D01*
X166353332Y-117725819D02*
X166448570Y-117678200D01*
X166448570Y-117678200D02*
X166496189Y-117630580D01*
X165591427Y-116725819D02*
X164924761Y-117725819D01*
X164924761Y-116725819D02*
X165591427Y-117725819D01*
X164639046Y-116725819D02*
X163972380Y-117725819D01*
X163972380Y-116725819D02*
X164639046Y-117725819D01*
X163591427Y-117344866D02*
X162829523Y-117344866D01*
X162353332Y-117725819D02*
X162353332Y-116725819D01*
X162353332Y-116725819D02*
X161972380Y-116725819D01*
X161972380Y-116725819D02*
X161877142Y-116773438D01*
X161877142Y-116773438D02*
X161829523Y-116821057D01*
X161829523Y-116821057D02*
X161781904Y-116916295D01*
X161781904Y-116916295D02*
X161781904Y-117059152D01*
X161781904Y-117059152D02*
X161829523Y-117154390D01*
X161829523Y-117154390D02*
X161877142Y-117202009D01*
X161877142Y-117202009D02*
X161972380Y-117249628D01*
X161972380Y-117249628D02*
X162353332Y-117249628D01*
X161353332Y-117725819D02*
X161353332Y-117059152D01*
X161353332Y-117249628D02*
X161305713Y-117154390D01*
X161305713Y-117154390D02*
X161258094Y-117106771D01*
X161258094Y-117106771D02*
X161162856Y-117059152D01*
X161162856Y-117059152D02*
X161067618Y-117059152D01*
X160591427Y-117725819D02*
X160686665Y-117678200D01*
X160686665Y-117678200D02*
X160734284Y-117630580D01*
X160734284Y-117630580D02*
X160781903Y-117535342D01*
X160781903Y-117535342D02*
X160781903Y-117249628D01*
X160781903Y-117249628D02*
X160734284Y-117154390D01*
X160734284Y-117154390D02*
X160686665Y-117106771D01*
X160686665Y-117106771D02*
X160591427Y-117059152D01*
X160591427Y-117059152D02*
X160448570Y-117059152D01*
X160448570Y-117059152D02*
X160353332Y-117106771D01*
X160353332Y-117106771D02*
X160305713Y-117154390D01*
X160305713Y-117154390D02*
X160258094Y-117249628D01*
X160258094Y-117249628D02*
X160258094Y-117535342D01*
X160258094Y-117535342D02*
X160305713Y-117630580D01*
X160305713Y-117630580D02*
X160353332Y-117678200D01*
X160353332Y-117678200D02*
X160448570Y-117725819D01*
X160448570Y-117725819D02*
X160591427Y-117725819D01*
X159400951Y-117059152D02*
X159400951Y-117868676D01*
X159400951Y-117868676D02*
X159448570Y-117963914D01*
X159448570Y-117963914D02*
X159496189Y-118011533D01*
X159496189Y-118011533D02*
X159591427Y-118059152D01*
X159591427Y-118059152D02*
X159734284Y-118059152D01*
X159734284Y-118059152D02*
X159829522Y-118011533D01*
X159400951Y-117678200D02*
X159496189Y-117725819D01*
X159496189Y-117725819D02*
X159686665Y-117725819D01*
X159686665Y-117725819D02*
X159781903Y-117678200D01*
X159781903Y-117678200D02*
X159829522Y-117630580D01*
X159829522Y-117630580D02*
X159877141Y-117535342D01*
X159877141Y-117535342D02*
X159877141Y-117249628D01*
X159877141Y-117249628D02*
X159829522Y-117154390D01*
X159829522Y-117154390D02*
X159781903Y-117106771D01*
X159781903Y-117106771D02*
X159686665Y-117059152D01*
X159686665Y-117059152D02*
X159496189Y-117059152D01*
X159496189Y-117059152D02*
X159400951Y-117106771D01*
X158924760Y-117725819D02*
X158924760Y-117059152D01*
X158924760Y-117249628D02*
X158877141Y-117154390D01*
X158877141Y-117154390D02*
X158829522Y-117106771D01*
X158829522Y-117106771D02*
X158734284Y-117059152D01*
X158734284Y-117059152D02*
X158639046Y-117059152D01*
X157877141Y-117725819D02*
X157877141Y-117202009D01*
X157877141Y-117202009D02*
X157924760Y-117106771D01*
X157924760Y-117106771D02*
X158019998Y-117059152D01*
X158019998Y-117059152D02*
X158210474Y-117059152D01*
X158210474Y-117059152D02*
X158305712Y-117106771D01*
X157877141Y-117678200D02*
X157972379Y-117725819D01*
X157972379Y-117725819D02*
X158210474Y-117725819D01*
X158210474Y-117725819D02*
X158305712Y-117678200D01*
X158305712Y-117678200D02*
X158353331Y-117582961D01*
X158353331Y-117582961D02*
X158353331Y-117487723D01*
X158353331Y-117487723D02*
X158305712Y-117392485D01*
X158305712Y-117392485D02*
X158210474Y-117344866D01*
X158210474Y-117344866D02*
X157972379Y-117344866D01*
X157972379Y-117344866D02*
X157877141Y-117297247D01*
X157400950Y-117725819D02*
X157400950Y-117059152D01*
X157400950Y-117154390D02*
X157353331Y-117106771D01*
X157353331Y-117106771D02*
X157258093Y-117059152D01*
X157258093Y-117059152D02*
X157115236Y-117059152D01*
X157115236Y-117059152D02*
X157019998Y-117106771D01*
X157019998Y-117106771D02*
X156972379Y-117202009D01*
X156972379Y-117202009D02*
X156972379Y-117725819D01*
X156972379Y-117202009D02*
X156924760Y-117106771D01*
X156924760Y-117106771D02*
X156829522Y-117059152D01*
X156829522Y-117059152D02*
X156686665Y-117059152D01*
X156686665Y-117059152D02*
X156591426Y-117106771D01*
X156591426Y-117106771D02*
X156543807Y-117202009D01*
X156543807Y-117202009D02*
X156543807Y-117725819D01*
X156067617Y-117725819D02*
X156067617Y-117059152D01*
X156067617Y-117154390D02*
X156019998Y-117106771D01*
X156019998Y-117106771D02*
X155924760Y-117059152D01*
X155924760Y-117059152D02*
X155781903Y-117059152D01*
X155781903Y-117059152D02*
X155686665Y-117106771D01*
X155686665Y-117106771D02*
X155639046Y-117202009D01*
X155639046Y-117202009D02*
X155639046Y-117725819D01*
X155639046Y-117202009D02*
X155591427Y-117106771D01*
X155591427Y-117106771D02*
X155496189Y-117059152D01*
X155496189Y-117059152D02*
X155353332Y-117059152D01*
X155353332Y-117059152D02*
X155258093Y-117106771D01*
X155258093Y-117106771D02*
X155210474Y-117202009D01*
X155210474Y-117202009D02*
X155210474Y-117725819D01*
X154734284Y-117725819D02*
X154734284Y-117059152D01*
X154734284Y-116725819D02*
X154781903Y-116773438D01*
X154781903Y-116773438D02*
X154734284Y-116821057D01*
X154734284Y-116821057D02*
X154686665Y-116773438D01*
X154686665Y-116773438D02*
X154734284Y-116725819D01*
X154734284Y-116725819D02*
X154734284Y-116821057D01*
X154258094Y-117059152D02*
X154258094Y-117725819D01*
X154258094Y-117154390D02*
X154210475Y-117106771D01*
X154210475Y-117106771D02*
X154115237Y-117059152D01*
X154115237Y-117059152D02*
X153972380Y-117059152D01*
X153972380Y-117059152D02*
X153877142Y-117106771D01*
X153877142Y-117106771D02*
X153829523Y-117202009D01*
X153829523Y-117202009D02*
X153829523Y-117725819D01*
X152924761Y-117059152D02*
X152924761Y-117868676D01*
X152924761Y-117868676D02*
X152972380Y-117963914D01*
X152972380Y-117963914D02*
X153019999Y-118011533D01*
X153019999Y-118011533D02*
X153115237Y-118059152D01*
X153115237Y-118059152D02*
X153258094Y-118059152D01*
X153258094Y-118059152D02*
X153353332Y-118011533D01*
X152924761Y-117678200D02*
X153019999Y-117725819D01*
X153019999Y-117725819D02*
X153210475Y-117725819D01*
X153210475Y-117725819D02*
X153305713Y-117678200D01*
X153305713Y-117678200D02*
X153353332Y-117630580D01*
X153353332Y-117630580D02*
X153400951Y-117535342D01*
X153400951Y-117535342D02*
X153400951Y-117249628D01*
X153400951Y-117249628D02*
X153353332Y-117154390D01*
X153353332Y-117154390D02*
X153305713Y-117106771D01*
X153305713Y-117106771D02*
X153210475Y-117059152D01*
X153210475Y-117059152D02*
X153019999Y-117059152D01*
X153019999Y-117059152D02*
X152924761Y-117106771D01*
X152448570Y-117344866D02*
X151686666Y-117344866D01*
X151210475Y-117725819D02*
X151210475Y-116725819D01*
X151210475Y-117202009D02*
X150639047Y-117202009D01*
X150639047Y-117725819D02*
X150639047Y-116725819D01*
X149734285Y-117725819D02*
X149734285Y-117202009D01*
X149734285Y-117202009D02*
X149781904Y-117106771D01*
X149781904Y-117106771D02*
X149877142Y-117059152D01*
X149877142Y-117059152D02*
X150067618Y-117059152D01*
X150067618Y-117059152D02*
X150162856Y-117106771D01*
X149734285Y-117678200D02*
X149829523Y-117725819D01*
X149829523Y-117725819D02*
X150067618Y-117725819D01*
X150067618Y-117725819D02*
X150162856Y-117678200D01*
X150162856Y-117678200D02*
X150210475Y-117582961D01*
X150210475Y-117582961D02*
X150210475Y-117487723D01*
X150210475Y-117487723D02*
X150162856Y-117392485D01*
X150162856Y-117392485D02*
X150067618Y-117344866D01*
X150067618Y-117344866D02*
X149829523Y-117344866D01*
X149829523Y-117344866D02*
X149734285Y-117297247D01*
X149258094Y-117725819D02*
X149258094Y-117059152D01*
X149258094Y-117249628D02*
X149210475Y-117154390D01*
X149210475Y-117154390D02*
X149162856Y-117106771D01*
X149162856Y-117106771D02*
X149067618Y-117059152D01*
X149067618Y-117059152D02*
X148972380Y-117059152D01*
X148210475Y-117725819D02*
X148210475Y-116725819D01*
X148210475Y-117678200D02*
X148305713Y-117725819D01*
X148305713Y-117725819D02*
X148496189Y-117725819D01*
X148496189Y-117725819D02*
X148591427Y-117678200D01*
X148591427Y-117678200D02*
X148639046Y-117630580D01*
X148639046Y-117630580D02*
X148686665Y-117535342D01*
X148686665Y-117535342D02*
X148686665Y-117249628D01*
X148686665Y-117249628D02*
X148639046Y-117154390D01*
X148639046Y-117154390D02*
X148591427Y-117106771D01*
X148591427Y-117106771D02*
X148496189Y-117059152D01*
X148496189Y-117059152D02*
X148305713Y-117059152D01*
X148305713Y-117059152D02*
X148210475Y-117106771D01*
X147829522Y-117059152D02*
X147639046Y-117725819D01*
X147639046Y-117725819D02*
X147448570Y-117249628D01*
X147448570Y-117249628D02*
X147258094Y-117725819D01*
X147258094Y-117725819D02*
X147067618Y-117059152D01*
X146258094Y-117725819D02*
X146258094Y-117202009D01*
X146258094Y-117202009D02*
X146305713Y-117106771D01*
X146305713Y-117106771D02*
X146400951Y-117059152D01*
X146400951Y-117059152D02*
X146591427Y-117059152D01*
X146591427Y-117059152D02*
X146686665Y-117106771D01*
X146258094Y-117678200D02*
X146353332Y-117725819D01*
X146353332Y-117725819D02*
X146591427Y-117725819D01*
X146591427Y-117725819D02*
X146686665Y-117678200D01*
X146686665Y-117678200D02*
X146734284Y-117582961D01*
X146734284Y-117582961D02*
X146734284Y-117487723D01*
X146734284Y-117487723D02*
X146686665Y-117392485D01*
X146686665Y-117392485D02*
X146591427Y-117344866D01*
X146591427Y-117344866D02*
X146353332Y-117344866D01*
X146353332Y-117344866D02*
X146258094Y-117297247D01*
X145781903Y-117725819D02*
X145781903Y-117059152D01*
X145781903Y-117249628D02*
X145734284Y-117154390D01*
X145734284Y-117154390D02*
X145686665Y-117106771D01*
X145686665Y-117106771D02*
X145591427Y-117059152D01*
X145591427Y-117059152D02*
X145496189Y-117059152D01*
X144781903Y-117678200D02*
X144877141Y-117725819D01*
X144877141Y-117725819D02*
X145067617Y-117725819D01*
X145067617Y-117725819D02*
X145162855Y-117678200D01*
X145162855Y-117678200D02*
X145210474Y-117582961D01*
X145210474Y-117582961D02*
X145210474Y-117202009D01*
X145210474Y-117202009D02*
X145162855Y-117106771D01*
X145162855Y-117106771D02*
X145067617Y-117059152D01*
X145067617Y-117059152D02*
X144877141Y-117059152D01*
X144877141Y-117059152D02*
X144781903Y-117106771D01*
X144781903Y-117106771D02*
X144734284Y-117202009D01*
X144734284Y-117202009D02*
X144734284Y-117297247D01*
X144734284Y-117297247D02*
X145210474Y-117392485D01*
X187677493Y-71053390D02*
X187772731Y-71005771D01*
X187772731Y-71005771D02*
X187820350Y-70958152D01*
X187820350Y-70958152D02*
X187867969Y-70862914D01*
X187867969Y-70862914D02*
X187867969Y-70815295D01*
X187867969Y-70815295D02*
X187820350Y-70720057D01*
X187820350Y-70720057D02*
X187772731Y-70672438D01*
X187772731Y-70672438D02*
X187677493Y-70624819D01*
X187677493Y-70624819D02*
X187487017Y-70624819D01*
X187487017Y-70624819D02*
X187391779Y-70672438D01*
X187391779Y-70672438D02*
X187344160Y-70720057D01*
X187344160Y-70720057D02*
X187296541Y-70815295D01*
X187296541Y-70815295D02*
X187296541Y-70862914D01*
X187296541Y-70862914D02*
X187344160Y-70958152D01*
X187344160Y-70958152D02*
X187391779Y-71005771D01*
X187391779Y-71005771D02*
X187487017Y-71053390D01*
X187487017Y-71053390D02*
X187677493Y-71053390D01*
X187677493Y-71053390D02*
X187772731Y-71101009D01*
X187772731Y-71101009D02*
X187820350Y-71148628D01*
X187820350Y-71148628D02*
X187867969Y-71243866D01*
X187867969Y-71243866D02*
X187867969Y-71434342D01*
X187867969Y-71434342D02*
X187820350Y-71529580D01*
X187820350Y-71529580D02*
X187772731Y-71577200D01*
X187772731Y-71577200D02*
X187677493Y-71624819D01*
X187677493Y-71624819D02*
X187487017Y-71624819D01*
X187487017Y-71624819D02*
X187391779Y-71577200D01*
X187391779Y-71577200D02*
X187344160Y-71529580D01*
X187344160Y-71529580D02*
X187296541Y-71434342D01*
X187296541Y-71434342D02*
X187296541Y-71243866D01*
X187296541Y-71243866D02*
X187344160Y-71148628D01*
X187344160Y-71148628D02*
X187391779Y-71101009D01*
X187391779Y-71101009D02*
X187487017Y-71053390D01*
X186915588Y-70720057D02*
X186867969Y-70672438D01*
X186867969Y-70672438D02*
X186772731Y-70624819D01*
X186772731Y-70624819D02*
X186534636Y-70624819D01*
X186534636Y-70624819D02*
X186439398Y-70672438D01*
X186439398Y-70672438D02*
X186391779Y-70720057D01*
X186391779Y-70720057D02*
X186344160Y-70815295D01*
X186344160Y-70815295D02*
X186344160Y-70910533D01*
X186344160Y-70910533D02*
X186391779Y-71053390D01*
X186391779Y-71053390D02*
X186963207Y-71624819D01*
X186963207Y-71624819D02*
X186344160Y-71624819D01*
X140877969Y-91040057D02*
X140830350Y-90992438D01*
X140830350Y-90992438D02*
X140735112Y-90944819D01*
X140735112Y-90944819D02*
X140497017Y-90944819D01*
X140497017Y-90944819D02*
X140401779Y-90992438D01*
X140401779Y-90992438D02*
X140354160Y-91040057D01*
X140354160Y-91040057D02*
X140306541Y-91135295D01*
X140306541Y-91135295D02*
X140306541Y-91230533D01*
X140306541Y-91230533D02*
X140354160Y-91373390D01*
X140354160Y-91373390D02*
X140925588Y-91944819D01*
X140925588Y-91944819D02*
X140306541Y-91944819D01*
X139687493Y-90944819D02*
X139592255Y-90944819D01*
X139592255Y-90944819D02*
X139497017Y-90992438D01*
X139497017Y-90992438D02*
X139449398Y-91040057D01*
X139449398Y-91040057D02*
X139401779Y-91135295D01*
X139401779Y-91135295D02*
X139354160Y-91325771D01*
X139354160Y-91325771D02*
X139354160Y-91563866D01*
X139354160Y-91563866D02*
X139401779Y-91754342D01*
X139401779Y-91754342D02*
X139449398Y-91849580D01*
X139449398Y-91849580D02*
X139497017Y-91897200D01*
X139497017Y-91897200D02*
X139592255Y-91944819D01*
X139592255Y-91944819D02*
X139687493Y-91944819D01*
X139687493Y-91944819D02*
X139782731Y-91897200D01*
X139782731Y-91897200D02*
X139830350Y-91849580D01*
X139830350Y-91849580D02*
X139877969Y-91754342D01*
X139877969Y-91754342D02*
X139925588Y-91563866D01*
X139925588Y-91563866D02*
X139925588Y-91325771D01*
X139925588Y-91325771D02*
X139877969Y-91135295D01*
X139877969Y-91135295D02*
X139830350Y-91040057D01*
X139830350Y-91040057D02*
X139782731Y-90992438D01*
X139782731Y-90992438D02*
X139687493Y-90944819D01*
X187915588Y-75704819D02*
X187248922Y-75704819D01*
X187248922Y-75704819D02*
X187677493Y-76704819D01*
X186725112Y-76133390D02*
X186820350Y-76085771D01*
X186820350Y-76085771D02*
X186867969Y-76038152D01*
X186867969Y-76038152D02*
X186915588Y-75942914D01*
X186915588Y-75942914D02*
X186915588Y-75895295D01*
X186915588Y-75895295D02*
X186867969Y-75800057D01*
X186867969Y-75800057D02*
X186820350Y-75752438D01*
X186820350Y-75752438D02*
X186725112Y-75704819D01*
X186725112Y-75704819D02*
X186534636Y-75704819D01*
X186534636Y-75704819D02*
X186439398Y-75752438D01*
X186439398Y-75752438D02*
X186391779Y-75800057D01*
X186391779Y-75800057D02*
X186344160Y-75895295D01*
X186344160Y-75895295D02*
X186344160Y-75942914D01*
X186344160Y-75942914D02*
X186391779Y-76038152D01*
X186391779Y-76038152D02*
X186439398Y-76085771D01*
X186439398Y-76085771D02*
X186534636Y-76133390D01*
X186534636Y-76133390D02*
X186725112Y-76133390D01*
X186725112Y-76133390D02*
X186820350Y-76181009D01*
X186820350Y-76181009D02*
X186867969Y-76228628D01*
X186867969Y-76228628D02*
X186915588Y-76323866D01*
X186915588Y-76323866D02*
X186915588Y-76514342D01*
X186915588Y-76514342D02*
X186867969Y-76609580D01*
X186867969Y-76609580D02*
X186820350Y-76657200D01*
X186820350Y-76657200D02*
X186725112Y-76704819D01*
X186725112Y-76704819D02*
X186534636Y-76704819D01*
X186534636Y-76704819D02*
X186439398Y-76657200D01*
X186439398Y-76657200D02*
X186391779Y-76609580D01*
X186391779Y-76609580D02*
X186344160Y-76514342D01*
X186344160Y-76514342D02*
X186344160Y-76323866D01*
X186344160Y-76323866D02*
X186391779Y-76228628D01*
X186391779Y-76228628D02*
X186439398Y-76181009D01*
X186439398Y-76181009D02*
X186534636Y-76133390D01*
X187391779Y-119218152D02*
X187391779Y-119884819D01*
X187629874Y-118837200D02*
X187867969Y-119551485D01*
X187867969Y-119551485D02*
X187248922Y-119551485D01*
X186439398Y-119218152D02*
X186439398Y-119884819D01*
X186677493Y-118837200D02*
X186915588Y-119551485D01*
X186915588Y-119551485D02*
X186296541Y-119551485D01*
X187391779Y-93484819D02*
X187582255Y-93484819D01*
X187582255Y-93484819D02*
X187677493Y-93532438D01*
X187677493Y-93532438D02*
X187725112Y-93580057D01*
X187725112Y-93580057D02*
X187820350Y-93722914D01*
X187820350Y-93722914D02*
X187867969Y-93913390D01*
X187867969Y-93913390D02*
X187867969Y-94294342D01*
X187867969Y-94294342D02*
X187820350Y-94389580D01*
X187820350Y-94389580D02*
X187772731Y-94437200D01*
X187772731Y-94437200D02*
X187677493Y-94484819D01*
X187677493Y-94484819D02*
X187487017Y-94484819D01*
X187487017Y-94484819D02*
X187391779Y-94437200D01*
X187391779Y-94437200D02*
X187344160Y-94389580D01*
X187344160Y-94389580D02*
X187296541Y-94294342D01*
X187296541Y-94294342D02*
X187296541Y-94056247D01*
X187296541Y-94056247D02*
X187344160Y-93961009D01*
X187344160Y-93961009D02*
X187391779Y-93913390D01*
X187391779Y-93913390D02*
X187487017Y-93865771D01*
X187487017Y-93865771D02*
X187677493Y-93865771D01*
X187677493Y-93865771D02*
X187772731Y-93913390D01*
X187772731Y-93913390D02*
X187820350Y-93961009D01*
X187820350Y-93961009D02*
X187867969Y-94056247D01*
X186439398Y-93818152D02*
X186439398Y-94484819D01*
X186677493Y-93437200D02*
X186915588Y-94151485D01*
X186915588Y-94151485D02*
X186296541Y-94151485D01*
X187391779Y-116678152D02*
X187391779Y-117344819D01*
X187629874Y-116297200D02*
X187867969Y-117011485D01*
X187867969Y-117011485D02*
X187248922Y-117011485D01*
X186439398Y-116344819D02*
X186629874Y-116344819D01*
X186629874Y-116344819D02*
X186725112Y-116392438D01*
X186725112Y-116392438D02*
X186772731Y-116440057D01*
X186772731Y-116440057D02*
X186867969Y-116582914D01*
X186867969Y-116582914D02*
X186915588Y-116773390D01*
X186915588Y-116773390D02*
X186915588Y-117154342D01*
X186915588Y-117154342D02*
X186867969Y-117249580D01*
X186867969Y-117249580D02*
X186820350Y-117297200D01*
X186820350Y-117297200D02*
X186725112Y-117344819D01*
X186725112Y-117344819D02*
X186534636Y-117344819D01*
X186534636Y-117344819D02*
X186439398Y-117297200D01*
X186439398Y-117297200D02*
X186391779Y-117249580D01*
X186391779Y-117249580D02*
X186344160Y-117154342D01*
X186344160Y-117154342D02*
X186344160Y-116916247D01*
X186344160Y-116916247D02*
X186391779Y-116821009D01*
X186391779Y-116821009D02*
X186439398Y-116773390D01*
X186439398Y-116773390D02*
X186534636Y-116725771D01*
X186534636Y-116725771D02*
X186725112Y-116725771D01*
X186725112Y-116725771D02*
X186820350Y-116773390D01*
X186820350Y-116773390D02*
X186867969Y-116821009D01*
X186867969Y-116821009D02*
X186915588Y-116916247D01*
X133695839Y-101200057D02*
X133648220Y-101152438D01*
X133648220Y-101152438D02*
X133552982Y-101104819D01*
X133552982Y-101104819D02*
X133314887Y-101104819D01*
X133314887Y-101104819D02*
X133219649Y-101152438D01*
X133219649Y-101152438D02*
X133172030Y-101200057D01*
X133172030Y-101200057D02*
X133124411Y-101295295D01*
X133124411Y-101295295D02*
X133124411Y-101390533D01*
X133124411Y-101390533D02*
X133172030Y-101533390D01*
X133172030Y-101533390D02*
X133743458Y-102104819D01*
X133743458Y-102104819D02*
X133124411Y-102104819D01*
X132791077Y-101104819D02*
X132124411Y-101104819D01*
X132124411Y-101104819D02*
X132552982Y-102104819D01*
X133695839Y-98660057D02*
X133648220Y-98612438D01*
X133648220Y-98612438D02*
X133552982Y-98564819D01*
X133552982Y-98564819D02*
X133314887Y-98564819D01*
X133314887Y-98564819D02*
X133219649Y-98612438D01*
X133219649Y-98612438D02*
X133172030Y-98660057D01*
X133172030Y-98660057D02*
X133124411Y-98755295D01*
X133124411Y-98755295D02*
X133124411Y-98850533D01*
X133124411Y-98850533D02*
X133172030Y-98993390D01*
X133172030Y-98993390D02*
X133743458Y-99564819D01*
X133743458Y-99564819D02*
X133124411Y-99564819D01*
X132219649Y-98564819D02*
X132695839Y-98564819D01*
X132695839Y-98564819D02*
X132743458Y-99041009D01*
X132743458Y-99041009D02*
X132695839Y-98993390D01*
X132695839Y-98993390D02*
X132600601Y-98945771D01*
X132600601Y-98945771D02*
X132362506Y-98945771D01*
X132362506Y-98945771D02*
X132267268Y-98993390D01*
X132267268Y-98993390D02*
X132219649Y-99041009D01*
X132219649Y-99041009D02*
X132172030Y-99136247D01*
X132172030Y-99136247D02*
X132172030Y-99374342D01*
X132172030Y-99374342D02*
X132219649Y-99469580D01*
X132219649Y-99469580D02*
X132267268Y-99517200D01*
X132267268Y-99517200D02*
X132362506Y-99564819D01*
X132362506Y-99564819D02*
X132600601Y-99564819D01*
X132600601Y-99564819D02*
X132695839Y-99517200D01*
X132695839Y-99517200D02*
X132743458Y-99469580D01*
X140925588Y-108724819D02*
X140306541Y-108724819D01*
X140306541Y-108724819D02*
X140639874Y-109105771D01*
X140639874Y-109105771D02*
X140497017Y-109105771D01*
X140497017Y-109105771D02*
X140401779Y-109153390D01*
X140401779Y-109153390D02*
X140354160Y-109201009D01*
X140354160Y-109201009D02*
X140306541Y-109296247D01*
X140306541Y-109296247D02*
X140306541Y-109534342D01*
X140306541Y-109534342D02*
X140354160Y-109629580D01*
X140354160Y-109629580D02*
X140401779Y-109677200D01*
X140401779Y-109677200D02*
X140497017Y-109724819D01*
X140497017Y-109724819D02*
X140782731Y-109724819D01*
X140782731Y-109724819D02*
X140877969Y-109677200D01*
X140877969Y-109677200D02*
X140925588Y-109629580D01*
X139449398Y-109058152D02*
X139449398Y-109724819D01*
X139687493Y-108677200D02*
X139925588Y-109391485D01*
X139925588Y-109391485D02*
X139306541Y-109391485D01*
X140877969Y-96120057D02*
X140830350Y-96072438D01*
X140830350Y-96072438D02*
X140735112Y-96024819D01*
X140735112Y-96024819D02*
X140497017Y-96024819D01*
X140497017Y-96024819D02*
X140401779Y-96072438D01*
X140401779Y-96072438D02*
X140354160Y-96120057D01*
X140354160Y-96120057D02*
X140306541Y-96215295D01*
X140306541Y-96215295D02*
X140306541Y-96310533D01*
X140306541Y-96310533D02*
X140354160Y-96453390D01*
X140354160Y-96453390D02*
X140925588Y-97024819D01*
X140925588Y-97024819D02*
X140306541Y-97024819D01*
X139449398Y-96358152D02*
X139449398Y-97024819D01*
X139687493Y-95977200D02*
X139925588Y-96691485D01*
X139925588Y-96691485D02*
X139306541Y-96691485D01*
X187391779Y-90944819D02*
X187582255Y-90944819D01*
X187582255Y-90944819D02*
X187677493Y-90992438D01*
X187677493Y-90992438D02*
X187725112Y-91040057D01*
X187725112Y-91040057D02*
X187820350Y-91182914D01*
X187820350Y-91182914D02*
X187867969Y-91373390D01*
X187867969Y-91373390D02*
X187867969Y-91754342D01*
X187867969Y-91754342D02*
X187820350Y-91849580D01*
X187820350Y-91849580D02*
X187772731Y-91897200D01*
X187772731Y-91897200D02*
X187677493Y-91944819D01*
X187677493Y-91944819D02*
X187487017Y-91944819D01*
X187487017Y-91944819D02*
X187391779Y-91897200D01*
X187391779Y-91897200D02*
X187344160Y-91849580D01*
X187344160Y-91849580D02*
X187296541Y-91754342D01*
X187296541Y-91754342D02*
X187296541Y-91516247D01*
X187296541Y-91516247D02*
X187344160Y-91421009D01*
X187344160Y-91421009D02*
X187391779Y-91373390D01*
X187391779Y-91373390D02*
X187487017Y-91325771D01*
X187487017Y-91325771D02*
X187677493Y-91325771D01*
X187677493Y-91325771D02*
X187772731Y-91373390D01*
X187772731Y-91373390D02*
X187820350Y-91421009D01*
X187820350Y-91421009D02*
X187867969Y-91516247D01*
X186439398Y-90944819D02*
X186629874Y-90944819D01*
X186629874Y-90944819D02*
X186725112Y-90992438D01*
X186725112Y-90992438D02*
X186772731Y-91040057D01*
X186772731Y-91040057D02*
X186867969Y-91182914D01*
X186867969Y-91182914D02*
X186915588Y-91373390D01*
X186915588Y-91373390D02*
X186915588Y-91754342D01*
X186915588Y-91754342D02*
X186867969Y-91849580D01*
X186867969Y-91849580D02*
X186820350Y-91897200D01*
X186820350Y-91897200D02*
X186725112Y-91944819D01*
X186725112Y-91944819D02*
X186534636Y-91944819D01*
X186534636Y-91944819D02*
X186439398Y-91897200D01*
X186439398Y-91897200D02*
X186391779Y-91849580D01*
X186391779Y-91849580D02*
X186344160Y-91754342D01*
X186344160Y-91754342D02*
X186344160Y-91516247D01*
X186344160Y-91516247D02*
X186391779Y-91421009D01*
X186391779Y-91421009D02*
X186439398Y-91373390D01*
X186439398Y-91373390D02*
X186534636Y-91325771D01*
X186534636Y-91325771D02*
X186725112Y-91325771D01*
X186725112Y-91325771D02*
X186820350Y-91373390D01*
X186820350Y-91373390D02*
X186867969Y-91421009D01*
X186867969Y-91421009D02*
X186915588Y-91516247D01*
X140925588Y-111264819D02*
X140306541Y-111264819D01*
X140306541Y-111264819D02*
X140639874Y-111645771D01*
X140639874Y-111645771D02*
X140497017Y-111645771D01*
X140497017Y-111645771D02*
X140401779Y-111693390D01*
X140401779Y-111693390D02*
X140354160Y-111741009D01*
X140354160Y-111741009D02*
X140306541Y-111836247D01*
X140306541Y-111836247D02*
X140306541Y-112074342D01*
X140306541Y-112074342D02*
X140354160Y-112169580D01*
X140354160Y-112169580D02*
X140401779Y-112217200D01*
X140401779Y-112217200D02*
X140497017Y-112264819D01*
X140497017Y-112264819D02*
X140782731Y-112264819D01*
X140782731Y-112264819D02*
X140877969Y-112217200D01*
X140877969Y-112217200D02*
X140925588Y-112169580D01*
X139449398Y-111264819D02*
X139639874Y-111264819D01*
X139639874Y-111264819D02*
X139735112Y-111312438D01*
X139735112Y-111312438D02*
X139782731Y-111360057D01*
X139782731Y-111360057D02*
X139877969Y-111502914D01*
X139877969Y-111502914D02*
X139925588Y-111693390D01*
X139925588Y-111693390D02*
X139925588Y-112074342D01*
X139925588Y-112074342D02*
X139877969Y-112169580D01*
X139877969Y-112169580D02*
X139830350Y-112217200D01*
X139830350Y-112217200D02*
X139735112Y-112264819D01*
X139735112Y-112264819D02*
X139544636Y-112264819D01*
X139544636Y-112264819D02*
X139449398Y-112217200D01*
X139449398Y-112217200D02*
X139401779Y-112169580D01*
X139401779Y-112169580D02*
X139354160Y-112074342D01*
X139354160Y-112074342D02*
X139354160Y-111836247D01*
X139354160Y-111836247D02*
X139401779Y-111741009D01*
X139401779Y-111741009D02*
X139449398Y-111693390D01*
X139449398Y-111693390D02*
X139544636Y-111645771D01*
X139544636Y-111645771D02*
X139735112Y-111645771D01*
X139735112Y-111645771D02*
X139830350Y-111693390D01*
X139830350Y-111693390D02*
X139877969Y-111741009D01*
X139877969Y-111741009D02*
X139925588Y-111836247D01*
X140306541Y-84324819D02*
X140877969Y-84324819D01*
X140592255Y-84324819D02*
X140592255Y-83324819D01*
X140592255Y-83324819D02*
X140687493Y-83467676D01*
X140687493Y-83467676D02*
X140782731Y-83562914D01*
X140782731Y-83562914D02*
X140877969Y-83610533D01*
X139449398Y-83658152D02*
X139449398Y-84324819D01*
X139687493Y-83277200D02*
X139925588Y-83991485D01*
X139925588Y-83991485D02*
X139306541Y-83991485D01*
X159734285Y-76958819D02*
X160305713Y-76958819D01*
X160019999Y-76958819D02*
X160019999Y-75958819D01*
X160019999Y-75958819D02*
X160115237Y-76101676D01*
X160115237Y-76101676D02*
X160210475Y-76196914D01*
X160210475Y-76196914D02*
X160305713Y-76244533D01*
X187677493Y-68513390D02*
X187772731Y-68465771D01*
X187772731Y-68465771D02*
X187820350Y-68418152D01*
X187820350Y-68418152D02*
X187867969Y-68322914D01*
X187867969Y-68322914D02*
X187867969Y-68275295D01*
X187867969Y-68275295D02*
X187820350Y-68180057D01*
X187820350Y-68180057D02*
X187772731Y-68132438D01*
X187772731Y-68132438D02*
X187677493Y-68084819D01*
X187677493Y-68084819D02*
X187487017Y-68084819D01*
X187487017Y-68084819D02*
X187391779Y-68132438D01*
X187391779Y-68132438D02*
X187344160Y-68180057D01*
X187344160Y-68180057D02*
X187296541Y-68275295D01*
X187296541Y-68275295D02*
X187296541Y-68322914D01*
X187296541Y-68322914D02*
X187344160Y-68418152D01*
X187344160Y-68418152D02*
X187391779Y-68465771D01*
X187391779Y-68465771D02*
X187487017Y-68513390D01*
X187487017Y-68513390D02*
X187677493Y-68513390D01*
X187677493Y-68513390D02*
X187772731Y-68561009D01*
X187772731Y-68561009D02*
X187820350Y-68608628D01*
X187820350Y-68608628D02*
X187867969Y-68703866D01*
X187867969Y-68703866D02*
X187867969Y-68894342D01*
X187867969Y-68894342D02*
X187820350Y-68989580D01*
X187820350Y-68989580D02*
X187772731Y-69037200D01*
X187772731Y-69037200D02*
X187677493Y-69084819D01*
X187677493Y-69084819D02*
X187487017Y-69084819D01*
X187487017Y-69084819D02*
X187391779Y-69037200D01*
X187391779Y-69037200D02*
X187344160Y-68989580D01*
X187344160Y-68989580D02*
X187296541Y-68894342D01*
X187296541Y-68894342D02*
X187296541Y-68703866D01*
X187296541Y-68703866D02*
X187344160Y-68608628D01*
X187344160Y-68608628D02*
X187391779Y-68561009D01*
X187391779Y-68561009D02*
X187487017Y-68513390D01*
X186439398Y-68418152D02*
X186439398Y-69084819D01*
X186677493Y-68037200D02*
X186915588Y-68751485D01*
X186915588Y-68751485D02*
X186296541Y-68751485D01*
X133695839Y-103740057D02*
X133648220Y-103692438D01*
X133648220Y-103692438D02*
X133552982Y-103644819D01*
X133552982Y-103644819D02*
X133314887Y-103644819D01*
X133314887Y-103644819D02*
X133219649Y-103692438D01*
X133219649Y-103692438D02*
X133172030Y-103740057D01*
X133172030Y-103740057D02*
X133124411Y-103835295D01*
X133124411Y-103835295D02*
X133124411Y-103930533D01*
X133124411Y-103930533D02*
X133172030Y-104073390D01*
X133172030Y-104073390D02*
X133743458Y-104644819D01*
X133743458Y-104644819D02*
X133124411Y-104644819D01*
X132648220Y-104644819D02*
X132457744Y-104644819D01*
X132457744Y-104644819D02*
X132362506Y-104597200D01*
X132362506Y-104597200D02*
X132314887Y-104549580D01*
X132314887Y-104549580D02*
X132219649Y-104406723D01*
X132219649Y-104406723D02*
X132172030Y-104216247D01*
X132172030Y-104216247D02*
X132172030Y-103835295D01*
X132172030Y-103835295D02*
X132219649Y-103740057D01*
X132219649Y-103740057D02*
X132267268Y-103692438D01*
X132267268Y-103692438D02*
X132362506Y-103644819D01*
X132362506Y-103644819D02*
X132552982Y-103644819D01*
X132552982Y-103644819D02*
X132648220Y-103692438D01*
X132648220Y-103692438D02*
X132695839Y-103740057D01*
X132695839Y-103740057D02*
X132743458Y-103835295D01*
X132743458Y-103835295D02*
X132743458Y-104073390D01*
X132743458Y-104073390D02*
X132695839Y-104168628D01*
X132695839Y-104168628D02*
X132648220Y-104216247D01*
X132648220Y-104216247D02*
X132552982Y-104263866D01*
X132552982Y-104263866D02*
X132362506Y-104263866D01*
X132362506Y-104263866D02*
X132267268Y-104216247D01*
X132267268Y-104216247D02*
X132219649Y-104168628D01*
X132219649Y-104168628D02*
X132172030Y-104073390D01*
X187344160Y-101104819D02*
X187820350Y-101104819D01*
X187820350Y-101104819D02*
X187867969Y-101581009D01*
X187867969Y-101581009D02*
X187820350Y-101533390D01*
X187820350Y-101533390D02*
X187725112Y-101485771D01*
X187725112Y-101485771D02*
X187487017Y-101485771D01*
X187487017Y-101485771D02*
X187391779Y-101533390D01*
X187391779Y-101533390D02*
X187344160Y-101581009D01*
X187344160Y-101581009D02*
X187296541Y-101676247D01*
X187296541Y-101676247D02*
X187296541Y-101914342D01*
X187296541Y-101914342D02*
X187344160Y-102009580D01*
X187344160Y-102009580D02*
X187391779Y-102057200D01*
X187391779Y-102057200D02*
X187487017Y-102104819D01*
X187487017Y-102104819D02*
X187725112Y-102104819D01*
X187725112Y-102104819D02*
X187820350Y-102057200D01*
X187820350Y-102057200D02*
X187867969Y-102009580D01*
X186725112Y-101533390D02*
X186820350Y-101485771D01*
X186820350Y-101485771D02*
X186867969Y-101438152D01*
X186867969Y-101438152D02*
X186915588Y-101342914D01*
X186915588Y-101342914D02*
X186915588Y-101295295D01*
X186915588Y-101295295D02*
X186867969Y-101200057D01*
X186867969Y-101200057D02*
X186820350Y-101152438D01*
X186820350Y-101152438D02*
X186725112Y-101104819D01*
X186725112Y-101104819D02*
X186534636Y-101104819D01*
X186534636Y-101104819D02*
X186439398Y-101152438D01*
X186439398Y-101152438D02*
X186391779Y-101200057D01*
X186391779Y-101200057D02*
X186344160Y-101295295D01*
X186344160Y-101295295D02*
X186344160Y-101342914D01*
X186344160Y-101342914D02*
X186391779Y-101438152D01*
X186391779Y-101438152D02*
X186439398Y-101485771D01*
X186439398Y-101485771D02*
X186534636Y-101533390D01*
X186534636Y-101533390D02*
X186725112Y-101533390D01*
X186725112Y-101533390D02*
X186820350Y-101581009D01*
X186820350Y-101581009D02*
X186867969Y-101628628D01*
X186867969Y-101628628D02*
X186915588Y-101723866D01*
X186915588Y-101723866D02*
X186915588Y-101914342D01*
X186915588Y-101914342D02*
X186867969Y-102009580D01*
X186867969Y-102009580D02*
X186820350Y-102057200D01*
X186820350Y-102057200D02*
X186725112Y-102104819D01*
X186725112Y-102104819D02*
X186534636Y-102104819D01*
X186534636Y-102104819D02*
X186439398Y-102057200D01*
X186439398Y-102057200D02*
X186391779Y-102009580D01*
X186391779Y-102009580D02*
X186344160Y-101914342D01*
X186344160Y-101914342D02*
X186344160Y-101723866D01*
X186344160Y-101723866D02*
X186391779Y-101628628D01*
X186391779Y-101628628D02*
X186439398Y-101581009D01*
X186439398Y-101581009D02*
X186534636Y-101533390D01*
X140306541Y-81784819D02*
X140877969Y-81784819D01*
X140592255Y-81784819D02*
X140592255Y-80784819D01*
X140592255Y-80784819D02*
X140687493Y-80927676D01*
X140687493Y-80927676D02*
X140782731Y-81022914D01*
X140782731Y-81022914D02*
X140877969Y-81070533D01*
X139925588Y-80880057D02*
X139877969Y-80832438D01*
X139877969Y-80832438D02*
X139782731Y-80784819D01*
X139782731Y-80784819D02*
X139544636Y-80784819D01*
X139544636Y-80784819D02*
X139449398Y-80832438D01*
X139449398Y-80832438D02*
X139401779Y-80880057D01*
X139401779Y-80880057D02*
X139354160Y-80975295D01*
X139354160Y-80975295D02*
X139354160Y-81070533D01*
X139354160Y-81070533D02*
X139401779Y-81213390D01*
X139401779Y-81213390D02*
X139973207Y-81784819D01*
X139973207Y-81784819D02*
X139354160Y-81784819D01*
X180209649Y-90944819D02*
X180400125Y-90944819D01*
X180400125Y-90944819D02*
X180495363Y-90992438D01*
X180495363Y-90992438D02*
X180542982Y-91040057D01*
X180542982Y-91040057D02*
X180638220Y-91182914D01*
X180638220Y-91182914D02*
X180685839Y-91373390D01*
X180685839Y-91373390D02*
X180685839Y-91754342D01*
X180685839Y-91754342D02*
X180638220Y-91849580D01*
X180638220Y-91849580D02*
X180590601Y-91897200D01*
X180590601Y-91897200D02*
X180495363Y-91944819D01*
X180495363Y-91944819D02*
X180304887Y-91944819D01*
X180304887Y-91944819D02*
X180209649Y-91897200D01*
X180209649Y-91897200D02*
X180162030Y-91849580D01*
X180162030Y-91849580D02*
X180114411Y-91754342D01*
X180114411Y-91754342D02*
X180114411Y-91516247D01*
X180114411Y-91516247D02*
X180162030Y-91421009D01*
X180162030Y-91421009D02*
X180209649Y-91373390D01*
X180209649Y-91373390D02*
X180304887Y-91325771D01*
X180304887Y-91325771D02*
X180495363Y-91325771D01*
X180495363Y-91325771D02*
X180590601Y-91373390D01*
X180590601Y-91373390D02*
X180638220Y-91421009D01*
X180638220Y-91421009D02*
X180685839Y-91516247D01*
X179209649Y-90944819D02*
X179685839Y-90944819D01*
X179685839Y-90944819D02*
X179733458Y-91421009D01*
X179733458Y-91421009D02*
X179685839Y-91373390D01*
X179685839Y-91373390D02*
X179590601Y-91325771D01*
X179590601Y-91325771D02*
X179352506Y-91325771D01*
X179352506Y-91325771D02*
X179257268Y-91373390D01*
X179257268Y-91373390D02*
X179209649Y-91421009D01*
X179209649Y-91421009D02*
X179162030Y-91516247D01*
X179162030Y-91516247D02*
X179162030Y-91754342D01*
X179162030Y-91754342D02*
X179209649Y-91849580D01*
X179209649Y-91849580D02*
X179257268Y-91897200D01*
X179257268Y-91897200D02*
X179352506Y-91944819D01*
X179352506Y-91944819D02*
X179590601Y-91944819D01*
X179590601Y-91944819D02*
X179685839Y-91897200D01*
X179685839Y-91897200D02*
X179733458Y-91849580D01*
X187915588Y-80784819D02*
X187248922Y-80784819D01*
X187248922Y-80784819D02*
X187677493Y-81784819D01*
X186439398Y-81118152D02*
X186439398Y-81784819D01*
X186677493Y-80737200D02*
X186915588Y-81451485D01*
X186915588Y-81451485D02*
X186296541Y-81451485D01*
X133743458Y-75704819D02*
X133076792Y-75704819D01*
X133076792Y-75704819D02*
X133505363Y-76704819D01*
X133172030Y-73164819D02*
X133648220Y-73164819D01*
X133648220Y-73164819D02*
X133695839Y-73641009D01*
X133695839Y-73641009D02*
X133648220Y-73593390D01*
X133648220Y-73593390D02*
X133552982Y-73545771D01*
X133552982Y-73545771D02*
X133314887Y-73545771D01*
X133314887Y-73545771D02*
X133219649Y-73593390D01*
X133219649Y-73593390D02*
X133172030Y-73641009D01*
X133172030Y-73641009D02*
X133124411Y-73736247D01*
X133124411Y-73736247D02*
X133124411Y-73974342D01*
X133124411Y-73974342D02*
X133172030Y-74069580D01*
X133172030Y-74069580D02*
X133219649Y-74117200D01*
X133219649Y-74117200D02*
X133314887Y-74164819D01*
X133314887Y-74164819D02*
X133552982Y-74164819D01*
X133552982Y-74164819D02*
X133648220Y-74117200D01*
X133648220Y-74117200D02*
X133695839Y-74069580D01*
X180733458Y-73164819D02*
X180066792Y-73164819D01*
X180066792Y-73164819D02*
X180495363Y-74164819D01*
X179638220Y-74164819D02*
X179447744Y-74164819D01*
X179447744Y-74164819D02*
X179352506Y-74117200D01*
X179352506Y-74117200D02*
X179304887Y-74069580D01*
X179304887Y-74069580D02*
X179209649Y-73926723D01*
X179209649Y-73926723D02*
X179162030Y-73736247D01*
X179162030Y-73736247D02*
X179162030Y-73355295D01*
X179162030Y-73355295D02*
X179209649Y-73260057D01*
X179209649Y-73260057D02*
X179257268Y-73212438D01*
X179257268Y-73212438D02*
X179352506Y-73164819D01*
X179352506Y-73164819D02*
X179542982Y-73164819D01*
X179542982Y-73164819D02*
X179638220Y-73212438D01*
X179638220Y-73212438D02*
X179685839Y-73260057D01*
X179685839Y-73260057D02*
X179733458Y-73355295D01*
X179733458Y-73355295D02*
X179733458Y-73593390D01*
X179733458Y-73593390D02*
X179685839Y-73688628D01*
X179685839Y-73688628D02*
X179638220Y-73736247D01*
X179638220Y-73736247D02*
X179542982Y-73783866D01*
X179542982Y-73783866D02*
X179352506Y-73783866D01*
X179352506Y-73783866D02*
X179257268Y-73736247D01*
X179257268Y-73736247D02*
X179209649Y-73688628D01*
X179209649Y-73688628D02*
X179162030Y-73593390D01*
X180209649Y-119218152D02*
X180209649Y-119884819D01*
X180447744Y-118837200D02*
X180685839Y-119551485D01*
X180685839Y-119551485D02*
X180066792Y-119551485D01*
X179781077Y-118884819D02*
X179162030Y-118884819D01*
X179162030Y-118884819D02*
X179495363Y-119265771D01*
X179495363Y-119265771D02*
X179352506Y-119265771D01*
X179352506Y-119265771D02*
X179257268Y-119313390D01*
X179257268Y-119313390D02*
X179209649Y-119361009D01*
X179209649Y-119361009D02*
X179162030Y-119456247D01*
X179162030Y-119456247D02*
X179162030Y-119694342D01*
X179162030Y-119694342D02*
X179209649Y-119789580D01*
X179209649Y-119789580D02*
X179257268Y-119837200D01*
X179257268Y-119837200D02*
X179352506Y-119884819D01*
X179352506Y-119884819D02*
X179638220Y-119884819D01*
X179638220Y-119884819D02*
X179733458Y-119837200D01*
X179733458Y-119837200D02*
X179781077Y-119789580D01*
X180209649Y-114138152D02*
X180209649Y-114804819D01*
X180447744Y-113757200D02*
X180685839Y-114471485D01*
X180685839Y-114471485D02*
X180066792Y-114471485D01*
X179781077Y-113804819D02*
X179114411Y-113804819D01*
X179114411Y-113804819D02*
X179542982Y-114804819D01*
X187344160Y-108724819D02*
X187820350Y-108724819D01*
X187820350Y-108724819D02*
X187867969Y-109201009D01*
X187867969Y-109201009D02*
X187820350Y-109153390D01*
X187820350Y-109153390D02*
X187725112Y-109105771D01*
X187725112Y-109105771D02*
X187487017Y-109105771D01*
X187487017Y-109105771D02*
X187391779Y-109153390D01*
X187391779Y-109153390D02*
X187344160Y-109201009D01*
X187344160Y-109201009D02*
X187296541Y-109296247D01*
X187296541Y-109296247D02*
X187296541Y-109534342D01*
X187296541Y-109534342D02*
X187344160Y-109629580D01*
X187344160Y-109629580D02*
X187391779Y-109677200D01*
X187391779Y-109677200D02*
X187487017Y-109724819D01*
X187487017Y-109724819D02*
X187725112Y-109724819D01*
X187725112Y-109724819D02*
X187820350Y-109677200D01*
X187820350Y-109677200D02*
X187867969Y-109629580D01*
X186915588Y-108820057D02*
X186867969Y-108772438D01*
X186867969Y-108772438D02*
X186772731Y-108724819D01*
X186772731Y-108724819D02*
X186534636Y-108724819D01*
X186534636Y-108724819D02*
X186439398Y-108772438D01*
X186439398Y-108772438D02*
X186391779Y-108820057D01*
X186391779Y-108820057D02*
X186344160Y-108915295D01*
X186344160Y-108915295D02*
X186344160Y-109010533D01*
X186344160Y-109010533D02*
X186391779Y-109153390D01*
X186391779Y-109153390D02*
X186963207Y-109724819D01*
X186963207Y-109724819D02*
X186344160Y-109724819D01*
X187915588Y-83324819D02*
X187248922Y-83324819D01*
X187248922Y-83324819D02*
X187677493Y-84324819D01*
X186915588Y-83420057D02*
X186867969Y-83372438D01*
X186867969Y-83372438D02*
X186772731Y-83324819D01*
X186772731Y-83324819D02*
X186534636Y-83324819D01*
X186534636Y-83324819D02*
X186439398Y-83372438D01*
X186439398Y-83372438D02*
X186391779Y-83420057D01*
X186391779Y-83420057D02*
X186344160Y-83515295D01*
X186344160Y-83515295D02*
X186344160Y-83610533D01*
X186344160Y-83610533D02*
X186391779Y-83753390D01*
X186391779Y-83753390D02*
X186963207Y-84324819D01*
X186963207Y-84324819D02*
X186344160Y-84324819D01*
X140877969Y-98660057D02*
X140830350Y-98612438D01*
X140830350Y-98612438D02*
X140735112Y-98564819D01*
X140735112Y-98564819D02*
X140497017Y-98564819D01*
X140497017Y-98564819D02*
X140401779Y-98612438D01*
X140401779Y-98612438D02*
X140354160Y-98660057D01*
X140354160Y-98660057D02*
X140306541Y-98755295D01*
X140306541Y-98755295D02*
X140306541Y-98850533D01*
X140306541Y-98850533D02*
X140354160Y-98993390D01*
X140354160Y-98993390D02*
X140925588Y-99564819D01*
X140925588Y-99564819D02*
X140306541Y-99564819D01*
X139449398Y-98564819D02*
X139639874Y-98564819D01*
X139639874Y-98564819D02*
X139735112Y-98612438D01*
X139735112Y-98612438D02*
X139782731Y-98660057D01*
X139782731Y-98660057D02*
X139877969Y-98802914D01*
X139877969Y-98802914D02*
X139925588Y-98993390D01*
X139925588Y-98993390D02*
X139925588Y-99374342D01*
X139925588Y-99374342D02*
X139877969Y-99469580D01*
X139877969Y-99469580D02*
X139830350Y-99517200D01*
X139830350Y-99517200D02*
X139735112Y-99564819D01*
X139735112Y-99564819D02*
X139544636Y-99564819D01*
X139544636Y-99564819D02*
X139449398Y-99517200D01*
X139449398Y-99517200D02*
X139401779Y-99469580D01*
X139401779Y-99469580D02*
X139354160Y-99374342D01*
X139354160Y-99374342D02*
X139354160Y-99136247D01*
X139354160Y-99136247D02*
X139401779Y-99041009D01*
X139401779Y-99041009D02*
X139449398Y-98993390D01*
X139449398Y-98993390D02*
X139544636Y-98945771D01*
X139544636Y-98945771D02*
X139735112Y-98945771D01*
X139735112Y-98945771D02*
X139830350Y-98993390D01*
X139830350Y-98993390D02*
X139877969Y-99041009D01*
X139877969Y-99041009D02*
X139925588Y-99136247D01*
X180162030Y-101104819D02*
X180638220Y-101104819D01*
X180638220Y-101104819D02*
X180685839Y-101581009D01*
X180685839Y-101581009D02*
X180638220Y-101533390D01*
X180638220Y-101533390D02*
X180542982Y-101485771D01*
X180542982Y-101485771D02*
X180304887Y-101485771D01*
X180304887Y-101485771D02*
X180209649Y-101533390D01*
X180209649Y-101533390D02*
X180162030Y-101581009D01*
X180162030Y-101581009D02*
X180114411Y-101676247D01*
X180114411Y-101676247D02*
X180114411Y-101914342D01*
X180114411Y-101914342D02*
X180162030Y-102009580D01*
X180162030Y-102009580D02*
X180209649Y-102057200D01*
X180209649Y-102057200D02*
X180304887Y-102104819D01*
X180304887Y-102104819D02*
X180542982Y-102104819D01*
X180542982Y-102104819D02*
X180638220Y-102057200D01*
X180638220Y-102057200D02*
X180685839Y-102009580D01*
X179781077Y-101104819D02*
X179114411Y-101104819D01*
X179114411Y-101104819D02*
X179542982Y-102104819D01*
X187915588Y-78244819D02*
X187248922Y-78244819D01*
X187248922Y-78244819D02*
X187677493Y-79244819D01*
X186439398Y-78244819D02*
X186629874Y-78244819D01*
X186629874Y-78244819D02*
X186725112Y-78292438D01*
X186725112Y-78292438D02*
X186772731Y-78340057D01*
X186772731Y-78340057D02*
X186867969Y-78482914D01*
X186867969Y-78482914D02*
X186915588Y-78673390D01*
X186915588Y-78673390D02*
X186915588Y-79054342D01*
X186915588Y-79054342D02*
X186867969Y-79149580D01*
X186867969Y-79149580D02*
X186820350Y-79197200D01*
X186820350Y-79197200D02*
X186725112Y-79244819D01*
X186725112Y-79244819D02*
X186534636Y-79244819D01*
X186534636Y-79244819D02*
X186439398Y-79197200D01*
X186439398Y-79197200D02*
X186391779Y-79149580D01*
X186391779Y-79149580D02*
X186344160Y-79054342D01*
X186344160Y-79054342D02*
X186344160Y-78816247D01*
X186344160Y-78816247D02*
X186391779Y-78721009D01*
X186391779Y-78721009D02*
X186439398Y-78673390D01*
X186439398Y-78673390D02*
X186534636Y-78625771D01*
X186534636Y-78625771D02*
X186725112Y-78625771D01*
X186725112Y-78625771D02*
X186820350Y-78673390D01*
X186820350Y-78673390D02*
X186867969Y-78721009D01*
X186867969Y-78721009D02*
X186915588Y-78816247D01*
X133743458Y-70624819D02*
X133124411Y-70624819D01*
X133124411Y-70624819D02*
X133457744Y-71005771D01*
X133457744Y-71005771D02*
X133314887Y-71005771D01*
X133314887Y-71005771D02*
X133219649Y-71053390D01*
X133219649Y-71053390D02*
X133172030Y-71101009D01*
X133172030Y-71101009D02*
X133124411Y-71196247D01*
X133124411Y-71196247D02*
X133124411Y-71434342D01*
X133124411Y-71434342D02*
X133172030Y-71529580D01*
X133172030Y-71529580D02*
X133219649Y-71577200D01*
X133219649Y-71577200D02*
X133314887Y-71624819D01*
X133314887Y-71624819D02*
X133600601Y-71624819D01*
X133600601Y-71624819D02*
X133695839Y-71577200D01*
X133695839Y-71577200D02*
X133743458Y-71529580D01*
X180209649Y-85864819D02*
X180400125Y-85864819D01*
X180400125Y-85864819D02*
X180495363Y-85912438D01*
X180495363Y-85912438D02*
X180542982Y-85960057D01*
X180542982Y-85960057D02*
X180638220Y-86102914D01*
X180638220Y-86102914D02*
X180685839Y-86293390D01*
X180685839Y-86293390D02*
X180685839Y-86674342D01*
X180685839Y-86674342D02*
X180638220Y-86769580D01*
X180638220Y-86769580D02*
X180590601Y-86817200D01*
X180590601Y-86817200D02*
X180495363Y-86864819D01*
X180495363Y-86864819D02*
X180304887Y-86864819D01*
X180304887Y-86864819D02*
X180209649Y-86817200D01*
X180209649Y-86817200D02*
X180162030Y-86769580D01*
X180162030Y-86769580D02*
X180114411Y-86674342D01*
X180114411Y-86674342D02*
X180114411Y-86436247D01*
X180114411Y-86436247D02*
X180162030Y-86341009D01*
X180162030Y-86341009D02*
X180209649Y-86293390D01*
X180209649Y-86293390D02*
X180304887Y-86245771D01*
X180304887Y-86245771D02*
X180495363Y-86245771D01*
X180495363Y-86245771D02*
X180590601Y-86293390D01*
X180590601Y-86293390D02*
X180638220Y-86341009D01*
X180638220Y-86341009D02*
X180685839Y-86436247D01*
X179638220Y-86864819D02*
X179447744Y-86864819D01*
X179447744Y-86864819D02*
X179352506Y-86817200D01*
X179352506Y-86817200D02*
X179304887Y-86769580D01*
X179304887Y-86769580D02*
X179209649Y-86626723D01*
X179209649Y-86626723D02*
X179162030Y-86436247D01*
X179162030Y-86436247D02*
X179162030Y-86055295D01*
X179162030Y-86055295D02*
X179209649Y-85960057D01*
X179209649Y-85960057D02*
X179257268Y-85912438D01*
X179257268Y-85912438D02*
X179352506Y-85864819D01*
X179352506Y-85864819D02*
X179542982Y-85864819D01*
X179542982Y-85864819D02*
X179638220Y-85912438D01*
X179638220Y-85912438D02*
X179685839Y-85960057D01*
X179685839Y-85960057D02*
X179733458Y-86055295D01*
X179733458Y-86055295D02*
X179733458Y-86293390D01*
X179733458Y-86293390D02*
X179685839Y-86388628D01*
X179685839Y-86388628D02*
X179638220Y-86436247D01*
X179638220Y-86436247D02*
X179542982Y-86483866D01*
X179542982Y-86483866D02*
X179352506Y-86483866D01*
X179352506Y-86483866D02*
X179257268Y-86436247D01*
X179257268Y-86436247D02*
X179209649Y-86388628D01*
X179209649Y-86388628D02*
X179162030Y-86293390D01*
X140925588Y-106184819D02*
X140306541Y-106184819D01*
X140306541Y-106184819D02*
X140639874Y-106565771D01*
X140639874Y-106565771D02*
X140497017Y-106565771D01*
X140497017Y-106565771D02*
X140401779Y-106613390D01*
X140401779Y-106613390D02*
X140354160Y-106661009D01*
X140354160Y-106661009D02*
X140306541Y-106756247D01*
X140306541Y-106756247D02*
X140306541Y-106994342D01*
X140306541Y-106994342D02*
X140354160Y-107089580D01*
X140354160Y-107089580D02*
X140401779Y-107137200D01*
X140401779Y-107137200D02*
X140497017Y-107184819D01*
X140497017Y-107184819D02*
X140782731Y-107184819D01*
X140782731Y-107184819D02*
X140877969Y-107137200D01*
X140877969Y-107137200D02*
X140925588Y-107089580D01*
X139925588Y-106280057D02*
X139877969Y-106232438D01*
X139877969Y-106232438D02*
X139782731Y-106184819D01*
X139782731Y-106184819D02*
X139544636Y-106184819D01*
X139544636Y-106184819D02*
X139449398Y-106232438D01*
X139449398Y-106232438D02*
X139401779Y-106280057D01*
X139401779Y-106280057D02*
X139354160Y-106375295D01*
X139354160Y-106375295D02*
X139354160Y-106470533D01*
X139354160Y-106470533D02*
X139401779Y-106613390D01*
X139401779Y-106613390D02*
X139973207Y-107184819D01*
X139973207Y-107184819D02*
X139354160Y-107184819D01*
X187344160Y-103644819D02*
X187820350Y-103644819D01*
X187820350Y-103644819D02*
X187867969Y-104121009D01*
X187867969Y-104121009D02*
X187820350Y-104073390D01*
X187820350Y-104073390D02*
X187725112Y-104025771D01*
X187725112Y-104025771D02*
X187487017Y-104025771D01*
X187487017Y-104025771D02*
X187391779Y-104073390D01*
X187391779Y-104073390D02*
X187344160Y-104121009D01*
X187344160Y-104121009D02*
X187296541Y-104216247D01*
X187296541Y-104216247D02*
X187296541Y-104454342D01*
X187296541Y-104454342D02*
X187344160Y-104549580D01*
X187344160Y-104549580D02*
X187391779Y-104597200D01*
X187391779Y-104597200D02*
X187487017Y-104644819D01*
X187487017Y-104644819D02*
X187725112Y-104644819D01*
X187725112Y-104644819D02*
X187820350Y-104597200D01*
X187820350Y-104597200D02*
X187867969Y-104549580D01*
X186439398Y-103644819D02*
X186629874Y-103644819D01*
X186629874Y-103644819D02*
X186725112Y-103692438D01*
X186725112Y-103692438D02*
X186772731Y-103740057D01*
X186772731Y-103740057D02*
X186867969Y-103882914D01*
X186867969Y-103882914D02*
X186915588Y-104073390D01*
X186915588Y-104073390D02*
X186915588Y-104454342D01*
X186915588Y-104454342D02*
X186867969Y-104549580D01*
X186867969Y-104549580D02*
X186820350Y-104597200D01*
X186820350Y-104597200D02*
X186725112Y-104644819D01*
X186725112Y-104644819D02*
X186534636Y-104644819D01*
X186534636Y-104644819D02*
X186439398Y-104597200D01*
X186439398Y-104597200D02*
X186391779Y-104549580D01*
X186391779Y-104549580D02*
X186344160Y-104454342D01*
X186344160Y-104454342D02*
X186344160Y-104216247D01*
X186344160Y-104216247D02*
X186391779Y-104121009D01*
X186391779Y-104121009D02*
X186439398Y-104073390D01*
X186439398Y-104073390D02*
X186534636Y-104025771D01*
X186534636Y-104025771D02*
X186725112Y-104025771D01*
X186725112Y-104025771D02*
X186820350Y-104073390D01*
X186820350Y-104073390D02*
X186867969Y-104121009D01*
X186867969Y-104121009D02*
X186915588Y-104216247D01*
X133600601Y-79244819D02*
X133410125Y-79244819D01*
X133410125Y-79244819D02*
X133314887Y-79197200D01*
X133314887Y-79197200D02*
X133267268Y-79149580D01*
X133267268Y-79149580D02*
X133172030Y-79006723D01*
X133172030Y-79006723D02*
X133124411Y-78816247D01*
X133124411Y-78816247D02*
X133124411Y-78435295D01*
X133124411Y-78435295D02*
X133172030Y-78340057D01*
X133172030Y-78340057D02*
X133219649Y-78292438D01*
X133219649Y-78292438D02*
X133314887Y-78244819D01*
X133314887Y-78244819D02*
X133505363Y-78244819D01*
X133505363Y-78244819D02*
X133600601Y-78292438D01*
X133600601Y-78292438D02*
X133648220Y-78340057D01*
X133648220Y-78340057D02*
X133695839Y-78435295D01*
X133695839Y-78435295D02*
X133695839Y-78673390D01*
X133695839Y-78673390D02*
X133648220Y-78768628D01*
X133648220Y-78768628D02*
X133600601Y-78816247D01*
X133600601Y-78816247D02*
X133505363Y-78863866D01*
X133505363Y-78863866D02*
X133314887Y-78863866D01*
X133314887Y-78863866D02*
X133219649Y-78816247D01*
X133219649Y-78816247D02*
X133172030Y-78768628D01*
X133172030Y-78768628D02*
X133124411Y-78673390D01*
X180162030Y-103644819D02*
X180638220Y-103644819D01*
X180638220Y-103644819D02*
X180685839Y-104121009D01*
X180685839Y-104121009D02*
X180638220Y-104073390D01*
X180638220Y-104073390D02*
X180542982Y-104025771D01*
X180542982Y-104025771D02*
X180304887Y-104025771D01*
X180304887Y-104025771D02*
X180209649Y-104073390D01*
X180209649Y-104073390D02*
X180162030Y-104121009D01*
X180162030Y-104121009D02*
X180114411Y-104216247D01*
X180114411Y-104216247D02*
X180114411Y-104454342D01*
X180114411Y-104454342D02*
X180162030Y-104549580D01*
X180162030Y-104549580D02*
X180209649Y-104597200D01*
X180209649Y-104597200D02*
X180304887Y-104644819D01*
X180304887Y-104644819D02*
X180542982Y-104644819D01*
X180542982Y-104644819D02*
X180638220Y-104597200D01*
X180638220Y-104597200D02*
X180685839Y-104549580D01*
X179209649Y-103644819D02*
X179685839Y-103644819D01*
X179685839Y-103644819D02*
X179733458Y-104121009D01*
X179733458Y-104121009D02*
X179685839Y-104073390D01*
X179685839Y-104073390D02*
X179590601Y-104025771D01*
X179590601Y-104025771D02*
X179352506Y-104025771D01*
X179352506Y-104025771D02*
X179257268Y-104073390D01*
X179257268Y-104073390D02*
X179209649Y-104121009D01*
X179209649Y-104121009D02*
X179162030Y-104216247D01*
X179162030Y-104216247D02*
X179162030Y-104454342D01*
X179162030Y-104454342D02*
X179209649Y-104549580D01*
X179209649Y-104549580D02*
X179257268Y-104597200D01*
X179257268Y-104597200D02*
X179352506Y-104644819D01*
X179352506Y-104644819D02*
X179590601Y-104644819D01*
X179590601Y-104644819D02*
X179685839Y-104597200D01*
X179685839Y-104597200D02*
X179733458Y-104549580D01*
X187915588Y-85864819D02*
X187248922Y-85864819D01*
X187248922Y-85864819D02*
X187677493Y-86864819D01*
X186677493Y-85864819D02*
X186582255Y-85864819D01*
X186582255Y-85864819D02*
X186487017Y-85912438D01*
X186487017Y-85912438D02*
X186439398Y-85960057D01*
X186439398Y-85960057D02*
X186391779Y-86055295D01*
X186391779Y-86055295D02*
X186344160Y-86245771D01*
X186344160Y-86245771D02*
X186344160Y-86483866D01*
X186344160Y-86483866D02*
X186391779Y-86674342D01*
X186391779Y-86674342D02*
X186439398Y-86769580D01*
X186439398Y-86769580D02*
X186487017Y-86817200D01*
X186487017Y-86817200D02*
X186582255Y-86864819D01*
X186582255Y-86864819D02*
X186677493Y-86864819D01*
X186677493Y-86864819D02*
X186772731Y-86817200D01*
X186772731Y-86817200D02*
X186820350Y-86769580D01*
X186820350Y-86769580D02*
X186867969Y-86674342D01*
X186867969Y-86674342D02*
X186915588Y-86483866D01*
X186915588Y-86483866D02*
X186915588Y-86245771D01*
X186915588Y-86245771D02*
X186867969Y-86055295D01*
X186867969Y-86055295D02*
X186820350Y-85960057D01*
X186820350Y-85960057D02*
X186772731Y-85912438D01*
X186772731Y-85912438D02*
X186677493Y-85864819D01*
X180733458Y-83324819D02*
X180066792Y-83324819D01*
X180066792Y-83324819D02*
X180495363Y-84324819D01*
X179162030Y-84324819D02*
X179733458Y-84324819D01*
X179447744Y-84324819D02*
X179447744Y-83324819D01*
X179447744Y-83324819D02*
X179542982Y-83467676D01*
X179542982Y-83467676D02*
X179638220Y-83562914D01*
X179638220Y-83562914D02*
X179733458Y-83610533D01*
X133219649Y-119218152D02*
X133219649Y-119884819D01*
X133457744Y-118837200D02*
X133695839Y-119551485D01*
X133695839Y-119551485D02*
X133076792Y-119551485D01*
X132172030Y-119884819D02*
X132743458Y-119884819D01*
X132457744Y-119884819D02*
X132457744Y-118884819D01*
X132457744Y-118884819D02*
X132552982Y-119027676D01*
X132552982Y-119027676D02*
X132648220Y-119122914D01*
X132648220Y-119122914D02*
X132743458Y-119170533D01*
X180495363Y-71053390D02*
X180590601Y-71005771D01*
X180590601Y-71005771D02*
X180638220Y-70958152D01*
X180638220Y-70958152D02*
X180685839Y-70862914D01*
X180685839Y-70862914D02*
X180685839Y-70815295D01*
X180685839Y-70815295D02*
X180638220Y-70720057D01*
X180638220Y-70720057D02*
X180590601Y-70672438D01*
X180590601Y-70672438D02*
X180495363Y-70624819D01*
X180495363Y-70624819D02*
X180304887Y-70624819D01*
X180304887Y-70624819D02*
X180209649Y-70672438D01*
X180209649Y-70672438D02*
X180162030Y-70720057D01*
X180162030Y-70720057D02*
X180114411Y-70815295D01*
X180114411Y-70815295D02*
X180114411Y-70862914D01*
X180114411Y-70862914D02*
X180162030Y-70958152D01*
X180162030Y-70958152D02*
X180209649Y-71005771D01*
X180209649Y-71005771D02*
X180304887Y-71053390D01*
X180304887Y-71053390D02*
X180495363Y-71053390D01*
X180495363Y-71053390D02*
X180590601Y-71101009D01*
X180590601Y-71101009D02*
X180638220Y-71148628D01*
X180638220Y-71148628D02*
X180685839Y-71243866D01*
X180685839Y-71243866D02*
X180685839Y-71434342D01*
X180685839Y-71434342D02*
X180638220Y-71529580D01*
X180638220Y-71529580D02*
X180590601Y-71577200D01*
X180590601Y-71577200D02*
X180495363Y-71624819D01*
X180495363Y-71624819D02*
X180304887Y-71624819D01*
X180304887Y-71624819D02*
X180209649Y-71577200D01*
X180209649Y-71577200D02*
X180162030Y-71529580D01*
X180162030Y-71529580D02*
X180114411Y-71434342D01*
X180114411Y-71434342D02*
X180114411Y-71243866D01*
X180114411Y-71243866D02*
X180162030Y-71148628D01*
X180162030Y-71148628D02*
X180209649Y-71101009D01*
X180209649Y-71101009D02*
X180304887Y-71053390D01*
X179162030Y-71624819D02*
X179733458Y-71624819D01*
X179447744Y-71624819D02*
X179447744Y-70624819D01*
X179447744Y-70624819D02*
X179542982Y-70767676D01*
X179542982Y-70767676D02*
X179638220Y-70862914D01*
X179638220Y-70862914D02*
X179733458Y-70910533D01*
X180209649Y-111598152D02*
X180209649Y-112264819D01*
X180447744Y-111217200D02*
X180685839Y-111931485D01*
X180685839Y-111931485D02*
X180066792Y-111931485D01*
X179638220Y-112264819D02*
X179447744Y-112264819D01*
X179447744Y-112264819D02*
X179352506Y-112217200D01*
X179352506Y-112217200D02*
X179304887Y-112169580D01*
X179304887Y-112169580D02*
X179209649Y-112026723D01*
X179209649Y-112026723D02*
X179162030Y-111836247D01*
X179162030Y-111836247D02*
X179162030Y-111455295D01*
X179162030Y-111455295D02*
X179209649Y-111360057D01*
X179209649Y-111360057D02*
X179257268Y-111312438D01*
X179257268Y-111312438D02*
X179352506Y-111264819D01*
X179352506Y-111264819D02*
X179542982Y-111264819D01*
X179542982Y-111264819D02*
X179638220Y-111312438D01*
X179638220Y-111312438D02*
X179685839Y-111360057D01*
X179685839Y-111360057D02*
X179733458Y-111455295D01*
X179733458Y-111455295D02*
X179733458Y-111693390D01*
X179733458Y-111693390D02*
X179685839Y-111788628D01*
X179685839Y-111788628D02*
X179638220Y-111836247D01*
X179638220Y-111836247D02*
X179542982Y-111883866D01*
X179542982Y-111883866D02*
X179352506Y-111883866D01*
X179352506Y-111883866D02*
X179257268Y-111836247D01*
X179257268Y-111836247D02*
X179209649Y-111788628D01*
X179209649Y-111788628D02*
X179162030Y-111693390D01*
X187344160Y-111264819D02*
X187820350Y-111264819D01*
X187820350Y-111264819D02*
X187867969Y-111741009D01*
X187867969Y-111741009D02*
X187820350Y-111693390D01*
X187820350Y-111693390D02*
X187725112Y-111645771D01*
X187725112Y-111645771D02*
X187487017Y-111645771D01*
X187487017Y-111645771D02*
X187391779Y-111693390D01*
X187391779Y-111693390D02*
X187344160Y-111741009D01*
X187344160Y-111741009D02*
X187296541Y-111836247D01*
X187296541Y-111836247D02*
X187296541Y-112074342D01*
X187296541Y-112074342D02*
X187344160Y-112169580D01*
X187344160Y-112169580D02*
X187391779Y-112217200D01*
X187391779Y-112217200D02*
X187487017Y-112264819D01*
X187487017Y-112264819D02*
X187725112Y-112264819D01*
X187725112Y-112264819D02*
X187820350Y-112217200D01*
X187820350Y-112217200D02*
X187867969Y-112169580D01*
X186677493Y-111264819D02*
X186582255Y-111264819D01*
X186582255Y-111264819D02*
X186487017Y-111312438D01*
X186487017Y-111312438D02*
X186439398Y-111360057D01*
X186439398Y-111360057D02*
X186391779Y-111455295D01*
X186391779Y-111455295D02*
X186344160Y-111645771D01*
X186344160Y-111645771D02*
X186344160Y-111883866D01*
X186344160Y-111883866D02*
X186391779Y-112074342D01*
X186391779Y-112074342D02*
X186439398Y-112169580D01*
X186439398Y-112169580D02*
X186487017Y-112217200D01*
X186487017Y-112217200D02*
X186582255Y-112264819D01*
X186582255Y-112264819D02*
X186677493Y-112264819D01*
X186677493Y-112264819D02*
X186772731Y-112217200D01*
X186772731Y-112217200D02*
X186820350Y-112169580D01*
X186820350Y-112169580D02*
X186867969Y-112074342D01*
X186867969Y-112074342D02*
X186915588Y-111883866D01*
X186915588Y-111883866D02*
X186915588Y-111645771D01*
X186915588Y-111645771D02*
X186867969Y-111455295D01*
X186867969Y-111455295D02*
X186820350Y-111360057D01*
X186820350Y-111360057D02*
X186772731Y-111312438D01*
X186772731Y-111312438D02*
X186677493Y-111264819D01*
X133124411Y-91944819D02*
X133695839Y-91944819D01*
X133410125Y-91944819D02*
X133410125Y-90944819D01*
X133410125Y-90944819D02*
X133505363Y-91087676D01*
X133505363Y-91087676D02*
X133600601Y-91182914D01*
X133600601Y-91182914D02*
X133695839Y-91230533D01*
X132648220Y-91944819D02*
X132457744Y-91944819D01*
X132457744Y-91944819D02*
X132362506Y-91897200D01*
X132362506Y-91897200D02*
X132314887Y-91849580D01*
X132314887Y-91849580D02*
X132219649Y-91706723D01*
X132219649Y-91706723D02*
X132172030Y-91516247D01*
X132172030Y-91516247D02*
X132172030Y-91135295D01*
X132172030Y-91135295D02*
X132219649Y-91040057D01*
X132219649Y-91040057D02*
X132267268Y-90992438D01*
X132267268Y-90992438D02*
X132362506Y-90944819D01*
X132362506Y-90944819D02*
X132552982Y-90944819D01*
X132552982Y-90944819D02*
X132648220Y-90992438D01*
X132648220Y-90992438D02*
X132695839Y-91040057D01*
X132695839Y-91040057D02*
X132743458Y-91135295D01*
X132743458Y-91135295D02*
X132743458Y-91373390D01*
X132743458Y-91373390D02*
X132695839Y-91468628D01*
X132695839Y-91468628D02*
X132648220Y-91516247D01*
X132648220Y-91516247D02*
X132552982Y-91563866D01*
X132552982Y-91563866D02*
X132362506Y-91563866D01*
X132362506Y-91563866D02*
X132267268Y-91516247D01*
X132267268Y-91516247D02*
X132219649Y-91468628D01*
X132219649Y-91468628D02*
X132172030Y-91373390D01*
X133695839Y-93580057D02*
X133648220Y-93532438D01*
X133648220Y-93532438D02*
X133552982Y-93484819D01*
X133552982Y-93484819D02*
X133314887Y-93484819D01*
X133314887Y-93484819D02*
X133219649Y-93532438D01*
X133219649Y-93532438D02*
X133172030Y-93580057D01*
X133172030Y-93580057D02*
X133124411Y-93675295D01*
X133124411Y-93675295D02*
X133124411Y-93770533D01*
X133124411Y-93770533D02*
X133172030Y-93913390D01*
X133172030Y-93913390D02*
X133743458Y-94484819D01*
X133743458Y-94484819D02*
X133124411Y-94484819D01*
X132172030Y-94484819D02*
X132743458Y-94484819D01*
X132457744Y-94484819D02*
X132457744Y-93484819D01*
X132457744Y-93484819D02*
X132552982Y-93627676D01*
X132552982Y-93627676D02*
X132648220Y-93722914D01*
X132648220Y-93722914D02*
X132743458Y-93770533D01*
X133124411Y-69084819D02*
X133695839Y-69084819D01*
X133410125Y-69084819D02*
X133410125Y-68084819D01*
X133410125Y-68084819D02*
X133505363Y-68227676D01*
X133505363Y-68227676D02*
X133600601Y-68322914D01*
X133600601Y-68322914D02*
X133695839Y-68370533D01*
X140306541Y-89404819D02*
X140877969Y-89404819D01*
X140592255Y-89404819D02*
X140592255Y-88404819D01*
X140592255Y-88404819D02*
X140687493Y-88547676D01*
X140687493Y-88547676D02*
X140782731Y-88642914D01*
X140782731Y-88642914D02*
X140877969Y-88690533D01*
X139735112Y-88833390D02*
X139830350Y-88785771D01*
X139830350Y-88785771D02*
X139877969Y-88738152D01*
X139877969Y-88738152D02*
X139925588Y-88642914D01*
X139925588Y-88642914D02*
X139925588Y-88595295D01*
X139925588Y-88595295D02*
X139877969Y-88500057D01*
X139877969Y-88500057D02*
X139830350Y-88452438D01*
X139830350Y-88452438D02*
X139735112Y-88404819D01*
X139735112Y-88404819D02*
X139544636Y-88404819D01*
X139544636Y-88404819D02*
X139449398Y-88452438D01*
X139449398Y-88452438D02*
X139401779Y-88500057D01*
X139401779Y-88500057D02*
X139354160Y-88595295D01*
X139354160Y-88595295D02*
X139354160Y-88642914D01*
X139354160Y-88642914D02*
X139401779Y-88738152D01*
X139401779Y-88738152D02*
X139449398Y-88785771D01*
X139449398Y-88785771D02*
X139544636Y-88833390D01*
X139544636Y-88833390D02*
X139735112Y-88833390D01*
X139735112Y-88833390D02*
X139830350Y-88881009D01*
X139830350Y-88881009D02*
X139877969Y-88928628D01*
X139877969Y-88928628D02*
X139925588Y-89023866D01*
X139925588Y-89023866D02*
X139925588Y-89214342D01*
X139925588Y-89214342D02*
X139877969Y-89309580D01*
X139877969Y-89309580D02*
X139830350Y-89357200D01*
X139830350Y-89357200D02*
X139735112Y-89404819D01*
X139735112Y-89404819D02*
X139544636Y-89404819D01*
X139544636Y-89404819D02*
X139449398Y-89357200D01*
X139449398Y-89357200D02*
X139401779Y-89309580D01*
X139401779Y-89309580D02*
X139354160Y-89214342D01*
X139354160Y-89214342D02*
X139354160Y-89023866D01*
X139354160Y-89023866D02*
X139401779Y-88928628D01*
X139401779Y-88928628D02*
X139449398Y-88881009D01*
X139449398Y-88881009D02*
X139544636Y-88833390D01*
X187391779Y-96024819D02*
X187582255Y-96024819D01*
X187582255Y-96024819D02*
X187677493Y-96072438D01*
X187677493Y-96072438D02*
X187725112Y-96120057D01*
X187725112Y-96120057D02*
X187820350Y-96262914D01*
X187820350Y-96262914D02*
X187867969Y-96453390D01*
X187867969Y-96453390D02*
X187867969Y-96834342D01*
X187867969Y-96834342D02*
X187820350Y-96929580D01*
X187820350Y-96929580D02*
X187772731Y-96977200D01*
X187772731Y-96977200D02*
X187677493Y-97024819D01*
X187677493Y-97024819D02*
X187487017Y-97024819D01*
X187487017Y-97024819D02*
X187391779Y-96977200D01*
X187391779Y-96977200D02*
X187344160Y-96929580D01*
X187344160Y-96929580D02*
X187296541Y-96834342D01*
X187296541Y-96834342D02*
X187296541Y-96596247D01*
X187296541Y-96596247D02*
X187344160Y-96501009D01*
X187344160Y-96501009D02*
X187391779Y-96453390D01*
X187391779Y-96453390D02*
X187487017Y-96405771D01*
X187487017Y-96405771D02*
X187677493Y-96405771D01*
X187677493Y-96405771D02*
X187772731Y-96453390D01*
X187772731Y-96453390D02*
X187820350Y-96501009D01*
X187820350Y-96501009D02*
X187867969Y-96596247D01*
X186915588Y-96120057D02*
X186867969Y-96072438D01*
X186867969Y-96072438D02*
X186772731Y-96024819D01*
X186772731Y-96024819D02*
X186534636Y-96024819D01*
X186534636Y-96024819D02*
X186439398Y-96072438D01*
X186439398Y-96072438D02*
X186391779Y-96120057D01*
X186391779Y-96120057D02*
X186344160Y-96215295D01*
X186344160Y-96215295D02*
X186344160Y-96310533D01*
X186344160Y-96310533D02*
X186391779Y-96453390D01*
X186391779Y-96453390D02*
X186963207Y-97024819D01*
X186963207Y-97024819D02*
X186344160Y-97024819D01*
X180495363Y-68513390D02*
X180590601Y-68465771D01*
X180590601Y-68465771D02*
X180638220Y-68418152D01*
X180638220Y-68418152D02*
X180685839Y-68322914D01*
X180685839Y-68322914D02*
X180685839Y-68275295D01*
X180685839Y-68275295D02*
X180638220Y-68180057D01*
X180638220Y-68180057D02*
X180590601Y-68132438D01*
X180590601Y-68132438D02*
X180495363Y-68084819D01*
X180495363Y-68084819D02*
X180304887Y-68084819D01*
X180304887Y-68084819D02*
X180209649Y-68132438D01*
X180209649Y-68132438D02*
X180162030Y-68180057D01*
X180162030Y-68180057D02*
X180114411Y-68275295D01*
X180114411Y-68275295D02*
X180114411Y-68322914D01*
X180114411Y-68322914D02*
X180162030Y-68418152D01*
X180162030Y-68418152D02*
X180209649Y-68465771D01*
X180209649Y-68465771D02*
X180304887Y-68513390D01*
X180304887Y-68513390D02*
X180495363Y-68513390D01*
X180495363Y-68513390D02*
X180590601Y-68561009D01*
X180590601Y-68561009D02*
X180638220Y-68608628D01*
X180638220Y-68608628D02*
X180685839Y-68703866D01*
X180685839Y-68703866D02*
X180685839Y-68894342D01*
X180685839Y-68894342D02*
X180638220Y-68989580D01*
X180638220Y-68989580D02*
X180590601Y-69037200D01*
X180590601Y-69037200D02*
X180495363Y-69084819D01*
X180495363Y-69084819D02*
X180304887Y-69084819D01*
X180304887Y-69084819D02*
X180209649Y-69037200D01*
X180209649Y-69037200D02*
X180162030Y-68989580D01*
X180162030Y-68989580D02*
X180114411Y-68894342D01*
X180114411Y-68894342D02*
X180114411Y-68703866D01*
X180114411Y-68703866D02*
X180162030Y-68608628D01*
X180162030Y-68608628D02*
X180209649Y-68561009D01*
X180209649Y-68561009D02*
X180304887Y-68513390D01*
X179781077Y-68084819D02*
X179162030Y-68084819D01*
X179162030Y-68084819D02*
X179495363Y-68465771D01*
X179495363Y-68465771D02*
X179352506Y-68465771D01*
X179352506Y-68465771D02*
X179257268Y-68513390D01*
X179257268Y-68513390D02*
X179209649Y-68561009D01*
X179209649Y-68561009D02*
X179162030Y-68656247D01*
X179162030Y-68656247D02*
X179162030Y-68894342D01*
X179162030Y-68894342D02*
X179209649Y-68989580D01*
X179209649Y-68989580D02*
X179257268Y-69037200D01*
X179257268Y-69037200D02*
X179352506Y-69084819D01*
X179352506Y-69084819D02*
X179638220Y-69084819D01*
X179638220Y-69084819D02*
X179733458Y-69037200D01*
X179733458Y-69037200D02*
X179781077Y-68989580D01*
X133124411Y-84324819D02*
X133695839Y-84324819D01*
X133410125Y-84324819D02*
X133410125Y-83324819D01*
X133410125Y-83324819D02*
X133505363Y-83467676D01*
X133505363Y-83467676D02*
X133600601Y-83562914D01*
X133600601Y-83562914D02*
X133695839Y-83610533D01*
X132791077Y-83324819D02*
X132172030Y-83324819D01*
X132172030Y-83324819D02*
X132505363Y-83705771D01*
X132505363Y-83705771D02*
X132362506Y-83705771D01*
X132362506Y-83705771D02*
X132267268Y-83753390D01*
X132267268Y-83753390D02*
X132219649Y-83801009D01*
X132219649Y-83801009D02*
X132172030Y-83896247D01*
X132172030Y-83896247D02*
X132172030Y-84134342D01*
X132172030Y-84134342D02*
X132219649Y-84229580D01*
X132219649Y-84229580D02*
X132267268Y-84277200D01*
X132267268Y-84277200D02*
X132362506Y-84324819D01*
X132362506Y-84324819D02*
X132648220Y-84324819D01*
X132648220Y-84324819D02*
X132743458Y-84277200D01*
X132743458Y-84277200D02*
X132791077Y-84229580D01*
X187391779Y-98564819D02*
X187582255Y-98564819D01*
X187582255Y-98564819D02*
X187677493Y-98612438D01*
X187677493Y-98612438D02*
X187725112Y-98660057D01*
X187725112Y-98660057D02*
X187820350Y-98802914D01*
X187820350Y-98802914D02*
X187867969Y-98993390D01*
X187867969Y-98993390D02*
X187867969Y-99374342D01*
X187867969Y-99374342D02*
X187820350Y-99469580D01*
X187820350Y-99469580D02*
X187772731Y-99517200D01*
X187772731Y-99517200D02*
X187677493Y-99564819D01*
X187677493Y-99564819D02*
X187487017Y-99564819D01*
X187487017Y-99564819D02*
X187391779Y-99517200D01*
X187391779Y-99517200D02*
X187344160Y-99469580D01*
X187344160Y-99469580D02*
X187296541Y-99374342D01*
X187296541Y-99374342D02*
X187296541Y-99136247D01*
X187296541Y-99136247D02*
X187344160Y-99041009D01*
X187344160Y-99041009D02*
X187391779Y-98993390D01*
X187391779Y-98993390D02*
X187487017Y-98945771D01*
X187487017Y-98945771D02*
X187677493Y-98945771D01*
X187677493Y-98945771D02*
X187772731Y-98993390D01*
X187772731Y-98993390D02*
X187820350Y-99041009D01*
X187820350Y-99041009D02*
X187867969Y-99136247D01*
X186677493Y-98564819D02*
X186582255Y-98564819D01*
X186582255Y-98564819D02*
X186487017Y-98612438D01*
X186487017Y-98612438D02*
X186439398Y-98660057D01*
X186439398Y-98660057D02*
X186391779Y-98755295D01*
X186391779Y-98755295D02*
X186344160Y-98945771D01*
X186344160Y-98945771D02*
X186344160Y-99183866D01*
X186344160Y-99183866D02*
X186391779Y-99374342D01*
X186391779Y-99374342D02*
X186439398Y-99469580D01*
X186439398Y-99469580D02*
X186487017Y-99517200D01*
X186487017Y-99517200D02*
X186582255Y-99564819D01*
X186582255Y-99564819D02*
X186677493Y-99564819D01*
X186677493Y-99564819D02*
X186772731Y-99517200D01*
X186772731Y-99517200D02*
X186820350Y-99469580D01*
X186820350Y-99469580D02*
X186867969Y-99374342D01*
X186867969Y-99374342D02*
X186915588Y-99183866D01*
X186915588Y-99183866D02*
X186915588Y-98945771D01*
X186915588Y-98945771D02*
X186867969Y-98755295D01*
X186867969Y-98755295D02*
X186820350Y-98660057D01*
X186820350Y-98660057D02*
X186772731Y-98612438D01*
X186772731Y-98612438D02*
X186677493Y-98564819D01*
X133743458Y-116344819D02*
X133124411Y-116344819D01*
X133124411Y-116344819D02*
X133457744Y-116725771D01*
X133457744Y-116725771D02*
X133314887Y-116725771D01*
X133314887Y-116725771D02*
X133219649Y-116773390D01*
X133219649Y-116773390D02*
X133172030Y-116821009D01*
X133172030Y-116821009D02*
X133124411Y-116916247D01*
X133124411Y-116916247D02*
X133124411Y-117154342D01*
X133124411Y-117154342D02*
X133172030Y-117249580D01*
X133172030Y-117249580D02*
X133219649Y-117297200D01*
X133219649Y-117297200D02*
X133314887Y-117344819D01*
X133314887Y-117344819D02*
X133600601Y-117344819D01*
X133600601Y-117344819D02*
X133695839Y-117297200D01*
X133695839Y-117297200D02*
X133743458Y-117249580D01*
X132648220Y-117344819D02*
X132457744Y-117344819D01*
X132457744Y-117344819D02*
X132362506Y-117297200D01*
X132362506Y-117297200D02*
X132314887Y-117249580D01*
X132314887Y-117249580D02*
X132219649Y-117106723D01*
X132219649Y-117106723D02*
X132172030Y-116916247D01*
X132172030Y-116916247D02*
X132172030Y-116535295D01*
X132172030Y-116535295D02*
X132219649Y-116440057D01*
X132219649Y-116440057D02*
X132267268Y-116392438D01*
X132267268Y-116392438D02*
X132362506Y-116344819D01*
X132362506Y-116344819D02*
X132552982Y-116344819D01*
X132552982Y-116344819D02*
X132648220Y-116392438D01*
X132648220Y-116392438D02*
X132695839Y-116440057D01*
X132695839Y-116440057D02*
X132743458Y-116535295D01*
X132743458Y-116535295D02*
X132743458Y-116773390D01*
X132743458Y-116773390D02*
X132695839Y-116868628D01*
X132695839Y-116868628D02*
X132648220Y-116916247D01*
X132648220Y-116916247D02*
X132552982Y-116963866D01*
X132552982Y-116963866D02*
X132362506Y-116963866D01*
X132362506Y-116963866D02*
X132267268Y-116916247D01*
X132267268Y-116916247D02*
X132219649Y-116868628D01*
X132219649Y-116868628D02*
X132172030Y-116773390D01*
X140401779Y-116678152D02*
X140401779Y-117344819D01*
X140639874Y-116297200D02*
X140877969Y-117011485D01*
X140877969Y-117011485D02*
X140258922Y-117011485D01*
X139687493Y-116344819D02*
X139592255Y-116344819D01*
X139592255Y-116344819D02*
X139497017Y-116392438D01*
X139497017Y-116392438D02*
X139449398Y-116440057D01*
X139449398Y-116440057D02*
X139401779Y-116535295D01*
X139401779Y-116535295D02*
X139354160Y-116725771D01*
X139354160Y-116725771D02*
X139354160Y-116963866D01*
X139354160Y-116963866D02*
X139401779Y-117154342D01*
X139401779Y-117154342D02*
X139449398Y-117249580D01*
X139449398Y-117249580D02*
X139497017Y-117297200D01*
X139497017Y-117297200D02*
X139592255Y-117344819D01*
X139592255Y-117344819D02*
X139687493Y-117344819D01*
X139687493Y-117344819D02*
X139782731Y-117297200D01*
X139782731Y-117297200D02*
X139830350Y-117249580D01*
X139830350Y-117249580D02*
X139877969Y-117154342D01*
X139877969Y-117154342D02*
X139925588Y-116963866D01*
X139925588Y-116963866D02*
X139925588Y-116725771D01*
X139925588Y-116725771D02*
X139877969Y-116535295D01*
X139877969Y-116535295D02*
X139830350Y-116440057D01*
X139830350Y-116440057D02*
X139782731Y-116392438D01*
X139782731Y-116392438D02*
X139687493Y-116344819D01*
X180162030Y-98564819D02*
X180638220Y-98564819D01*
X180638220Y-98564819D02*
X180685839Y-99041009D01*
X180685839Y-99041009D02*
X180638220Y-98993390D01*
X180638220Y-98993390D02*
X180542982Y-98945771D01*
X180542982Y-98945771D02*
X180304887Y-98945771D01*
X180304887Y-98945771D02*
X180209649Y-98993390D01*
X180209649Y-98993390D02*
X180162030Y-99041009D01*
X180162030Y-99041009D02*
X180114411Y-99136247D01*
X180114411Y-99136247D02*
X180114411Y-99374342D01*
X180114411Y-99374342D02*
X180162030Y-99469580D01*
X180162030Y-99469580D02*
X180209649Y-99517200D01*
X180209649Y-99517200D02*
X180304887Y-99564819D01*
X180304887Y-99564819D02*
X180542982Y-99564819D01*
X180542982Y-99564819D02*
X180638220Y-99517200D01*
X180638220Y-99517200D02*
X180685839Y-99469580D01*
X179638220Y-99564819D02*
X179447744Y-99564819D01*
X179447744Y-99564819D02*
X179352506Y-99517200D01*
X179352506Y-99517200D02*
X179304887Y-99469580D01*
X179304887Y-99469580D02*
X179209649Y-99326723D01*
X179209649Y-99326723D02*
X179162030Y-99136247D01*
X179162030Y-99136247D02*
X179162030Y-98755295D01*
X179162030Y-98755295D02*
X179209649Y-98660057D01*
X179209649Y-98660057D02*
X179257268Y-98612438D01*
X179257268Y-98612438D02*
X179352506Y-98564819D01*
X179352506Y-98564819D02*
X179542982Y-98564819D01*
X179542982Y-98564819D02*
X179638220Y-98612438D01*
X179638220Y-98612438D02*
X179685839Y-98660057D01*
X179685839Y-98660057D02*
X179733458Y-98755295D01*
X179733458Y-98755295D02*
X179733458Y-98993390D01*
X179733458Y-98993390D02*
X179685839Y-99088628D01*
X179685839Y-99088628D02*
X179638220Y-99136247D01*
X179638220Y-99136247D02*
X179542982Y-99183866D01*
X179542982Y-99183866D02*
X179352506Y-99183866D01*
X179352506Y-99183866D02*
X179257268Y-99136247D01*
X179257268Y-99136247D02*
X179209649Y-99088628D01*
X179209649Y-99088628D02*
X179162030Y-98993390D01*
X133695839Y-96120057D02*
X133648220Y-96072438D01*
X133648220Y-96072438D02*
X133552982Y-96024819D01*
X133552982Y-96024819D02*
X133314887Y-96024819D01*
X133314887Y-96024819D02*
X133219649Y-96072438D01*
X133219649Y-96072438D02*
X133172030Y-96120057D01*
X133172030Y-96120057D02*
X133124411Y-96215295D01*
X133124411Y-96215295D02*
X133124411Y-96310533D01*
X133124411Y-96310533D02*
X133172030Y-96453390D01*
X133172030Y-96453390D02*
X133743458Y-97024819D01*
X133743458Y-97024819D02*
X133124411Y-97024819D01*
X132791077Y-96024819D02*
X132172030Y-96024819D01*
X132172030Y-96024819D02*
X132505363Y-96405771D01*
X132505363Y-96405771D02*
X132362506Y-96405771D01*
X132362506Y-96405771D02*
X132267268Y-96453390D01*
X132267268Y-96453390D02*
X132219649Y-96501009D01*
X132219649Y-96501009D02*
X132172030Y-96596247D01*
X132172030Y-96596247D02*
X132172030Y-96834342D01*
X132172030Y-96834342D02*
X132219649Y-96929580D01*
X132219649Y-96929580D02*
X132267268Y-96977200D01*
X132267268Y-96977200D02*
X132362506Y-97024819D01*
X132362506Y-97024819D02*
X132648220Y-97024819D01*
X132648220Y-97024819D02*
X132743458Y-96977200D01*
X132743458Y-96977200D02*
X132791077Y-96929580D01*
X140925588Y-113804819D02*
X140306541Y-113804819D01*
X140306541Y-113804819D02*
X140639874Y-114185771D01*
X140639874Y-114185771D02*
X140497017Y-114185771D01*
X140497017Y-114185771D02*
X140401779Y-114233390D01*
X140401779Y-114233390D02*
X140354160Y-114281009D01*
X140354160Y-114281009D02*
X140306541Y-114376247D01*
X140306541Y-114376247D02*
X140306541Y-114614342D01*
X140306541Y-114614342D02*
X140354160Y-114709580D01*
X140354160Y-114709580D02*
X140401779Y-114757200D01*
X140401779Y-114757200D02*
X140497017Y-114804819D01*
X140497017Y-114804819D02*
X140782731Y-114804819D01*
X140782731Y-114804819D02*
X140877969Y-114757200D01*
X140877969Y-114757200D02*
X140925588Y-114709580D01*
X139735112Y-114233390D02*
X139830350Y-114185771D01*
X139830350Y-114185771D02*
X139877969Y-114138152D01*
X139877969Y-114138152D02*
X139925588Y-114042914D01*
X139925588Y-114042914D02*
X139925588Y-113995295D01*
X139925588Y-113995295D02*
X139877969Y-113900057D01*
X139877969Y-113900057D02*
X139830350Y-113852438D01*
X139830350Y-113852438D02*
X139735112Y-113804819D01*
X139735112Y-113804819D02*
X139544636Y-113804819D01*
X139544636Y-113804819D02*
X139449398Y-113852438D01*
X139449398Y-113852438D02*
X139401779Y-113900057D01*
X139401779Y-113900057D02*
X139354160Y-113995295D01*
X139354160Y-113995295D02*
X139354160Y-114042914D01*
X139354160Y-114042914D02*
X139401779Y-114138152D01*
X139401779Y-114138152D02*
X139449398Y-114185771D01*
X139449398Y-114185771D02*
X139544636Y-114233390D01*
X139544636Y-114233390D02*
X139735112Y-114233390D01*
X139735112Y-114233390D02*
X139830350Y-114281009D01*
X139830350Y-114281009D02*
X139877969Y-114328628D01*
X139877969Y-114328628D02*
X139925588Y-114423866D01*
X139925588Y-114423866D02*
X139925588Y-114614342D01*
X139925588Y-114614342D02*
X139877969Y-114709580D01*
X139877969Y-114709580D02*
X139830350Y-114757200D01*
X139830350Y-114757200D02*
X139735112Y-114804819D01*
X139735112Y-114804819D02*
X139544636Y-114804819D01*
X139544636Y-114804819D02*
X139449398Y-114757200D01*
X139449398Y-114757200D02*
X139401779Y-114709580D01*
X139401779Y-114709580D02*
X139354160Y-114614342D01*
X139354160Y-114614342D02*
X139354160Y-114423866D01*
X139354160Y-114423866D02*
X139401779Y-114328628D01*
X139401779Y-114328628D02*
X139449398Y-114281009D01*
X139449398Y-114281009D02*
X139544636Y-114233390D01*
X133743458Y-111264819D02*
X133124411Y-111264819D01*
X133124411Y-111264819D02*
X133457744Y-111645771D01*
X133457744Y-111645771D02*
X133314887Y-111645771D01*
X133314887Y-111645771D02*
X133219649Y-111693390D01*
X133219649Y-111693390D02*
X133172030Y-111741009D01*
X133172030Y-111741009D02*
X133124411Y-111836247D01*
X133124411Y-111836247D02*
X133124411Y-112074342D01*
X133124411Y-112074342D02*
X133172030Y-112169580D01*
X133172030Y-112169580D02*
X133219649Y-112217200D01*
X133219649Y-112217200D02*
X133314887Y-112264819D01*
X133314887Y-112264819D02*
X133600601Y-112264819D01*
X133600601Y-112264819D02*
X133695839Y-112217200D01*
X133695839Y-112217200D02*
X133743458Y-112169580D01*
X132219649Y-111264819D02*
X132695839Y-111264819D01*
X132695839Y-111264819D02*
X132743458Y-111741009D01*
X132743458Y-111741009D02*
X132695839Y-111693390D01*
X132695839Y-111693390D02*
X132600601Y-111645771D01*
X132600601Y-111645771D02*
X132362506Y-111645771D01*
X132362506Y-111645771D02*
X132267268Y-111693390D01*
X132267268Y-111693390D02*
X132219649Y-111741009D01*
X132219649Y-111741009D02*
X132172030Y-111836247D01*
X132172030Y-111836247D02*
X132172030Y-112074342D01*
X132172030Y-112074342D02*
X132219649Y-112169580D01*
X132219649Y-112169580D02*
X132267268Y-112217200D01*
X132267268Y-112217200D02*
X132362506Y-112264819D01*
X132362506Y-112264819D02*
X132600601Y-112264819D01*
X132600601Y-112264819D02*
X132695839Y-112217200D01*
X132695839Y-112217200D02*
X132743458Y-112169580D01*
X187391779Y-88404819D02*
X187582255Y-88404819D01*
X187582255Y-88404819D02*
X187677493Y-88452438D01*
X187677493Y-88452438D02*
X187725112Y-88500057D01*
X187725112Y-88500057D02*
X187820350Y-88642914D01*
X187820350Y-88642914D02*
X187867969Y-88833390D01*
X187867969Y-88833390D02*
X187867969Y-89214342D01*
X187867969Y-89214342D02*
X187820350Y-89309580D01*
X187820350Y-89309580D02*
X187772731Y-89357200D01*
X187772731Y-89357200D02*
X187677493Y-89404819D01*
X187677493Y-89404819D02*
X187487017Y-89404819D01*
X187487017Y-89404819D02*
X187391779Y-89357200D01*
X187391779Y-89357200D02*
X187344160Y-89309580D01*
X187344160Y-89309580D02*
X187296541Y-89214342D01*
X187296541Y-89214342D02*
X187296541Y-88976247D01*
X187296541Y-88976247D02*
X187344160Y-88881009D01*
X187344160Y-88881009D02*
X187391779Y-88833390D01*
X187391779Y-88833390D02*
X187487017Y-88785771D01*
X187487017Y-88785771D02*
X187677493Y-88785771D01*
X187677493Y-88785771D02*
X187772731Y-88833390D01*
X187772731Y-88833390D02*
X187820350Y-88881009D01*
X187820350Y-88881009D02*
X187867969Y-88976247D01*
X186725112Y-88833390D02*
X186820350Y-88785771D01*
X186820350Y-88785771D02*
X186867969Y-88738152D01*
X186867969Y-88738152D02*
X186915588Y-88642914D01*
X186915588Y-88642914D02*
X186915588Y-88595295D01*
X186915588Y-88595295D02*
X186867969Y-88500057D01*
X186867969Y-88500057D02*
X186820350Y-88452438D01*
X186820350Y-88452438D02*
X186725112Y-88404819D01*
X186725112Y-88404819D02*
X186534636Y-88404819D01*
X186534636Y-88404819D02*
X186439398Y-88452438D01*
X186439398Y-88452438D02*
X186391779Y-88500057D01*
X186391779Y-88500057D02*
X186344160Y-88595295D01*
X186344160Y-88595295D02*
X186344160Y-88642914D01*
X186344160Y-88642914D02*
X186391779Y-88738152D01*
X186391779Y-88738152D02*
X186439398Y-88785771D01*
X186439398Y-88785771D02*
X186534636Y-88833390D01*
X186534636Y-88833390D02*
X186725112Y-88833390D01*
X186725112Y-88833390D02*
X186820350Y-88881009D01*
X186820350Y-88881009D02*
X186867969Y-88928628D01*
X186867969Y-88928628D02*
X186915588Y-89023866D01*
X186915588Y-89023866D02*
X186915588Y-89214342D01*
X186915588Y-89214342D02*
X186867969Y-89309580D01*
X186867969Y-89309580D02*
X186820350Y-89357200D01*
X186820350Y-89357200D02*
X186725112Y-89404819D01*
X186725112Y-89404819D02*
X186534636Y-89404819D01*
X186534636Y-89404819D02*
X186439398Y-89357200D01*
X186439398Y-89357200D02*
X186391779Y-89309580D01*
X186391779Y-89309580D02*
X186344160Y-89214342D01*
X186344160Y-89214342D02*
X186344160Y-89023866D01*
X186344160Y-89023866D02*
X186391779Y-88928628D01*
X186391779Y-88928628D02*
X186439398Y-88881009D01*
X186439398Y-88881009D02*
X186534636Y-88833390D01*
X180733458Y-78244819D02*
X180066792Y-78244819D01*
X180066792Y-78244819D02*
X180495363Y-79244819D01*
X179209649Y-78244819D02*
X179685839Y-78244819D01*
X179685839Y-78244819D02*
X179733458Y-78721009D01*
X179733458Y-78721009D02*
X179685839Y-78673390D01*
X179685839Y-78673390D02*
X179590601Y-78625771D01*
X179590601Y-78625771D02*
X179352506Y-78625771D01*
X179352506Y-78625771D02*
X179257268Y-78673390D01*
X179257268Y-78673390D02*
X179209649Y-78721009D01*
X179209649Y-78721009D02*
X179162030Y-78816247D01*
X179162030Y-78816247D02*
X179162030Y-79054342D01*
X179162030Y-79054342D02*
X179209649Y-79149580D01*
X179209649Y-79149580D02*
X179257268Y-79197200D01*
X179257268Y-79197200D02*
X179352506Y-79244819D01*
X179352506Y-79244819D02*
X179590601Y-79244819D01*
X179590601Y-79244819D02*
X179685839Y-79197200D01*
X179685839Y-79197200D02*
X179733458Y-79149580D01*
X139449398Y-70958152D02*
X139449398Y-71624819D01*
X139687493Y-70577200D02*
X139925588Y-71291485D01*
X139925588Y-71291485D02*
X139306541Y-71291485D01*
D11*
%TO.C,J1*%
X133925000Y-67250000D02*
X136525000Y-67250000D01*
X133925000Y-120710000D02*
X133925000Y-67250000D01*
X133925000Y-120710000D02*
X139125000Y-120710000D01*
X136525000Y-67250000D02*
X136525000Y-69850000D01*
X136525000Y-69850000D02*
X139125000Y-69850000D01*
X137795000Y-67250000D02*
X139125000Y-67250000D01*
X139125000Y-67250000D02*
X139125000Y-68580000D01*
X139125000Y-120710000D02*
X139125000Y-69850000D01*
%TO.C,J2*%
X180915000Y-67250000D02*
X183515000Y-67250000D01*
X180915000Y-120710000D02*
X180915000Y-67250000D01*
X180915000Y-120710000D02*
X186115000Y-120710000D01*
X183515000Y-67250000D02*
X183515000Y-69850000D01*
X183515000Y-69850000D02*
X186115000Y-69850000D01*
X184785000Y-67250000D02*
X186115000Y-67250000D01*
X186115000Y-67250000D02*
X186115000Y-68580000D01*
X186115000Y-120710000D02*
X186115000Y-69850000D01*
%TD*%
M02*
