M48
; DRILL file {KiCad 8.0.7} date 2025-02-20T00:55:44-0600
; FORMAT={-:-/ absolute / inch / decimal}
; #@! TF.CreationDate,2025-02-20T00:55:44-06:00
; #@! TF.GenerationSoftware,Kicad,Pcbnew,8.0.7
; #@! TF.FileFunction,MixedPlating,1,2
FMAT,2
INCH
; #@! TA.AperFunction,Plated,PTH,ComponentDrill
T1C0.0315
; #@! TA.AperFunction,Plated,PTH,ComponentDrill
T2C0.0394
%
G90
G05
T1
X5.7Y-3.2
X5.7Y-3.3
X5.7Y-3.4
X5.7Y-3.5
X5.7Y-3.6
X5.7Y-3.7
X5.7Y-3.8
X5.7Y-3.9
X5.7Y-4.0
X5.7Y-4.1
X5.7Y-4.2
X5.8Y-3.1
X5.8Y-3.2
X5.8Y-3.3
X5.8Y-3.4
X5.8Y-3.5
X5.8Y-3.6
X5.8Y-3.7
X5.8Y-3.8
X5.8Y-3.9
X5.8Y-4.0
X5.8Y-4.1
X5.8Y-4.2
X5.8Y-4.3
X5.9Y-3.1
X5.9Y-3.2
X5.9Y-4.2
X5.9Y-4.3
X6.0Y-3.1
X6.0Y-3.2
X6.0Y-4.2
X6.0Y-4.3
X6.1Y-3.1
X6.1Y-3.2
X6.1Y-4.2
X6.1Y-4.3
X6.2Y-3.1
X6.2Y-3.2
X6.2Y-4.2
X6.2Y-4.3
X6.3Y-3.1
X6.3Y-3.2
X6.3Y-4.2
X6.3Y-4.3
X6.4Y-3.1
X6.4Y-3.2
X6.4Y-4.2
X6.4Y-4.3
X6.5Y-3.1
X6.5Y-3.2
X6.5Y-4.2
X6.5Y-4.3
X6.6Y-3.1
X6.6Y-3.2
X6.6Y-4.2
X6.6Y-4.3
X6.7Y-3.1
X6.7Y-3.2
X6.7Y-4.2
X6.7Y-4.3
X6.8Y-3.1
X6.8Y-3.2
X6.8Y-3.3
X6.8Y-3.4
X6.8Y-3.5
X6.8Y-3.6
X6.8Y-3.7
X6.8Y-3.8
X6.8Y-3.9
X6.8Y-4.0
X6.8Y-4.1
X6.8Y-4.2
X6.8Y-4.3
X6.9Y-3.2
X6.9Y-3.3
X6.9Y-3.4
X6.9Y-3.5
X6.9Y-3.6
X6.9Y-3.7
X6.9Y-3.8
X6.9Y-3.9
X6.9Y-4.0
X6.9Y-4.1
X6.9Y-4.2
T2
X5.325Y-2.7
X5.325Y-2.8
X5.325Y-2.9
X5.325Y-3.0
X5.325Y-3.1
X5.325Y-3.2
X5.325Y-3.3
X5.325Y-3.4
X5.325Y-3.5
X5.325Y-3.6
X5.325Y-3.7
X5.325Y-3.8
X5.325Y-3.9
X5.325Y-4.0
X5.325Y-4.1
X5.325Y-4.2
X5.325Y-4.3
X5.325Y-4.4
X5.325Y-4.5
X5.325Y-4.6
X5.325Y-4.7
X5.425Y-2.7
X5.425Y-2.8
X5.425Y-2.9
X5.425Y-3.0
X5.425Y-3.1
X5.425Y-3.2
X5.425Y-3.3
X5.425Y-3.4
X5.425Y-3.5
X5.425Y-3.6
X5.425Y-3.7
X5.425Y-3.8
X5.425Y-3.9
X5.425Y-4.0
X5.425Y-4.1
X5.425Y-4.2
X5.425Y-4.3
X5.425Y-4.4
X5.425Y-4.5
X5.425Y-4.6
X5.425Y-4.7
X7.175Y-2.7
X7.175Y-2.8
X7.175Y-2.9
X7.175Y-3.0
X7.175Y-3.1
X7.175Y-3.2
X7.175Y-3.3
X7.175Y-3.4
X7.175Y-3.5
X7.175Y-3.6
X7.175Y-3.7
X7.175Y-3.8
X7.175Y-3.9
X7.175Y-4.0
X7.175Y-4.1
X7.175Y-4.2
X7.175Y-4.3
X7.175Y-4.4
X7.175Y-4.5
X7.175Y-4.6
X7.175Y-4.7
X7.275Y-2.7
X7.275Y-2.8
X7.275Y-2.9
X7.275Y-3.0
X7.275Y-3.1
X7.275Y-3.2
X7.275Y-3.3
X7.275Y-3.4
X7.275Y-3.5
X7.275Y-3.6
X7.275Y-3.7
X7.275Y-3.8
X7.275Y-3.9
X7.275Y-4.0
X7.275Y-4.1
X7.275Y-4.2
X7.275Y-4.3
X7.275Y-4.4
X7.275Y-4.5
X7.275Y-4.6
X7.275Y-4.7
M30
