%TF.GenerationSoftware,KiCad,Pcbnew,8.0.7*%
%TF.CreationDate,2025-02-19T22:23:28-06:00*%
%TF.ProjectId,Atmel-ATF15XX-Programming-Adapter,41746d65-6c2d-4415-9446-313558582d50,v1.0*%
%TF.SameCoordinates,Original*%
%TF.FileFunction,Soldermask,Bot*%
%TF.FilePolarity,Negative*%
%FSLAX46Y46*%
G04 Gerber Fmt 4.6, Leading zero omitted, Abs format (unit mm)*
G04 Created by KiCad (PCBNEW 8.0.7) date 2025-02-19 22:23:28*
%MOMM*%
%LPD*%
G01*
G04 APERTURE LIST*
G04 Aperture macros list*
%AMRoundRect*
0 Rectangle with rounded corners*
0 $1 Rounding radius*
0 $2 $3 $4 $5 $6 $7 $8 $9 X,Y pos of 4 corners*
0 Add a 4 corners polygon primitive as box body*
4,1,4,$2,$3,$4,$5,$6,$7,$8,$9,$2,$3,0*
0 Add four circle primitives for the rounded corners*
1,1,$1+$1,$2,$3*
1,1,$1+$1,$4,$5*
1,1,$1+$1,$6,$7*
1,1,$1+$1,$8,$9*
0 Add four rect primitives between the rounded corners*
20,1,$1+$1,$2,$3,$4,$5,0*
20,1,$1+$1,$4,$5,$6,$7,0*
20,1,$1+$1,$6,$7,$8,$9,0*
20,1,$1+$1,$8,$9,$2,$3,0*%
G04 Aperture macros list end*
%ADD10C,1.600000*%
%ADD11O,1.600000X1.600000*%
%ADD12R,1.700000X1.700000*%
%ADD13C,1.700000*%
%ADD14R,1.800000X1.800000*%
%ADD15C,1.800000*%
%ADD16RoundRect,0.250000X0.600000X-0.600000X0.600000X0.600000X-0.600000X0.600000X-0.600000X-0.600000X0*%
%ADD17O,1.700000X1.700000*%
%ADD18R,1.308000X1.308000*%
%ADD19C,1.308000*%
%ADD20R,3.500000X3.500000*%
%ADD21RoundRect,0.750000X-0.750000X-1.000000X0.750000X-1.000000X0.750000X1.000000X-0.750000X1.000000X0*%
%ADD22RoundRect,0.875000X-0.875000X-0.875000X0.875000X-0.875000X0.875000X0.875000X-0.875000X0.875000X0*%
%ADD23R,1.524000X1.524000*%
%ADD24C,1.524000*%
G04 APERTURE END LIST*
D10*
%TO.C,R1*%
X128905000Y-100965000D03*
D11*
X128905000Y-108585000D03*
%TD*%
D12*
%TO.C,U2*%
X115570000Y-57785000D03*
D13*
X118110000Y-57785000D03*
X115570000Y-60325000D03*
X118110000Y-60325000D03*
X115570000Y-62865000D03*
X118110000Y-62865000D03*
X115570000Y-65405000D03*
X118110000Y-65405000D03*
X115570000Y-67945000D03*
X118110000Y-67945000D03*
X115570000Y-70485000D03*
X118110000Y-70485000D03*
X115570000Y-73025000D03*
X118110000Y-73025000D03*
X115570000Y-75565000D03*
X118110000Y-75565000D03*
X115570000Y-78105000D03*
X118110000Y-78105000D03*
X115570000Y-80645000D03*
X118110000Y-80645000D03*
X115570000Y-83185000D03*
X118110000Y-83185000D03*
X115570000Y-85725000D03*
X118110000Y-85725000D03*
X115570000Y-88265000D03*
X118110000Y-88265000D03*
X115570000Y-90805000D03*
X118110000Y-90805000D03*
X115570000Y-93345000D03*
X118110000Y-93345000D03*
X115570000Y-95885000D03*
X118110000Y-95885000D03*
X115570000Y-98425000D03*
X118110000Y-98425000D03*
X115570000Y-100965000D03*
X118110000Y-100965000D03*
X115570000Y-103505000D03*
X118110000Y-103505000D03*
X115570000Y-106045000D03*
X118110000Y-106045000D03*
X115570000Y-108585000D03*
X118110000Y-108585000D03*
X162560000Y-108585000D03*
X165100000Y-108585000D03*
X162560000Y-106045000D03*
X165100000Y-106045000D03*
X162560000Y-103505000D03*
X165100000Y-103505000D03*
X162560000Y-100965000D03*
X165100000Y-100965000D03*
X162560000Y-98425000D03*
X165100000Y-98425000D03*
X162560000Y-95885000D03*
X165100000Y-95885000D03*
X162560000Y-93345000D03*
X165100000Y-93345000D03*
X162560000Y-90805000D03*
X165100000Y-90805000D03*
X162560000Y-88265000D03*
X165100000Y-88265000D03*
X162560000Y-85725000D03*
X165100000Y-85725000D03*
X162560000Y-83185000D03*
X165100000Y-83185000D03*
X162560000Y-80645000D03*
X165100000Y-80645000D03*
X162560000Y-78105000D03*
X165100000Y-78105000D03*
X162560000Y-75565000D03*
X165100000Y-75565000D03*
X162560000Y-73025000D03*
X165100000Y-73025000D03*
X162560000Y-70485000D03*
X165100000Y-70485000D03*
X162560000Y-67945000D03*
X165100000Y-67945000D03*
X162560000Y-65405000D03*
X165100000Y-65405000D03*
X162560000Y-62865000D03*
X165100000Y-62865000D03*
X162560000Y-60325000D03*
X165100000Y-60325000D03*
X162560000Y-57785000D03*
X165100000Y-57785000D03*
%TD*%
D14*
%TO.C,D1*%
X126365000Y-118745000D03*
D15*
X128905000Y-118745000D03*
%TD*%
D16*
%TO.C,J4*%
X139700000Y-120015000D03*
D13*
X139700000Y-117475000D03*
X142240000Y-120015000D03*
X142240000Y-117475000D03*
X144780000Y-120015000D03*
X144780000Y-117475000D03*
X147320000Y-120015000D03*
X147320000Y-117475000D03*
X149860000Y-120015000D03*
X149860000Y-117475000D03*
%TD*%
D10*
%TO.C,C8*%
X121920000Y-64055000D03*
X121920000Y-59055000D03*
%TD*%
D14*
%TO.C,D2*%
X160020000Y-118745000D03*
D15*
X162560000Y-118745000D03*
%TD*%
D12*
%TO.C,JP2*%
X127635000Y-53340000D03*
D17*
X130175000Y-53340000D03*
X132715000Y-53340000D03*
%TD*%
D10*
%TO.C,C3*%
X158750000Y-76835000D03*
X158750000Y-81835000D03*
%TD*%
%TO.C,C4*%
X158750000Y-61635000D03*
X158750000Y-66635000D03*
%TD*%
D14*
%TO.C,SW1*%
X116499000Y-124289000D03*
D15*
X118999000Y-124289000D03*
X121499000Y-124289000D03*
X116499000Y-118789000D03*
X118999000Y-118789000D03*
X121499000Y-118789000D03*
%TD*%
D12*
%TO.C,U5*%
X137067000Y-53340000D03*
D13*
X137067000Y-49340000D03*
X155067000Y-53340000D03*
X155067000Y-45340000D03*
%TD*%
D10*
%TO.C,C6*%
X121920000Y-83185000D03*
X121920000Y-88185000D03*
%TD*%
%TO.C,C7*%
X121920000Y-69215000D03*
X121920000Y-74215000D03*
%TD*%
%TO.C,C1*%
X158750000Y-102275000D03*
X158750000Y-107275000D03*
%TD*%
%TO.C,R3*%
X151765000Y-100965000D03*
D11*
X151765000Y-108585000D03*
%TD*%
D10*
%TO.C,C2*%
X158750000Y-90805000D03*
X158750000Y-95805000D03*
%TD*%
D12*
%TO.C,J3*%
X163830000Y-125730000D03*
D17*
X161290000Y-125730000D03*
X158750000Y-125730000D03*
X156210000Y-125730000D03*
X153670000Y-125730000D03*
X151130000Y-125730000D03*
%TD*%
D10*
%TO.C,C5*%
X121920000Y-98425000D03*
X121920000Y-103425000D03*
%TD*%
D18*
%TO.C,J1*%
X130335000Y-127635000D03*
D19*
X130335000Y-125635000D03*
X132335000Y-127635000D03*
X132335000Y-125635000D03*
X134335000Y-127635000D03*
X134335000Y-125635000D03*
X136335000Y-127635000D03*
X136335000Y-125635000D03*
X138335000Y-127635000D03*
X138335000Y-125635000D03*
X140335000Y-127635000D03*
X140335000Y-125635000D03*
X142335000Y-127635000D03*
X142335000Y-125635000D03*
%TD*%
D12*
%TO.C,JP1*%
X127635000Y-47625000D03*
D17*
X130175000Y-47625000D03*
X132715000Y-47625000D03*
%TD*%
D14*
%TO.C,SW2*%
X159810000Y-47792000D03*
D15*
X159810000Y-50292000D03*
X159810000Y-52792000D03*
X165310000Y-47792000D03*
X165310000Y-50292000D03*
X165310000Y-52792000D03*
%TD*%
D10*
%TO.C,R2*%
X153035000Y-57785000D03*
D11*
X153035000Y-65405000D03*
%TD*%
D20*
%TO.C,J2*%
X123015000Y-48005000D03*
D21*
X117015000Y-48005000D03*
D22*
X120015000Y-52705000D03*
%TD*%
D23*
%TO.C,U4*%
X132715000Y-57785000D03*
D24*
X132715000Y-60325000D03*
X132715000Y-62865000D03*
X132715000Y-65405000D03*
X132715000Y-67945000D03*
X132715000Y-70485000D03*
X132715000Y-73025000D03*
X132715000Y-75565000D03*
X132715000Y-78105000D03*
X132715000Y-80645000D03*
X132715000Y-83185000D03*
X132715000Y-85725000D03*
X132715000Y-88265000D03*
X132715000Y-90805000D03*
X132715000Y-93345000D03*
X132715000Y-95885000D03*
X132715000Y-98425000D03*
X132715000Y-100965000D03*
X132715000Y-103505000D03*
X132715000Y-106045000D03*
X132715000Y-108585000D03*
X132715000Y-111125000D03*
X147955000Y-111125000D03*
X147955000Y-108585000D03*
X147955000Y-106045000D03*
X147955000Y-103505000D03*
X147955000Y-100965000D03*
X147955000Y-98425000D03*
X147955000Y-95885000D03*
X147955000Y-93345000D03*
X147955000Y-90805000D03*
X147955000Y-88265000D03*
X147955000Y-85725000D03*
X147955000Y-83185000D03*
X147955000Y-80645000D03*
X147955000Y-78105000D03*
X147955000Y-75565000D03*
X147955000Y-73025000D03*
X147955000Y-70485000D03*
X147955000Y-67945000D03*
X147955000Y-65405000D03*
X147955000Y-62865000D03*
X147955000Y-60325000D03*
X147955000Y-57785000D03*
%TD*%
M02*
