%TF.GenerationSoftware,KiCad,Pcbnew,8.0.7*%
%TF.CreationDate,2025-02-19T22:23:28-06:00*%
%TF.ProjectId,Atmel-ATF15XX-Programming-Adapter,41746d65-6c2d-4415-9446-313558582d50,v1.0*%
%TF.SameCoordinates,Original*%
%TF.FileFunction,Legend,Top*%
%TF.FilePolarity,Positive*%
%FSLAX46Y46*%
G04 Gerber Fmt 4.6, Leading zero omitted, Abs format (unit mm)*
G04 Created by KiCad (PCBNEW 8.0.7) date 2025-02-19 22:23:28*
%MOMM*%
%LPD*%
G01*
G04 APERTURE LIST*
%ADD10C,0.150000*%
%ADD11C,0.100000*%
%ADD12C,0.120000*%
G04 APERTURE END LIST*
D10*
X159953220Y-108423152D02*
X159953220Y-109089819D01*
X159715125Y-108042200D02*
X159477030Y-108756485D01*
X159477030Y-108756485D02*
X160096077Y-108756485D01*
X160381792Y-108089819D02*
X161000839Y-108089819D01*
X161000839Y-108089819D02*
X160667506Y-108470771D01*
X160667506Y-108470771D02*
X160810363Y-108470771D01*
X160810363Y-108470771D02*
X160905601Y-108518390D01*
X160905601Y-108518390D02*
X160953220Y-108566009D01*
X160953220Y-108566009D02*
X161000839Y-108661247D01*
X161000839Y-108661247D02*
X161000839Y-108899342D01*
X161000839Y-108899342D02*
X160953220Y-108994580D01*
X160953220Y-108994580D02*
X160905601Y-109042200D01*
X160905601Y-109042200D02*
X160810363Y-109089819D01*
X160810363Y-109089819D02*
X160524649Y-109089819D01*
X160524649Y-109089819D02*
X160429411Y-109042200D01*
X160429411Y-109042200D02*
X160381792Y-108994580D01*
X158988570Y-44954819D02*
X158417142Y-44954819D01*
X158702856Y-44954819D02*
X158702856Y-43954819D01*
X158702856Y-43954819D02*
X158607618Y-44097676D01*
X158607618Y-44097676D02*
X158512380Y-44192914D01*
X158512380Y-44192914D02*
X158417142Y-44240533D01*
X159369523Y-44050057D02*
X159417142Y-44002438D01*
X159417142Y-44002438D02*
X159512380Y-43954819D01*
X159512380Y-43954819D02*
X159750475Y-43954819D01*
X159750475Y-43954819D02*
X159845713Y-44002438D01*
X159845713Y-44002438D02*
X159893332Y-44050057D01*
X159893332Y-44050057D02*
X159940951Y-44145295D01*
X159940951Y-44145295D02*
X159940951Y-44240533D01*
X159940951Y-44240533D02*
X159893332Y-44383390D01*
X159893332Y-44383390D02*
X159321904Y-44954819D01*
X159321904Y-44954819D02*
X159940951Y-44954819D01*
X160226666Y-43954819D02*
X160559999Y-44954819D01*
X160559999Y-44954819D02*
X160893332Y-43954819D01*
X161845714Y-44288152D02*
X162226666Y-44288152D01*
X161988571Y-43954819D02*
X161988571Y-44811961D01*
X161988571Y-44811961D02*
X162036190Y-44907200D01*
X162036190Y-44907200D02*
X162131428Y-44954819D01*
X162131428Y-44954819D02*
X162226666Y-44954819D01*
X162702857Y-44954819D02*
X162607619Y-44907200D01*
X162607619Y-44907200D02*
X162560000Y-44859580D01*
X162560000Y-44859580D02*
X162512381Y-44764342D01*
X162512381Y-44764342D02*
X162512381Y-44478628D01*
X162512381Y-44478628D02*
X162560000Y-44383390D01*
X162560000Y-44383390D02*
X162607619Y-44335771D01*
X162607619Y-44335771D02*
X162702857Y-44288152D01*
X162702857Y-44288152D02*
X162845714Y-44288152D01*
X162845714Y-44288152D02*
X162940952Y-44335771D01*
X162940952Y-44335771D02*
X162988571Y-44383390D01*
X162988571Y-44383390D02*
X163036190Y-44478628D01*
X163036190Y-44478628D02*
X163036190Y-44764342D01*
X163036190Y-44764342D02*
X162988571Y-44859580D01*
X162988571Y-44859580D02*
X162940952Y-44907200D01*
X162940952Y-44907200D02*
X162845714Y-44954819D01*
X162845714Y-44954819D02*
X162702857Y-44954819D01*
X164417143Y-43954819D02*
X164607619Y-43954819D01*
X164607619Y-43954819D02*
X164702857Y-44002438D01*
X164702857Y-44002438D02*
X164798095Y-44097676D01*
X164798095Y-44097676D02*
X164845714Y-44288152D01*
X164845714Y-44288152D02*
X164845714Y-44621485D01*
X164845714Y-44621485D02*
X164798095Y-44811961D01*
X164798095Y-44811961D02*
X164702857Y-44907200D01*
X164702857Y-44907200D02*
X164607619Y-44954819D01*
X164607619Y-44954819D02*
X164417143Y-44954819D01*
X164417143Y-44954819D02*
X164321905Y-44907200D01*
X164321905Y-44907200D02*
X164226667Y-44811961D01*
X164226667Y-44811961D02*
X164179048Y-44621485D01*
X164179048Y-44621485D02*
X164179048Y-44288152D01*
X164179048Y-44288152D02*
X164226667Y-44097676D01*
X164226667Y-44097676D02*
X164321905Y-44002438D01*
X164321905Y-44002438D02*
X164417143Y-43954819D01*
X165274286Y-44431009D02*
X165607619Y-44431009D01*
X165750476Y-44954819D02*
X165274286Y-44954819D01*
X165274286Y-44954819D02*
X165274286Y-43954819D01*
X165274286Y-43954819D02*
X165750476Y-43954819D01*
X166702857Y-44954819D02*
X166131429Y-44954819D01*
X166417143Y-44954819D02*
X166417143Y-43954819D01*
X166417143Y-43954819D02*
X166321905Y-44097676D01*
X166321905Y-44097676D02*
X166226667Y-44192914D01*
X166226667Y-44192914D02*
X166131429Y-44240533D01*
X159667506Y-57718390D02*
X159572268Y-57670771D01*
X159572268Y-57670771D02*
X159524649Y-57623152D01*
X159524649Y-57623152D02*
X159477030Y-57527914D01*
X159477030Y-57527914D02*
X159477030Y-57480295D01*
X159477030Y-57480295D02*
X159524649Y-57385057D01*
X159524649Y-57385057D02*
X159572268Y-57337438D01*
X159572268Y-57337438D02*
X159667506Y-57289819D01*
X159667506Y-57289819D02*
X159857982Y-57289819D01*
X159857982Y-57289819D02*
X159953220Y-57337438D01*
X159953220Y-57337438D02*
X160000839Y-57385057D01*
X160000839Y-57385057D02*
X160048458Y-57480295D01*
X160048458Y-57480295D02*
X160048458Y-57527914D01*
X160048458Y-57527914D02*
X160000839Y-57623152D01*
X160000839Y-57623152D02*
X159953220Y-57670771D01*
X159953220Y-57670771D02*
X159857982Y-57718390D01*
X159857982Y-57718390D02*
X159667506Y-57718390D01*
X159667506Y-57718390D02*
X159572268Y-57766009D01*
X159572268Y-57766009D02*
X159524649Y-57813628D01*
X159524649Y-57813628D02*
X159477030Y-57908866D01*
X159477030Y-57908866D02*
X159477030Y-58099342D01*
X159477030Y-58099342D02*
X159524649Y-58194580D01*
X159524649Y-58194580D02*
X159572268Y-58242200D01*
X159572268Y-58242200D02*
X159667506Y-58289819D01*
X159667506Y-58289819D02*
X159857982Y-58289819D01*
X159857982Y-58289819D02*
X159953220Y-58242200D01*
X159953220Y-58242200D02*
X160000839Y-58194580D01*
X160000839Y-58194580D02*
X160048458Y-58099342D01*
X160048458Y-58099342D02*
X160048458Y-57908866D01*
X160048458Y-57908866D02*
X160000839Y-57813628D01*
X160000839Y-57813628D02*
X159953220Y-57766009D01*
X159953220Y-57766009D02*
X159857982Y-57718390D01*
X160381792Y-57289819D02*
X161000839Y-57289819D01*
X161000839Y-57289819D02*
X160667506Y-57670771D01*
X160667506Y-57670771D02*
X160810363Y-57670771D01*
X160810363Y-57670771D02*
X160905601Y-57718390D01*
X160905601Y-57718390D02*
X160953220Y-57766009D01*
X160953220Y-57766009D02*
X161000839Y-57861247D01*
X161000839Y-57861247D02*
X161000839Y-58099342D01*
X161000839Y-58099342D02*
X160953220Y-58194580D01*
X160953220Y-58194580D02*
X160905601Y-58242200D01*
X160905601Y-58242200D02*
X160810363Y-58289819D01*
X160810363Y-58289819D02*
X160524649Y-58289819D01*
X160524649Y-58289819D02*
X160429411Y-58242200D01*
X160429411Y-58242200D02*
X160381792Y-58194580D01*
X131155839Y-58289819D02*
X130584411Y-58289819D01*
X130870125Y-58289819D02*
X130870125Y-57289819D01*
X130870125Y-57289819D02*
X130774887Y-57432676D01*
X130774887Y-57432676D02*
X130679649Y-57527914D01*
X130679649Y-57527914D02*
X130584411Y-57575533D01*
X131715000Y-45589819D02*
X131715000Y-44589819D01*
X131715000Y-44589819D02*
X131953095Y-44589819D01*
X131953095Y-44589819D02*
X132095952Y-44637438D01*
X132095952Y-44637438D02*
X132191190Y-44732676D01*
X132191190Y-44732676D02*
X132238809Y-44827914D01*
X132238809Y-44827914D02*
X132286428Y-45018390D01*
X132286428Y-45018390D02*
X132286428Y-45161247D01*
X132286428Y-45161247D02*
X132238809Y-45351723D01*
X132238809Y-45351723D02*
X132191190Y-45446961D01*
X132191190Y-45446961D02*
X132095952Y-45542200D01*
X132095952Y-45542200D02*
X131953095Y-45589819D01*
X131953095Y-45589819D02*
X131715000Y-45589819D01*
X132715000Y-45589819D02*
X132715000Y-44589819D01*
X133762618Y-45589819D02*
X133429285Y-45113628D01*
X133191190Y-45589819D02*
X133191190Y-44589819D01*
X133191190Y-44589819D02*
X133572142Y-44589819D01*
X133572142Y-44589819D02*
X133667380Y-44637438D01*
X133667380Y-44637438D02*
X133714999Y-44685057D01*
X133714999Y-44685057D02*
X133762618Y-44780295D01*
X133762618Y-44780295D02*
X133762618Y-44923152D01*
X133762618Y-44923152D02*
X133714999Y-45018390D01*
X133714999Y-45018390D02*
X133667380Y-45066009D01*
X133667380Y-45066009D02*
X133572142Y-45113628D01*
X133572142Y-45113628D02*
X133191190Y-45113628D01*
X155714819Y-124266077D02*
X155714819Y-123694649D01*
X156714819Y-123980363D02*
X155714819Y-123980363D01*
X156619580Y-122789887D02*
X156667200Y-122837506D01*
X156667200Y-122837506D02*
X156714819Y-122980363D01*
X156714819Y-122980363D02*
X156714819Y-123075601D01*
X156714819Y-123075601D02*
X156667200Y-123218458D01*
X156667200Y-123218458D02*
X156571961Y-123313696D01*
X156571961Y-123313696D02*
X156476723Y-123361315D01*
X156476723Y-123361315D02*
X156286247Y-123408934D01*
X156286247Y-123408934D02*
X156143390Y-123408934D01*
X156143390Y-123408934D02*
X155952914Y-123361315D01*
X155952914Y-123361315D02*
X155857676Y-123313696D01*
X155857676Y-123313696D02*
X155762438Y-123218458D01*
X155762438Y-123218458D02*
X155714819Y-123075601D01*
X155714819Y-123075601D02*
X155714819Y-122980363D01*
X155714819Y-122980363D02*
X155762438Y-122837506D01*
X155762438Y-122837506D02*
X155810057Y-122789887D01*
X156714819Y-122361315D02*
X155714819Y-122361315D01*
X156714819Y-121789887D02*
X156143390Y-122218458D01*
X155714819Y-121789887D02*
X156286247Y-122361315D01*
X160794819Y-124266077D02*
X160794819Y-123694649D01*
X161794819Y-123980363D02*
X160794819Y-123980363D01*
X161794819Y-123361315D02*
X160794819Y-123361315D01*
X160794819Y-123361315D02*
X160794819Y-123123220D01*
X160794819Y-123123220D02*
X160842438Y-122980363D01*
X160842438Y-122980363D02*
X160937676Y-122885125D01*
X160937676Y-122885125D02*
X161032914Y-122837506D01*
X161032914Y-122837506D02*
X161223390Y-122789887D01*
X161223390Y-122789887D02*
X161366247Y-122789887D01*
X161366247Y-122789887D02*
X161556723Y-122837506D01*
X161556723Y-122837506D02*
X161651961Y-122885125D01*
X161651961Y-122885125D02*
X161747200Y-122980363D01*
X161747200Y-122980363D02*
X161794819Y-123123220D01*
X161794819Y-123123220D02*
X161794819Y-123361315D01*
X161794819Y-122361315D02*
X160794819Y-122361315D01*
X158254819Y-124266077D02*
X158254819Y-123694649D01*
X159254819Y-123980363D02*
X158254819Y-123980363D01*
X159254819Y-123361315D02*
X158254819Y-123361315D01*
X158254819Y-123361315D02*
X158254819Y-123123220D01*
X158254819Y-123123220D02*
X158302438Y-122980363D01*
X158302438Y-122980363D02*
X158397676Y-122885125D01*
X158397676Y-122885125D02*
X158492914Y-122837506D01*
X158492914Y-122837506D02*
X158683390Y-122789887D01*
X158683390Y-122789887D02*
X158826247Y-122789887D01*
X158826247Y-122789887D02*
X159016723Y-122837506D01*
X159016723Y-122837506D02*
X159111961Y-122885125D01*
X159111961Y-122885125D02*
X159207200Y-122980363D01*
X159207200Y-122980363D02*
X159254819Y-123123220D01*
X159254819Y-123123220D02*
X159254819Y-123361315D01*
X158254819Y-122170839D02*
X158254819Y-121980363D01*
X158254819Y-121980363D02*
X158302438Y-121885125D01*
X158302438Y-121885125D02*
X158397676Y-121789887D01*
X158397676Y-121789887D02*
X158588152Y-121742268D01*
X158588152Y-121742268D02*
X158921485Y-121742268D01*
X158921485Y-121742268D02*
X159111961Y-121789887D01*
X159111961Y-121789887D02*
X159207200Y-121885125D01*
X159207200Y-121885125D02*
X159254819Y-121980363D01*
X159254819Y-121980363D02*
X159254819Y-122170839D01*
X159254819Y-122170839D02*
X159207200Y-122266077D01*
X159207200Y-122266077D02*
X159111961Y-122361315D01*
X159111961Y-122361315D02*
X158921485Y-122408934D01*
X158921485Y-122408934D02*
X158588152Y-122408934D01*
X158588152Y-122408934D02*
X158397676Y-122361315D01*
X158397676Y-122361315D02*
X158302438Y-122266077D01*
X158302438Y-122266077D02*
X158254819Y-122170839D01*
X120145350Y-108423152D02*
X120145350Y-109089819D01*
X119907255Y-108042200D02*
X119669160Y-108756485D01*
X119669160Y-108756485D02*
X120288207Y-108756485D01*
X120621541Y-108185057D02*
X120669160Y-108137438D01*
X120669160Y-108137438D02*
X120764398Y-108089819D01*
X120764398Y-108089819D02*
X121002493Y-108089819D01*
X121002493Y-108089819D02*
X121097731Y-108137438D01*
X121097731Y-108137438D02*
X121145350Y-108185057D01*
X121145350Y-108185057D02*
X121192969Y-108280295D01*
X121192969Y-108280295D02*
X121192969Y-108375533D01*
X121192969Y-108375533D02*
X121145350Y-108518390D01*
X121145350Y-108518390D02*
X120573922Y-109089819D01*
X120573922Y-109089819D02*
X121192969Y-109089819D01*
X144735779Y-84324866D02*
X145497684Y-84324866D01*
X145116731Y-84705819D02*
X145116731Y-83943914D01*
X119669160Y-57385057D02*
X119716779Y-57337438D01*
X119716779Y-57337438D02*
X119812017Y-57289819D01*
X119812017Y-57289819D02*
X120050112Y-57289819D01*
X120050112Y-57289819D02*
X120145350Y-57337438D01*
X120145350Y-57337438D02*
X120192969Y-57385057D01*
X120192969Y-57385057D02*
X120240588Y-57480295D01*
X120240588Y-57480295D02*
X120240588Y-57575533D01*
X120240588Y-57575533D02*
X120192969Y-57718390D01*
X120192969Y-57718390D02*
X119621541Y-58289819D01*
X119621541Y-58289819D02*
X120240588Y-58289819D01*
X163334819Y-124266077D02*
X163334819Y-123694649D01*
X164334819Y-123980363D02*
X163334819Y-123980363D01*
X164334819Y-123361315D02*
X163334819Y-123361315D01*
X163334819Y-123361315D02*
X164049104Y-123027982D01*
X164049104Y-123027982D02*
X163334819Y-122694649D01*
X163334819Y-122694649D02*
X164334819Y-122694649D01*
X164287200Y-122266077D02*
X164334819Y-122123220D01*
X164334819Y-122123220D02*
X164334819Y-121885125D01*
X164334819Y-121885125D02*
X164287200Y-121789887D01*
X164287200Y-121789887D02*
X164239580Y-121742268D01*
X164239580Y-121742268D02*
X164144342Y-121694649D01*
X164144342Y-121694649D02*
X164049104Y-121694649D01*
X164049104Y-121694649D02*
X163953866Y-121742268D01*
X163953866Y-121742268D02*
X163906247Y-121789887D01*
X163906247Y-121789887D02*
X163858628Y-121885125D01*
X163858628Y-121885125D02*
X163811009Y-122075601D01*
X163811009Y-122075601D02*
X163763390Y-122170839D01*
X163763390Y-122170839D02*
X163715771Y-122218458D01*
X163715771Y-122218458D02*
X163620533Y-122266077D01*
X163620533Y-122266077D02*
X163525295Y-122266077D01*
X163525295Y-122266077D02*
X163430057Y-122218458D01*
X163430057Y-122218458D02*
X163382438Y-122170839D01*
X163382438Y-122170839D02*
X163334819Y-122075601D01*
X163334819Y-122075601D02*
X163334819Y-121837506D01*
X163334819Y-121837506D02*
X163382438Y-121694649D01*
X153222438Y-123599411D02*
X153174819Y-123694649D01*
X153174819Y-123694649D02*
X153174819Y-123837506D01*
X153174819Y-123837506D02*
X153222438Y-123980363D01*
X153222438Y-123980363D02*
X153317676Y-124075601D01*
X153317676Y-124075601D02*
X153412914Y-124123220D01*
X153412914Y-124123220D02*
X153603390Y-124170839D01*
X153603390Y-124170839D02*
X153746247Y-124170839D01*
X153746247Y-124170839D02*
X153936723Y-124123220D01*
X153936723Y-124123220D02*
X154031961Y-124075601D01*
X154031961Y-124075601D02*
X154127200Y-123980363D01*
X154127200Y-123980363D02*
X154174819Y-123837506D01*
X154174819Y-123837506D02*
X154174819Y-123742268D01*
X154174819Y-123742268D02*
X154127200Y-123599411D01*
X154127200Y-123599411D02*
X154079580Y-123551792D01*
X154079580Y-123551792D02*
X153746247Y-123551792D01*
X153746247Y-123551792D02*
X153746247Y-123742268D01*
X154174819Y-123123220D02*
X153174819Y-123123220D01*
X153174819Y-123123220D02*
X154174819Y-122551792D01*
X154174819Y-122551792D02*
X153174819Y-122551792D01*
X154174819Y-122075601D02*
X153174819Y-122075601D01*
X153174819Y-122075601D02*
X153174819Y-121837506D01*
X153174819Y-121837506D02*
X153222438Y-121694649D01*
X153222438Y-121694649D02*
X153317676Y-121599411D01*
X153317676Y-121599411D02*
X153412914Y-121551792D01*
X153412914Y-121551792D02*
X153603390Y-121504173D01*
X153603390Y-121504173D02*
X153746247Y-121504173D01*
X153746247Y-121504173D02*
X153936723Y-121551792D01*
X153936723Y-121551792D02*
X154031961Y-121599411D01*
X154031961Y-121599411D02*
X154127200Y-121694649D01*
X154127200Y-121694649D02*
X154174819Y-121837506D01*
X154174819Y-121837506D02*
X154174819Y-122075601D01*
X136861779Y-67814866D02*
X137623684Y-67814866D01*
X137242731Y-68195819D02*
X137242731Y-67433914D01*
X114141429Y-128108152D02*
X114379524Y-128774819D01*
X114379524Y-128774819D02*
X114617619Y-128108152D01*
X115522381Y-128774819D02*
X114950953Y-128774819D01*
X115236667Y-128774819D02*
X115236667Y-127774819D01*
X115236667Y-127774819D02*
X115141429Y-127917676D01*
X115141429Y-127917676D02*
X115046191Y-128012914D01*
X115046191Y-128012914D02*
X114950953Y-128060533D01*
X115950953Y-128679580D02*
X115998572Y-128727200D01*
X115998572Y-128727200D02*
X115950953Y-128774819D01*
X115950953Y-128774819D02*
X115903334Y-128727200D01*
X115903334Y-128727200D02*
X115950953Y-128679580D01*
X115950953Y-128679580D02*
X115950953Y-128774819D01*
X116617619Y-127774819D02*
X116712857Y-127774819D01*
X116712857Y-127774819D02*
X116808095Y-127822438D01*
X116808095Y-127822438D02*
X116855714Y-127870057D01*
X116855714Y-127870057D02*
X116903333Y-127965295D01*
X116903333Y-127965295D02*
X116950952Y-128155771D01*
X116950952Y-128155771D02*
X116950952Y-128393866D01*
X116950952Y-128393866D02*
X116903333Y-128584342D01*
X116903333Y-128584342D02*
X116855714Y-128679580D01*
X116855714Y-128679580D02*
X116808095Y-128727200D01*
X116808095Y-128727200D02*
X116712857Y-128774819D01*
X116712857Y-128774819D02*
X116617619Y-128774819D01*
X116617619Y-128774819D02*
X116522381Y-128727200D01*
X116522381Y-128727200D02*
X116474762Y-128679580D01*
X116474762Y-128679580D02*
X116427143Y-128584342D01*
X116427143Y-128584342D02*
X116379524Y-128393866D01*
X116379524Y-128393866D02*
X116379524Y-128155771D01*
X116379524Y-128155771D02*
X116427143Y-127965295D01*
X116427143Y-127965295D02*
X116474762Y-127870057D01*
X116474762Y-127870057D02*
X116522381Y-127822438D01*
X116522381Y-127822438D02*
X116617619Y-127774819D01*
X164814285Y-110328152D02*
X164814285Y-110994819D01*
X164576190Y-109947200D02*
X164338095Y-110661485D01*
X164338095Y-110661485D02*
X164957142Y-110661485D01*
X165766666Y-110328152D02*
X165766666Y-110994819D01*
X165528571Y-109947200D02*
X165290476Y-110661485D01*
X165290476Y-110661485D02*
X165909523Y-110661485D01*
X127444523Y-50304819D02*
X126968333Y-50304819D01*
X126968333Y-50304819D02*
X126920714Y-50781009D01*
X126920714Y-50781009D02*
X126968333Y-50733390D01*
X126968333Y-50733390D02*
X127063571Y-50685771D01*
X127063571Y-50685771D02*
X127301666Y-50685771D01*
X127301666Y-50685771D02*
X127396904Y-50733390D01*
X127396904Y-50733390D02*
X127444523Y-50781009D01*
X127444523Y-50781009D02*
X127492142Y-50876247D01*
X127492142Y-50876247D02*
X127492142Y-51114342D01*
X127492142Y-51114342D02*
X127444523Y-51209580D01*
X127444523Y-51209580D02*
X127396904Y-51257200D01*
X127396904Y-51257200D02*
X127301666Y-51304819D01*
X127301666Y-51304819D02*
X127063571Y-51304819D01*
X127063571Y-51304819D02*
X126968333Y-51257200D01*
X126968333Y-51257200D02*
X126920714Y-51209580D01*
X127777857Y-50304819D02*
X128111190Y-51304819D01*
X128111190Y-51304819D02*
X128444523Y-50304819D01*
X131238810Y-50304819D02*
X131857857Y-50304819D01*
X131857857Y-50304819D02*
X131524524Y-50685771D01*
X131524524Y-50685771D02*
X131667381Y-50685771D01*
X131667381Y-50685771D02*
X131762619Y-50733390D01*
X131762619Y-50733390D02*
X131810238Y-50781009D01*
X131810238Y-50781009D02*
X131857857Y-50876247D01*
X131857857Y-50876247D02*
X131857857Y-51114342D01*
X131857857Y-51114342D02*
X131810238Y-51209580D01*
X131810238Y-51209580D02*
X131762619Y-51257200D01*
X131762619Y-51257200D02*
X131667381Y-51304819D01*
X131667381Y-51304819D02*
X131381667Y-51304819D01*
X131381667Y-51304819D02*
X131286429Y-51257200D01*
X131286429Y-51257200D02*
X131238810Y-51209580D01*
X132286429Y-51209580D02*
X132334048Y-51257200D01*
X132334048Y-51257200D02*
X132286429Y-51304819D01*
X132286429Y-51304819D02*
X132238810Y-51257200D01*
X132238810Y-51257200D02*
X132286429Y-51209580D01*
X132286429Y-51209580D02*
X132286429Y-51304819D01*
X132667381Y-50304819D02*
X133286428Y-50304819D01*
X133286428Y-50304819D02*
X132953095Y-50685771D01*
X132953095Y-50685771D02*
X133095952Y-50685771D01*
X133095952Y-50685771D02*
X133191190Y-50733390D01*
X133191190Y-50733390D02*
X133238809Y-50781009D01*
X133238809Y-50781009D02*
X133286428Y-50876247D01*
X133286428Y-50876247D02*
X133286428Y-51114342D01*
X133286428Y-51114342D02*
X133238809Y-51209580D01*
X133238809Y-51209580D02*
X133191190Y-51257200D01*
X133191190Y-51257200D02*
X133095952Y-51304819D01*
X133095952Y-51304819D02*
X132810238Y-51304819D01*
X132810238Y-51304819D02*
X132715000Y-51257200D01*
X132715000Y-51257200D02*
X132667381Y-51209580D01*
X133572143Y-50304819D02*
X133905476Y-51304819D01*
X133905476Y-51304819D02*
X134238809Y-50304819D01*
X140144523Y-73799819D02*
X139668333Y-73799819D01*
X139668333Y-73799819D02*
X139620714Y-74276009D01*
X139620714Y-74276009D02*
X139668333Y-74228390D01*
X139668333Y-74228390D02*
X139763571Y-74180771D01*
X139763571Y-74180771D02*
X140001666Y-74180771D01*
X140001666Y-74180771D02*
X140096904Y-74228390D01*
X140096904Y-74228390D02*
X140144523Y-74276009D01*
X140144523Y-74276009D02*
X140192142Y-74371247D01*
X140192142Y-74371247D02*
X140192142Y-74609342D01*
X140192142Y-74609342D02*
X140144523Y-74704580D01*
X140144523Y-74704580D02*
X140096904Y-74752200D01*
X140096904Y-74752200D02*
X140001666Y-74799819D01*
X140001666Y-74799819D02*
X139763571Y-74799819D01*
X139763571Y-74799819D02*
X139668333Y-74752200D01*
X139668333Y-74752200D02*
X139620714Y-74704580D01*
X140477857Y-73799819D02*
X140811190Y-74799819D01*
X140811190Y-74799819D02*
X141144523Y-73799819D01*
X149514160Y-110725057D02*
X149561779Y-110677438D01*
X149561779Y-110677438D02*
X149657017Y-110629819D01*
X149657017Y-110629819D02*
X149895112Y-110629819D01*
X149895112Y-110629819D02*
X149990350Y-110677438D01*
X149990350Y-110677438D02*
X150037969Y-110725057D01*
X150037969Y-110725057D02*
X150085588Y-110820295D01*
X150085588Y-110820295D02*
X150085588Y-110915533D01*
X150085588Y-110915533D02*
X150037969Y-111058390D01*
X150037969Y-111058390D02*
X149466541Y-111629819D01*
X149466541Y-111629819D02*
X150085588Y-111629819D01*
X150418922Y-110629819D02*
X151037969Y-110629819D01*
X151037969Y-110629819D02*
X150704636Y-111010771D01*
X150704636Y-111010771D02*
X150847493Y-111010771D01*
X150847493Y-111010771D02*
X150942731Y-111058390D01*
X150942731Y-111058390D02*
X150990350Y-111106009D01*
X150990350Y-111106009D02*
X151037969Y-111201247D01*
X151037969Y-111201247D02*
X151037969Y-111439342D01*
X151037969Y-111439342D02*
X150990350Y-111534580D01*
X150990350Y-111534580D02*
X150942731Y-111582200D01*
X150942731Y-111582200D02*
X150847493Y-111629819D01*
X150847493Y-111629819D02*
X150561779Y-111629819D01*
X150561779Y-111629819D02*
X150466541Y-111582200D01*
X150466541Y-111582200D02*
X150418922Y-111534580D01*
X144735779Y-67814866D02*
X145497684Y-67814866D01*
X145116731Y-68195819D02*
X145116731Y-67433914D01*
X136861779Y-84324866D02*
X137623684Y-84324866D01*
X137242731Y-84705819D02*
X137242731Y-83943914D01*
X150634819Y-124266077D02*
X151634819Y-123932744D01*
X151634819Y-123932744D02*
X150634819Y-123599411D01*
X151539580Y-122694649D02*
X151587200Y-122742268D01*
X151587200Y-122742268D02*
X151634819Y-122885125D01*
X151634819Y-122885125D02*
X151634819Y-122980363D01*
X151634819Y-122980363D02*
X151587200Y-123123220D01*
X151587200Y-123123220D02*
X151491961Y-123218458D01*
X151491961Y-123218458D02*
X151396723Y-123266077D01*
X151396723Y-123266077D02*
X151206247Y-123313696D01*
X151206247Y-123313696D02*
X151063390Y-123313696D01*
X151063390Y-123313696D02*
X150872914Y-123266077D01*
X150872914Y-123266077D02*
X150777676Y-123218458D01*
X150777676Y-123218458D02*
X150682438Y-123123220D01*
X150682438Y-123123220D02*
X150634819Y-122980363D01*
X150634819Y-122980363D02*
X150634819Y-122885125D01*
X150634819Y-122885125D02*
X150682438Y-122742268D01*
X150682438Y-122742268D02*
X150730057Y-122694649D01*
X151539580Y-121694649D02*
X151587200Y-121742268D01*
X151587200Y-121742268D02*
X151634819Y-121885125D01*
X151634819Y-121885125D02*
X151634819Y-121980363D01*
X151634819Y-121980363D02*
X151587200Y-122123220D01*
X151587200Y-122123220D02*
X151491961Y-122218458D01*
X151491961Y-122218458D02*
X151396723Y-122266077D01*
X151396723Y-122266077D02*
X151206247Y-122313696D01*
X151206247Y-122313696D02*
X151063390Y-122313696D01*
X151063390Y-122313696D02*
X150872914Y-122266077D01*
X150872914Y-122266077D02*
X150777676Y-122218458D01*
X150777676Y-122218458D02*
X150682438Y-122123220D01*
X150682438Y-122123220D02*
X150634819Y-121980363D01*
X150634819Y-121980363D02*
X150634819Y-121885125D01*
X150634819Y-121885125D02*
X150682438Y-121742268D01*
X150682438Y-121742268D02*
X150730057Y-121694649D01*
X164528571Y-55813390D02*
X164433333Y-55765771D01*
X164433333Y-55765771D02*
X164385714Y-55718152D01*
X164385714Y-55718152D02*
X164338095Y-55622914D01*
X164338095Y-55622914D02*
X164338095Y-55575295D01*
X164338095Y-55575295D02*
X164385714Y-55480057D01*
X164385714Y-55480057D02*
X164433333Y-55432438D01*
X164433333Y-55432438D02*
X164528571Y-55384819D01*
X164528571Y-55384819D02*
X164719047Y-55384819D01*
X164719047Y-55384819D02*
X164814285Y-55432438D01*
X164814285Y-55432438D02*
X164861904Y-55480057D01*
X164861904Y-55480057D02*
X164909523Y-55575295D01*
X164909523Y-55575295D02*
X164909523Y-55622914D01*
X164909523Y-55622914D02*
X164861904Y-55718152D01*
X164861904Y-55718152D02*
X164814285Y-55765771D01*
X164814285Y-55765771D02*
X164719047Y-55813390D01*
X164719047Y-55813390D02*
X164528571Y-55813390D01*
X164528571Y-55813390D02*
X164433333Y-55861009D01*
X164433333Y-55861009D02*
X164385714Y-55908628D01*
X164385714Y-55908628D02*
X164338095Y-56003866D01*
X164338095Y-56003866D02*
X164338095Y-56194342D01*
X164338095Y-56194342D02*
X164385714Y-56289580D01*
X164385714Y-56289580D02*
X164433333Y-56337200D01*
X164433333Y-56337200D02*
X164528571Y-56384819D01*
X164528571Y-56384819D02*
X164719047Y-56384819D01*
X164719047Y-56384819D02*
X164814285Y-56337200D01*
X164814285Y-56337200D02*
X164861904Y-56289580D01*
X164861904Y-56289580D02*
X164909523Y-56194342D01*
X164909523Y-56194342D02*
X164909523Y-56003866D01*
X164909523Y-56003866D02*
X164861904Y-55908628D01*
X164861904Y-55908628D02*
X164814285Y-55861009D01*
X164814285Y-55861009D02*
X164719047Y-55813390D01*
X165766666Y-55718152D02*
X165766666Y-56384819D01*
X165528571Y-55337200D02*
X165290476Y-56051485D01*
X165290476Y-56051485D02*
X165909523Y-56051485D01*
X137335000Y-102399875D02*
X137335000Y-101399875D01*
X137335000Y-101399875D02*
X137715952Y-101399875D01*
X137715952Y-101399875D02*
X137811190Y-101447494D01*
X137811190Y-101447494D02*
X137858809Y-101495113D01*
X137858809Y-101495113D02*
X137906428Y-101590351D01*
X137906428Y-101590351D02*
X137906428Y-101733208D01*
X137906428Y-101733208D02*
X137858809Y-101828446D01*
X137858809Y-101828446D02*
X137811190Y-101876065D01*
X137811190Y-101876065D02*
X137715952Y-101923684D01*
X137715952Y-101923684D02*
X137335000Y-101923684D01*
X138811190Y-102399875D02*
X138335000Y-102399875D01*
X138335000Y-102399875D02*
X138335000Y-101399875D01*
X139715952Y-102304636D02*
X139668333Y-102352256D01*
X139668333Y-102352256D02*
X139525476Y-102399875D01*
X139525476Y-102399875D02*
X139430238Y-102399875D01*
X139430238Y-102399875D02*
X139287381Y-102352256D01*
X139287381Y-102352256D02*
X139192143Y-102257017D01*
X139192143Y-102257017D02*
X139144524Y-102161779D01*
X139144524Y-102161779D02*
X139096905Y-101971303D01*
X139096905Y-101971303D02*
X139096905Y-101828446D01*
X139096905Y-101828446D02*
X139144524Y-101637970D01*
X139144524Y-101637970D02*
X139192143Y-101542732D01*
X139192143Y-101542732D02*
X139287381Y-101447494D01*
X139287381Y-101447494D02*
X139430238Y-101399875D01*
X139430238Y-101399875D02*
X139525476Y-101399875D01*
X139525476Y-101399875D02*
X139668333Y-101447494D01*
X139668333Y-101447494D02*
X139715952Y-101495113D01*
X140715952Y-102304636D02*
X140668333Y-102352256D01*
X140668333Y-102352256D02*
X140525476Y-102399875D01*
X140525476Y-102399875D02*
X140430238Y-102399875D01*
X140430238Y-102399875D02*
X140287381Y-102352256D01*
X140287381Y-102352256D02*
X140192143Y-102257017D01*
X140192143Y-102257017D02*
X140144524Y-102161779D01*
X140144524Y-102161779D02*
X140096905Y-101971303D01*
X140096905Y-101971303D02*
X140096905Y-101828446D01*
X140096905Y-101828446D02*
X140144524Y-101637970D01*
X140144524Y-101637970D02*
X140192143Y-101542732D01*
X140192143Y-101542732D02*
X140287381Y-101447494D01*
X140287381Y-101447494D02*
X140430238Y-101399875D01*
X140430238Y-101399875D02*
X140525476Y-101399875D01*
X140525476Y-101399875D02*
X140668333Y-101447494D01*
X140668333Y-101447494D02*
X140715952Y-101495113D01*
X142335000Y-101733208D02*
X142335000Y-102399875D01*
X142096905Y-101352256D02*
X141858810Y-102066541D01*
X141858810Y-102066541D02*
X142477857Y-102066541D01*
X143287381Y-101733208D02*
X143287381Y-102399875D01*
X143049286Y-101352256D02*
X142811191Y-102066541D01*
X142811191Y-102066541D02*
X143430238Y-102066541D01*
X137715952Y-103724104D02*
X138192142Y-103724104D01*
X137620714Y-104009819D02*
X137954047Y-103009819D01*
X137954047Y-103009819D02*
X138287380Y-104009819D01*
X139049285Y-104009819D02*
X139049285Y-103009819D01*
X139049285Y-103962200D02*
X138954047Y-104009819D01*
X138954047Y-104009819D02*
X138763571Y-104009819D01*
X138763571Y-104009819D02*
X138668333Y-103962200D01*
X138668333Y-103962200D02*
X138620714Y-103914580D01*
X138620714Y-103914580D02*
X138573095Y-103819342D01*
X138573095Y-103819342D02*
X138573095Y-103533628D01*
X138573095Y-103533628D02*
X138620714Y-103438390D01*
X138620714Y-103438390D02*
X138668333Y-103390771D01*
X138668333Y-103390771D02*
X138763571Y-103343152D01*
X138763571Y-103343152D02*
X138954047Y-103343152D01*
X138954047Y-103343152D02*
X139049285Y-103390771D01*
X139954047Y-104009819D02*
X139954047Y-103486009D01*
X139954047Y-103486009D02*
X139906428Y-103390771D01*
X139906428Y-103390771D02*
X139811190Y-103343152D01*
X139811190Y-103343152D02*
X139620714Y-103343152D01*
X139620714Y-103343152D02*
X139525476Y-103390771D01*
X139954047Y-103962200D02*
X139858809Y-104009819D01*
X139858809Y-104009819D02*
X139620714Y-104009819D01*
X139620714Y-104009819D02*
X139525476Y-103962200D01*
X139525476Y-103962200D02*
X139477857Y-103866961D01*
X139477857Y-103866961D02*
X139477857Y-103771723D01*
X139477857Y-103771723D02*
X139525476Y-103676485D01*
X139525476Y-103676485D02*
X139620714Y-103628866D01*
X139620714Y-103628866D02*
X139858809Y-103628866D01*
X139858809Y-103628866D02*
X139954047Y-103581247D01*
X140430238Y-103343152D02*
X140430238Y-104343152D01*
X140430238Y-103390771D02*
X140525476Y-103343152D01*
X140525476Y-103343152D02*
X140715952Y-103343152D01*
X140715952Y-103343152D02*
X140811190Y-103390771D01*
X140811190Y-103390771D02*
X140858809Y-103438390D01*
X140858809Y-103438390D02*
X140906428Y-103533628D01*
X140906428Y-103533628D02*
X140906428Y-103819342D01*
X140906428Y-103819342D02*
X140858809Y-103914580D01*
X140858809Y-103914580D02*
X140811190Y-103962200D01*
X140811190Y-103962200D02*
X140715952Y-104009819D01*
X140715952Y-104009819D02*
X140525476Y-104009819D01*
X140525476Y-104009819D02*
X140430238Y-103962200D01*
X141192143Y-103343152D02*
X141573095Y-103343152D01*
X141335000Y-103009819D02*
X141335000Y-103866961D01*
X141335000Y-103866961D02*
X141382619Y-103962200D01*
X141382619Y-103962200D02*
X141477857Y-104009819D01*
X141477857Y-104009819D02*
X141573095Y-104009819D01*
X142287381Y-103962200D02*
X142192143Y-104009819D01*
X142192143Y-104009819D02*
X142001667Y-104009819D01*
X142001667Y-104009819D02*
X141906429Y-103962200D01*
X141906429Y-103962200D02*
X141858810Y-103866961D01*
X141858810Y-103866961D02*
X141858810Y-103486009D01*
X141858810Y-103486009D02*
X141906429Y-103390771D01*
X141906429Y-103390771D02*
X142001667Y-103343152D01*
X142001667Y-103343152D02*
X142192143Y-103343152D01*
X142192143Y-103343152D02*
X142287381Y-103390771D01*
X142287381Y-103390771D02*
X142335000Y-103486009D01*
X142335000Y-103486009D02*
X142335000Y-103581247D01*
X142335000Y-103581247D02*
X141858810Y-103676485D01*
X142763572Y-104009819D02*
X142763572Y-103343152D01*
X142763572Y-103533628D02*
X142811191Y-103438390D01*
X142811191Y-103438390D02*
X142858810Y-103390771D01*
X142858810Y-103390771D02*
X142954048Y-103343152D01*
X142954048Y-103343152D02*
X143049286Y-103343152D01*
X115284285Y-110328152D02*
X115284285Y-110994819D01*
X115046190Y-109947200D02*
X114808095Y-110661485D01*
X114808095Y-110661485D02*
X115427142Y-110661485D01*
X116331904Y-110994819D02*
X115760476Y-110994819D01*
X116046190Y-110994819D02*
X116046190Y-109994819D01*
X116046190Y-109994819D02*
X115950952Y-110137676D01*
X115950952Y-110137676D02*
X115855714Y-110232914D01*
X115855714Y-110232914D02*
X115760476Y-110280533D01*
X129632030Y-110725057D02*
X129679649Y-110677438D01*
X129679649Y-110677438D02*
X129774887Y-110629819D01*
X129774887Y-110629819D02*
X130012982Y-110629819D01*
X130012982Y-110629819D02*
X130108220Y-110677438D01*
X130108220Y-110677438D02*
X130155839Y-110725057D01*
X130155839Y-110725057D02*
X130203458Y-110820295D01*
X130203458Y-110820295D02*
X130203458Y-110915533D01*
X130203458Y-110915533D02*
X130155839Y-111058390D01*
X130155839Y-111058390D02*
X129584411Y-111629819D01*
X129584411Y-111629819D02*
X130203458Y-111629819D01*
X130584411Y-110725057D02*
X130632030Y-110677438D01*
X130632030Y-110677438D02*
X130727268Y-110629819D01*
X130727268Y-110629819D02*
X130965363Y-110629819D01*
X130965363Y-110629819D02*
X131060601Y-110677438D01*
X131060601Y-110677438D02*
X131108220Y-110725057D01*
X131108220Y-110725057D02*
X131155839Y-110820295D01*
X131155839Y-110820295D02*
X131155839Y-110915533D01*
X131155839Y-110915533D02*
X131108220Y-111058390D01*
X131108220Y-111058390D02*
X130536792Y-111629819D01*
X130536792Y-111629819D02*
X131155839Y-111629819D01*
X138858810Y-57289819D02*
X139477857Y-57289819D01*
X139477857Y-57289819D02*
X139144524Y-57670771D01*
X139144524Y-57670771D02*
X139287381Y-57670771D01*
X139287381Y-57670771D02*
X139382619Y-57718390D01*
X139382619Y-57718390D02*
X139430238Y-57766009D01*
X139430238Y-57766009D02*
X139477857Y-57861247D01*
X139477857Y-57861247D02*
X139477857Y-58099342D01*
X139477857Y-58099342D02*
X139430238Y-58194580D01*
X139430238Y-58194580D02*
X139382619Y-58242200D01*
X139382619Y-58242200D02*
X139287381Y-58289819D01*
X139287381Y-58289819D02*
X139001667Y-58289819D01*
X139001667Y-58289819D02*
X138906429Y-58242200D01*
X138906429Y-58242200D02*
X138858810Y-58194580D01*
X139906429Y-58194580D02*
X139954048Y-58242200D01*
X139954048Y-58242200D02*
X139906429Y-58289819D01*
X139906429Y-58289819D02*
X139858810Y-58242200D01*
X139858810Y-58242200D02*
X139906429Y-58194580D01*
X139906429Y-58194580D02*
X139906429Y-58289819D01*
X140287381Y-57289819D02*
X140906428Y-57289819D01*
X140906428Y-57289819D02*
X140573095Y-57670771D01*
X140573095Y-57670771D02*
X140715952Y-57670771D01*
X140715952Y-57670771D02*
X140811190Y-57718390D01*
X140811190Y-57718390D02*
X140858809Y-57766009D01*
X140858809Y-57766009D02*
X140906428Y-57861247D01*
X140906428Y-57861247D02*
X140906428Y-58099342D01*
X140906428Y-58099342D02*
X140858809Y-58194580D01*
X140858809Y-58194580D02*
X140811190Y-58242200D01*
X140811190Y-58242200D02*
X140715952Y-58289819D01*
X140715952Y-58289819D02*
X140430238Y-58289819D01*
X140430238Y-58289819D02*
X140335000Y-58242200D01*
X140335000Y-58242200D02*
X140287381Y-58194580D01*
X141192143Y-57289819D02*
X141525476Y-58289819D01*
X141525476Y-58289819D02*
X141858809Y-57289819D01*
X137335000Y-94144875D02*
X137335000Y-93144875D01*
X137335000Y-93144875D02*
X137715952Y-93144875D01*
X137715952Y-93144875D02*
X137811190Y-93192494D01*
X137811190Y-93192494D02*
X137858809Y-93240113D01*
X137858809Y-93240113D02*
X137906428Y-93335351D01*
X137906428Y-93335351D02*
X137906428Y-93478208D01*
X137906428Y-93478208D02*
X137858809Y-93573446D01*
X137858809Y-93573446D02*
X137811190Y-93621065D01*
X137811190Y-93621065D02*
X137715952Y-93668684D01*
X137715952Y-93668684D02*
X137335000Y-93668684D01*
X138811190Y-94144875D02*
X138335000Y-94144875D01*
X138335000Y-94144875D02*
X138335000Y-93144875D01*
X139715952Y-94049636D02*
X139668333Y-94097256D01*
X139668333Y-94097256D02*
X139525476Y-94144875D01*
X139525476Y-94144875D02*
X139430238Y-94144875D01*
X139430238Y-94144875D02*
X139287381Y-94097256D01*
X139287381Y-94097256D02*
X139192143Y-94002017D01*
X139192143Y-94002017D02*
X139144524Y-93906779D01*
X139144524Y-93906779D02*
X139096905Y-93716303D01*
X139096905Y-93716303D02*
X139096905Y-93573446D01*
X139096905Y-93573446D02*
X139144524Y-93382970D01*
X139144524Y-93382970D02*
X139192143Y-93287732D01*
X139192143Y-93287732D02*
X139287381Y-93192494D01*
X139287381Y-93192494D02*
X139430238Y-93144875D01*
X139430238Y-93144875D02*
X139525476Y-93144875D01*
X139525476Y-93144875D02*
X139668333Y-93192494D01*
X139668333Y-93192494D02*
X139715952Y-93240113D01*
X140715952Y-94049636D02*
X140668333Y-94097256D01*
X140668333Y-94097256D02*
X140525476Y-94144875D01*
X140525476Y-94144875D02*
X140430238Y-94144875D01*
X140430238Y-94144875D02*
X140287381Y-94097256D01*
X140287381Y-94097256D02*
X140192143Y-94002017D01*
X140192143Y-94002017D02*
X140144524Y-93906779D01*
X140144524Y-93906779D02*
X140096905Y-93716303D01*
X140096905Y-93716303D02*
X140096905Y-93573446D01*
X140096905Y-93573446D02*
X140144524Y-93382970D01*
X140144524Y-93382970D02*
X140192143Y-93287732D01*
X140192143Y-93287732D02*
X140287381Y-93192494D01*
X140287381Y-93192494D02*
X140430238Y-93144875D01*
X140430238Y-93144875D02*
X140525476Y-93144875D01*
X140525476Y-93144875D02*
X140668333Y-93192494D01*
X140668333Y-93192494D02*
X140715952Y-93240113D01*
X142049286Y-93573446D02*
X141954048Y-93525827D01*
X141954048Y-93525827D02*
X141906429Y-93478208D01*
X141906429Y-93478208D02*
X141858810Y-93382970D01*
X141858810Y-93382970D02*
X141858810Y-93335351D01*
X141858810Y-93335351D02*
X141906429Y-93240113D01*
X141906429Y-93240113D02*
X141954048Y-93192494D01*
X141954048Y-93192494D02*
X142049286Y-93144875D01*
X142049286Y-93144875D02*
X142239762Y-93144875D01*
X142239762Y-93144875D02*
X142335000Y-93192494D01*
X142335000Y-93192494D02*
X142382619Y-93240113D01*
X142382619Y-93240113D02*
X142430238Y-93335351D01*
X142430238Y-93335351D02*
X142430238Y-93382970D01*
X142430238Y-93382970D02*
X142382619Y-93478208D01*
X142382619Y-93478208D02*
X142335000Y-93525827D01*
X142335000Y-93525827D02*
X142239762Y-93573446D01*
X142239762Y-93573446D02*
X142049286Y-93573446D01*
X142049286Y-93573446D02*
X141954048Y-93621065D01*
X141954048Y-93621065D02*
X141906429Y-93668684D01*
X141906429Y-93668684D02*
X141858810Y-93763922D01*
X141858810Y-93763922D02*
X141858810Y-93954398D01*
X141858810Y-93954398D02*
X141906429Y-94049636D01*
X141906429Y-94049636D02*
X141954048Y-94097256D01*
X141954048Y-94097256D02*
X142049286Y-94144875D01*
X142049286Y-94144875D02*
X142239762Y-94144875D01*
X142239762Y-94144875D02*
X142335000Y-94097256D01*
X142335000Y-94097256D02*
X142382619Y-94049636D01*
X142382619Y-94049636D02*
X142430238Y-93954398D01*
X142430238Y-93954398D02*
X142430238Y-93763922D01*
X142430238Y-93763922D02*
X142382619Y-93668684D01*
X142382619Y-93668684D02*
X142335000Y-93621065D01*
X142335000Y-93621065D02*
X142239762Y-93573446D01*
X143287381Y-93478208D02*
X143287381Y-94144875D01*
X143049286Y-93097256D02*
X142811191Y-93811541D01*
X142811191Y-93811541D02*
X143430238Y-93811541D01*
X137715952Y-95469104D02*
X138192142Y-95469104D01*
X137620714Y-95754819D02*
X137954047Y-94754819D01*
X137954047Y-94754819D02*
X138287380Y-95754819D01*
X139049285Y-95754819D02*
X139049285Y-94754819D01*
X139049285Y-95707200D02*
X138954047Y-95754819D01*
X138954047Y-95754819D02*
X138763571Y-95754819D01*
X138763571Y-95754819D02*
X138668333Y-95707200D01*
X138668333Y-95707200D02*
X138620714Y-95659580D01*
X138620714Y-95659580D02*
X138573095Y-95564342D01*
X138573095Y-95564342D02*
X138573095Y-95278628D01*
X138573095Y-95278628D02*
X138620714Y-95183390D01*
X138620714Y-95183390D02*
X138668333Y-95135771D01*
X138668333Y-95135771D02*
X138763571Y-95088152D01*
X138763571Y-95088152D02*
X138954047Y-95088152D01*
X138954047Y-95088152D02*
X139049285Y-95135771D01*
X139954047Y-95754819D02*
X139954047Y-95231009D01*
X139954047Y-95231009D02*
X139906428Y-95135771D01*
X139906428Y-95135771D02*
X139811190Y-95088152D01*
X139811190Y-95088152D02*
X139620714Y-95088152D01*
X139620714Y-95088152D02*
X139525476Y-95135771D01*
X139954047Y-95707200D02*
X139858809Y-95754819D01*
X139858809Y-95754819D02*
X139620714Y-95754819D01*
X139620714Y-95754819D02*
X139525476Y-95707200D01*
X139525476Y-95707200D02*
X139477857Y-95611961D01*
X139477857Y-95611961D02*
X139477857Y-95516723D01*
X139477857Y-95516723D02*
X139525476Y-95421485D01*
X139525476Y-95421485D02*
X139620714Y-95373866D01*
X139620714Y-95373866D02*
X139858809Y-95373866D01*
X139858809Y-95373866D02*
X139954047Y-95326247D01*
X140430238Y-95088152D02*
X140430238Y-96088152D01*
X140430238Y-95135771D02*
X140525476Y-95088152D01*
X140525476Y-95088152D02*
X140715952Y-95088152D01*
X140715952Y-95088152D02*
X140811190Y-95135771D01*
X140811190Y-95135771D02*
X140858809Y-95183390D01*
X140858809Y-95183390D02*
X140906428Y-95278628D01*
X140906428Y-95278628D02*
X140906428Y-95564342D01*
X140906428Y-95564342D02*
X140858809Y-95659580D01*
X140858809Y-95659580D02*
X140811190Y-95707200D01*
X140811190Y-95707200D02*
X140715952Y-95754819D01*
X140715952Y-95754819D02*
X140525476Y-95754819D01*
X140525476Y-95754819D02*
X140430238Y-95707200D01*
X141192143Y-95088152D02*
X141573095Y-95088152D01*
X141335000Y-94754819D02*
X141335000Y-95611961D01*
X141335000Y-95611961D02*
X141382619Y-95707200D01*
X141382619Y-95707200D02*
X141477857Y-95754819D01*
X141477857Y-95754819D02*
X141573095Y-95754819D01*
X142287381Y-95707200D02*
X142192143Y-95754819D01*
X142192143Y-95754819D02*
X142001667Y-95754819D01*
X142001667Y-95754819D02*
X141906429Y-95707200D01*
X141906429Y-95707200D02*
X141858810Y-95611961D01*
X141858810Y-95611961D02*
X141858810Y-95231009D01*
X141858810Y-95231009D02*
X141906429Y-95135771D01*
X141906429Y-95135771D02*
X142001667Y-95088152D01*
X142001667Y-95088152D02*
X142192143Y-95088152D01*
X142192143Y-95088152D02*
X142287381Y-95135771D01*
X142287381Y-95135771D02*
X142335000Y-95231009D01*
X142335000Y-95231009D02*
X142335000Y-95326247D01*
X142335000Y-95326247D02*
X141858810Y-95421485D01*
X142763572Y-95754819D02*
X142763572Y-95088152D01*
X142763572Y-95278628D02*
X142811191Y-95183390D01*
X142811191Y-95183390D02*
X142858810Y-95135771D01*
X142858810Y-95135771D02*
X142954048Y-95088152D01*
X142954048Y-95088152D02*
X143049286Y-95088152D01*
X126230238Y-44589819D02*
X126563571Y-45589819D01*
X126563571Y-45589819D02*
X126896904Y-44589819D01*
X127801666Y-45589819D02*
X127468333Y-45113628D01*
X127230238Y-45589819D02*
X127230238Y-44589819D01*
X127230238Y-44589819D02*
X127611190Y-44589819D01*
X127611190Y-44589819D02*
X127706428Y-44637438D01*
X127706428Y-44637438D02*
X127754047Y-44685057D01*
X127754047Y-44685057D02*
X127801666Y-44780295D01*
X127801666Y-44780295D02*
X127801666Y-44923152D01*
X127801666Y-44923152D02*
X127754047Y-45018390D01*
X127754047Y-45018390D02*
X127706428Y-45066009D01*
X127706428Y-45066009D02*
X127611190Y-45113628D01*
X127611190Y-45113628D02*
X127230238Y-45113628D01*
X128230238Y-45589819D02*
X128230238Y-44589819D01*
X128230238Y-44589819D02*
X128563571Y-45304104D01*
X128563571Y-45304104D02*
X128896904Y-44589819D01*
X128896904Y-44589819D02*
X128896904Y-45589819D01*
X157718570Y-116074819D02*
X157147142Y-116074819D01*
X157432856Y-116074819D02*
X157432856Y-115074819D01*
X157432856Y-115074819D02*
X157337618Y-115217676D01*
X157337618Y-115217676D02*
X157242380Y-115312914D01*
X157242380Y-115312914D02*
X157147142Y-115360533D01*
X158099523Y-115170057D02*
X158147142Y-115122438D01*
X158147142Y-115122438D02*
X158242380Y-115074819D01*
X158242380Y-115074819D02*
X158480475Y-115074819D01*
X158480475Y-115074819D02*
X158575713Y-115122438D01*
X158575713Y-115122438D02*
X158623332Y-115170057D01*
X158623332Y-115170057D02*
X158670951Y-115265295D01*
X158670951Y-115265295D02*
X158670951Y-115360533D01*
X158670951Y-115360533D02*
X158623332Y-115503390D01*
X158623332Y-115503390D02*
X158051904Y-116074819D01*
X158051904Y-116074819D02*
X158670951Y-116074819D01*
X158956666Y-115074819D02*
X159289999Y-116074819D01*
X159289999Y-116074819D02*
X159623332Y-115074819D01*
X160575714Y-115408152D02*
X160956666Y-115408152D01*
X160718571Y-115074819D02*
X160718571Y-115931961D01*
X160718571Y-115931961D02*
X160766190Y-116027200D01*
X160766190Y-116027200D02*
X160861428Y-116074819D01*
X160861428Y-116074819D02*
X160956666Y-116074819D01*
X161432857Y-116074819D02*
X161337619Y-116027200D01*
X161337619Y-116027200D02*
X161290000Y-115979580D01*
X161290000Y-115979580D02*
X161242381Y-115884342D01*
X161242381Y-115884342D02*
X161242381Y-115598628D01*
X161242381Y-115598628D02*
X161290000Y-115503390D01*
X161290000Y-115503390D02*
X161337619Y-115455771D01*
X161337619Y-115455771D02*
X161432857Y-115408152D01*
X161432857Y-115408152D02*
X161575714Y-115408152D01*
X161575714Y-115408152D02*
X161670952Y-115455771D01*
X161670952Y-115455771D02*
X161718571Y-115503390D01*
X161718571Y-115503390D02*
X161766190Y-115598628D01*
X161766190Y-115598628D02*
X161766190Y-115884342D01*
X161766190Y-115884342D02*
X161718571Y-115979580D01*
X161718571Y-115979580D02*
X161670952Y-116027200D01*
X161670952Y-116027200D02*
X161575714Y-116074819D01*
X161575714Y-116074819D02*
X161432857Y-116074819D01*
X163147143Y-115074819D02*
X163337619Y-115074819D01*
X163337619Y-115074819D02*
X163432857Y-115122438D01*
X163432857Y-115122438D02*
X163528095Y-115217676D01*
X163528095Y-115217676D02*
X163575714Y-115408152D01*
X163575714Y-115408152D02*
X163575714Y-115741485D01*
X163575714Y-115741485D02*
X163528095Y-115931961D01*
X163528095Y-115931961D02*
X163432857Y-116027200D01*
X163432857Y-116027200D02*
X163337619Y-116074819D01*
X163337619Y-116074819D02*
X163147143Y-116074819D01*
X163147143Y-116074819D02*
X163051905Y-116027200D01*
X163051905Y-116027200D02*
X162956667Y-115931961D01*
X162956667Y-115931961D02*
X162909048Y-115741485D01*
X162909048Y-115741485D02*
X162909048Y-115408152D01*
X162909048Y-115408152D02*
X162956667Y-115217676D01*
X162956667Y-115217676D02*
X163051905Y-115122438D01*
X163051905Y-115122438D02*
X163147143Y-115074819D01*
X164004286Y-115551009D02*
X164337619Y-115551009D01*
X164480476Y-116074819D02*
X164004286Y-116074819D01*
X164004286Y-116074819D02*
X164004286Y-115074819D01*
X164004286Y-115074819D02*
X164480476Y-115074819D01*
X165432857Y-116074819D02*
X164861429Y-116074819D01*
X165147143Y-116074819D02*
X165147143Y-115074819D01*
X165147143Y-115074819D02*
X165051905Y-115217676D01*
X165051905Y-115217676D02*
X164956667Y-115312914D01*
X164956667Y-115312914D02*
X164861429Y-115360533D01*
X134076839Y-120646819D02*
X133505411Y-120646819D01*
X133791125Y-120646819D02*
X133791125Y-119646819D01*
X133791125Y-119646819D02*
X133695887Y-119789676D01*
X133695887Y-119789676D02*
X133600649Y-119884914D01*
X133600649Y-119884914D02*
X133505411Y-119932533D01*
X153050952Y-50034819D02*
X152479524Y-50034819D01*
X152765238Y-50034819D02*
X152765238Y-49034819D01*
X152765238Y-49034819D02*
X152670000Y-49177676D01*
X152670000Y-49177676D02*
X152574762Y-49272914D01*
X152574762Y-49272914D02*
X152479524Y-49320533D01*
X153431905Y-49130057D02*
X153479524Y-49082438D01*
X153479524Y-49082438D02*
X153574762Y-49034819D01*
X153574762Y-49034819D02*
X153812857Y-49034819D01*
X153812857Y-49034819D02*
X153908095Y-49082438D01*
X153908095Y-49082438D02*
X153955714Y-49130057D01*
X153955714Y-49130057D02*
X154003333Y-49225295D01*
X154003333Y-49225295D02*
X154003333Y-49320533D01*
X154003333Y-49320533D02*
X153955714Y-49463390D01*
X153955714Y-49463390D02*
X153384286Y-50034819D01*
X153384286Y-50034819D02*
X154003333Y-50034819D01*
X154289048Y-49034819D02*
X154622381Y-50034819D01*
X154622381Y-50034819D02*
X154955714Y-49034819D01*
X115855714Y-56384819D02*
X115284286Y-56384819D01*
X115570000Y-56384819D02*
X115570000Y-55384819D01*
X115570000Y-55384819D02*
X115474762Y-55527676D01*
X115474762Y-55527676D02*
X115379524Y-55622914D01*
X115379524Y-55622914D02*
X115284286Y-55670533D01*
X135826667Y-50304819D02*
X136160000Y-51304819D01*
X136160000Y-51304819D02*
X136493333Y-50304819D01*
X137398095Y-51209580D02*
X137350476Y-51257200D01*
X137350476Y-51257200D02*
X137207619Y-51304819D01*
X137207619Y-51304819D02*
X137112381Y-51304819D01*
X137112381Y-51304819D02*
X136969524Y-51257200D01*
X136969524Y-51257200D02*
X136874286Y-51161961D01*
X136874286Y-51161961D02*
X136826667Y-51066723D01*
X136826667Y-51066723D02*
X136779048Y-50876247D01*
X136779048Y-50876247D02*
X136779048Y-50733390D01*
X136779048Y-50733390D02*
X136826667Y-50542914D01*
X136826667Y-50542914D02*
X136874286Y-50447676D01*
X136874286Y-50447676D02*
X136969524Y-50352438D01*
X136969524Y-50352438D02*
X137112381Y-50304819D01*
X137112381Y-50304819D02*
X137207619Y-50304819D01*
X137207619Y-50304819D02*
X137350476Y-50352438D01*
X137350476Y-50352438D02*
X137398095Y-50400057D01*
X138398095Y-51209580D02*
X138350476Y-51257200D01*
X138350476Y-51257200D02*
X138207619Y-51304819D01*
X138207619Y-51304819D02*
X138112381Y-51304819D01*
X138112381Y-51304819D02*
X137969524Y-51257200D01*
X137969524Y-51257200D02*
X137874286Y-51161961D01*
X137874286Y-51161961D02*
X137826667Y-51066723D01*
X137826667Y-51066723D02*
X137779048Y-50876247D01*
X137779048Y-50876247D02*
X137779048Y-50733390D01*
X137779048Y-50733390D02*
X137826667Y-50542914D01*
X137826667Y-50542914D02*
X137874286Y-50447676D01*
X137874286Y-50447676D02*
X137969524Y-50352438D01*
X137969524Y-50352438D02*
X138112381Y-50304819D01*
X138112381Y-50304819D02*
X138207619Y-50304819D01*
X138207619Y-50304819D02*
X138350476Y-50352438D01*
X138350476Y-50352438D02*
X138398095Y-50400057D01*
X149990350Y-57623152D02*
X149990350Y-58289819D01*
X149752255Y-57242200D02*
X149514160Y-57956485D01*
X149514160Y-57956485D02*
X150133207Y-57956485D01*
X150942731Y-57623152D02*
X150942731Y-58289819D01*
X150704636Y-57242200D02*
X150466541Y-57956485D01*
X150466541Y-57956485D02*
X151085588Y-57956485D01*
X117022809Y-116074819D02*
X117022809Y-115074819D01*
X117022809Y-115074819D02*
X117403761Y-115074819D01*
X117403761Y-115074819D02*
X117498999Y-115122438D01*
X117498999Y-115122438D02*
X117546618Y-115170057D01*
X117546618Y-115170057D02*
X117594237Y-115265295D01*
X117594237Y-115265295D02*
X117594237Y-115408152D01*
X117594237Y-115408152D02*
X117546618Y-115503390D01*
X117546618Y-115503390D02*
X117498999Y-115551009D01*
X117498999Y-115551009D02*
X117403761Y-115598628D01*
X117403761Y-115598628D02*
X117022809Y-115598628D01*
X118165666Y-116074819D02*
X118070428Y-116027200D01*
X118070428Y-116027200D02*
X118022809Y-115979580D01*
X118022809Y-115979580D02*
X117975190Y-115884342D01*
X117975190Y-115884342D02*
X117975190Y-115598628D01*
X117975190Y-115598628D02*
X118022809Y-115503390D01*
X118022809Y-115503390D02*
X118070428Y-115455771D01*
X118070428Y-115455771D02*
X118165666Y-115408152D01*
X118165666Y-115408152D02*
X118308523Y-115408152D01*
X118308523Y-115408152D02*
X118403761Y-115455771D01*
X118403761Y-115455771D02*
X118451380Y-115503390D01*
X118451380Y-115503390D02*
X118498999Y-115598628D01*
X118498999Y-115598628D02*
X118498999Y-115884342D01*
X118498999Y-115884342D02*
X118451380Y-115979580D01*
X118451380Y-115979580D02*
X118403761Y-116027200D01*
X118403761Y-116027200D02*
X118308523Y-116074819D01*
X118308523Y-116074819D02*
X118165666Y-116074819D01*
X118832333Y-115408152D02*
X119022809Y-116074819D01*
X119022809Y-116074819D02*
X119213285Y-115598628D01*
X119213285Y-115598628D02*
X119403761Y-116074819D01*
X119403761Y-116074819D02*
X119594237Y-115408152D01*
X120356142Y-116027200D02*
X120260904Y-116074819D01*
X120260904Y-116074819D02*
X120070428Y-116074819D01*
X120070428Y-116074819D02*
X119975190Y-116027200D01*
X119975190Y-116027200D02*
X119927571Y-115931961D01*
X119927571Y-115931961D02*
X119927571Y-115551009D01*
X119927571Y-115551009D02*
X119975190Y-115455771D01*
X119975190Y-115455771D02*
X120070428Y-115408152D01*
X120070428Y-115408152D02*
X120260904Y-115408152D01*
X120260904Y-115408152D02*
X120356142Y-115455771D01*
X120356142Y-115455771D02*
X120403761Y-115551009D01*
X120403761Y-115551009D02*
X120403761Y-115646247D01*
X120403761Y-115646247D02*
X119927571Y-115741485D01*
X120832333Y-116074819D02*
X120832333Y-115408152D01*
X120832333Y-115598628D02*
X120879952Y-115503390D01*
X120879952Y-115503390D02*
X120927571Y-115455771D01*
X120927571Y-115455771D02*
X121022809Y-115408152D01*
X121022809Y-115408152D02*
X121118047Y-115408152D01*
X125440839Y-128139819D02*
X124869411Y-128139819D01*
X125155125Y-128139819D02*
X125155125Y-127139819D01*
X125155125Y-127139819D02*
X125059887Y-127282676D01*
X125059887Y-127282676D02*
X124964649Y-127377914D01*
X124964649Y-127377914D02*
X124869411Y-127425533D01*
X126819819Y-104941666D02*
X126343628Y-105274999D01*
X126819819Y-105513094D02*
X125819819Y-105513094D01*
X125819819Y-105513094D02*
X125819819Y-105132142D01*
X125819819Y-105132142D02*
X125867438Y-105036904D01*
X125867438Y-105036904D02*
X125915057Y-104989285D01*
X125915057Y-104989285D02*
X126010295Y-104941666D01*
X126010295Y-104941666D02*
X126153152Y-104941666D01*
X126153152Y-104941666D02*
X126248390Y-104989285D01*
X126248390Y-104989285D02*
X126296009Y-105036904D01*
X126296009Y-105036904D02*
X126343628Y-105132142D01*
X126343628Y-105132142D02*
X126343628Y-105513094D01*
X126819819Y-103989285D02*
X126819819Y-104560713D01*
X126819819Y-104274999D02*
X125819819Y-104274999D01*
X125819819Y-104274999D02*
X125962676Y-104370237D01*
X125962676Y-104370237D02*
X126057914Y-104465475D01*
X126057914Y-104465475D02*
X126105533Y-104560713D01*
X128359819Y-106560713D02*
X128359819Y-105941666D01*
X128359819Y-105941666D02*
X128740771Y-106274999D01*
X128740771Y-106274999D02*
X128740771Y-106132142D01*
X128740771Y-106132142D02*
X128788390Y-106036904D01*
X128788390Y-106036904D02*
X128836009Y-105989285D01*
X128836009Y-105989285D02*
X128931247Y-105941666D01*
X128931247Y-105941666D02*
X129169342Y-105941666D01*
X129169342Y-105941666D02*
X129264580Y-105989285D01*
X129264580Y-105989285D02*
X129312200Y-106036904D01*
X129312200Y-106036904D02*
X129359819Y-106132142D01*
X129359819Y-106132142D02*
X129359819Y-106417856D01*
X129359819Y-106417856D02*
X129312200Y-106513094D01*
X129312200Y-106513094D02*
X129264580Y-106560713D01*
X128359819Y-105608332D02*
X128359819Y-104989285D01*
X128359819Y-104989285D02*
X128740771Y-105322618D01*
X128740771Y-105322618D02*
X128740771Y-105179761D01*
X128740771Y-105179761D02*
X128788390Y-105084523D01*
X128788390Y-105084523D02*
X128836009Y-105036904D01*
X128836009Y-105036904D02*
X128931247Y-104989285D01*
X128931247Y-104989285D02*
X129169342Y-104989285D01*
X129169342Y-104989285D02*
X129264580Y-105036904D01*
X129264580Y-105036904D02*
X129312200Y-105084523D01*
X129312200Y-105084523D02*
X129359819Y-105179761D01*
X129359819Y-105179761D02*
X129359819Y-105465475D01*
X129359819Y-105465475D02*
X129312200Y-105560713D01*
X129312200Y-105560713D02*
X129264580Y-105608332D01*
X128359819Y-104370237D02*
X128359819Y-104274999D01*
X128359819Y-104274999D02*
X128407438Y-104179761D01*
X128407438Y-104179761D02*
X128455057Y-104132142D01*
X128455057Y-104132142D02*
X128550295Y-104084523D01*
X128550295Y-104084523D02*
X128740771Y-104036904D01*
X128740771Y-104036904D02*
X128978866Y-104036904D01*
X128978866Y-104036904D02*
X129169342Y-104084523D01*
X129169342Y-104084523D02*
X129264580Y-104132142D01*
X129264580Y-104132142D02*
X129312200Y-104179761D01*
X129312200Y-104179761D02*
X129359819Y-104274999D01*
X129359819Y-104274999D02*
X129359819Y-104370237D01*
X129359819Y-104370237D02*
X129312200Y-104465475D01*
X129312200Y-104465475D02*
X129264580Y-104513094D01*
X129264580Y-104513094D02*
X129169342Y-104560713D01*
X129169342Y-104560713D02*
X128978866Y-104608332D01*
X128978866Y-104608332D02*
X128740771Y-104608332D01*
X128740771Y-104608332D02*
X128550295Y-104560713D01*
X128550295Y-104560713D02*
X128455057Y-104513094D01*
X128455057Y-104513094D02*
X128407438Y-104465475D01*
X128407438Y-104465475D02*
X128359819Y-104370237D01*
X129359819Y-103036904D02*
X128883628Y-103370237D01*
X129359819Y-103608332D02*
X128359819Y-103608332D01*
X128359819Y-103608332D02*
X128359819Y-103227380D01*
X128359819Y-103227380D02*
X128407438Y-103132142D01*
X128407438Y-103132142D02*
X128455057Y-103084523D01*
X128455057Y-103084523D02*
X128550295Y-103036904D01*
X128550295Y-103036904D02*
X128693152Y-103036904D01*
X128693152Y-103036904D02*
X128788390Y-103084523D01*
X128788390Y-103084523D02*
X128836009Y-103132142D01*
X128836009Y-103132142D02*
X128883628Y-103227380D01*
X128883628Y-103227380D02*
X128883628Y-103608332D01*
X139573095Y-91529819D02*
X139573095Y-92339342D01*
X139573095Y-92339342D02*
X139620714Y-92434580D01*
X139620714Y-92434580D02*
X139668333Y-92482200D01*
X139668333Y-92482200D02*
X139763571Y-92529819D01*
X139763571Y-92529819D02*
X139954047Y-92529819D01*
X139954047Y-92529819D02*
X140049285Y-92482200D01*
X140049285Y-92482200D02*
X140096904Y-92434580D01*
X140096904Y-92434580D02*
X140144523Y-92339342D01*
X140144523Y-92339342D02*
X140144523Y-91529819D01*
X140573095Y-91625057D02*
X140620714Y-91577438D01*
X140620714Y-91577438D02*
X140715952Y-91529819D01*
X140715952Y-91529819D02*
X140954047Y-91529819D01*
X140954047Y-91529819D02*
X141049285Y-91577438D01*
X141049285Y-91577438D02*
X141096904Y-91625057D01*
X141096904Y-91625057D02*
X141144523Y-91720295D01*
X141144523Y-91720295D02*
X141144523Y-91815533D01*
X141144523Y-91815533D02*
X141096904Y-91958390D01*
X141096904Y-91958390D02*
X140525476Y-92529819D01*
X140525476Y-92529819D02*
X141144523Y-92529819D01*
X130706905Y-119199819D02*
X130706905Y-118199819D01*
X130706905Y-118199819D02*
X130945000Y-118199819D01*
X130945000Y-118199819D02*
X131087857Y-118247438D01*
X131087857Y-118247438D02*
X131183095Y-118342676D01*
X131183095Y-118342676D02*
X131230714Y-118437914D01*
X131230714Y-118437914D02*
X131278333Y-118628390D01*
X131278333Y-118628390D02*
X131278333Y-118771247D01*
X131278333Y-118771247D02*
X131230714Y-118961723D01*
X131230714Y-118961723D02*
X131183095Y-119056961D01*
X131183095Y-119056961D02*
X131087857Y-119152200D01*
X131087857Y-119152200D02*
X130945000Y-119199819D01*
X130945000Y-119199819D02*
X130706905Y-119199819D01*
X132230714Y-119199819D02*
X131659286Y-119199819D01*
X131945000Y-119199819D02*
X131945000Y-118199819D01*
X131945000Y-118199819D02*
X131849762Y-118342676D01*
X131849762Y-118342676D02*
X131754524Y-118437914D01*
X131754524Y-118437914D02*
X131659286Y-118485533D01*
X133016666Y-114389819D02*
X133016666Y-115104104D01*
X133016666Y-115104104D02*
X132969047Y-115246961D01*
X132969047Y-115246961D02*
X132873809Y-115342200D01*
X132873809Y-115342200D02*
X132730952Y-115389819D01*
X132730952Y-115389819D02*
X132635714Y-115389819D01*
X133921428Y-114723152D02*
X133921428Y-115389819D01*
X133683333Y-114342200D02*
X133445238Y-115056485D01*
X133445238Y-115056485D02*
X134064285Y-115056485D01*
X137392580Y-70960357D02*
X137440200Y-71007976D01*
X137440200Y-71007976D02*
X137487819Y-71150833D01*
X137487819Y-71150833D02*
X137487819Y-71246071D01*
X137487819Y-71246071D02*
X137440200Y-71388928D01*
X137440200Y-71388928D02*
X137344961Y-71484166D01*
X137344961Y-71484166D02*
X137249723Y-71531785D01*
X137249723Y-71531785D02*
X137059247Y-71579404D01*
X137059247Y-71579404D02*
X136916390Y-71579404D01*
X136916390Y-71579404D02*
X136725914Y-71531785D01*
X136725914Y-71531785D02*
X136630676Y-71484166D01*
X136630676Y-71484166D02*
X136535438Y-71388928D01*
X136535438Y-71388928D02*
X136487819Y-71246071D01*
X136487819Y-71246071D02*
X136487819Y-71150833D01*
X136487819Y-71150833D02*
X136535438Y-71007976D01*
X136535438Y-71007976D02*
X136583057Y-70960357D01*
X137487819Y-70007976D02*
X137487819Y-70579404D01*
X137487819Y-70293690D02*
X136487819Y-70293690D01*
X136487819Y-70293690D02*
X136630676Y-70388928D01*
X136630676Y-70388928D02*
X136725914Y-70484166D01*
X136725914Y-70484166D02*
X136773533Y-70579404D01*
X136821152Y-69150833D02*
X137487819Y-69150833D01*
X136440200Y-69388928D02*
X137154485Y-69627023D01*
X137154485Y-69627023D02*
X137154485Y-69007976D01*
X122279580Y-57316666D02*
X122327200Y-57364285D01*
X122327200Y-57364285D02*
X122374819Y-57507142D01*
X122374819Y-57507142D02*
X122374819Y-57602380D01*
X122374819Y-57602380D02*
X122327200Y-57745237D01*
X122327200Y-57745237D02*
X122231961Y-57840475D01*
X122231961Y-57840475D02*
X122136723Y-57888094D01*
X122136723Y-57888094D02*
X121946247Y-57935713D01*
X121946247Y-57935713D02*
X121803390Y-57935713D01*
X121803390Y-57935713D02*
X121612914Y-57888094D01*
X121612914Y-57888094D02*
X121517676Y-57840475D01*
X121517676Y-57840475D02*
X121422438Y-57745237D01*
X121422438Y-57745237D02*
X121374819Y-57602380D01*
X121374819Y-57602380D02*
X121374819Y-57507142D01*
X121374819Y-57507142D02*
X121422438Y-57364285D01*
X121422438Y-57364285D02*
X121470057Y-57316666D01*
X121803390Y-56745237D02*
X121755771Y-56840475D01*
X121755771Y-56840475D02*
X121708152Y-56888094D01*
X121708152Y-56888094D02*
X121612914Y-56935713D01*
X121612914Y-56935713D02*
X121565295Y-56935713D01*
X121565295Y-56935713D02*
X121470057Y-56888094D01*
X121470057Y-56888094D02*
X121422438Y-56840475D01*
X121422438Y-56840475D02*
X121374819Y-56745237D01*
X121374819Y-56745237D02*
X121374819Y-56554761D01*
X121374819Y-56554761D02*
X121422438Y-56459523D01*
X121422438Y-56459523D02*
X121470057Y-56411904D01*
X121470057Y-56411904D02*
X121565295Y-56364285D01*
X121565295Y-56364285D02*
X121612914Y-56364285D01*
X121612914Y-56364285D02*
X121708152Y-56411904D01*
X121708152Y-56411904D02*
X121755771Y-56459523D01*
X121755771Y-56459523D02*
X121803390Y-56554761D01*
X121803390Y-56554761D02*
X121803390Y-56745237D01*
X121803390Y-56745237D02*
X121851009Y-56840475D01*
X121851009Y-56840475D02*
X121898628Y-56888094D01*
X121898628Y-56888094D02*
X121993866Y-56935713D01*
X121993866Y-56935713D02*
X122184342Y-56935713D01*
X122184342Y-56935713D02*
X122279580Y-56888094D01*
X122279580Y-56888094D02*
X122327200Y-56840475D01*
X122327200Y-56840475D02*
X122374819Y-56745237D01*
X122374819Y-56745237D02*
X122374819Y-56554761D01*
X122374819Y-56554761D02*
X122327200Y-56459523D01*
X122327200Y-56459523D02*
X122279580Y-56411904D01*
X122279580Y-56411904D02*
X122184342Y-56364285D01*
X122184342Y-56364285D02*
X121993866Y-56364285D01*
X121993866Y-56364285D02*
X121898628Y-56411904D01*
X121898628Y-56411904D02*
X121851009Y-56459523D01*
X121851009Y-56459523D02*
X121803390Y-56554761D01*
X137392580Y-87637857D02*
X137440200Y-87685476D01*
X137440200Y-87685476D02*
X137487819Y-87828333D01*
X137487819Y-87828333D02*
X137487819Y-87923571D01*
X137487819Y-87923571D02*
X137440200Y-88066428D01*
X137440200Y-88066428D02*
X137344961Y-88161666D01*
X137344961Y-88161666D02*
X137249723Y-88209285D01*
X137249723Y-88209285D02*
X137059247Y-88256904D01*
X137059247Y-88256904D02*
X136916390Y-88256904D01*
X136916390Y-88256904D02*
X136725914Y-88209285D01*
X136725914Y-88209285D02*
X136630676Y-88161666D01*
X136630676Y-88161666D02*
X136535438Y-88066428D01*
X136535438Y-88066428D02*
X136487819Y-87923571D01*
X136487819Y-87923571D02*
X136487819Y-87828333D01*
X136487819Y-87828333D02*
X136535438Y-87685476D01*
X136535438Y-87685476D02*
X136583057Y-87637857D01*
X137487819Y-86685476D02*
X137487819Y-87256904D01*
X137487819Y-86971190D02*
X136487819Y-86971190D01*
X136487819Y-86971190D02*
X136630676Y-87066428D01*
X136630676Y-87066428D02*
X136725914Y-87161666D01*
X136725914Y-87161666D02*
X136773533Y-87256904D01*
X136487819Y-85828333D02*
X136487819Y-86018809D01*
X136487819Y-86018809D02*
X136535438Y-86114047D01*
X136535438Y-86114047D02*
X136583057Y-86161666D01*
X136583057Y-86161666D02*
X136725914Y-86256904D01*
X136725914Y-86256904D02*
X136916390Y-86304523D01*
X136916390Y-86304523D02*
X137297342Y-86304523D01*
X137297342Y-86304523D02*
X137392580Y-86256904D01*
X137392580Y-86256904D02*
X137440200Y-86209285D01*
X137440200Y-86209285D02*
X137487819Y-86114047D01*
X137487819Y-86114047D02*
X137487819Y-85923571D01*
X137487819Y-85923571D02*
X137440200Y-85828333D01*
X137440200Y-85828333D02*
X137392580Y-85780714D01*
X137392580Y-85780714D02*
X137297342Y-85733095D01*
X137297342Y-85733095D02*
X137059247Y-85733095D01*
X137059247Y-85733095D02*
X136964009Y-85780714D01*
X136964009Y-85780714D02*
X136916390Y-85828333D01*
X136916390Y-85828333D02*
X136868771Y-85923571D01*
X136868771Y-85923571D02*
X136868771Y-86114047D01*
X136868771Y-86114047D02*
X136916390Y-86209285D01*
X136916390Y-86209285D02*
X136964009Y-86256904D01*
X136964009Y-86256904D02*
X137059247Y-86304523D01*
X156741905Y-119199819D02*
X156741905Y-118199819D01*
X156741905Y-118199819D02*
X156980000Y-118199819D01*
X156980000Y-118199819D02*
X157122857Y-118247438D01*
X157122857Y-118247438D02*
X157218095Y-118342676D01*
X157218095Y-118342676D02*
X157265714Y-118437914D01*
X157265714Y-118437914D02*
X157313333Y-118628390D01*
X157313333Y-118628390D02*
X157313333Y-118771247D01*
X157313333Y-118771247D02*
X157265714Y-118961723D01*
X157265714Y-118961723D02*
X157218095Y-119056961D01*
X157218095Y-119056961D02*
X157122857Y-119152200D01*
X157122857Y-119152200D02*
X156980000Y-119199819D01*
X156980000Y-119199819D02*
X156741905Y-119199819D01*
X157694286Y-118295057D02*
X157741905Y-118247438D01*
X157741905Y-118247438D02*
X157837143Y-118199819D01*
X157837143Y-118199819D02*
X158075238Y-118199819D01*
X158075238Y-118199819D02*
X158170476Y-118247438D01*
X158170476Y-118247438D02*
X158218095Y-118295057D01*
X158218095Y-118295057D02*
X158265714Y-118390295D01*
X158265714Y-118390295D02*
X158265714Y-118485533D01*
X158265714Y-118485533D02*
X158218095Y-118628390D01*
X158218095Y-118628390D02*
X157646667Y-119199819D01*
X157646667Y-119199819D02*
X158265714Y-119199819D01*
X145584580Y-70960357D02*
X145632200Y-71007976D01*
X145632200Y-71007976D02*
X145679819Y-71150833D01*
X145679819Y-71150833D02*
X145679819Y-71246071D01*
X145679819Y-71246071D02*
X145632200Y-71388928D01*
X145632200Y-71388928D02*
X145536961Y-71484166D01*
X145536961Y-71484166D02*
X145441723Y-71531785D01*
X145441723Y-71531785D02*
X145251247Y-71579404D01*
X145251247Y-71579404D02*
X145108390Y-71579404D01*
X145108390Y-71579404D02*
X144917914Y-71531785D01*
X144917914Y-71531785D02*
X144822676Y-71484166D01*
X144822676Y-71484166D02*
X144727438Y-71388928D01*
X144727438Y-71388928D02*
X144679819Y-71246071D01*
X144679819Y-71246071D02*
X144679819Y-71150833D01*
X144679819Y-71150833D02*
X144727438Y-71007976D01*
X144727438Y-71007976D02*
X144775057Y-70960357D01*
X145679819Y-70007976D02*
X145679819Y-70579404D01*
X145679819Y-70293690D02*
X144679819Y-70293690D01*
X144679819Y-70293690D02*
X144822676Y-70388928D01*
X144822676Y-70388928D02*
X144917914Y-70484166D01*
X144917914Y-70484166D02*
X144965533Y-70579404D01*
X144679819Y-69103214D02*
X144679819Y-69579404D01*
X144679819Y-69579404D02*
X145156009Y-69627023D01*
X145156009Y-69627023D02*
X145108390Y-69579404D01*
X145108390Y-69579404D02*
X145060771Y-69484166D01*
X145060771Y-69484166D02*
X145060771Y-69246071D01*
X145060771Y-69246071D02*
X145108390Y-69150833D01*
X145108390Y-69150833D02*
X145156009Y-69103214D01*
X145156009Y-69103214D02*
X145251247Y-69055595D01*
X145251247Y-69055595D02*
X145489342Y-69055595D01*
X145489342Y-69055595D02*
X145584580Y-69103214D01*
X145584580Y-69103214D02*
X145632200Y-69150833D01*
X145632200Y-69150833D02*
X145679819Y-69246071D01*
X145679819Y-69246071D02*
X145679819Y-69484166D01*
X145679819Y-69484166D02*
X145632200Y-69579404D01*
X145632200Y-69579404D02*
X145584580Y-69627023D01*
X124759819Y-54173333D02*
X125474104Y-54173333D01*
X125474104Y-54173333D02*
X125616961Y-54220952D01*
X125616961Y-54220952D02*
X125712200Y-54316190D01*
X125712200Y-54316190D02*
X125759819Y-54459047D01*
X125759819Y-54459047D02*
X125759819Y-54554285D01*
X125759819Y-53697142D02*
X124759819Y-53697142D01*
X124759819Y-53697142D02*
X124759819Y-53316190D01*
X124759819Y-53316190D02*
X124807438Y-53220952D01*
X124807438Y-53220952D02*
X124855057Y-53173333D01*
X124855057Y-53173333D02*
X124950295Y-53125714D01*
X124950295Y-53125714D02*
X125093152Y-53125714D01*
X125093152Y-53125714D02*
X125188390Y-53173333D01*
X125188390Y-53173333D02*
X125236009Y-53220952D01*
X125236009Y-53220952D02*
X125283628Y-53316190D01*
X125283628Y-53316190D02*
X125283628Y-53697142D01*
X124855057Y-52744761D02*
X124807438Y-52697142D01*
X124807438Y-52697142D02*
X124759819Y-52601904D01*
X124759819Y-52601904D02*
X124759819Y-52363809D01*
X124759819Y-52363809D02*
X124807438Y-52268571D01*
X124807438Y-52268571D02*
X124855057Y-52220952D01*
X124855057Y-52220952D02*
X124950295Y-52173333D01*
X124950295Y-52173333D02*
X125045533Y-52173333D01*
X125045533Y-52173333D02*
X125188390Y-52220952D01*
X125188390Y-52220952D02*
X125759819Y-52792380D01*
X125759819Y-52792380D02*
X125759819Y-52173333D01*
X159109580Y-75096666D02*
X159157200Y-75144285D01*
X159157200Y-75144285D02*
X159204819Y-75287142D01*
X159204819Y-75287142D02*
X159204819Y-75382380D01*
X159204819Y-75382380D02*
X159157200Y-75525237D01*
X159157200Y-75525237D02*
X159061961Y-75620475D01*
X159061961Y-75620475D02*
X158966723Y-75668094D01*
X158966723Y-75668094D02*
X158776247Y-75715713D01*
X158776247Y-75715713D02*
X158633390Y-75715713D01*
X158633390Y-75715713D02*
X158442914Y-75668094D01*
X158442914Y-75668094D02*
X158347676Y-75620475D01*
X158347676Y-75620475D02*
X158252438Y-75525237D01*
X158252438Y-75525237D02*
X158204819Y-75382380D01*
X158204819Y-75382380D02*
X158204819Y-75287142D01*
X158204819Y-75287142D02*
X158252438Y-75144285D01*
X158252438Y-75144285D02*
X158300057Y-75096666D01*
X158204819Y-74763332D02*
X158204819Y-74144285D01*
X158204819Y-74144285D02*
X158585771Y-74477618D01*
X158585771Y-74477618D02*
X158585771Y-74334761D01*
X158585771Y-74334761D02*
X158633390Y-74239523D01*
X158633390Y-74239523D02*
X158681009Y-74191904D01*
X158681009Y-74191904D02*
X158776247Y-74144285D01*
X158776247Y-74144285D02*
X159014342Y-74144285D01*
X159014342Y-74144285D02*
X159109580Y-74191904D01*
X159109580Y-74191904D02*
X159157200Y-74239523D01*
X159157200Y-74239523D02*
X159204819Y-74334761D01*
X159204819Y-74334761D02*
X159204819Y-74620475D01*
X159204819Y-74620475D02*
X159157200Y-74715713D01*
X159157200Y-74715713D02*
X159109580Y-74763332D01*
X159109580Y-59856666D02*
X159157200Y-59904285D01*
X159157200Y-59904285D02*
X159204819Y-60047142D01*
X159204819Y-60047142D02*
X159204819Y-60142380D01*
X159204819Y-60142380D02*
X159157200Y-60285237D01*
X159157200Y-60285237D02*
X159061961Y-60380475D01*
X159061961Y-60380475D02*
X158966723Y-60428094D01*
X158966723Y-60428094D02*
X158776247Y-60475713D01*
X158776247Y-60475713D02*
X158633390Y-60475713D01*
X158633390Y-60475713D02*
X158442914Y-60428094D01*
X158442914Y-60428094D02*
X158347676Y-60380475D01*
X158347676Y-60380475D02*
X158252438Y-60285237D01*
X158252438Y-60285237D02*
X158204819Y-60142380D01*
X158204819Y-60142380D02*
X158204819Y-60047142D01*
X158204819Y-60047142D02*
X158252438Y-59904285D01*
X158252438Y-59904285D02*
X158300057Y-59856666D01*
X158538152Y-58999523D02*
X159204819Y-58999523D01*
X158157200Y-59237618D02*
X158871485Y-59475713D01*
X158871485Y-59475713D02*
X158871485Y-58856666D01*
X120332332Y-121131800D02*
X120189475Y-121084180D01*
X120189475Y-121084180D02*
X119951380Y-121084180D01*
X119951380Y-121084180D02*
X119856142Y-121131800D01*
X119856142Y-121131800D02*
X119808523Y-121179419D01*
X119808523Y-121179419D02*
X119760904Y-121274657D01*
X119760904Y-121274657D02*
X119760904Y-121369895D01*
X119760904Y-121369895D02*
X119808523Y-121465133D01*
X119808523Y-121465133D02*
X119856142Y-121512752D01*
X119856142Y-121512752D02*
X119951380Y-121560371D01*
X119951380Y-121560371D02*
X120141856Y-121607990D01*
X120141856Y-121607990D02*
X120237094Y-121655609D01*
X120237094Y-121655609D02*
X120284713Y-121703228D01*
X120284713Y-121703228D02*
X120332332Y-121798466D01*
X120332332Y-121798466D02*
X120332332Y-121893704D01*
X120332332Y-121893704D02*
X120284713Y-121988942D01*
X120284713Y-121988942D02*
X120237094Y-122036561D01*
X120237094Y-122036561D02*
X120141856Y-122084180D01*
X120141856Y-122084180D02*
X119903761Y-122084180D01*
X119903761Y-122084180D02*
X119760904Y-122036561D01*
X119427570Y-122084180D02*
X119189475Y-121084180D01*
X119189475Y-121084180D02*
X118998999Y-121798466D01*
X118998999Y-121798466D02*
X118808523Y-121084180D01*
X118808523Y-121084180D02*
X118570428Y-122084180D01*
X117665666Y-121084180D02*
X118237094Y-121084180D01*
X117951380Y-121084180D02*
X117951380Y-122084180D01*
X117951380Y-122084180D02*
X118046618Y-121941323D01*
X118046618Y-121941323D02*
X118141856Y-121846085D01*
X118141856Y-121846085D02*
X118237094Y-121798466D01*
X145584580Y-87637857D02*
X145632200Y-87685476D01*
X145632200Y-87685476D02*
X145679819Y-87828333D01*
X145679819Y-87828333D02*
X145679819Y-87923571D01*
X145679819Y-87923571D02*
X145632200Y-88066428D01*
X145632200Y-88066428D02*
X145536961Y-88161666D01*
X145536961Y-88161666D02*
X145441723Y-88209285D01*
X145441723Y-88209285D02*
X145251247Y-88256904D01*
X145251247Y-88256904D02*
X145108390Y-88256904D01*
X145108390Y-88256904D02*
X144917914Y-88209285D01*
X144917914Y-88209285D02*
X144822676Y-88161666D01*
X144822676Y-88161666D02*
X144727438Y-88066428D01*
X144727438Y-88066428D02*
X144679819Y-87923571D01*
X144679819Y-87923571D02*
X144679819Y-87828333D01*
X144679819Y-87828333D02*
X144727438Y-87685476D01*
X144727438Y-87685476D02*
X144775057Y-87637857D01*
X145679819Y-86685476D02*
X145679819Y-87256904D01*
X145679819Y-86971190D02*
X144679819Y-86971190D01*
X144679819Y-86971190D02*
X144822676Y-87066428D01*
X144822676Y-87066428D02*
X144917914Y-87161666D01*
X144917914Y-87161666D02*
X144965533Y-87256904D01*
X144679819Y-86352142D02*
X144679819Y-85733095D01*
X144679819Y-85733095D02*
X145060771Y-86066428D01*
X145060771Y-86066428D02*
X145060771Y-85923571D01*
X145060771Y-85923571D02*
X145108390Y-85828333D01*
X145108390Y-85828333D02*
X145156009Y-85780714D01*
X145156009Y-85780714D02*
X145251247Y-85733095D01*
X145251247Y-85733095D02*
X145489342Y-85733095D01*
X145489342Y-85733095D02*
X145584580Y-85780714D01*
X145584580Y-85780714D02*
X145632200Y-85828333D01*
X145632200Y-85828333D02*
X145679819Y-85923571D01*
X145679819Y-85923571D02*
X145679819Y-86209285D01*
X145679819Y-86209285D02*
X145632200Y-86304523D01*
X145632200Y-86304523D02*
X145584580Y-86352142D01*
D11*
X145405095Y-47971419D02*
X145405095Y-48780942D01*
X145405095Y-48780942D02*
X145452714Y-48876180D01*
X145452714Y-48876180D02*
X145500333Y-48923800D01*
X145500333Y-48923800D02*
X145595571Y-48971419D01*
X145595571Y-48971419D02*
X145786047Y-48971419D01*
X145786047Y-48971419D02*
X145881285Y-48923800D01*
X145881285Y-48923800D02*
X145928904Y-48876180D01*
X145928904Y-48876180D02*
X145976523Y-48780942D01*
X145976523Y-48780942D02*
X145976523Y-47971419D01*
X146928904Y-47971419D02*
X146452714Y-47971419D01*
X146452714Y-47971419D02*
X146405095Y-48447609D01*
X146405095Y-48447609D02*
X146452714Y-48399990D01*
X146452714Y-48399990D02*
X146547952Y-48352371D01*
X146547952Y-48352371D02*
X146786047Y-48352371D01*
X146786047Y-48352371D02*
X146881285Y-48399990D01*
X146881285Y-48399990D02*
X146928904Y-48447609D01*
X146928904Y-48447609D02*
X146976523Y-48542847D01*
X146976523Y-48542847D02*
X146976523Y-48780942D01*
X146976523Y-48780942D02*
X146928904Y-48876180D01*
X146928904Y-48876180D02*
X146881285Y-48923800D01*
X146881285Y-48923800D02*
X146786047Y-48971419D01*
X146786047Y-48971419D02*
X146547952Y-48971419D01*
X146547952Y-48971419D02*
X146452714Y-48923800D01*
X146452714Y-48923800D02*
X146405095Y-48876180D01*
D10*
X143071762Y-50669819D02*
X143071762Y-49669819D01*
X143071762Y-49669819D02*
X143309857Y-49669819D01*
X143309857Y-49669819D02*
X143452714Y-49717438D01*
X143452714Y-49717438D02*
X143547952Y-49812676D01*
X143547952Y-49812676D02*
X143595571Y-49907914D01*
X143595571Y-49907914D02*
X143643190Y-50098390D01*
X143643190Y-50098390D02*
X143643190Y-50241247D01*
X143643190Y-50241247D02*
X143595571Y-50431723D01*
X143595571Y-50431723D02*
X143547952Y-50526961D01*
X143547952Y-50526961D02*
X143452714Y-50622200D01*
X143452714Y-50622200D02*
X143309857Y-50669819D01*
X143309857Y-50669819D02*
X143071762Y-50669819D01*
X144405095Y-50146009D02*
X144071762Y-50146009D01*
X144071762Y-50669819D02*
X144071762Y-49669819D01*
X144071762Y-49669819D02*
X144547952Y-49669819D01*
X145500333Y-50669819D02*
X145167000Y-50193628D01*
X144928905Y-50669819D02*
X144928905Y-49669819D01*
X144928905Y-49669819D02*
X145309857Y-49669819D01*
X145309857Y-49669819D02*
X145405095Y-49717438D01*
X145405095Y-49717438D02*
X145452714Y-49765057D01*
X145452714Y-49765057D02*
X145500333Y-49860295D01*
X145500333Y-49860295D02*
X145500333Y-50003152D01*
X145500333Y-50003152D02*
X145452714Y-50098390D01*
X145452714Y-50098390D02*
X145405095Y-50146009D01*
X145405095Y-50146009D02*
X145309857Y-50193628D01*
X145309857Y-50193628D02*
X144928905Y-50193628D01*
X146119381Y-49669819D02*
X146214619Y-49669819D01*
X146214619Y-49669819D02*
X146309857Y-49717438D01*
X146309857Y-49717438D02*
X146357476Y-49765057D01*
X146357476Y-49765057D02*
X146405095Y-49860295D01*
X146405095Y-49860295D02*
X146452714Y-50050771D01*
X146452714Y-50050771D02*
X146452714Y-50288866D01*
X146452714Y-50288866D02*
X146405095Y-50479342D01*
X146405095Y-50479342D02*
X146357476Y-50574580D01*
X146357476Y-50574580D02*
X146309857Y-50622200D01*
X146309857Y-50622200D02*
X146214619Y-50669819D01*
X146214619Y-50669819D02*
X146119381Y-50669819D01*
X146119381Y-50669819D02*
X146024143Y-50622200D01*
X146024143Y-50622200D02*
X145976524Y-50574580D01*
X145976524Y-50574580D02*
X145928905Y-50479342D01*
X145928905Y-50479342D02*
X145881286Y-50288866D01*
X145881286Y-50288866D02*
X145881286Y-50050771D01*
X145881286Y-50050771D02*
X145928905Y-49860295D01*
X145928905Y-49860295D02*
X145976524Y-49765057D01*
X145976524Y-49765057D02*
X146024143Y-49717438D01*
X146024143Y-49717438D02*
X146119381Y-49669819D01*
X146928905Y-50669819D02*
X147119381Y-50669819D01*
X147119381Y-50669819D02*
X147214619Y-50622200D01*
X147214619Y-50622200D02*
X147262238Y-50574580D01*
X147262238Y-50574580D02*
X147357476Y-50431723D01*
X147357476Y-50431723D02*
X147405095Y-50241247D01*
X147405095Y-50241247D02*
X147405095Y-49860295D01*
X147405095Y-49860295D02*
X147357476Y-49765057D01*
X147357476Y-49765057D02*
X147309857Y-49717438D01*
X147309857Y-49717438D02*
X147214619Y-49669819D01*
X147214619Y-49669819D02*
X147024143Y-49669819D01*
X147024143Y-49669819D02*
X146928905Y-49717438D01*
X146928905Y-49717438D02*
X146881286Y-49765057D01*
X146881286Y-49765057D02*
X146833667Y-49860295D01*
X146833667Y-49860295D02*
X146833667Y-50098390D01*
X146833667Y-50098390D02*
X146881286Y-50193628D01*
X146881286Y-50193628D02*
X146928905Y-50241247D01*
X146928905Y-50241247D02*
X147024143Y-50288866D01*
X147024143Y-50288866D02*
X147214619Y-50288866D01*
X147214619Y-50288866D02*
X147309857Y-50241247D01*
X147309857Y-50241247D02*
X147357476Y-50193628D01*
X147357476Y-50193628D02*
X147405095Y-50098390D01*
X148309857Y-49669819D02*
X147833667Y-49669819D01*
X147833667Y-49669819D02*
X147786048Y-50146009D01*
X147786048Y-50146009D02*
X147833667Y-50098390D01*
X147833667Y-50098390D02*
X147928905Y-50050771D01*
X147928905Y-50050771D02*
X148167000Y-50050771D01*
X148167000Y-50050771D02*
X148262238Y-50098390D01*
X148262238Y-50098390D02*
X148309857Y-50146009D01*
X148309857Y-50146009D02*
X148357476Y-50241247D01*
X148357476Y-50241247D02*
X148357476Y-50479342D01*
X148357476Y-50479342D02*
X148309857Y-50574580D01*
X148309857Y-50574580D02*
X148262238Y-50622200D01*
X148262238Y-50622200D02*
X148167000Y-50669819D01*
X148167000Y-50669819D02*
X147928905Y-50669819D01*
X147928905Y-50669819D02*
X147833667Y-50622200D01*
X147833667Y-50622200D02*
X147786048Y-50574580D01*
X148738429Y-49765057D02*
X148786048Y-49717438D01*
X148786048Y-49717438D02*
X148881286Y-49669819D01*
X148881286Y-49669819D02*
X149119381Y-49669819D01*
X149119381Y-49669819D02*
X149214619Y-49717438D01*
X149214619Y-49717438D02*
X149262238Y-49765057D01*
X149262238Y-49765057D02*
X149309857Y-49860295D01*
X149309857Y-49860295D02*
X149309857Y-49955533D01*
X149309857Y-49955533D02*
X149262238Y-50098390D01*
X149262238Y-50098390D02*
X148690810Y-50669819D01*
X148690810Y-50669819D02*
X149309857Y-50669819D01*
X138419779Y-49430616D02*
X139181684Y-49430616D01*
X140419779Y-49811569D02*
X140419779Y-48811569D01*
X140895969Y-49811569D02*
X140895969Y-48811569D01*
X140895969Y-48811569D02*
X141467397Y-49811569D01*
X141467397Y-49811569D02*
X141467397Y-48811569D01*
X149303744Y-52717819D02*
X149494220Y-52717819D01*
X149494220Y-52717819D02*
X149589458Y-52765438D01*
X149589458Y-52765438D02*
X149684696Y-52860676D01*
X149684696Y-52860676D02*
X149732315Y-53051152D01*
X149732315Y-53051152D02*
X149732315Y-53384485D01*
X149732315Y-53384485D02*
X149684696Y-53574961D01*
X149684696Y-53574961D02*
X149589458Y-53670200D01*
X149589458Y-53670200D02*
X149494220Y-53717819D01*
X149494220Y-53717819D02*
X149303744Y-53717819D01*
X149303744Y-53717819D02*
X149208506Y-53670200D01*
X149208506Y-53670200D02*
X149113268Y-53574961D01*
X149113268Y-53574961D02*
X149065649Y-53384485D01*
X149065649Y-53384485D02*
X149065649Y-53051152D01*
X149065649Y-53051152D02*
X149113268Y-52860676D01*
X149113268Y-52860676D02*
X149208506Y-52765438D01*
X149208506Y-52765438D02*
X149303744Y-52717819D01*
X150160887Y-52717819D02*
X150160887Y-53527342D01*
X150160887Y-53527342D02*
X150208506Y-53622580D01*
X150208506Y-53622580D02*
X150256125Y-53670200D01*
X150256125Y-53670200D02*
X150351363Y-53717819D01*
X150351363Y-53717819D02*
X150541839Y-53717819D01*
X150541839Y-53717819D02*
X150637077Y-53670200D01*
X150637077Y-53670200D02*
X150684696Y-53622580D01*
X150684696Y-53622580D02*
X150732315Y-53527342D01*
X150732315Y-53527342D02*
X150732315Y-52717819D01*
X151065649Y-52717819D02*
X151637077Y-52717819D01*
X151351363Y-53717819D02*
X151351363Y-52717819D01*
X152732316Y-53336866D02*
X153494221Y-53336866D01*
X149303744Y-44811569D02*
X149494220Y-44811569D01*
X149494220Y-44811569D02*
X149589458Y-44859188D01*
X149589458Y-44859188D02*
X149684696Y-44954426D01*
X149684696Y-44954426D02*
X149732315Y-45144902D01*
X149732315Y-45144902D02*
X149732315Y-45478235D01*
X149732315Y-45478235D02*
X149684696Y-45668711D01*
X149684696Y-45668711D02*
X149589458Y-45763950D01*
X149589458Y-45763950D02*
X149494220Y-45811569D01*
X149494220Y-45811569D02*
X149303744Y-45811569D01*
X149303744Y-45811569D02*
X149208506Y-45763950D01*
X149208506Y-45763950D02*
X149113268Y-45668711D01*
X149113268Y-45668711D02*
X149065649Y-45478235D01*
X149065649Y-45478235D02*
X149065649Y-45144902D01*
X149065649Y-45144902D02*
X149113268Y-44954426D01*
X149113268Y-44954426D02*
X149208506Y-44859188D01*
X149208506Y-44859188D02*
X149303744Y-44811569D01*
X150160887Y-44811569D02*
X150160887Y-45621092D01*
X150160887Y-45621092D02*
X150208506Y-45716330D01*
X150208506Y-45716330D02*
X150256125Y-45763950D01*
X150256125Y-45763950D02*
X150351363Y-45811569D01*
X150351363Y-45811569D02*
X150541839Y-45811569D01*
X150541839Y-45811569D02*
X150637077Y-45763950D01*
X150637077Y-45763950D02*
X150684696Y-45716330D01*
X150684696Y-45716330D02*
X150732315Y-45621092D01*
X150732315Y-45621092D02*
X150732315Y-44811569D01*
X151065649Y-44811569D02*
X151637077Y-44811569D01*
X151351363Y-45811569D02*
X151351363Y-44811569D01*
X152732316Y-45430616D02*
X153494221Y-45430616D01*
X153113268Y-45811569D02*
X153113268Y-45049664D01*
X138419779Y-53336866D02*
X139181684Y-53336866D01*
X138800731Y-53717819D02*
X138800731Y-52955914D01*
X140419779Y-53717819D02*
X140419779Y-52717819D01*
X140895969Y-53717819D02*
X140895969Y-52717819D01*
X140895969Y-52717819D02*
X141467397Y-53717819D01*
X141467397Y-53717819D02*
X141467397Y-52717819D01*
X122279580Y-81446666D02*
X122327200Y-81494285D01*
X122327200Y-81494285D02*
X122374819Y-81637142D01*
X122374819Y-81637142D02*
X122374819Y-81732380D01*
X122374819Y-81732380D02*
X122327200Y-81875237D01*
X122327200Y-81875237D02*
X122231961Y-81970475D01*
X122231961Y-81970475D02*
X122136723Y-82018094D01*
X122136723Y-82018094D02*
X121946247Y-82065713D01*
X121946247Y-82065713D02*
X121803390Y-82065713D01*
X121803390Y-82065713D02*
X121612914Y-82018094D01*
X121612914Y-82018094D02*
X121517676Y-81970475D01*
X121517676Y-81970475D02*
X121422438Y-81875237D01*
X121422438Y-81875237D02*
X121374819Y-81732380D01*
X121374819Y-81732380D02*
X121374819Y-81637142D01*
X121374819Y-81637142D02*
X121422438Y-81494285D01*
X121422438Y-81494285D02*
X121470057Y-81446666D01*
X121374819Y-80589523D02*
X121374819Y-80779999D01*
X121374819Y-80779999D02*
X121422438Y-80875237D01*
X121422438Y-80875237D02*
X121470057Y-80922856D01*
X121470057Y-80922856D02*
X121612914Y-81018094D01*
X121612914Y-81018094D02*
X121803390Y-81065713D01*
X121803390Y-81065713D02*
X122184342Y-81065713D01*
X122184342Y-81065713D02*
X122279580Y-81018094D01*
X122279580Y-81018094D02*
X122327200Y-80970475D01*
X122327200Y-80970475D02*
X122374819Y-80875237D01*
X122374819Y-80875237D02*
X122374819Y-80684761D01*
X122374819Y-80684761D02*
X122327200Y-80589523D01*
X122327200Y-80589523D02*
X122279580Y-80541904D01*
X122279580Y-80541904D02*
X122184342Y-80494285D01*
X122184342Y-80494285D02*
X121946247Y-80494285D01*
X121946247Y-80494285D02*
X121851009Y-80541904D01*
X121851009Y-80541904D02*
X121803390Y-80589523D01*
X121803390Y-80589523D02*
X121755771Y-80684761D01*
X121755771Y-80684761D02*
X121755771Y-80875237D01*
X121755771Y-80875237D02*
X121803390Y-80970475D01*
X121803390Y-80970475D02*
X121851009Y-81018094D01*
X121851009Y-81018094D02*
X121946247Y-81065713D01*
X122279580Y-67476666D02*
X122327200Y-67524285D01*
X122327200Y-67524285D02*
X122374819Y-67667142D01*
X122374819Y-67667142D02*
X122374819Y-67762380D01*
X122374819Y-67762380D02*
X122327200Y-67905237D01*
X122327200Y-67905237D02*
X122231961Y-68000475D01*
X122231961Y-68000475D02*
X122136723Y-68048094D01*
X122136723Y-68048094D02*
X121946247Y-68095713D01*
X121946247Y-68095713D02*
X121803390Y-68095713D01*
X121803390Y-68095713D02*
X121612914Y-68048094D01*
X121612914Y-68048094D02*
X121517676Y-68000475D01*
X121517676Y-68000475D02*
X121422438Y-67905237D01*
X121422438Y-67905237D02*
X121374819Y-67762380D01*
X121374819Y-67762380D02*
X121374819Y-67667142D01*
X121374819Y-67667142D02*
X121422438Y-67524285D01*
X121422438Y-67524285D02*
X121470057Y-67476666D01*
X121374819Y-67143332D02*
X121374819Y-66476666D01*
X121374819Y-66476666D02*
X122374819Y-66905237D01*
X159109580Y-100536666D02*
X159157200Y-100584285D01*
X159157200Y-100584285D02*
X159204819Y-100727142D01*
X159204819Y-100727142D02*
X159204819Y-100822380D01*
X159204819Y-100822380D02*
X159157200Y-100965237D01*
X159157200Y-100965237D02*
X159061961Y-101060475D01*
X159061961Y-101060475D02*
X158966723Y-101108094D01*
X158966723Y-101108094D02*
X158776247Y-101155713D01*
X158776247Y-101155713D02*
X158633390Y-101155713D01*
X158633390Y-101155713D02*
X158442914Y-101108094D01*
X158442914Y-101108094D02*
X158347676Y-101060475D01*
X158347676Y-101060475D02*
X158252438Y-100965237D01*
X158252438Y-100965237D02*
X158204819Y-100822380D01*
X158204819Y-100822380D02*
X158204819Y-100727142D01*
X158204819Y-100727142D02*
X158252438Y-100584285D01*
X158252438Y-100584285D02*
X158300057Y-100536666D01*
X159204819Y-99584285D02*
X159204819Y-100155713D01*
X159204819Y-99869999D02*
X158204819Y-99869999D01*
X158204819Y-99869999D02*
X158347676Y-99965237D01*
X158347676Y-99965237D02*
X158442914Y-100060475D01*
X158442914Y-100060475D02*
X158490533Y-100155713D01*
X154759819Y-104941666D02*
X154283628Y-105274999D01*
X154759819Y-105513094D02*
X153759819Y-105513094D01*
X153759819Y-105513094D02*
X153759819Y-105132142D01*
X153759819Y-105132142D02*
X153807438Y-105036904D01*
X153807438Y-105036904D02*
X153855057Y-104989285D01*
X153855057Y-104989285D02*
X153950295Y-104941666D01*
X153950295Y-104941666D02*
X154093152Y-104941666D01*
X154093152Y-104941666D02*
X154188390Y-104989285D01*
X154188390Y-104989285D02*
X154236009Y-105036904D01*
X154236009Y-105036904D02*
X154283628Y-105132142D01*
X154283628Y-105132142D02*
X154283628Y-105513094D01*
X153759819Y-104608332D02*
X153759819Y-103989285D01*
X153759819Y-103989285D02*
X154140771Y-104322618D01*
X154140771Y-104322618D02*
X154140771Y-104179761D01*
X154140771Y-104179761D02*
X154188390Y-104084523D01*
X154188390Y-104084523D02*
X154236009Y-104036904D01*
X154236009Y-104036904D02*
X154331247Y-103989285D01*
X154331247Y-103989285D02*
X154569342Y-103989285D01*
X154569342Y-103989285D02*
X154664580Y-104036904D01*
X154664580Y-104036904D02*
X154712200Y-104084523D01*
X154712200Y-104084523D02*
X154759819Y-104179761D01*
X154759819Y-104179761D02*
X154759819Y-104465475D01*
X154759819Y-104465475D02*
X154712200Y-104560713D01*
X154712200Y-104560713D02*
X154664580Y-104608332D01*
X152219819Y-104989285D02*
X152219819Y-105560713D01*
X152219819Y-105274999D02*
X151219819Y-105274999D01*
X151219819Y-105274999D02*
X151362676Y-105370237D01*
X151362676Y-105370237D02*
X151457914Y-105465475D01*
X151457914Y-105465475D02*
X151505533Y-105560713D01*
X152219819Y-104560713D02*
X151219819Y-104560713D01*
X152219819Y-103989285D02*
X151648390Y-104417856D01*
X151219819Y-103989285D02*
X151791247Y-104560713D01*
X159109580Y-89066666D02*
X159157200Y-89114285D01*
X159157200Y-89114285D02*
X159204819Y-89257142D01*
X159204819Y-89257142D02*
X159204819Y-89352380D01*
X159204819Y-89352380D02*
X159157200Y-89495237D01*
X159157200Y-89495237D02*
X159061961Y-89590475D01*
X159061961Y-89590475D02*
X158966723Y-89638094D01*
X158966723Y-89638094D02*
X158776247Y-89685713D01*
X158776247Y-89685713D02*
X158633390Y-89685713D01*
X158633390Y-89685713D02*
X158442914Y-89638094D01*
X158442914Y-89638094D02*
X158347676Y-89590475D01*
X158347676Y-89590475D02*
X158252438Y-89495237D01*
X158252438Y-89495237D02*
X158204819Y-89352380D01*
X158204819Y-89352380D02*
X158204819Y-89257142D01*
X158204819Y-89257142D02*
X158252438Y-89114285D01*
X158252438Y-89114285D02*
X158300057Y-89066666D01*
X158300057Y-88685713D02*
X158252438Y-88638094D01*
X158252438Y-88638094D02*
X158204819Y-88542856D01*
X158204819Y-88542856D02*
X158204819Y-88304761D01*
X158204819Y-88304761D02*
X158252438Y-88209523D01*
X158252438Y-88209523D02*
X158300057Y-88161904D01*
X158300057Y-88161904D02*
X158395295Y-88114285D01*
X158395295Y-88114285D02*
X158490533Y-88114285D01*
X158490533Y-88114285D02*
X158633390Y-88161904D01*
X158633390Y-88161904D02*
X159204819Y-88733332D01*
X159204819Y-88733332D02*
X159204819Y-88114285D01*
X148256666Y-127724819D02*
X148256666Y-128439104D01*
X148256666Y-128439104D02*
X148209047Y-128581961D01*
X148209047Y-128581961D02*
X148113809Y-128677200D01*
X148113809Y-128677200D02*
X147970952Y-128724819D01*
X147970952Y-128724819D02*
X147875714Y-128724819D01*
X148637619Y-127724819D02*
X149256666Y-127724819D01*
X149256666Y-127724819D02*
X148923333Y-128105771D01*
X148923333Y-128105771D02*
X149066190Y-128105771D01*
X149066190Y-128105771D02*
X149161428Y-128153390D01*
X149161428Y-128153390D02*
X149209047Y-128201009D01*
X149209047Y-128201009D02*
X149256666Y-128296247D01*
X149256666Y-128296247D02*
X149256666Y-128534342D01*
X149256666Y-128534342D02*
X149209047Y-128629580D01*
X149209047Y-128629580D02*
X149161428Y-128677200D01*
X149161428Y-128677200D02*
X149066190Y-128724819D01*
X149066190Y-128724819D02*
X148780476Y-128724819D01*
X148780476Y-128724819D02*
X148685238Y-128677200D01*
X148685238Y-128677200D02*
X148637619Y-128629580D01*
X122279580Y-96686666D02*
X122327200Y-96734285D01*
X122327200Y-96734285D02*
X122374819Y-96877142D01*
X122374819Y-96877142D02*
X122374819Y-96972380D01*
X122374819Y-96972380D02*
X122327200Y-97115237D01*
X122327200Y-97115237D02*
X122231961Y-97210475D01*
X122231961Y-97210475D02*
X122136723Y-97258094D01*
X122136723Y-97258094D02*
X121946247Y-97305713D01*
X121946247Y-97305713D02*
X121803390Y-97305713D01*
X121803390Y-97305713D02*
X121612914Y-97258094D01*
X121612914Y-97258094D02*
X121517676Y-97210475D01*
X121517676Y-97210475D02*
X121422438Y-97115237D01*
X121422438Y-97115237D02*
X121374819Y-96972380D01*
X121374819Y-96972380D02*
X121374819Y-96877142D01*
X121374819Y-96877142D02*
X121422438Y-96734285D01*
X121422438Y-96734285D02*
X121470057Y-96686666D01*
X121374819Y-95781904D02*
X121374819Y-96258094D01*
X121374819Y-96258094D02*
X121851009Y-96305713D01*
X121851009Y-96305713D02*
X121803390Y-96258094D01*
X121803390Y-96258094D02*
X121755771Y-96162856D01*
X121755771Y-96162856D02*
X121755771Y-95924761D01*
X121755771Y-95924761D02*
X121803390Y-95829523D01*
X121803390Y-95829523D02*
X121851009Y-95781904D01*
X121851009Y-95781904D02*
X121946247Y-95734285D01*
X121946247Y-95734285D02*
X122184342Y-95734285D01*
X122184342Y-95734285D02*
X122279580Y-95781904D01*
X122279580Y-95781904D02*
X122327200Y-95829523D01*
X122327200Y-95829523D02*
X122374819Y-95924761D01*
X122374819Y-95924761D02*
X122374819Y-96162856D01*
X122374819Y-96162856D02*
X122327200Y-96258094D01*
X122327200Y-96258094D02*
X122279580Y-96305713D01*
X124380666Y-124168819D02*
X124380666Y-124883104D01*
X124380666Y-124883104D02*
X124333047Y-125025961D01*
X124333047Y-125025961D02*
X124237809Y-125121200D01*
X124237809Y-125121200D02*
X124094952Y-125168819D01*
X124094952Y-125168819D02*
X123999714Y-125168819D01*
X125380666Y-125168819D02*
X124809238Y-125168819D01*
X125094952Y-125168819D02*
X125094952Y-124168819D01*
X125094952Y-124168819D02*
X124999714Y-124311676D01*
X124999714Y-124311676D02*
X124904476Y-124406914D01*
X124904476Y-124406914D02*
X124809238Y-124454533D01*
X135289819Y-63651904D02*
X136099342Y-63651904D01*
X136099342Y-63651904D02*
X136194580Y-63604285D01*
X136194580Y-63604285D02*
X136242200Y-63556666D01*
X136242200Y-63556666D02*
X136289819Y-63461428D01*
X136289819Y-63461428D02*
X136289819Y-63270952D01*
X136289819Y-63270952D02*
X136242200Y-63175714D01*
X136242200Y-63175714D02*
X136194580Y-63128095D01*
X136194580Y-63128095D02*
X136099342Y-63080476D01*
X136099342Y-63080476D02*
X135289819Y-63080476D01*
X136289819Y-62080476D02*
X136289819Y-62651904D01*
X136289819Y-62366190D02*
X135289819Y-62366190D01*
X135289819Y-62366190D02*
X135432676Y-62461428D01*
X135432676Y-62461428D02*
X135527914Y-62556666D01*
X135527914Y-62556666D02*
X135575533Y-62651904D01*
X124759819Y-48458333D02*
X125474104Y-48458333D01*
X125474104Y-48458333D02*
X125616961Y-48505952D01*
X125616961Y-48505952D02*
X125712200Y-48601190D01*
X125712200Y-48601190D02*
X125759819Y-48744047D01*
X125759819Y-48744047D02*
X125759819Y-48839285D01*
X125759819Y-47982142D02*
X124759819Y-47982142D01*
X124759819Y-47982142D02*
X124759819Y-47601190D01*
X124759819Y-47601190D02*
X124807438Y-47505952D01*
X124807438Y-47505952D02*
X124855057Y-47458333D01*
X124855057Y-47458333D02*
X124950295Y-47410714D01*
X124950295Y-47410714D02*
X125093152Y-47410714D01*
X125093152Y-47410714D02*
X125188390Y-47458333D01*
X125188390Y-47458333D02*
X125236009Y-47505952D01*
X125236009Y-47505952D02*
X125283628Y-47601190D01*
X125283628Y-47601190D02*
X125283628Y-47982142D01*
X125759819Y-46458333D02*
X125759819Y-47029761D01*
X125759819Y-46744047D02*
X124759819Y-46744047D01*
X124759819Y-46744047D02*
X124902676Y-46839285D01*
X124902676Y-46839285D02*
X124997914Y-46934523D01*
X124997914Y-46934523D02*
X125045533Y-47029761D01*
X162967200Y-51625332D02*
X163014819Y-51482475D01*
X163014819Y-51482475D02*
X163014819Y-51244380D01*
X163014819Y-51244380D02*
X162967200Y-51149142D01*
X162967200Y-51149142D02*
X162919580Y-51101523D01*
X162919580Y-51101523D02*
X162824342Y-51053904D01*
X162824342Y-51053904D02*
X162729104Y-51053904D01*
X162729104Y-51053904D02*
X162633866Y-51101523D01*
X162633866Y-51101523D02*
X162586247Y-51149142D01*
X162586247Y-51149142D02*
X162538628Y-51244380D01*
X162538628Y-51244380D02*
X162491009Y-51434856D01*
X162491009Y-51434856D02*
X162443390Y-51530094D01*
X162443390Y-51530094D02*
X162395771Y-51577713D01*
X162395771Y-51577713D02*
X162300533Y-51625332D01*
X162300533Y-51625332D02*
X162205295Y-51625332D01*
X162205295Y-51625332D02*
X162110057Y-51577713D01*
X162110057Y-51577713D02*
X162062438Y-51530094D01*
X162062438Y-51530094D02*
X162014819Y-51434856D01*
X162014819Y-51434856D02*
X162014819Y-51196761D01*
X162014819Y-51196761D02*
X162062438Y-51053904D01*
X162014819Y-50720570D02*
X163014819Y-50482475D01*
X163014819Y-50482475D02*
X162300533Y-50291999D01*
X162300533Y-50291999D02*
X163014819Y-50101523D01*
X163014819Y-50101523D02*
X162014819Y-49863428D01*
X162110057Y-49530094D02*
X162062438Y-49482475D01*
X162062438Y-49482475D02*
X162014819Y-49387237D01*
X162014819Y-49387237D02*
X162014819Y-49149142D01*
X162014819Y-49149142D02*
X162062438Y-49053904D01*
X162062438Y-49053904D02*
X162110057Y-49006285D01*
X162110057Y-49006285D02*
X162205295Y-48958666D01*
X162205295Y-48958666D02*
X162300533Y-48958666D01*
X162300533Y-48958666D02*
X162443390Y-49006285D01*
X162443390Y-49006285D02*
X163014819Y-49577713D01*
X163014819Y-49577713D02*
X163014819Y-48958666D01*
X150949819Y-61761666D02*
X150473628Y-62094999D01*
X150949819Y-62333094D02*
X149949819Y-62333094D01*
X149949819Y-62333094D02*
X149949819Y-61952142D01*
X149949819Y-61952142D02*
X149997438Y-61856904D01*
X149997438Y-61856904D02*
X150045057Y-61809285D01*
X150045057Y-61809285D02*
X150140295Y-61761666D01*
X150140295Y-61761666D02*
X150283152Y-61761666D01*
X150283152Y-61761666D02*
X150378390Y-61809285D01*
X150378390Y-61809285D02*
X150426009Y-61856904D01*
X150426009Y-61856904D02*
X150473628Y-61952142D01*
X150473628Y-61952142D02*
X150473628Y-62333094D01*
X150045057Y-61380713D02*
X149997438Y-61333094D01*
X149997438Y-61333094D02*
X149949819Y-61237856D01*
X149949819Y-61237856D02*
X149949819Y-60999761D01*
X149949819Y-60999761D02*
X149997438Y-60904523D01*
X149997438Y-60904523D02*
X150045057Y-60856904D01*
X150045057Y-60856904D02*
X150140295Y-60809285D01*
X150140295Y-60809285D02*
X150235533Y-60809285D01*
X150235533Y-60809285D02*
X150378390Y-60856904D01*
X150378390Y-60856904D02*
X150949819Y-61428332D01*
X150949819Y-61428332D02*
X150949819Y-60809285D01*
X152585057Y-62856904D02*
X152537438Y-62809285D01*
X152537438Y-62809285D02*
X152489819Y-62714047D01*
X152489819Y-62714047D02*
X152489819Y-62475952D01*
X152489819Y-62475952D02*
X152537438Y-62380714D01*
X152537438Y-62380714D02*
X152585057Y-62333095D01*
X152585057Y-62333095D02*
X152680295Y-62285476D01*
X152680295Y-62285476D02*
X152775533Y-62285476D01*
X152775533Y-62285476D02*
X152918390Y-62333095D01*
X152918390Y-62333095D02*
X153489819Y-62904523D01*
X153489819Y-62904523D02*
X153489819Y-62285476D01*
X153489819Y-61856904D02*
X152489819Y-61856904D01*
X153489819Y-61285476D02*
X152918390Y-61714047D01*
X152489819Y-61285476D02*
X153061247Y-61856904D01*
X152585057Y-60904523D02*
X152537438Y-60856904D01*
X152537438Y-60856904D02*
X152489819Y-60761666D01*
X152489819Y-60761666D02*
X152489819Y-60523571D01*
X152489819Y-60523571D02*
X152537438Y-60428333D01*
X152537438Y-60428333D02*
X152585057Y-60380714D01*
X152585057Y-60380714D02*
X152680295Y-60333095D01*
X152680295Y-60333095D02*
X152775533Y-60333095D01*
X152775533Y-60333095D02*
X152918390Y-60380714D01*
X152918390Y-60380714D02*
X153489819Y-60952142D01*
X153489819Y-60952142D02*
X153489819Y-60333095D01*
X115236666Y-53209819D02*
X115236666Y-53924104D01*
X115236666Y-53924104D02*
X115189047Y-54066961D01*
X115189047Y-54066961D02*
X115093809Y-54162200D01*
X115093809Y-54162200D02*
X114950952Y-54209819D01*
X114950952Y-54209819D02*
X114855714Y-54209819D01*
X115665238Y-53305057D02*
X115712857Y-53257438D01*
X115712857Y-53257438D02*
X115808095Y-53209819D01*
X115808095Y-53209819D02*
X116046190Y-53209819D01*
X116046190Y-53209819D02*
X116141428Y-53257438D01*
X116141428Y-53257438D02*
X116189047Y-53305057D01*
X116189047Y-53305057D02*
X116236666Y-53400295D01*
X116236666Y-53400295D02*
X116236666Y-53495533D01*
X116236666Y-53495533D02*
X116189047Y-53638390D01*
X116189047Y-53638390D02*
X115617619Y-54209819D01*
X115617619Y-54209819D02*
X116236666Y-54209819D01*
X139573095Y-99784819D02*
X139573095Y-100594342D01*
X139573095Y-100594342D02*
X139620714Y-100689580D01*
X139620714Y-100689580D02*
X139668333Y-100737200D01*
X139668333Y-100737200D02*
X139763571Y-100784819D01*
X139763571Y-100784819D02*
X139954047Y-100784819D01*
X139954047Y-100784819D02*
X140049285Y-100737200D01*
X140049285Y-100737200D02*
X140096904Y-100689580D01*
X140096904Y-100689580D02*
X140144523Y-100594342D01*
X140144523Y-100594342D02*
X140144523Y-99784819D01*
X141049285Y-100118152D02*
X141049285Y-100784819D01*
X140811190Y-99737200D02*
X140573095Y-100451485D01*
X140573095Y-100451485D02*
X141192142Y-100451485D01*
X135289819Y-80136904D02*
X136099342Y-80136904D01*
X136099342Y-80136904D02*
X136194580Y-80089285D01*
X136194580Y-80089285D02*
X136242200Y-80041666D01*
X136242200Y-80041666D02*
X136289819Y-79946428D01*
X136289819Y-79946428D02*
X136289819Y-79755952D01*
X136289819Y-79755952D02*
X136242200Y-79660714D01*
X136242200Y-79660714D02*
X136194580Y-79613095D01*
X136194580Y-79613095D02*
X136099342Y-79565476D01*
X136099342Y-79565476D02*
X135289819Y-79565476D01*
X135289819Y-79184523D02*
X135289819Y-78565476D01*
X135289819Y-78565476D02*
X135670771Y-78898809D01*
X135670771Y-78898809D02*
X135670771Y-78755952D01*
X135670771Y-78755952D02*
X135718390Y-78660714D01*
X135718390Y-78660714D02*
X135766009Y-78613095D01*
X135766009Y-78613095D02*
X135861247Y-78565476D01*
X135861247Y-78565476D02*
X136099342Y-78565476D01*
X136099342Y-78565476D02*
X136194580Y-78613095D01*
X136194580Y-78613095D02*
X136242200Y-78660714D01*
X136242200Y-78660714D02*
X136289819Y-78755952D01*
X136289819Y-78755952D02*
X136289819Y-79041666D01*
X136289819Y-79041666D02*
X136242200Y-79136904D01*
X136242200Y-79136904D02*
X136194580Y-79184523D01*
D12*
%TO.C,R1*%
X127535000Y-101505000D02*
X127535000Y-108045000D01*
X127535000Y-108045000D02*
X127865000Y-108045000D01*
X127865000Y-101505000D02*
X127535000Y-101505000D01*
X129945000Y-101505000D02*
X130275000Y-101505000D01*
X130275000Y-101505000D02*
X130275000Y-108045000D01*
X130275000Y-108045000D02*
X129945000Y-108045000D01*
D11*
%TO.C,U2*%
X112268000Y-55880000D02*
X168402000Y-55880000D01*
X112268000Y-110490000D02*
X112268000Y-55880000D01*
X168402000Y-55880000D02*
X168402000Y-110490000D01*
X168402000Y-110490000D02*
X112268000Y-110490000D01*
X114300000Y-56515000D02*
X119380000Y-56515000D01*
X119380000Y-109855000D01*
X114300000Y-109855000D01*
X114300000Y-56515000D01*
X161290000Y-56515000D02*
X166370000Y-56515000D01*
X166370000Y-109855000D01*
X161290000Y-109855000D01*
X161290000Y-56515000D01*
D12*
%TO.C,D1*%
X126075000Y-117509000D02*
X126075000Y-117665000D01*
X126075000Y-119825000D02*
X126075000Y-119981000D01*
X126075000Y-117509484D02*
G75*
G02*
X129306397Y-117664939I1560000J-1235516D01*
G01*
X126594039Y-117665000D02*
G75*
G02*
X128675910Y-117664951I1040961J-1080000D01*
G01*
X128675910Y-119825049D02*
G75*
G02*
X126594039Y-119825000I-1040910J1080049D01*
G01*
X129306397Y-119825061D02*
G75*
G02*
X126075000Y-119980516I-1671397J1080061D01*
G01*
%TO.C,J4*%
X134490000Y-114185000D02*
X155070000Y-114185000D01*
X134490000Y-123305000D02*
X134490000Y-114185000D01*
X135790000Y-115495000D02*
X153770000Y-115495000D01*
X135790000Y-121995000D02*
X135790000Y-115495000D01*
X139200000Y-124695000D02*
X140200000Y-124695000D01*
X139700000Y-123695000D02*
X139200000Y-124695000D01*
X140200000Y-124695000D02*
X139700000Y-123695000D01*
X142730000Y-121995000D02*
X135790000Y-121995000D01*
X142730000Y-123305000D02*
X142730000Y-121995000D01*
X146830000Y-121995000D02*
X146830000Y-121995000D01*
X146830000Y-121995000D02*
X146830000Y-123305000D01*
X153770000Y-115495000D02*
X153770000Y-121995000D01*
X153770000Y-121995000D02*
X146830000Y-121995000D01*
X155070000Y-114185000D02*
X155070000Y-123305000D01*
X155070000Y-123305000D02*
X134490000Y-123305000D01*
%TO.C,C14*%
X137809000Y-67682500D02*
X137809000Y-72067500D01*
X140829000Y-67682500D02*
X137809000Y-67682500D01*
X140829000Y-72067500D02*
X140829000Y-67682500D01*
%TO.C,C8*%
X120550000Y-59085000D02*
X120865000Y-59085000D01*
X120550000Y-64025000D02*
X120550000Y-59085000D01*
X120550000Y-64025000D02*
X120865000Y-64025000D01*
X122975000Y-59085000D02*
X123290000Y-59085000D01*
X122975000Y-64025000D02*
X123290000Y-64025000D01*
X123290000Y-64025000D02*
X123290000Y-59085000D01*
%TO.C,C16*%
X137809000Y-84360000D02*
X137809000Y-88745000D01*
X140829000Y-84360000D02*
X137809000Y-84360000D01*
X140829000Y-88745000D02*
X140829000Y-84360000D01*
%TO.C,D2*%
X159730000Y-117509000D02*
X159730000Y-117665000D01*
X159730000Y-119825000D02*
X159730000Y-119981000D01*
X159730000Y-117509484D02*
G75*
G02*
X162961397Y-117664939I1560000J-1235516D01*
G01*
X160249039Y-117665000D02*
G75*
G02*
X162330910Y-117664951I1040961J-1080000D01*
G01*
X162330910Y-119825049D02*
G75*
G02*
X160249039Y-119825000I-1040910J1080049D01*
G01*
X162961397Y-119825061D02*
G75*
G02*
X159730000Y-119980516I-1671397J1080061D01*
G01*
%TO.C,C15*%
X141365000Y-67682500D02*
X141365000Y-72067500D01*
X144385000Y-67682500D02*
X141365000Y-67682500D01*
X144385000Y-72067500D02*
X144385000Y-67682500D01*
%TO.C,JP2*%
X126305000Y-54670000D02*
X126305000Y-53340000D01*
X127635000Y-54670000D02*
X126305000Y-54670000D01*
X128905000Y-52010000D02*
X134045000Y-52010000D01*
X128905000Y-54670000D02*
X128905000Y-52010000D01*
X128905000Y-54670000D02*
X134045000Y-54670000D01*
X134045000Y-54670000D02*
X134045000Y-52010000D01*
%TO.C,C3*%
X157380000Y-76865000D02*
X157380000Y-81805000D01*
X157695000Y-76865000D02*
X157380000Y-76865000D01*
X157695000Y-81805000D02*
X157380000Y-81805000D01*
X160120000Y-76865000D02*
X159805000Y-76865000D01*
X160120000Y-76865000D02*
X160120000Y-81805000D01*
X160120000Y-81805000D02*
X159805000Y-81805000D01*
%TO.C,C4*%
X157380000Y-61665000D02*
X157380000Y-66605000D01*
X157695000Y-61665000D02*
X157380000Y-61665000D01*
X157695000Y-66605000D02*
X157380000Y-66605000D01*
X160120000Y-61665000D02*
X159805000Y-61665000D01*
X160120000Y-61665000D02*
X160120000Y-66605000D01*
X160120000Y-66605000D02*
X159805000Y-66605000D01*
%TO.C,SW1*%
X114749000Y-125789000D02*
X123249000Y-125789000D01*
X123249000Y-117289000D01*
X114749000Y-117289000D01*
X114749000Y-125789000D01*
%TO.C,C13*%
X141365000Y-84360000D02*
X141365000Y-88745000D01*
X144385000Y-84360000D02*
X141365000Y-84360000D01*
X144385000Y-88745000D02*
X144385000Y-84360000D01*
%TO.C,U5*%
D11*
X135167000Y-54940000D02*
X157167000Y-54940000D01*
X157167000Y-43740000D01*
X135167000Y-43740000D01*
X135167000Y-54940000D01*
D12*
%TO.C,C6*%
X120550000Y-83215000D02*
X120550000Y-88155000D01*
X120865000Y-83215000D02*
X120550000Y-83215000D01*
X120865000Y-88155000D02*
X120550000Y-88155000D01*
X123290000Y-83215000D02*
X122975000Y-83215000D01*
X123290000Y-83215000D02*
X123290000Y-88155000D01*
X123290000Y-88155000D02*
X122975000Y-88155000D01*
%TO.C,C7*%
X120550000Y-69245000D02*
X120550000Y-74185000D01*
X120865000Y-69245000D02*
X120550000Y-69245000D01*
X120865000Y-74185000D02*
X120550000Y-74185000D01*
X123290000Y-69245000D02*
X122975000Y-69245000D01*
X123290000Y-69245000D02*
X123290000Y-74185000D01*
X123290000Y-74185000D02*
X122975000Y-74185000D01*
%TO.C,C1*%
X157380000Y-102305000D02*
X157380000Y-107245000D01*
X157695000Y-102305000D02*
X157380000Y-102305000D01*
X157695000Y-107245000D02*
X157380000Y-107245000D01*
X160120000Y-102305000D02*
X159805000Y-102305000D01*
X160120000Y-102305000D02*
X160120000Y-107245000D01*
X160120000Y-107245000D02*
X159805000Y-107245000D01*
%TO.C,R3*%
X150395000Y-101505000D02*
X150395000Y-108045000D01*
X150395000Y-108045000D02*
X150725000Y-108045000D01*
X150725000Y-101505000D02*
X150395000Y-101505000D01*
X152805000Y-101505000D02*
X153135000Y-101505000D01*
X153135000Y-101505000D02*
X153135000Y-108045000D01*
X153135000Y-108045000D02*
X152805000Y-108045000D01*
%TO.C,C2*%
X157380000Y-90835000D02*
X157380000Y-95775000D01*
X157695000Y-90835000D02*
X157380000Y-90835000D01*
X157695000Y-95775000D02*
X157380000Y-95775000D01*
X160120000Y-90835000D02*
X159805000Y-90835000D01*
X160120000Y-90835000D02*
X160120000Y-95775000D01*
X160120000Y-95775000D02*
X159805000Y-95775000D01*
%TO.C,J3*%
X149800000Y-127170000D02*
X149800000Y-129830000D01*
X149800000Y-129830000D02*
X165160000Y-129830000D01*
X150750000Y-126772929D02*
X150750000Y-127170000D01*
X150750000Y-135830000D02*
X150750000Y-129830000D01*
X151510000Y-126772929D02*
X151510000Y-127170000D01*
X151510000Y-129830000D02*
X151510000Y-135830000D01*
X151510000Y-135830000D02*
X150750000Y-135830000D01*
X152400000Y-127170000D02*
X152400000Y-129830000D01*
X153290000Y-126772929D02*
X153290000Y-127170000D01*
X153290000Y-135830000D02*
X153290000Y-129830000D01*
X154050000Y-126772929D02*
X154050000Y-127170000D01*
X154050000Y-129830000D02*
X154050000Y-135830000D01*
X154050000Y-135830000D02*
X153290000Y-135830000D01*
X154940000Y-127170000D02*
X154940000Y-129830000D01*
X155830000Y-126772929D02*
X155830000Y-127170000D01*
X155830000Y-135830000D02*
X155830000Y-129830000D01*
X156590000Y-126772929D02*
X156590000Y-127170000D01*
X156590000Y-129830000D02*
X156590000Y-135830000D01*
X156590000Y-135830000D02*
X155830000Y-135830000D01*
X157480000Y-127170000D02*
X157480000Y-129830000D01*
X158370000Y-126772929D02*
X158370000Y-127170000D01*
X158370000Y-135830000D02*
X158370000Y-129830000D01*
X159130000Y-126772929D02*
X159130000Y-127170000D01*
X159130000Y-129830000D02*
X159130000Y-135830000D01*
X159130000Y-135830000D02*
X158370000Y-135830000D01*
X160020000Y-127170000D02*
X160020000Y-129830000D01*
X160910000Y-126772929D02*
X160910000Y-127170000D01*
X160910000Y-135830000D02*
X160910000Y-129830000D01*
X161670000Y-126772929D02*
X161670000Y-127170000D01*
X161670000Y-129830000D02*
X161670000Y-135830000D01*
X161670000Y-135830000D02*
X160910000Y-135830000D01*
X162560000Y-127170000D02*
X162560000Y-129830000D01*
X163450000Y-126840000D02*
X163450000Y-127170000D01*
X163450000Y-135830000D02*
X163450000Y-129830000D01*
X163550000Y-129830000D02*
X163550000Y-135830000D01*
X163670000Y-129830000D02*
X163670000Y-135830000D01*
X163790000Y-129830000D02*
X163790000Y-135830000D01*
X163830000Y-124460000D02*
X165100000Y-124460000D01*
X163910000Y-129830000D02*
X163910000Y-135830000D01*
X164030000Y-129830000D02*
X164030000Y-135830000D01*
X164150000Y-129830000D02*
X164150000Y-135830000D01*
X164210000Y-126840000D02*
X164210000Y-127170000D01*
X164210000Y-129830000D02*
X164210000Y-135830000D01*
X164210000Y-135830000D02*
X163450000Y-135830000D01*
X165100000Y-124460000D02*
X165100000Y-125730000D01*
X165160000Y-127170000D02*
X149800000Y-127170000D01*
X165160000Y-129830000D02*
X165160000Y-127170000D01*
%TO.C,C5*%
X120550000Y-98455000D02*
X120550000Y-103395000D01*
X120865000Y-98455000D02*
X120550000Y-98455000D01*
X120865000Y-103395000D02*
X120550000Y-103395000D01*
X123290000Y-98455000D02*
X122975000Y-98455000D01*
X123290000Y-98455000D02*
X123290000Y-103395000D01*
X123290000Y-103395000D02*
X122975000Y-103395000D01*
%TO.C,J1*%
X129835000Y-130635000D02*
X130835000Y-130635000D01*
X130335000Y-129635000D02*
X129835000Y-130635000D01*
X130835000Y-130635000D02*
X130335000Y-129635000D01*
X125735000Y-129435000D02*
X146935000Y-129435000D01*
X146935000Y-123835000D01*
X125735000Y-123835000D01*
X125735000Y-129435000D01*
X126035000Y-129135000D02*
X146635000Y-129135000D01*
X146635000Y-124135000D01*
X126035000Y-124135000D01*
X126035000Y-129135000D01*
X134335000Y-129435000D02*
X138335000Y-129435000D01*
X138335000Y-129135000D01*
X134335000Y-129135000D01*
X134335000Y-129435000D01*
G36*
X134335000Y-129435000D02*
G01*
X138335000Y-129435000D01*
X138335000Y-129135000D01*
X134335000Y-129135000D01*
X134335000Y-129435000D01*
G37*
%TO.C,U1*%
X136925000Y-60980000D02*
X138185000Y-60980000D01*
X136925000Y-64740000D02*
X136925000Y-60980000D01*
X143745000Y-60980000D02*
X142485000Y-60980000D01*
X143745000Y-64740000D02*
X143745000Y-60980000D01*
X137025000Y-66020000D02*
X136695000Y-66260000D01*
X136695000Y-65780000D01*
X137025000Y-66020000D01*
G36*
X137025000Y-66020000D02*
G01*
X136695000Y-66260000D01*
X136695000Y-65780000D01*
X137025000Y-66020000D01*
G37*
%TO.C,JP1*%
X126305000Y-48955000D02*
X126305000Y-47625000D01*
X127635000Y-48955000D02*
X126305000Y-48955000D01*
X128905000Y-46295000D02*
X134045000Y-46295000D01*
X128905000Y-48955000D02*
X128905000Y-46295000D01*
X128905000Y-48955000D02*
X134045000Y-48955000D01*
X134045000Y-48955000D02*
X134045000Y-46295000D01*
%TO.C,SW2*%
X158310000Y-46042000D02*
X166810000Y-46042000D01*
X166810000Y-54542000D01*
X158310000Y-54542000D01*
X158310000Y-46042000D01*
%TO.C,R2*%
X151665000Y-58325000D02*
X151665000Y-64865000D01*
X151665000Y-64865000D02*
X151995000Y-64865000D01*
X151995000Y-58325000D02*
X151665000Y-58325000D01*
X154075000Y-58325000D02*
X154405000Y-58325000D01*
X154405000Y-58325000D02*
X154405000Y-64865000D01*
X154405000Y-64865000D02*
X154075000Y-64865000D01*
%TO.C,J2*%
X109215000Y-43405000D02*
X123915000Y-43405000D01*
X109215000Y-52605000D02*
X109215000Y-43405000D01*
X118015000Y-52605000D02*
X109215000Y-52605000D01*
X123065000Y-43205000D02*
X124115000Y-43205000D01*
X123915000Y-43405000D02*
X123915000Y-46005000D01*
X123915000Y-49905000D02*
X123915000Y-52605000D01*
X123915000Y-52605000D02*
X122015000Y-52605000D01*
X124115000Y-44255000D02*
X124115000Y-43205000D01*
%TO.C,U4*%
X117475000Y-55245000D02*
X163195000Y-55245000D01*
X163195000Y-113665000D01*
X117475000Y-113665000D01*
X117475000Y-55245000D01*
D11*
X131445000Y-56515000D02*
X133985000Y-56515000D01*
X133985000Y-112395000D01*
X131445000Y-112395000D01*
X131445000Y-56515000D01*
X146685000Y-56515000D02*
X149225000Y-56515000D01*
X149225000Y-112395000D01*
X146685000Y-112395000D01*
X146685000Y-56515000D01*
D12*
%TO.C,U3*%
X136925000Y-77465000D02*
X138185000Y-77465000D01*
X136925000Y-81225000D02*
X136925000Y-77465000D01*
X143745000Y-77465000D02*
X142485000Y-77465000D01*
X143745000Y-81225000D02*
X143745000Y-77465000D01*
X137025000Y-82505000D02*
X136695000Y-82745000D01*
X136695000Y-82265000D01*
X137025000Y-82505000D01*
G36*
X137025000Y-82505000D02*
G01*
X136695000Y-82745000D01*
X136695000Y-82265000D01*
X137025000Y-82505000D01*
G37*
%TD*%
M02*
