M48
; DRILL file {KiCad 8.0.7} date 2025-02-19T22:23:30-0600
; FORMAT={-:-/ absolute / inch / decimal}
; #@! TF.CreationDate,2025-02-19T22:23:30-06:00
; #@! TF.GenerationSoftware,Kicad,Pcbnew,8.0.7
; #@! TF.FileFunction,MixedPlating,1,2
FMAT,2
INCH
; #@! TA.AperFunction,Plated,PTH,ViaDrill
T1C0.0118
; #@! TA.AperFunction,Plated,PTH,ViaDrill
T2C0.0157
; #@! TA.AperFunction,Plated,PTH,ComponentDrill
T3C0.0300
; #@! TA.AperFunction,Plated,PTH,ComponentDrill
T4C0.0315
; #@! TA.AperFunction,Plated,PTH,ComponentDrill
T5C0.0354
; #@! TA.AperFunction,Plated,PTH,ComponentDrill
T6C0.0394
%
G90
G05
T1
X5.225Y-4.475
X5.2642Y-4.8
X5.365Y-4.725
X5.365Y-4.84
X5.415Y-3.09
X5.415Y-3.15
X5.425Y-2.45
X5.425Y-2.5
X5.45Y-4.425
X5.465Y-2.45
X5.465Y-2.5
X5.465Y-3.09
X5.465Y-3.15
X5.585Y-2.45
X5.585Y-2.5
X5.585Y-3.09
X5.585Y-3.15
X5.6Y-4.375
X5.635Y-2.45
X5.635Y-2.5
X5.635Y-3.09
X5.635Y-3.15
X5.655Y-4.84
X5.725Y-4.425
X5.755Y-4.8
X5.855Y-4.875
X6.07Y-4.525
X6.205Y-4.84
X6.305Y-4.875
X6.405Y-4.8
T2
X5.225Y-2.175
X5.4Y-2.65
X5.4Y-3.3
X5.485Y-2.875
X5.485Y-3.535
X5.625Y-2.875
X5.625Y-3.535
X6.085Y-2.96
X6.085Y-3.13
T3
X5.225Y-2.275
X5.225Y-2.375
X5.225Y-2.475
X5.225Y-2.575
X5.225Y-2.675
X5.225Y-2.775
X5.225Y-2.875
X5.225Y-2.975
X5.225Y-3.075
X5.225Y-3.175
X5.225Y-3.275
X5.225Y-3.375
X5.225Y-3.475
X5.225Y-3.575
X5.225Y-3.675
X5.225Y-3.775
X5.225Y-3.875
X5.225Y-3.975
X5.225Y-4.075
X5.225Y-4.175
X5.225Y-4.275
X5.225Y-4.375
X5.825Y-2.275
X5.825Y-2.375
X5.825Y-2.475
X5.825Y-2.575
X5.825Y-2.675
X5.825Y-2.775
X5.825Y-2.875
X5.825Y-2.975
X5.825Y-3.075
X5.825Y-3.175
X5.825Y-3.275
X5.825Y-3.375
X5.825Y-3.475
X5.825Y-3.575
X5.825Y-3.675
X5.825Y-3.775
X5.825Y-3.875
X5.825Y-3.975
X5.825Y-4.075
X5.825Y-4.175
X5.825Y-4.275
X5.825Y-4.375
T4
X4.8Y-2.325
X4.8Y-2.5219
X4.8Y-2.725
X4.8Y-2.9219
X4.8Y-3.275
X4.8Y-3.4719
X4.8Y-3.875
X4.8Y-4.0719
X5.075Y-3.975
X5.075Y-4.275
X5.1313Y-4.9463
X5.1313Y-5.025
X5.21Y-4.9463
X5.21Y-5.025
X5.2888Y-4.9463
X5.2888Y-5.025
X5.3675Y-4.9463
X5.3675Y-5.025
X5.4463Y-4.9463
X5.4463Y-5.025
X5.525Y-4.9463
X5.525Y-5.025
X5.6037Y-4.9463
X5.6037Y-5.025
X5.975Y-3.975
X5.975Y-4.275
X6.025Y-2.275
X6.025Y-2.575
X6.25Y-2.4266
X6.25Y-2.6234
X6.25Y-3.025
X6.25Y-3.2219
X6.25Y-3.575
X6.25Y-3.7719
X6.25Y-4.0266
X6.25Y-4.2234
T5
X4.975Y-4.675
X5.075Y-4.675
X6.3Y-4.675
X6.4Y-4.675
T6
X4.55Y-2.275
X4.55Y-2.375
X4.55Y-2.475
X4.55Y-2.575
X4.55Y-2.675
X4.55Y-2.775
X4.55Y-2.875
X4.55Y-2.975
X4.55Y-3.075
X4.55Y-3.175
X4.55Y-3.275
X4.55Y-3.375
X4.55Y-3.475
X4.55Y-3.575
X4.55Y-3.675
X4.55Y-3.775
X4.55Y-3.875
X4.55Y-3.975
X4.55Y-4.075
X4.55Y-4.175
X4.55Y-4.275
X4.5866Y-4.6767
X4.5866Y-4.8933
X4.65Y-2.275
X4.65Y-2.375
X4.65Y-2.475
X4.65Y-2.575
X4.65Y-2.675
X4.65Y-2.775
X4.65Y-2.875
X4.65Y-2.975
X4.65Y-3.075
X4.65Y-3.175
X4.65Y-3.275
X4.65Y-3.375
X4.65Y-3.475
X4.65Y-3.575
X4.65Y-3.675
X4.65Y-3.775
X4.65Y-3.875
X4.65Y-3.975
X4.65Y-4.075
X4.65Y-4.175
X4.65Y-4.275
X4.685Y-4.6767
X4.685Y-4.8933
X4.7834Y-4.6767
X4.7834Y-4.8933
X5.025Y-1.875
X5.025Y-2.1
X5.125Y-1.875
X5.125Y-2.1
X5.225Y-1.875
X5.225Y-2.1
X5.3963Y-1.9425
X5.3963Y-2.1
X5.5Y-4.625
X5.5Y-4.725
X5.6Y-4.625
X5.6Y-4.725
X5.7Y-4.625
X5.7Y-4.725
X5.8Y-4.625
X5.8Y-4.725
X5.9Y-4.625
X5.9Y-4.725
X5.95Y-4.95
X6.05Y-4.95
X6.105Y-1.785
X6.105Y-2.1
X6.15Y-4.95
X6.25Y-4.95
X6.2917Y-1.8816
X6.2917Y-1.98
X6.2917Y-2.0784
X6.35Y-4.95
X6.4Y-2.275
X6.4Y-2.375
X6.4Y-2.475
X6.4Y-2.575
X6.4Y-2.675
X6.4Y-2.775
X6.4Y-2.875
X6.4Y-2.975
X6.4Y-3.075
X6.4Y-3.175
X6.4Y-3.275
X6.4Y-3.375
X6.4Y-3.475
X6.4Y-3.575
X6.4Y-3.675
X6.4Y-3.775
X6.4Y-3.875
X6.4Y-3.975
X6.4Y-4.075
X6.4Y-4.175
X6.4Y-4.275
X6.45Y-4.95
X6.5Y-2.275
X6.5Y-2.375
X6.5Y-2.475
X6.5Y-2.575
X6.5Y-2.675
X6.5Y-2.775
X6.5Y-2.875
X6.5Y-2.975
X6.5Y-3.075
X6.5Y-3.175
X6.5Y-3.275
X6.5Y-3.375
X6.5Y-3.475
X6.5Y-3.575
X6.5Y-3.675
X6.5Y-3.775
X6.5Y-3.875
X6.5Y-3.975
X6.5Y-4.075
X6.5Y-4.175
X6.5Y-4.275
X6.5083Y-1.8816
X6.5083Y-1.98
X6.5083Y-2.0784
T6
G00X4.6069Y-1.8506
M15
G01X4.6069Y-1.9293
M16
G05
G00X4.6856Y-2.075
M15
G01X4.7644Y-2.075
M16
G05
G00X4.8431Y-1.8506
M15
G01X4.8431Y-1.9293
M16
G05
M30
